<svg xmlns="http://www.w3.org/2000/svg" viewBox="0 0 360 360"><defs><style>.cls-1{fill:#f2f2f2;}.cls-2{fill:#b3b3b3;}.cls-3{fill:gray;}.cls-4{fill:#333;}.cls-5{fill:#4d4d4d;}</style></defs><title>curved_rail_icon</title><g id="Warstwa_2" data-name="Warstwa 2"><g id="Warstwa_1-2" data-name="Warstwa 1"><rect class="cls-1" width="360" height="360" rx="20" ry="20"/><rect class="cls-2" x="95.12" y="205.2" width="10" height="10" transform="translate(-126.54 263.44) rotate(-77.75)"/><circle class="cls-3" cx="100.12" cy="210.2" r="4"/><rect class="cls-2" x="97.24" y="195.43" width="10" height="10" transform="translate(-115.32 257.82) rotate(-77.75)"/><circle class="cls-3" cx="102.24" cy="200.43" r="4"/><rect class="cls-2" x="109.97" y="136.79" width="10" height="10" transform="translate(-47.99 224.06) rotate(-77.75)"/><circle class="cls-3" cx="114.97" cy="141.79" r="4"/><rect class="cls-2" x="107.85" y="146.57" width="10" height="10" transform="translate(-59.21 229.69) rotate(-77.75)"/><circle class="cls-3" cx="112.85" cy="151.57" r="4"/><rect class="cls-2" x="99.36" y="185.66" width="10" height="10" transform="translate(-104.1 252.19) rotate(-77.75)"/><circle class="cls-3" cx="104.36" cy="190.66" r="4"/><rect class="cls-2" x="101.49" y="175.88" width="10" height="10" transform="translate(-92.87 246.57) rotate(-77.75)"/><circle class="cls-3" cx="106.49" cy="180.88" r="4"/><rect class="cls-2" x="103.61" y="166.11" width="10" height="10" transform="translate(-81.65 240.94) rotate(-77.75)"/><circle class="cls-3" cx="108.61" cy="171.11" r="4"/><rect class="cls-2" x="105.73" y="156.34" width="10" height="10" transform="translate(-70.43 235.31) rotate(-77.75)"/><circle class="cls-3" cx="110.73" cy="161.34" r="4"/><rect class="cls-4" x="107.85" y="146.57" width="10" height="10" transform="translate(34.73 -20.49) rotate(12.25)"/><rect class="cls-4" x="115.96" y="148.96" width="20" height="10" transform="translate(26.99 -18.59) rotate(9.45)"/><rect class="cls-4" x="134.11" y="151.52" width="20" height="10" transform="translate(19.1 -15.63) rotate(6.65)"/><rect class="cls-4" x="152.35" y="153.2" width="20" height="10" transform="translate(10.99 -10.54) rotate(3.85)"/><rect class="cls-4" x="170.66" y="153.98" width="20" height="10" transform="translate(2.94 -3.28) rotate(1.05)"/><rect class="cls-4" x="188.98" y="153.87" width="20" height="10" transform="translate(-4.76 6.15) rotate(-1.75)"/><rect class="cls-4" x="207.28" y="152.86" width="20" height="10" transform="translate(-11.84 17.73) rotate(-4.55)"/><rect class="cls-4" x="225.51" y="150.96" width="20" height="10" transform="translate(-18.02 31.41) rotate(-7.35)"/><rect class="cls-4" x="97.24" y="195.43" width="10" height="10" transform="translate(44.85 -17.13) rotate(12.25)"/><rect class="cls-4" x="105.98" y="198.29" width="23.73" height="10" transform="translate(34.98 -16.59) rotate(9.45)"/><rect class="cls-4" x="126.54" y="201.2" width="23.73" height="10" transform="translate(24.81 -14.64) rotate(6.65)"/><rect class="cls-4" x="147.22" y="203.09" width="23.73" height="10" transform="translate(14.33 -10.21) rotate(3.85)"/><rect class="cls-4" x="167.97" y="203.97" width="23.73" height="10" transform="translate(3.86 -3.26) rotate(1.05)"/><rect class="cls-4" x="188.74" y="203.84" width="23.73" height="10" transform="translate(-6.28 6.22) rotate(-1.75)"/><rect class="cls-4" x="209.47" y="202.7" width="23.73" height="10" transform="translate(-15.78 18.21) rotate(-4.55)"/><rect class="cls-4" x="230.13" y="200.54" width="23.73" height="10" transform="translate(-24.31 32.65) rotate(-7.35)"/><rect class="cls-2" x="127.38" y="210.56" width="10" height="10" transform="translate(-97.02 322.19) rotate(-83.37)"/><circle class="cls-3" cx="132.38" cy="215.56" r="4"/><rect class="cls-2" x="128.53" y="200.63" width="10" height="10" transform="translate(-86.13 314.55) rotate(-83.37)"/><circle class="cls-3" cx="133.53" cy="205.63" r="4"/><rect class="cls-2" x="135.45" y="141.03" width="10" height="10" transform="translate(-20.81 268.7) rotate(-83.37)"/><circle class="cls-3" cx="140.45" cy="146.03" r="4"/><rect class="cls-2" x="134.3" y="150.96" width="10" height="10" transform="translate(-31.69 276.34) rotate(-83.37)"/><circle class="cls-3" cx="139.3" cy="155.96" r="4"/><rect class="cls-2" x="129.69" y="190.7" width="10" height="10" transform="translate(-75.24 306.91) rotate(-83.37)"/><circle class="cls-3" cx="134.69" cy="195.7" r="4"/><rect class="cls-2" x="130.84" y="180.76" width="10" height="10" transform="translate(-64.36 299.26) rotate(-83.37)"/><circle class="cls-3" cx="135.84" cy="185.76" r="4"/><rect class="cls-2" x="131.99" y="170.83" width="10" height="10" transform="translate(-53.47 291.62) rotate(-83.37)"/><circle class="cls-3" cx="136.99" cy="175.83" r="4"/><rect class="cls-2" x="133.15" y="160.9" width="10" height="10" transform="translate(-42.58 283.98) rotate(-83.37)"/><circle class="cls-3" cx="138.15" cy="165.9" r="4"/><rect class="cls-2" x="137.31" y="211.72" width="10" height="10" transform="translate(-89.38 333.08) rotate(-83.37)"/><circle class="cls-3" cx="142.31" cy="216.72" r="4"/><rect class="cls-2" x="138.47" y="201.78" width="10" height="10" transform="translate(-78.49 325.43) rotate(-83.37)"/><circle class="cls-3" cx="143.47" cy="206.78" r="4"/><rect class="cls-2" x="145.39" y="142.18" width="10" height="10" transform="translate(-13.16 279.59) rotate(-83.37)"/><circle class="cls-3" cx="150.39" cy="147.18" r="4"/><rect class="cls-2" x="144.23" y="152.12" width="10" height="10" transform="translate(-24.05 287.23) rotate(-83.37)"/><circle class="cls-3" cx="149.23" cy="157.12" r="4"/><rect class="cls-2" x="139.62" y="191.85" width="10" height="10" transform="translate(-67.6 317.79) rotate(-83.37)"/><circle class="cls-3" cx="144.62" cy="196.85" r="4"/><rect class="cls-2" x="140.77" y="181.92" width="10" height="10" transform="translate(-56.71 310.15) rotate(-83.37)"/><circle class="cls-3" cx="145.77" cy="186.92" r="4"/><rect class="cls-2" x="141.93" y="171.98" width="10" height="10" transform="translate(-45.83 302.51) rotate(-83.37)"/><circle class="cls-3" cx="146.93" cy="176.98" r="4"/><rect class="cls-2" x="143.08" y="162.05" width="10" height="10" transform="translate(-34.94 294.87) rotate(-83.37)"/><circle class="cls-3" cx="148.08" cy="167.05" r="4"/><rect class="cls-4" x="134.27" y="151.54" width="20" height="10" transform="translate(19.02 -15.6) rotate(6.63)"/><rect class="cls-4" x="128.5" y="201.21" width="20" height="10" transform="translate(24.72 -14.6) rotate(6.63)"/><rect class="cls-2" x="169.94" y="213.89" width="10" height="10" transform="translate(-46.97 389.98) rotate(-89)"/><circle class="cls-3" cx="174.94" cy="218.89" r="4"/><rect class="cls-2" x="170.11" y="203.89" width="10" height="10" transform="translate(-36.8 380.34) rotate(-89)"/><circle class="cls-3" cx="175.11" cy="208.89" r="4"/><rect class="cls-2" x="171.16" y="143.9" width="10" height="10" transform="translate(24.21 322.44) rotate(-89)"/><circle class="cls-3" cx="176.16" cy="148.9" r="4"/><rect class="cls-2" x="170.99" y="153.9" width="10" height="10" transform="translate(14.04 332.09) rotate(-89)"/><circle class="cls-3" cx="175.99" cy="158.9" r="4"/><rect class="cls-2" x="170.29" y="193.89" width="10" height="10" transform="translate(-26.63 370.69) rotate(-89)"/><circle class="cls-3" cx="175.29" cy="198.89" r="4"/><rect class="cls-2" x="170.46" y="183.9" width="10" height="10" transform="translate(-16.47 361.04) rotate(-89)"/><circle class="cls-3" cx="175.46" cy="188.9" r="4"/><rect class="cls-2" x="170.64" y="173.9" width="10" height="10" transform="translate(-6.3 351.39) rotate(-89)"/><circle class="cls-3" cx="175.64" cy="178.9" r="4"/><rect class="cls-2" x="170.81" y="163.9" width="10" height="10" transform="translate(3.87 341.74) rotate(-89)"/><circle class="cls-3" cx="175.81" cy="168.9" r="4"/><rect class="cls-2" x="179.94" y="214.07" width="10" height="10" transform="matrix(0.02, -1, 1, 0.02, -37.32, 400.15)"/><circle class="cls-3" cx="184.94" cy="219.07" r="4"/><rect class="cls-2" x="180.11" y="204.07" width="10" height="10" transform="translate(-27.15 390.5) rotate(-89)"/><circle class="cls-3" cx="185.11" cy="209.07" r="4"/><rect class="cls-2" x="181.16" y="144.08" width="10" height="10" transform="translate(33.86 332.61) rotate(-89)"/><circle class="cls-3" cx="186.16" cy="149.08" r="4"/><rect class="cls-2" x="180.99" y="154.07" width="10" height="10" transform="translate(23.69 342.26) rotate(-89)"/><circle class="cls-3" cx="185.99" cy="159.07" r="4"/><rect class="cls-2" x="180.29" y="194.07" width="10" height="10" transform="translate(-16.98 380.85) rotate(-89)"/><circle class="cls-3" cx="185.29" cy="199.07" r="4"/><rect class="cls-2" x="180.46" y="184.07" width="10" height="10" transform="translate(-6.82 371.2) rotate(-89)"/><circle class="cls-3" cx="185.46" cy="189.07" r="4"/><rect class="cls-2" x="180.64" y="174.07" width="10" height="10" transform="translate(3.35 361.56) rotate(-89)"/><circle class="cls-3" cx="185.64" cy="179.07" r="4"/><rect class="cls-2" x="180.81" y="164.07" width="10" height="10" transform="translate(13.52 351.91) rotate(-89)"/><circle class="cls-3" cx="185.81" cy="169.07" r="4"/><rect class="cls-4" x="170.99" y="153.99" width="20" height="10" transform="translate(2.8 -3.13) rotate(1)"/><rect class="cls-4" x="170.11" y="203.98" width="20" height="10" transform="translate(3.67 -3.11) rotate(1)"/><rect class="cls-2" x="212.62" y="213.03" width="10" height="10" transform="translate(-16.87 18.26) rotate(-4.62)"/><circle class="cls-3" cx="217.62" cy="218.03" r="4"/><rect class="cls-2" x="211.82" y="203.06" width="10" height="10" transform="translate(-16.07 18.16) rotate(-4.62)"/><circle class="cls-3" cx="216.82" cy="208.06" r="4"/><rect class="cls-2" x="206.98" y="143.26" width="10" height="10" transform="translate(-11.26 17.58) rotate(-4.62)"/><circle class="cls-3" cx="211.98" cy="148.26" r="4"/><rect class="cls-2" x="207.79" y="153.23" width="10" height="10" transform="translate(-12.07 17.67) rotate(-4.62)"/><circle class="cls-3" cx="212.79" cy="158.23" r="4"/><rect class="cls-2" x="211.01" y="193.1" width="10" height="10" transform="translate(-15.27 18.06) rotate(-4.62)"/><circle class="cls-3" cx="216.01" cy="198.1" r="4"/><rect class="cls-2" x="210.2" y="183.13" width="10" height="10" transform="translate(-14.47 17.97) rotate(-4.62)"/><circle class="cls-3" cx="215.2" cy="188.13" r="4"/><rect class="cls-2" x="209.4" y="173.16" width="10" height="10" transform="translate(-13.67 17.87) rotate(-4.62)"/><circle class="cls-3" cx="214.4" cy="178.16" r="4"/><rect class="cls-2" x="208.59" y="163.19" width="10" height="10" transform="translate(-12.87 17.77) rotate(-4.62)"/><circle class="cls-3" cx="213.59" cy="168.19" r="4"/><rect class="cls-2" x="222.59" y="212.23" width="10" height="10" transform="translate(-16.77 19.06) rotate(-4.62)"/><circle class="cls-3" cx="227.59" cy="217.23" r="4"/><rect class="cls-2" x="221.78" y="202.26" width="10" height="10" transform="translate(-15.97 18.96) rotate(-4.62)"/><circle class="cls-3" cx="226.78" cy="207.26" r="4"/><rect class="cls-2" x="216.95" y="142.45" width="10" height="10" transform="translate(-11.17 18.38) rotate(-4.62)"/><circle class="cls-3" cx="221.95" cy="147.45" r="4"/><rect class="cls-2" x="217.75" y="152.42" width="10" height="10" transform="matrix(1, -0.08, 0.08, 1, -11.97, 18.47)"/><circle class="cls-3" cx="222.75" cy="157.42" r="4"/><rect class="cls-2" x="220.98" y="192.29" width="10" height="10" transform="translate(-15.17 18.86) rotate(-4.62)"/><circle class="cls-3" cx="225.98" cy="197.29" r="4"/><rect class="cls-2" x="220.17" y="182.32" width="10" height="10" transform="translate(-14.37 18.77) rotate(-4.62)"/><circle class="cls-3" cx="225.17" cy="187.32" r="4"/><rect class="cls-2" x="219.37" y="172.36" width="10" height="10" transform="translate(-13.57 18.67) rotate(-4.62)"/><circle class="cls-3" cx="224.37" cy="177.36" r="4"/><rect class="cls-2" x="218.56" y="162.39" width="10" height="10" transform="translate(-12.77 18.57) rotate(-4.62)"/><circle class="cls-3" cx="223.56" cy="167.39" r="4"/><rect class="cls-4" x="207.77" y="152.82" width="20" height="10" transform="translate(-12.02 18.07) rotate(-4.62)"/><rect class="cls-4" x="211.8" y="202.66" width="20" height="10" transform="translate(-16.02 18.56) rotate(-4.62)"/><rect class="cls-2" x="255.02" y="207.99" width="10" height="10" transform="translate(-33.75 49.67) rotate(-10.25)"/><circle class="cls-3" cx="260.02" cy="212.99" r="4"/><rect class="cls-2" x="253.24" y="198.15" width="10" height="10" transform="translate(-32.03 49.19) rotate(-10.25)"/><circle class="cls-3" cx="258.24" cy="203.15" r="4"/><rect class="cls-2" x="242.56" y="139.11" width="10" height="10" transform="translate(-21.69 46.35) rotate(-10.25)"/><circle class="cls-3" cx="247.56" cy="144.11" r="4"/><rect class="cls-2" x="244.34" y="148.95" width="10" height="10" transform="translate(-23.42 46.83) rotate(-10.25)"/><circle class="cls-3" cx="249.34" cy="153.95" r="4"/><rect class="cls-2" x="251.46" y="188.31" width="10" height="10" transform="translate(-30.31 48.72) rotate(-10.25)"/><circle class="cls-3" cx="256.46" cy="193.31" r="4"/><rect class="cls-2" x="249.68" y="178.47" width="10" height="10" transform="translate(-28.58 48.25) rotate(-10.25)"/><circle class="cls-3" cx="254.68" cy="183.47" r="4"/><rect class="cls-2" x="247.9" y="168.63" width="10" height="10" transform="translate(-26.86 47.77) rotate(-10.25)"/><circle class="cls-3" cx="252.9" cy="173.63" r="4"/><rect class="cls-2" x="246.12" y="158.79" width="10" height="10" transform="translate(-25.14 47.3) rotate(-10.25)"/><circle class="cls-3" cx="251.12" cy="163.79" r="4"/><rect class="cls-4" x="244.34" y="148.95" width="10" height="10" transform="translate(-23.42 46.83) rotate(-10.25)"/><rect class="cls-4" x="253.24" y="198.15" width="10" height="10" transform="translate(-32.03 49.19) rotate(-10.25)"/><rect class="cls-5" x="110.08" y="135.84" width="1" height="10" transform="translate(32.4 -20.25) rotate(12.25)"/><rect class="cls-5" x="105.83" y="155.38" width="1" height="10" transform="translate(36.45 -18.91) rotate(12.25)"/><rect class="cls-5" x="103.71" y="165.16" width="1" height="10" transform="translate(38.48 -18.24) rotate(12.25)"/><rect class="cls-5" x="101.59" y="174.93" width="1" height="10" transform="translate(40.5 -17.56) rotate(12.25)"/><rect class="cls-5" x="99.47" y="184.7" width="1" height="10" transform="translate(42.53 -16.89) rotate(12.25)"/><rect class="cls-5" x="95.22" y="204.25" width="1" height="10" transform="translate(46.58 -15.55) rotate(12.25)"/><rect class="cls-5" x="251.48" y="138.31" width="1" height="10" transform="translate(-21.48 47.13) rotate(-10.25)"/><rect class="cls-5" x="255.04" y="157.99" width="1" height="10" transform="translate(-24.92 48.07) rotate(-10.25)"/><rect class="cls-5" x="256.82" y="167.83" width="1" height="10" transform="translate(-26.65 48.55) rotate(-10.25)"/><rect class="cls-5" x="258.6" y="177.67" width="1" height="10" transform="translate(-28.37 49.02) rotate(-10.25)"/><rect class="cls-5" x="260.38" y="187.51" width="1" height="10" transform="translate(-30.09 49.49) rotate(-10.25)"/><rect class="cls-5" x="263.94" y="207.19" width="1" height="10" transform="translate(-33.54 50.44) rotate(-10.25)"/></g></g></svg>