<svg xmlns="http://www.w3.org/2000/svg" viewBox="0 0 360 360"><defs><style>.cls-1{fill:#f2f2f2;}.cls-2{fill:#b3b3b3;}.cls-3{fill:gray;}.cls-4{fill:#333;}.cls-5{fill:#4d4d4d;}</style></defs><title>double_flex_rail_icon</title><g id="Warstwa_2" data-name="Warstwa 2"><g id="Warstwa_1-2" data-name="Warstwa 1"><rect class="cls-1" width="360" height="360" rx="20" ry="20"/><rect class="cls-2" x="140" y="210" width="10" height="10"/><circle class="cls-3" cx="145" cy="215" r="4"/><rect class="cls-2" x="140" y="140" width="10" height="10"/><circle class="cls-3" cx="145" cy="145" r="4"/><rect class="cls-2" x="140" y="190" width="10" height="10"/><circle class="cls-3" cx="145" cy="195" r="4"/><rect class="cls-2" x="140" y="180" width="10" height="10"/><circle class="cls-3" cx="145" cy="185" r="4"/><rect class="cls-2" x="140" y="170" width="10" height="10"/><circle class="cls-3" cx="145" cy="175" r="4"/><rect class="cls-2" x="140" y="160" width="10" height="10"/><circle class="cls-3" cx="145" cy="165" r="4"/><rect class="cls-2" x="170" y="210" width="10" height="10"/><circle class="cls-3" cx="175" cy="215" r="4"/><rect class="cls-2" x="170" y="140" width="10" height="10"/><circle class="cls-3" cx="175" cy="145" r="4"/><rect class="cls-2" x="170" y="190" width="10" height="10"/><circle class="cls-3" cx="175" cy="195" r="4"/><rect class="cls-2" x="170" y="180" width="10" height="10"/><circle class="cls-3" cx="175" cy="185" r="4"/><rect class="cls-2" x="170" y="170" width="10" height="10"/><circle class="cls-3" cx="175" cy="175" r="4"/><rect class="cls-2" x="170" y="160" width="10" height="10"/><circle class="cls-3" cx="175" cy="165" r="4"/><rect class="cls-2" x="180" y="210" width="10" height="10"/><circle class="cls-3" cx="185" cy="215" r="4"/><rect class="cls-2" x="180" y="140" width="10" height="10"/><circle class="cls-3" cx="185" cy="145" r="4"/><rect class="cls-2" x="180" y="190" width="10" height="10"/><circle class="cls-3" cx="185" cy="195" r="4"/><rect class="cls-2" x="180" y="180" width="10" height="10"/><circle class="cls-3" cx="185" cy="185" r="4"/><rect class="cls-2" x="180" y="170" width="10" height="10"/><circle class="cls-3" cx="185" cy="175" r="4"/><rect class="cls-2" x="180" y="160" width="10" height="10"/><circle class="cls-3" cx="185" cy="165" r="4"/><rect class="cls-2" x="210" y="210" width="10" height="10"/><circle class="cls-3" cx="215" cy="215" r="4"/><rect class="cls-2" x="210" y="140" width="10" height="10"/><circle class="cls-3" cx="215" cy="145" r="4"/><rect class="cls-2" x="210" y="190" width="10" height="10"/><circle class="cls-3" cx="215" cy="195" r="4"/><rect class="cls-2" x="210" y="180" width="10" height="10"/><circle class="cls-3" cx="215" cy="185" r="4"/><rect class="cls-2" x="210" y="170" width="10" height="10"/><circle class="cls-3" cx="215" cy="175" r="4"/><rect class="cls-2" x="210" y="160" width="10" height="10"/><circle class="cls-3" cx="215" cy="165" r="4"/><rect class="cls-4" x="140" y="150" width="80" height="10"/><rect class="cls-4" x="140" y="200" width="80" height="10"/><rect class="cls-5" x="219" y="210" width="1" height="10"/><rect class="cls-5" x="219" y="190" width="1" height="10"/><rect class="cls-5" x="219" y="180" width="1" height="10"/><rect class="cls-5" x="219" y="170" width="1" height="10"/><rect class="cls-5" x="219" y="160" width="1" height="10"/><rect class="cls-5" x="219" y="140" width="1" height="10"/><rect class="cls-5" x="140" y="140" width="1" height="10"/><rect class="cls-5" x="179" y="140" width="1" height="10"/><rect class="cls-5" x="179" y="160" width="1" height="10"/><rect class="cls-5" x="180" y="170" width="1" height="10"/><rect class="cls-5" x="180" y="180" width="1" height="10"/><rect class="cls-5" x="180" y="190" width="1" height="10"/><rect class="cls-5" x="180" y="210" width="1" height="10"/><rect class="cls-5" x="179" y="180" width="1" height="10"/><rect class="cls-5" x="179" y="190" width="1" height="10"/><rect class="cls-5" x="179" y="210" width="1" height="10"/><rect class="cls-5" x="179" y="170" width="1" height="10"/><rect class="cls-5" x="180" y="140" width="1" height="10"/><rect class="cls-5" x="180" y="160" width="1" height="10"/><rect class="cls-5" x="140" y="160" width="1" height="10"/><rect class="cls-5" x="140" y="170" width="1" height="10"/><rect class="cls-5" x="140" y="180" width="1" height="10"/><rect class="cls-5" x="140" y="190" width="1" height="10"/><rect class="cls-5" x="140" y="210" width="1" height="10"/></g></g></svg>