<svg xmlns="http://www.w3.org/2000/svg" viewBox="0 0 360 360"><defs><style>.cls-1{fill:#f2f2f2;}.cls-2{fill:#b3b3b3;}.cls-3{fill:gray;}.cls-4{fill:#333;}.cls-5{fill:#4d4d4d;}</style></defs><title>flex_rail_icon</title><g id="Warstwa_2" data-name="Warstwa 2"><g id="Warstwa_1-2" data-name="Warstwa 1"><rect class="cls-1" width="360" height="360" rx="20" ry="20"/><rect class="cls-2" x="160" y="210" width="10" height="10"/><circle class="cls-3" cx="165" cy="215" r="4"/><rect class="cls-2" x="160" y="140" width="10" height="10"/><circle class="cls-3" cx="165" cy="145" r="4"/><rect class="cls-2" x="160" y="190" width="10" height="10"/><circle class="cls-3" cx="165" cy="195" r="4"/><rect class="cls-2" x="160" y="180" width="10" height="10"/><circle class="cls-3" cx="165" cy="185" r="4"/><rect class="cls-2" x="160" y="170" width="10" height="10"/><circle class="cls-3" cx="165" cy="175" r="4"/><rect class="cls-2" x="160" y="160" width="10" height="10"/><circle class="cls-3" cx="165" cy="165" r="4"/><rect class="cls-2" x="190" y="210" width="10" height="10"/><circle class="cls-3" cx="195" cy="215" r="4"/><rect class="cls-2" x="190" y="140" width="10" height="10"/><circle class="cls-3" cx="195" cy="145" r="4"/><rect class="cls-2" x="190" y="190" width="10" height="10"/><circle class="cls-3" cx="195" cy="195" r="4"/><rect class="cls-2" x="190" y="180" width="10" height="10"/><circle class="cls-3" cx="195" cy="185" r="4"/><rect class="cls-2" x="190" y="170" width="10" height="10"/><circle class="cls-3" cx="195" cy="175" r="4"/><rect class="cls-2" x="190" y="160" width="10" height="10"/><circle class="cls-3" cx="195" cy="165" r="4"/><rect class="cls-4" x="160" y="150" width="40" height="10"/><rect class="cls-4" x="160" y="200" width="40" height="10"/><rect class="cls-5" x="199" y="140" width="1" height="10"/><rect class="cls-5" x="199" y="210" width="1" height="10"/><rect class="cls-5" x="199" y="180" width="1" height="10"/><rect class="cls-5" x="160" y="180" width="1" height="10"/><rect class="cls-5" x="199" y="170" width="1" height="10"/><rect class="cls-5" x="160" y="170" width="1" height="10"/><rect class="cls-5" x="199" y="160" width="1" height="10"/><rect class="cls-5" x="160" y="160" width="1" height="10"/><rect class="cls-5" x="199" y="190" width="1" height="10"/><rect class="cls-5" x="160" y="190" width="1" height="10"/><rect class="cls-5" x="160" y="210" width="1" height="10"/><rect class="cls-5" x="160" y="140" width="1" height="10"/></g></g></svg>