<svg xmlns="http://www.w3.org/2000/svg" viewBox="0 0 360 360"><defs><style>.cls-1{fill:#f2f2f2;}.cls-2{fill:#009245;}.cls-3{fill:#ccc;}.cls-4{fill:#6e6e6e;}.cls-5{fill:#333;}.cls-6{fill:#c1272d;}.cls-7{fill:#ed1c24;}.cls-8{fill:#fff;}.cls-9{fill:#1a1a1a;}</style></defs><title>icon_menu_station_small</title><g id="Warstwa_2" data-name="Warstwa 2"><g id="Icons"><rect class="cls-1" width="360" height="360" rx="20" ry="20"/></g><g id="small_lines"><rect class="cls-2" x="35" y="110" width="40" height="40"/><rect class="cls-2" x="155" y="210" width="40" height="40"/><rect class="cls-3" x="75" y="90" width="80" height="60"/><rect class="cls-3" x="75" y="210" width="80" height="60"/><rect class="cls-3" x="75" y="160" width="80" height="40"/><rect class="cls-4" x="165" y="90" width="160" height="40"/><rect class="cls-5" x="305" y="130" width="20" height="20"/><rect class="cls-5" x="225" y="130" width="20" height="20"/><rect class="cls-4" x="165" y="240" width="20" height="20"/><rect class="cls-5" x="165" y="250" width="20" height="10"/><path class="cls-6" d="M285,90h20a0,0,0,0,1,0,0v18a2,2,0,0,1-2,2H287a2,2,0,0,1-2-2V90A0,0,0,0,1,285,90Z"/><path class="cls-6" d="M245,90h20a0,0,0,0,1,0,0v18a2,2,0,0,1-2,2H247a2,2,0,0,1-2-2V90A0,0,0,0,1,245,90Z"/><path class="cls-7" d="M171,260h8a0,0,0,0,1,0,0v0a4,4,0,0,1-4,4h0a4,4,0,0,1-4-4v0a0,0,0,0,1,0,0Z"/><rect class="cls-4" x="45" y="100" width="20" height="20" transform="translate(110 220) rotate(180)"/><rect class="cls-5" x="45" y="100" width="20" height="10" transform="translate(110 210) rotate(180)"/><path class="cls-7" d="M51,96h8a0,0,0,0,1,0,0v0a4,4,0,0,1-4,4h0a4,4,0,0,1-4-4v0A0,0,0,0,1,51,96Z" transform="translate(110 196) rotate(180)"/><rect class="cls-8" x="165" y="90" width="40" height="12.5"/><path class="cls-9" d="M155,150V90H75v20H65V100H59a4,4,0,0,0-8,0H45v10H35v40H155ZM75.5,90.5h79v59h-79ZM55,96.5a3.5,3.5,0,0,1,3.5,3.5h-7A3.5,3.5,0,0,1,55,96.5Zm-9.5,4h19v9h-19Zm0,10h19v9h-19Zm29,39h-39v-39H45V120H65v-9.5h9.5Z"/><path class="cls-9" d="M75,210v60h80V250h10v10h6a4,4,0,0,0,8,0h6V250h10V210H75Zm79.5,59.5h-79v-59h79Zm20.5-6a3.5,3.5,0,0,1-3.5-3.5h7A3.5,3.5,0,0,1,175,263.5Zm9.5-4h-19v-9h19Zm0-10h-19v-9h19Zm-29-39h39v39H185V240H165v9.5h-9.5Z"/><path class="cls-9" d="M75,170v30h80V160H75Zm79.5,29.5h-79v-9h79Zm0-19v9h-79v-9Zm0-10v9h-79v-9Zm-79-10h79v9h-79Z"/><path class="cls-9" d="M315,90H165v40h60v20h20V130h60v20h20V90Zm9.5.5v39h-9v-39Zm-20,0V108a1.5,1.5,0,0,1-1.5,1.5H287a1.5,1.5,0,0,1-1.5-1.5V90.5Zm-40,0V108a1.5,1.5,0,0,1-1.5,1.5H247a1.5,1.5,0,0,1-1.5-1.5V90.5Zm-30,0v39h-9v-39Zm-69,0h39v9h-39Zm39,9.5v2h-39v-2Zm-39,29.5v-27H205v-12h20v39Zm79,20h-19v-19h19Zm-9.5-20v-39h10V108a2,2,0,0,0,.5,1.31l.19.19a2,2,0,0,0,1.31.5h16a2,2,0,0,0,1.31-.5l.19-.19A2,2,0,0,0,265,108V90.5h20V108a2,2,0,0,0,.5,1.31l.19.19a2,2,0,0,0,1.31.5h16a2,2,0,0,0,1.31-.5l.19-.19A2,2,0,0,0,305,108V90.5h10v39Zm89.5,20h-19v-19h19Z"/></g></g></svg>