<svg xmlns="http://www.w3.org/2000/svg" viewBox="0 0 24 24"><defs><style>.cls-1{fill:none;}</style></defs><title>icon_bar_rotate_toggle</title><g id="Warstwa_2" data-name="Warstwa 2"><g id="Icons"><rect class="cls-1" width="24" height="24"/><path d="M17.84,8.15a7,7,0,0,1,0,7.7.5.5,0,0,0,.05.63l.72.72a.5.5,0,0,0,.77-.06,9,9,0,0,0,0-10.28.5.5,0,0,0-.77-.06l-.72.72A.5.5,0,0,0,17.84,8.15Z"/><path d="M8.15,6.16a7,7,0,0,1,7.7,0,.5.5,0,0,0,.63,0l.72-.73a.5.5,0,0,0-.05-.76,9,9,0,0,0-10.3,0,.5.5,0,0,0,0,.76l.72.73A.5.5,0,0,0,8.15,6.16Z"/><path d="M6.16,15.85a7,7,0,0,1,0-7.7.5.5,0,0,0,0-.63L5.38,6.8a.5.5,0,0,0-.76,0,9,9,0,0,0,0,10.3.5.5,0,0,0,.76.05l.73-.72A.5.5,0,0,0,6.16,15.85Z"/><path d="M15.86,17.83a7,7,0,0,1-7.72,0,.47.47,0,0,0-.61.06l-.74.74a.49.49,0,0,0,0,.74,9,9,0,0,0,10.32,0,.49.49,0,0,0,.05-.74l-.74-.74A.47.47,0,0,0,15.86,17.83Z"/><path d="M12,9a3,3,0,1,0,3,3A3,3,0,0,0,12,9Zm0,4a1,1,0,1,1,1-1A1,1,0,0,1,12,13Z"/></g></g></svg>