<svg xmlns="http://www.w3.org/2000/svg" viewBox="0 0 360 360"><defs><style>.cls-1{fill:#f2f2f2;}.cls-2{fill:#6e6e6e;}.cls-3{fill:#ccc;}.cls-4{fill:#c1272d;}.cls-5{fill:#1a1a1a;}.cls-6{fill:#ffcf1f;}.cls-7{fill:#333;}.cls-8{fill:#666;}</style></defs><title>icon_menu_station_freight</title><g id="Warstwa_2" data-name="Warstwa 2"><g id="Icons"><rect class="cls-1" width="360" height="360" rx="20" ry="20"/></g><g id="freight_lines"><rect class="cls-2" x="20" y="45" width="320" height="160"/><rect class="cls-2" x="14" y="45" width="4" height="20"/><rect class="cls-3" x="18" y="45" width="2" height="20"/><rect class="cls-2" x="342" y="45" width="4" height="20" transform="translate(688 110) rotate(-180)"/><rect class="cls-3" x="340" y="45" width="2" height="20" transform="translate(682 110) rotate(-180)"/><rect class="cls-2" x="50" y="195" width="20" height="20"/><rect class="cls-2" x="90" y="195" width="20" height="20"/><rect class="cls-2" x="90" y="285" width="20" height="20"/><rect class="cls-2" x="170" y="285" width="20" height="20"/><rect class="cls-2" x="250" y="285" width="20" height="20"/><rect class="cls-2" x="130" y="195" width="20" height="20"/><rect class="cls-2" x="170" y="195" width="20" height="20"/><rect class="cls-2" x="210" y="195" width="20" height="20"/><rect class="cls-2" x="250" y="195" width="20" height="20"/><rect class="cls-2" x="290" y="195" width="20" height="20"/><rect class="cls-4" x="40" y="65" width="10" height="40"/><rect class="cls-3" x="50" y="65" width="5.5" height="40"/><rect class="cls-4" x="130" y="65" width="10" height="40" transform="translate(270 170) rotate(-180)"/><rect class="cls-3" x="124.5" y="65" width="5.5" height="40" transform="translate(254.5 170) rotate(-180)"/><rect class="cls-5" x="21.5" y="47.5" width="0.5" height="5"/><rect class="cls-5" x="23.5" y="47.5" width="0.5" height="5"/><rect class="cls-5" x="25.5" y="47.5" width="0.5" height="5"/><rect class="cls-5" x="27.5" y="47.5" width="0.5" height="5"/><rect class="cls-5" x="29.5" y="47.5" width="0.5" height="5"/><rect class="cls-5" x="31.5" y="47.5" width="0.5" height="5"/><rect class="cls-5" x="33.5" y="47.5" width="0.5" height="5"/><rect class="cls-5" x="35.5" y="47.5" width="0.5" height="5"/><rect class="cls-5" x="37.5" y="47.5" width="0.5" height="5"/><rect class="cls-5" x="39.5" y="47.5" width="0.5" height="5"/><rect class="cls-5" x="41.5" y="47.5" width="0.5" height="5"/><rect class="cls-5" x="43.5" y="47.5" width="0.5" height="5"/><rect class="cls-5" x="45.5" y="47.5" width="0.5" height="5"/><rect class="cls-5" x="47.5" y="47.5" width="0.5" height="5"/><rect class="cls-5" x="49.5" y="47.5" width="0.5" height="5"/><rect class="cls-5" x="51.5" y="47.5" width="0.5" height="5"/><rect class="cls-5" x="53.5" y="47.5" width="0.5" height="5"/><rect class="cls-5" x="55.5" y="47.5" width="0.5" height="5"/><rect class="cls-5" x="57.5" y="47.5" width="0.5" height="5"/><rect class="cls-5" x="59.5" y="47.5" width="0.5" height="5"/><rect class="cls-5" x="61.5" y="47.5" width="0.5" height="5"/><rect class="cls-5" x="63.5" y="47.5" width="0.5" height="5"/><rect class="cls-5" x="65.5" y="47.5" width="0.5" height="5"/><rect class="cls-5" x="67.5" y="47.5" width="0.5" height="5"/><rect class="cls-5" x="69.5" y="47.5" width="0.5" height="5"/><rect class="cls-5" x="71.5" y="47.5" width="0.5" height="5"/><rect class="cls-5" x="73.5" y="47.5" width="0.5" height="5"/><rect class="cls-5" x="75.5" y="47.5" width="0.5" height="5"/><rect class="cls-5" x="77.5" y="47.5" width="0.5" height="5"/><rect class="cls-5" x="79.5" y="47.5" width="0.5" height="5"/><rect class="cls-5" x="81.5" y="47.5" width="0.5" height="5"/><rect class="cls-5" x="83.5" y="47.5" width="0.5" height="5"/><rect class="cls-5" x="85.5" y="47.5" width="0.5" height="5"/><rect class="cls-5" x="87.5" y="47.5" width="0.5" height="5"/><rect class="cls-5" x="89.5" y="47.5" width="0.5" height="5"/><rect class="cls-5" x="91.5" y="47.5" width="0.5" height="5"/><rect class="cls-5" x="93.5" y="47.5" width="0.5" height="5"/><rect class="cls-5" x="95.5" y="47.5" width="0.5" height="5"/><rect class="cls-5" x="97.5" y="47.5" width="0.5" height="5"/><rect class="cls-5" x="99.5" y="47.5" width="0.5" height="5"/><rect class="cls-5" x="101.5" y="47.5" width="0.5" height="5"/><rect class="cls-5" x="103.5" y="47.5" width="0.5" height="5"/><rect class="cls-5" x="105.5" y="47.5" width="0.5" height="5"/><rect class="cls-5" x="107.5" y="47.5" width="0.5" height="5"/><rect class="cls-5" x="109.5" y="47.5" width="0.5" height="5"/><rect class="cls-5" x="111.5" y="47.5" width="0.5" height="5"/><rect class="cls-5" x="113.5" y="47.5" width="0.5" height="5"/><rect class="cls-5" x="115.5" y="47.5" width="0.5" height="5"/><rect class="cls-5" x="117.5" y="47.5" width="0.5" height="5"/><rect class="cls-5" x="119.5" y="47.5" width="0.5" height="5"/><rect class="cls-5" x="121.5" y="47.5" width="0.5" height="5"/><rect class="cls-5" x="123.5" y="47.5" width="0.5" height="5"/><rect class="cls-5" x="125.5" y="47.5" width="0.5" height="5"/><rect class="cls-5" x="127.5" y="47.5" width="0.5" height="5"/><rect class="cls-5" x="129.5" y="47.5" width="0.5" height="5"/><rect class="cls-5" x="131.5" y="47.5" width="0.5" height="5"/><rect class="cls-5" x="133.5" y="47.5" width="0.5" height="5"/><rect class="cls-5" x="135.5" y="47.5" width="0.5" height="5"/><rect class="cls-5" x="137.5" y="47.5" width="0.5" height="5"/><rect class="cls-5" x="139.5" y="47.5" width="0.5" height="5"/><rect class="cls-5" x="141.5" y="47.5" width="0.5" height="5"/><rect class="cls-5" x="143.5" y="47.5" width="0.5" height="5"/><rect class="cls-5" x="145.5" y="47.5" width="0.5" height="5"/><rect class="cls-5" x="147.5" y="47.5" width="0.5" height="5"/><rect class="cls-5" x="149.5" y="47.5" width="0.5" height="5"/><rect class="cls-5" x="151.5" y="47.5" width="0.5" height="5"/><rect class="cls-5" x="153.5" y="47.5" width="0.5" height="5"/><rect class="cls-5" x="155.5" y="47.5" width="0.5" height="5"/><rect class="cls-5" x="157.5" y="47.5" width="0.5" height="5"/><rect class="cls-5" x="159.5" y="47.5" width="0.5" height="5"/><rect class="cls-5" x="161.5" y="47.5" width="0.5" height="5"/><rect class="cls-5" x="163.5" y="47.5" width="0.5" height="5"/><rect class="cls-5" x="165.5" y="47.5" width="0.5" height="5"/><rect class="cls-5" x="167.5" y="47.5" width="0.5" height="5"/><rect class="cls-5" x="169.5" y="47.5" width="0.5" height="5"/><rect class="cls-5" x="171.5" y="47.5" width="0.5" height="5"/><rect class="cls-5" x="173.5" y="47.5" width="0.5" height="5"/><rect class="cls-5" x="175.5" y="47.5" width="0.5" height="5"/><rect class="cls-5" x="177.5" y="47.5" width="0.5" height="5"/><rect class="cls-5" x="179.5" y="47.5" width="0.5" height="5"/><rect class="cls-5" x="181.5" y="47.5" width="0.5" height="5"/><rect class="cls-5" x="183.5" y="47.5" width="0.5" height="5"/><rect class="cls-5" x="185.5" y="47.5" width="0.5" height="5"/><rect class="cls-5" x="187.5" y="47.5" width="0.5" height="5"/><rect class="cls-5" x="189.5" y="47.5" width="0.5" height="5"/><rect class="cls-5" x="191.5" y="47.5" width="0.5" height="5"/><rect class="cls-5" x="193.5" y="47.5" width="0.5" height="5"/><rect class="cls-5" x="195.5" y="47.5" width="0.5" height="5"/><rect class="cls-5" x="197.5" y="47.5" width="0.5" height="5"/><rect class="cls-5" x="199.5" y="47.5" width="0.5" height="5"/><rect class="cls-5" x="201.5" y="47.5" width="0.5" height="5"/><rect class="cls-5" x="203.5" y="47.5" width="0.5" height="5"/><rect class="cls-5" x="205.5" y="47.5" width="0.5" height="5"/><rect class="cls-5" x="207.5" y="47.5" width="0.5" height="5"/><rect class="cls-5" x="209.5" y="47.5" width="0.5" height="5"/><rect class="cls-5" x="211.5" y="47.5" width="0.5" height="5"/><rect class="cls-5" x="213.5" y="47.5" width="0.5" height="5"/><rect class="cls-5" x="215.5" y="47.5" width="0.5" height="5"/><rect class="cls-5" x="217.5" y="47.5" width="0.5" height="5"/><rect class="cls-5" x="219.5" y="47.5" width="0.5" height="5"/><rect class="cls-5" x="221.5" y="47.5" width="0.5" height="5"/><rect class="cls-5" x="21.5" y="57.5" width="0.5" height="5"/><rect class="cls-5" x="23.5" y="57.5" width="0.5" height="5"/><rect class="cls-5" x="25.5" y="57.5" width="0.5" height="5"/><rect class="cls-5" x="27.5" y="57.5" width="0.5" height="5"/><rect class="cls-5" x="29.5" y="57.5" width="0.5" height="5"/><rect class="cls-5" x="31.5" y="57.5" width="0.5" height="5"/><rect class="cls-5" x="33.5" y="57.5" width="0.5" height="5"/><rect class="cls-5" x="35.5" y="57.5" width="0.5" height="5"/><rect class="cls-5" x="37.5" y="57.5" width="0.5" height="5"/><rect class="cls-5" x="39.5" y="57.5" width="0.5" height="5"/><rect class="cls-5" x="41.5" y="57.5" width="0.5" height="5"/><rect class="cls-5" x="43.5" y="57.5" width="0.5" height="5"/><rect class="cls-5" x="45.5" y="57.5" width="0.5" height="5"/><rect class="cls-5" x="47.5" y="57.5" width="0.5" height="5"/><rect class="cls-5" x="49.5" y="57.5" width="0.5" height="5"/><rect class="cls-5" x="51.5" y="57.5" width="0.5" height="5"/><rect class="cls-5" x="53.5" y="57.5" width="0.5" height="5"/><rect class="cls-5" x="55.5" y="57.5" width="0.5" height="5"/><rect class="cls-5" x="57.5" y="57.5" width="0.5" height="5"/><rect class="cls-5" x="59.5" y="57.5" width="0.5" height="5"/><rect class="cls-5" x="61.5" y="57.5" width="0.5" height="5"/><rect class="cls-5" x="63.5" y="57.5" width="0.5" height="5"/><rect class="cls-5" x="65.5" y="57.5" width="0.5" height="5"/><rect class="cls-5" x="67.5" y="57.5" width="0.5" height="5"/><rect class="cls-5" x="69.5" y="57.5" width="0.5" height="5"/><rect class="cls-5" x="71.5" y="57.5" width="0.5" height="5"/><rect class="cls-5" x="73.5" y="57.5" width="0.5" height="5"/><rect class="cls-5" x="75.5" y="57.5" width="0.5" height="5"/><rect class="cls-5" x="77.5" y="57.5" width="0.5" height="5"/><rect class="cls-5" x="79.5" y="57.5" width="0.5" height="5"/><rect class="cls-5" x="81.5" y="57.5" width="0.5" height="5"/><rect class="cls-5" x="83.5" y="57.5" width="0.5" height="5"/><rect class="cls-5" x="85.5" y="57.5" width="0.5" height="5"/><rect class="cls-5" x="87.5" y="57.5" width="0.5" height="5"/><rect class="cls-5" x="89.5" y="57.5" width="0.5" height="5"/><rect class="cls-5" x="91.5" y="57.5" width="0.5" height="5"/><rect class="cls-5" x="93.5" y="57.5" width="0.5" height="5"/><rect class="cls-5" x="95.5" y="57.5" width="0.5" height="5"/><rect class="cls-5" x="97.5" y="57.5" width="0.5" height="5"/><rect class="cls-5" x="99.5" y="57.5" width="0.5" height="5"/><rect class="cls-5" x="101.5" y="57.5" width="0.5" height="5"/><rect class="cls-5" x="103.5" y="57.5" width="0.5" height="5"/><rect class="cls-5" x="105.5" y="57.5" width="0.5" height="5"/><rect class="cls-5" x="107.5" y="57.5" width="0.5" height="5"/><rect class="cls-5" x="109.5" y="57.5" width="0.5" height="5"/><rect class="cls-5" x="111.5" y="57.5" width="0.5" height="5"/><rect class="cls-5" x="113.5" y="57.5" width="0.5" height="5"/><rect class="cls-5" x="115.5" y="57.5" width="0.5" height="5"/><rect class="cls-5" x="117.5" y="57.5" width="0.5" height="5"/><rect class="cls-5" x="119.5" y="57.5" width="0.5" height="5"/><rect class="cls-5" x="121.5" y="57.5" width="0.5" height="5"/><rect class="cls-5" x="123.5" y="57.5" width="0.5" height="5"/><rect class="cls-5" x="125.5" y="57.5" width="0.5" height="5"/><rect class="cls-5" x="127.5" y="57.5" width="0.5" height="5"/><rect class="cls-5" x="129.5" y="57.5" width="0.5" height="5"/><rect class="cls-5" x="131.5" y="57.5" width="0.5" height="5"/><rect class="cls-5" x="133.5" y="57.5" width="0.5" height="5"/><rect class="cls-5" x="135.5" y="57.5" width="0.5" height="5"/><rect class="cls-5" x="137.5" y="57.5" width="0.5" height="5"/><rect class="cls-5" x="139.5" y="57.5" width="0.5" height="5"/><rect class="cls-5" x="141.5" y="57.5" width="0.5" height="5"/><rect class="cls-5" x="143.5" y="57.5" width="0.5" height="5"/><rect class="cls-5" x="145.5" y="57.5" width="0.5" height="5"/><rect class="cls-5" x="147.5" y="57.5" width="0.5" height="5"/><rect class="cls-5" x="149.5" y="57.5" width="0.5" height="5"/><rect class="cls-5" x="151.5" y="57.5" width="0.5" height="5"/><rect class="cls-5" x="153.5" y="57.5" width="0.5" height="5"/><rect class="cls-5" x="155.5" y="57.5" width="0.5" height="5"/><rect class="cls-5" x="157.5" y="57.5" width="0.5" height="5"/><rect class="cls-5" x="159.5" y="57.5" width="0.5" height="5"/><rect class="cls-5" x="161.5" y="57.5" width="0.5" height="5"/><rect class="cls-5" x="163.5" y="57.5" width="0.5" height="5"/><rect class="cls-5" x="165.5" y="57.5" width="0.5" height="5"/><rect class="cls-5" x="167.5" y="57.5" width="0.5" height="5"/><rect class="cls-5" x="169.5" y="57.5" width="0.5" height="5"/><rect class="cls-5" x="171.5" y="57.5" width="0.5" height="5"/><rect class="cls-5" x="173.5" y="57.5" width="0.5" height="5"/><rect class="cls-5" x="175.5" y="57.5" width="0.5" height="5"/><rect class="cls-5" x="177.5" y="57.5" width="0.5" height="5"/><rect class="cls-5" x="179.5" y="57.5" width="0.5" height="5"/><rect class="cls-5" x="181.5" y="57.5" width="0.5" height="5"/><rect class="cls-5" x="183.5" y="57.5" width="0.5" height="5"/><rect class="cls-5" x="185.5" y="57.5" width="0.5" height="5"/><rect class="cls-5" x="187.5" y="57.5" width="0.5" height="5"/><rect class="cls-5" x="189.5" y="57.5" width="0.5" height="5"/><rect class="cls-5" x="191.5" y="57.5" width="0.5" height="5"/><rect class="cls-5" x="193.5" y="57.5" width="0.5" height="5"/><rect class="cls-5" x="195.5" y="57.5" width="0.5" height="5"/><rect class="cls-5" x="197.5" y="57.5" width="0.5" height="5"/><rect class="cls-5" x="199.5" y="57.5" width="0.5" height="5"/><rect class="cls-5" x="201.5" y="57.5" width="0.5" height="5"/><rect class="cls-5" x="203.5" y="57.5" width="0.5" height="5"/><rect class="cls-5" x="205.5" y="57.5" width="0.5" height="5"/><rect class="cls-5" x="207.5" y="57.5" width="0.5" height="5"/><rect class="cls-5" x="209.5" y="57.5" width="0.5" height="5"/><rect class="cls-5" x="211.5" y="57.5" width="0.5" height="5"/><rect class="cls-5" x="213.5" y="57.5" width="0.5" height="5"/><rect class="cls-5" x="215.5" y="57.5" width="0.5" height="5"/><rect class="cls-5" x="217.5" y="57.5" width="0.5" height="5"/><rect class="cls-5" x="219.5" y="57.5" width="0.5" height="5"/><rect class="cls-5" x="221.5" y="57.5" width="0.5" height="5"/><rect class="cls-5" x="223.5" y="57.5" width="0.5" height="5"/><rect class="cls-5" x="225.5" y="57.5" width="0.5" height="5"/><rect class="cls-5" x="227.5" y="57.5" width="0.5" height="5"/><rect class="cls-5" x="229.5" y="57.5" width="0.5" height="5"/><rect class="cls-5" x="231.5" y="57.5" width="0.5" height="5"/><rect class="cls-5" x="233.5" y="57.5" width="0.5" height="5"/><rect class="cls-5" x="235.5" y="57.5" width="0.5" height="5"/><rect class="cls-5" x="237.5" y="57.5" width="0.5" height="5"/><rect class="cls-5" x="239.5" y="57.5" width="0.5" height="5"/><rect class="cls-5" x="241.5" y="57.5" width="0.5" height="5"/><rect class="cls-5" x="243.5" y="57.5" width="0.5" height="5"/><rect class="cls-5" x="245.5" y="57.5" width="0.5" height="5"/><rect class="cls-5" x="247.5" y="57.5" width="0.5" height="5"/><rect class="cls-5" x="249.5" y="57.5" width="0.5" height="5"/><rect class="cls-5" x="251.5" y="57.5" width="0.5" height="5"/><rect class="cls-5" x="253.5" y="57.5" width="0.5" height="5"/><rect class="cls-5" x="255.5" y="57.5" width="0.5" height="5"/><rect class="cls-5" x="257.5" y="57.5" width="0.5" height="5"/><rect class="cls-5" x="259.5" y="57.5" width="0.5" height="5"/><rect class="cls-5" x="261.5" y="57.5" width="0.5" height="5"/><rect class="cls-5" x="263.5" y="57.5" width="0.5" height="5"/><rect class="cls-5" x="265.5" y="57.5" width="0.5" height="5"/><rect class="cls-5" x="267.5" y="57.5" width="0.5" height="5"/><rect class="cls-5" x="269.5" y="57.5" width="0.5" height="5"/><rect class="cls-5" x="271.5" y="57.5" width="0.5" height="5"/><rect class="cls-5" x="273.5" y="57.5" width="0.5" height="5"/><rect class="cls-5" x="275.5" y="57.5" width="0.5" height="5"/><rect class="cls-5" x="277.5" y="57.5" width="0.5" height="5"/><rect class="cls-5" x="279.5" y="57.5" width="0.5" height="5"/><rect class="cls-5" x="281.5" y="57.5" width="0.5" height="5"/><rect class="cls-5" x="283.5" y="57.5" width="0.5" height="5"/><rect class="cls-5" x="285.5" y="57.5" width="0.5" height="5"/><rect class="cls-5" x="287.5" y="57.5" width="0.5" height="5"/><rect class="cls-5" x="289.5" y="57.5" width="0.5" height="5"/><rect class="cls-5" x="291.5" y="57.5" width="0.5" height="5"/><rect class="cls-5" x="293.5" y="57.5" width="0.5" height="5"/><rect class="cls-5" x="295.5" y="57.5" width="0.5" height="5"/><rect class="cls-5" x="297.5" y="57.5" width="0.5" height="5"/><rect class="cls-5" x="299.5" y="57.5" width="0.5" height="5"/><rect class="cls-5" x="301.5" y="57.5" width="0.5" height="5"/><rect class="cls-5" x="303.5" y="57.5" width="0.5" height="5"/><rect class="cls-5" x="305.5" y="57.5" width="0.5" height="5"/><rect class="cls-5" x="307.5" y="57.5" width="0.5" height="5"/><rect class="cls-5" x="309.5" y="57.5" width="0.5" height="5"/><rect class="cls-5" x="311.5" y="57.5" width="0.5" height="5"/><rect class="cls-5" x="313.5" y="57.5" width="0.5" height="5"/><rect class="cls-5" x="315.5" y="57.5" width="0.5" height="5"/><rect class="cls-5" x="317.5" y="57.5" width="0.5" height="5"/><rect class="cls-5" x="319.5" y="57.5" width="0.5" height="5"/><rect class="cls-5" x="321.5" y="57.5" width="0.5" height="5"/><rect class="cls-5" x="323.5" y="57.5" width="0.5" height="5"/><rect class="cls-5" x="325.5" y="57.5" width="0.5" height="5"/><rect class="cls-5" x="327.5" y="57.5" width="0.5" height="5"/><rect class="cls-5" x="329.5" y="57.5" width="0.5" height="5"/><rect class="cls-5" x="331.5" y="57.5" width="0.5" height="5"/><rect class="cls-5" x="333.5" y="57.5" width="0.5" height="5"/><rect class="cls-5" x="335.5" y="57.5" width="0.5" height="5"/><rect class="cls-5" x="337.5" y="57.5" width="0.5" height="5"/><rect class="cls-2" x="20" y="295" width="320" height="20"/><rect class="cls-6" x="10" y="295" width="10" height="20"/><polygon class="cls-3" points="20 275 20 285 10 285 10 295 30 295 30 275 20 275"/><rect class="cls-6" x="340" y="295" width="10" height="20" transform="translate(690 610) rotate(-180)"/><polygon class="cls-3" points="340 275 340 285 350 285 350 295 330 295 330 275 340 275"/><rect class="cls-5" x="21.5" y="297.5" width="0.5" height="5"/><rect class="cls-5" x="23.5" y="297.5" width="0.5" height="5"/><rect class="cls-5" x="25.5" y="297.5" width="0.5" height="5"/><rect class="cls-5" x="27.5" y="297.5" width="0.5" height="5"/><rect class="cls-5" x="29.5" y="297.5" width="0.5" height="5"/><rect class="cls-5" x="31.5" y="297.5" width="0.5" height="5"/><rect class="cls-5" x="33.5" y="297.5" width="0.5" height="5"/><rect class="cls-5" x="35.5" y="297.5" width="0.5" height="5"/><rect class="cls-5" x="37.5" y="297.5" width="0.5" height="5"/><rect class="cls-5" x="39.5" y="297.5" width="0.5" height="5"/><rect class="cls-5" x="41.5" y="297.5" width="0.5" height="5"/><rect class="cls-5" x="43.5" y="297.5" width="0.5" height="5"/><rect class="cls-5" x="45.5" y="297.5" width="0.5" height="5"/><rect class="cls-5" x="47.5" y="297.5" width="0.5" height="5"/><rect class="cls-5" x="49.5" y="297.5" width="0.5" height="5"/><rect class="cls-5" x="51.5" y="297.5" width="0.5" height="5"/><rect class="cls-5" x="53.5" y="297.5" width="0.5" height="5"/><rect class="cls-5" x="55.5" y="297.5" width="0.5" height="5"/><rect class="cls-5" x="57.5" y="297.5" width="0.5" height="5"/><rect class="cls-5" x="59.5" y="297.5" width="0.5" height="5"/><rect class="cls-5" x="61.5" y="297.5" width="0.5" height="5"/><rect class="cls-5" x="63.5" y="297.5" width="0.5" height="5"/><rect class="cls-5" x="65.5" y="297.5" width="0.5" height="5"/><rect class="cls-5" x="67.5" y="297.5" width="0.5" height="5"/><rect class="cls-5" x="69.5" y="297.5" width="0.5" height="5"/><rect class="cls-5" x="71.5" y="297.5" width="0.5" height="5"/><rect class="cls-5" x="73.5" y="297.5" width="0.5" height="5"/><rect class="cls-5" x="75.5" y="297.5" width="0.5" height="5"/><rect class="cls-5" x="77.5" y="297.5" width="0.5" height="5"/><rect class="cls-5" x="79.5" y="297.5" width="0.5" height="5"/><rect class="cls-5" x="81.5" y="297.5" width="0.5" height="5"/><rect class="cls-5" x="83.5" y="297.5" width="0.5" height="5"/><rect class="cls-5" x="85.5" y="297.5" width="0.5" height="5"/><rect class="cls-5" x="87.5" y="297.5" width="0.5" height="5"/><rect class="cls-5" x="89.5" y="297.5" width="0.5" height="5"/><rect class="cls-5" x="91.5" y="297.5" width="0.5" height="5"/><rect class="cls-5" x="93.5" y="297.5" width="0.5" height="5"/><rect class="cls-5" x="95.5" y="297.5" width="0.5" height="5"/><rect class="cls-5" x="97.5" y="297.5" width="0.5" height="5"/><rect class="cls-5" x="99.5" y="297.5" width="0.5" height="5"/><rect class="cls-5" x="101.5" y="297.5" width="0.5" height="5"/><rect class="cls-5" x="103.5" y="297.5" width="0.5" height="5"/><rect class="cls-5" x="105.5" y="297.5" width="0.5" height="5"/><rect class="cls-5" x="107.5" y="297.5" width="0.5" height="5"/><rect class="cls-5" x="109.5" y="297.5" width="0.5" height="5"/><rect class="cls-5" x="111.5" y="297.5" width="0.5" height="5"/><rect class="cls-5" x="113.5" y="297.5" width="0.5" height="5"/><rect class="cls-5" x="115.5" y="297.5" width="0.5" height="5"/><rect class="cls-5" x="117.5" y="297.5" width="0.5" height="5"/><rect class="cls-5" x="119.5" y="297.5" width="0.5" height="5"/><rect class="cls-5" x="121.5" y="297.5" width="0.5" height="5"/><rect class="cls-5" x="123.5" y="297.5" width="0.5" height="5"/><rect class="cls-5" x="125.5" y="297.5" width="0.5" height="5"/><rect class="cls-5" x="127.5" y="297.5" width="0.5" height="5"/><rect class="cls-5" x="129.5" y="297.5" width="0.5" height="5"/><rect class="cls-5" x="131.5" y="297.5" width="0.5" height="5"/><rect class="cls-5" x="133.5" y="297.5" width="0.5" height="5"/><rect class="cls-5" x="135.5" y="297.5" width="0.5" height="5"/><rect class="cls-5" x="137.5" y="297.5" width="0.5" height="5"/><rect class="cls-5" x="139.5" y="297.5" width="0.5" height="5"/><rect class="cls-5" x="141.5" y="297.5" width="0.5" height="5"/><rect class="cls-5" x="143.5" y="297.5" width="0.5" height="5"/><rect class="cls-5" x="145.5" y="297.5" width="0.5" height="5"/><rect class="cls-5" x="147.5" y="297.5" width="0.5" height="5"/><rect class="cls-5" x="149.5" y="297.5" width="0.5" height="5"/><rect class="cls-5" x="151.5" y="297.5" width="0.5" height="5"/><rect class="cls-5" x="153.5" y="297.5" width="0.5" height="5"/><rect class="cls-5" x="155.5" y="297.5" width="0.5" height="5"/><rect class="cls-5" x="157.5" y="297.5" width="0.5" height="5"/><rect class="cls-5" x="159.5" y="297.5" width="0.5" height="5"/><rect class="cls-5" x="161.5" y="297.5" width="0.5" height="5"/><rect class="cls-5" x="163.5" y="297.5" width="0.5" height="5"/><rect class="cls-5" x="165.5" y="297.5" width="0.5" height="5"/><rect class="cls-5" x="167.5" y="297.5" width="0.5" height="5"/><rect class="cls-5" x="169.5" y="297.5" width="0.5" height="5"/><rect class="cls-5" x="171.5" y="297.5" width="0.5" height="5"/><rect class="cls-5" x="173.5" y="297.5" width="0.5" height="5"/><rect class="cls-5" x="175.5" y="297.5" width="0.5" height="5"/><rect class="cls-5" x="177.5" y="297.5" width="0.5" height="5"/><rect class="cls-5" x="179.5" y="297.5" width="0.5" height="5"/><rect class="cls-5" x="181.5" y="297.5" width="0.5" height="5"/><rect class="cls-5" x="183.5" y="297.5" width="0.5" height="5"/><rect class="cls-5" x="185.5" y="297.5" width="0.5" height="5"/><rect class="cls-5" x="187.5" y="297.5" width="0.5" height="5"/><rect class="cls-5" x="189.5" y="297.5" width="0.5" height="5"/><rect class="cls-5" x="191.5" y="297.5" width="0.5" height="5"/><rect class="cls-5" x="193.5" y="297.5" width="0.5" height="5"/><rect class="cls-5" x="195.5" y="297.5" width="0.5" height="5"/><rect class="cls-5" x="197.5" y="297.5" width="0.5" height="5"/><rect class="cls-5" x="199.5" y="297.5" width="0.5" height="5"/><rect class="cls-5" x="201.5" y="297.5" width="0.5" height="5"/><rect class="cls-5" x="203.5" y="297.5" width="0.5" height="5"/><rect class="cls-5" x="205.5" y="297.5" width="0.5" height="5"/><rect class="cls-5" x="207.5" y="297.5" width="0.5" height="5"/><rect class="cls-5" x="209.5" y="297.5" width="0.5" height="5"/><rect class="cls-5" x="211.5" y="297.5" width="0.5" height="5"/><rect class="cls-5" x="213.5" y="297.5" width="0.5" height="5"/><rect class="cls-5" x="215.5" y="297.5" width="0.5" height="5"/><rect class="cls-5" x="217.5" y="297.5" width="0.5" height="5"/><rect class="cls-5" x="219.5" y="297.5" width="0.5" height="5"/><rect class="cls-5" x="221.5" y="297.5" width="0.5" height="5"/><rect class="cls-5" x="223.5" y="297.5" width="0.5" height="5"/><rect class="cls-5" x="225.5" y="297.5" width="0.5" height="5"/><rect class="cls-5" x="227.5" y="297.5" width="0.5" height="5"/><rect class="cls-5" x="229.5" y="297.5" width="0.5" height="5"/><rect class="cls-5" x="231.5" y="297.5" width="0.5" height="5"/><rect class="cls-5" x="233.5" y="297.5" width="0.5" height="5"/><rect class="cls-5" x="235.5" y="297.5" width="0.5" height="5"/><rect class="cls-5" x="237.5" y="297.5" width="0.5" height="5"/><rect class="cls-5" x="239.5" y="297.5" width="0.5" height="5"/><rect class="cls-5" x="241.5" y="297.5" width="0.5" height="5"/><rect class="cls-5" x="243.5" y="297.5" width="0.5" height="5"/><rect class="cls-5" x="245.5" y="297.5" width="0.5" height="5"/><rect class="cls-5" x="247.5" y="297.5" width="0.5" height="5"/><rect class="cls-5" x="249.5" y="297.5" width="0.5" height="5"/><rect class="cls-5" x="251.5" y="297.5" width="0.5" height="5"/><rect class="cls-5" x="253.5" y="297.5" width="0.5" height="5"/><rect class="cls-5" x="255.5" y="297.5" width="0.5" height="5"/><rect class="cls-5" x="257.5" y="297.5" width="0.5" height="5"/><rect class="cls-5" x="259.5" y="297.5" width="0.5" height="5"/><rect class="cls-5" x="261.5" y="297.5" width="0.5" height="5"/><rect class="cls-5" x="263.5" y="297.5" width="0.5" height="5"/><rect class="cls-5" x="265.5" y="297.5" width="0.5" height="5"/><rect class="cls-5" x="267.5" y="297.5" width="0.5" height="5"/><rect class="cls-5" x="269.5" y="297.5" width="0.5" height="5"/><rect class="cls-5" x="271.5" y="297.5" width="0.5" height="5"/><rect class="cls-5" x="273.5" y="297.5" width="0.5" height="5"/><rect class="cls-5" x="275.5" y="297.5" width="0.5" height="5"/><rect class="cls-5" x="277.5" y="297.5" width="0.5" height="5"/><rect class="cls-5" x="279.5" y="297.5" width="0.5" height="5"/><rect class="cls-5" x="281.5" y="297.5" width="0.5" height="5"/><rect class="cls-5" x="283.5" y="297.5" width="0.5" height="5"/><rect class="cls-5" x="285.5" y="297.5" width="0.5" height="5"/><rect class="cls-5" x="287.5" y="297.5" width="0.5" height="5"/><rect class="cls-5" x="289.5" y="297.5" width="0.5" height="5"/><rect class="cls-5" x="291.5" y="297.5" width="0.5" height="5"/><rect class="cls-5" x="293.5" y="297.5" width="0.5" height="5"/><rect class="cls-5" x="295.5" y="297.5" width="0.5" height="5"/><rect class="cls-5" x="297.5" y="297.5" width="0.5" height="5"/><rect class="cls-5" x="299.5" y="297.5" width="0.5" height="5"/><rect class="cls-5" x="301.5" y="297.5" width="0.5" height="5"/><rect class="cls-5" x="303.5" y="297.5" width="0.5" height="5"/><rect class="cls-5" x="305.5" y="297.5" width="0.5" height="5"/><rect class="cls-5" x="307.5" y="297.5" width="0.5" height="5"/><rect class="cls-5" x="309.5" y="297.5" width="0.5" height="5"/><rect class="cls-5" x="311.5" y="297.5" width="0.5" height="5"/><rect class="cls-5" x="313.5" y="297.5" width="0.5" height="5"/><rect class="cls-5" x="315.5" y="297.5" width="0.5" height="5"/><rect class="cls-5" x="317.5" y="297.5" width="0.5" height="5"/><rect class="cls-5" x="319.5" y="297.5" width="0.5" height="5"/><rect class="cls-5" x="321.5" y="297.5" width="0.5" height="5"/><rect class="cls-5" x="323.5" y="297.5" width="0.5" height="5"/><rect class="cls-5" x="325.5" y="297.5" width="0.5" height="5"/><rect class="cls-5" x="327.5" y="297.5" width="0.5" height="5"/><rect class="cls-5" x="329.5" y="297.5" width="0.5" height="5"/><rect class="cls-5" x="331.5" y="297.5" width="0.5" height="5"/><rect class="cls-5" x="333.5" y="297.5" width="0.5" height="5"/><rect class="cls-5" x="335.5" y="297.5" width="0.5" height="5"/><rect class="cls-5" x="337.5" y="297.5" width="0.5" height="5"/><rect class="cls-5" x="21.5" y="307.5" width="0.5" height="5"/><rect class="cls-5" x="23.5" y="307.5" width="0.5" height="5"/><rect class="cls-5" x="25.5" y="307.5" width="0.5" height="5"/><rect class="cls-5" x="27.5" y="307.5" width="0.5" height="5"/><rect class="cls-5" x="29.5" y="307.5" width="0.5" height="5"/><rect class="cls-5" x="31.5" y="307.5" width="0.5" height="5"/><rect class="cls-5" x="33.5" y="307.5" width="0.5" height="5"/><rect class="cls-5" x="35.5" y="307.5" width="0.5" height="5"/><rect class="cls-5" x="37.5" y="307.5" width="0.5" height="5"/><rect class="cls-5" x="39.5" y="307.5" width="0.5" height="5"/><rect class="cls-5" x="41.5" y="307.5" width="0.5" height="5"/><rect class="cls-5" x="43.5" y="307.5" width="0.5" height="5"/><rect class="cls-5" x="45.5" y="307.5" width="0.5" height="5"/><rect class="cls-5" x="47.5" y="307.5" width="0.5" height="5"/><rect class="cls-5" x="49.5" y="307.5" width="0.5" height="5"/><rect class="cls-5" x="51.5" y="307.5" width="0.5" height="5"/><rect class="cls-5" x="53.5" y="307.5" width="0.5" height="5"/><rect class="cls-5" x="55.5" y="307.5" width="0.5" height="5"/><rect class="cls-5" x="57.5" y="307.5" width="0.5" height="5"/><rect class="cls-5" x="59.5" y="307.5" width="0.5" height="5"/><rect class="cls-5" x="61.5" y="307.5" width="0.5" height="5"/><rect class="cls-5" x="63.5" y="307.5" width="0.5" height="5"/><rect class="cls-5" x="65.5" y="307.5" width="0.5" height="5"/><rect class="cls-5" x="67.5" y="307.5" width="0.5" height="5"/><rect class="cls-5" x="69.5" y="307.5" width="0.5" height="5"/><rect class="cls-5" x="71.5" y="307.5" width="0.5" height="5"/><rect class="cls-5" x="73.5" y="307.5" width="0.5" height="5"/><rect class="cls-5" x="75.5" y="307.5" width="0.5" height="5"/><rect class="cls-5" x="77.5" y="307.5" width="0.5" height="5"/><rect class="cls-5" x="79.5" y="307.5" width="0.5" height="5"/><rect class="cls-5" x="81.5" y="307.5" width="0.5" height="5"/><rect class="cls-5" x="83.5" y="307.5" width="0.5" height="5"/><rect class="cls-5" x="85.5" y="307.5" width="0.5" height="5"/><rect class="cls-5" x="87.5" y="307.5" width="0.5" height="5"/><rect class="cls-5" x="89.5" y="307.5" width="0.5" height="5"/><rect class="cls-5" x="91.5" y="307.5" width="0.5" height="5"/><rect class="cls-5" x="93.5" y="307.5" width="0.5" height="5"/><rect class="cls-5" x="95.5" y="307.5" width="0.5" height="5"/><rect class="cls-5" x="97.5" y="307.5" width="0.5" height="5"/><rect class="cls-5" x="99.5" y="307.5" width="0.5" height="5"/><rect class="cls-5" x="101.5" y="307.5" width="0.5" height="5"/><rect class="cls-5" x="103.5" y="307.5" width="0.5" height="5"/><rect class="cls-5" x="105.5" y="307.5" width="0.5" height="5"/><rect class="cls-5" x="107.5" y="307.5" width="0.5" height="5"/><rect class="cls-5" x="109.5" y="307.5" width="0.5" height="5"/><rect class="cls-5" x="111.5" y="307.5" width="0.5" height="5"/><rect class="cls-5" x="113.5" y="307.5" width="0.5" height="5"/><rect class="cls-5" x="115.5" y="307.5" width="0.5" height="5"/><rect class="cls-5" x="117.5" y="307.5" width="0.5" height="5"/><rect class="cls-5" x="119.5" y="307.5" width="0.5" height="5"/><rect class="cls-5" x="121.5" y="307.5" width="0.5" height="5"/><rect class="cls-5" x="123.5" y="307.5" width="0.5" height="5"/><rect class="cls-5" x="125.5" y="307.5" width="0.5" height="5"/><rect class="cls-5" x="127.5" y="307.5" width="0.5" height="5"/><rect class="cls-5" x="129.5" y="307.5" width="0.5" height="5"/><rect class="cls-5" x="131.5" y="307.5" width="0.5" height="5"/><rect class="cls-5" x="133.5" y="307.5" width="0.5" height="5"/><rect class="cls-5" x="135.5" y="307.5" width="0.5" height="5"/><rect class="cls-5" x="137.5" y="307.5" width="0.5" height="5"/><rect class="cls-5" x="139.5" y="307.5" width="0.5" height="5"/><rect class="cls-5" x="141.5" y="307.5" width="0.5" height="5"/><rect class="cls-5" x="143.5" y="307.5" width="0.5" height="5"/><rect class="cls-5" x="145.5" y="307.5" width="0.5" height="5"/><rect class="cls-5" x="147.5" y="307.5" width="0.5" height="5"/><rect class="cls-5" x="149.5" y="307.5" width="0.5" height="5"/><rect class="cls-5" x="151.5" y="307.5" width="0.5" height="5"/><rect class="cls-5" x="153.5" y="307.5" width="0.5" height="5"/><rect class="cls-5" x="155.5" y="307.5" width="0.5" height="5"/><rect class="cls-5" x="157.5" y="307.5" width="0.5" height="5"/><rect class="cls-5" x="159.5" y="307.5" width="0.5" height="5"/><rect class="cls-5" x="161.5" y="307.5" width="0.5" height="5"/><rect class="cls-5" x="163.5" y="307.5" width="0.5" height="5"/><rect class="cls-5" x="165.5" y="307.5" width="0.5" height="5"/><rect class="cls-5" x="167.5" y="307.5" width="0.5" height="5"/><rect class="cls-5" x="169.5" y="307.5" width="0.5" height="5"/><rect class="cls-5" x="171.5" y="307.5" width="0.5" height="5"/><rect class="cls-5" x="173.5" y="307.5" width="0.5" height="5"/><rect class="cls-5" x="175.5" y="307.5" width="0.5" height="5"/><rect class="cls-5" x="177.5" y="307.5" width="0.5" height="5"/><rect class="cls-5" x="179.5" y="307.5" width="0.5" height="5"/><rect class="cls-5" x="181.5" y="307.5" width="0.5" height="5"/><rect class="cls-5" x="183.5" y="307.5" width="0.5" height="5"/><rect class="cls-5" x="185.5" y="307.5" width="0.5" height="5"/><rect class="cls-5" x="187.5" y="307.5" width="0.5" height="5"/><rect class="cls-5" x="189.5" y="307.5" width="0.5" height="5"/><rect class="cls-5" x="191.5" y="307.5" width="0.5" height="5"/><rect class="cls-5" x="193.5" y="307.5" width="0.5" height="5"/><rect class="cls-5" x="195.5" y="307.5" width="0.5" height="5"/><rect class="cls-5" x="197.5" y="307.5" width="0.5" height="5"/><rect class="cls-5" x="199.5" y="307.5" width="0.5" height="5"/><rect class="cls-5" x="201.5" y="307.5" width="0.5" height="5"/><rect class="cls-5" x="203.5" y="307.5" width="0.5" height="5"/><rect class="cls-5" x="205.5" y="307.5" width="0.5" height="5"/><rect class="cls-5" x="207.5" y="307.5" width="0.5" height="5"/><rect class="cls-5" x="209.5" y="307.5" width="0.5" height="5"/><rect class="cls-5" x="211.5" y="307.5" width="0.5" height="5"/><rect class="cls-5" x="213.5" y="307.5" width="0.5" height="5"/><rect class="cls-5" x="215.5" y="307.5" width="0.5" height="5"/><rect class="cls-5" x="217.5" y="307.5" width="0.5" height="5"/><rect class="cls-5" x="219.5" y="307.5" width="0.5" height="5"/><rect class="cls-5" x="221.5" y="307.5" width="0.5" height="5"/><rect class="cls-7" x="280" y="75" width="60" height="100"/><rect class="cls-4" x="280" y="65" width="60" height="10"/><rect class="cls-4" x="280" y="175" width="60" height="10"/><rect class="cls-8" x="230" y="35" width="100" height="20"/><rect class="cls-6" x="222" y="35" width="4" height="20"/><rect class="cls-3" x="226" y="35" width="4" height="20"/><rect class="cls-6" x="334" y="35" width="4" height="20" transform="translate(672 90) rotate(-180)"/><rect class="cls-3" x="330" y="35" width="4" height="20" transform="translate(664 90) rotate(-180)"/><rect class="cls-8" x="230" y="305" width="100" height="20"/><rect class="cls-6" x="222" y="305" width="4" height="20"/><rect class="cls-3" x="226" y="305" width="4" height="20"/><rect class="cls-6" x="334" y="305" width="4" height="20" transform="translate(672 630) rotate(-180)"/><rect class="cls-3" x="330" y="305" width="4" height="20" transform="translate(664 630) rotate(-180)"/><rect class="cls-8" x="230" y="35" width="10" height="290"/><rect class="cls-8" x="320" y="35" width="10" height="290"/><rect class="cls-8" x="240" y="235" width="80" height="20"/><rect class="cls-3" x="228.5" y="205" width="21.5" height="80"/><rect class="cls-3" x="310" y="205" width="21.5" height="80"/><rect class="cls-4" x="270" y="255" width="20" height="20"/><rect class="cls-4" x="270" y="215" width="20" height="20"/><rect class="cls-7" x="270" y="235" width="20" height="20"/><rect class="cls-7" x="236.5" y="215" width="13.5" height="60"/><rect class="cls-7" x="310" y="215" width="13.5" height="60"/><path class="cls-5" d="M349.5,285H340V275h-8.5V205H340V65h6V45h-8V35H222V45H14V65h6V205H50v10H70V205H90v10h20V205h20v10h20V205h20v10h20V205h20v10h18.5v70H230v10H190V285H170v10H110V285H90v10H30V275H20v10H10v30H222v10H338V315h12V285Zm-10,19.5H330v-9h9.5Zm-89-19h19V295h-19Zm69.5,10v9H240v-9Zm0-.5H270V285H250v10H240V285h10V255h20v20h20V255h20v30h10ZM126,65.5v39h-1v-39Zm.5,0h3v39h-3Zm4,0h9v39h-9Zm-110-1v-9H230v9Zm29,1v39h-9v-39Zm1,0h3v39h-3Zm3.5,0h1v39H54Zm265.5,209h-9v-59h9Zm.5-59h3v59h-3Zm-30.5,40v19h-19v-19Zm-49-40h9v59h-9Zm-.5,59h-3v-59h3Zm10-39h20v19H250Zm39.5,19h-19v-19h19Zm-19-20v-19h19v19Zm19.5,1h20v19H290Zm20-20V235H290V215H270v20H250V215h20V205h20v10h20ZM280.5,175V75H320V175Zm39.5.5v9H280.5v-9Zm-39.5-101v-9H320v9ZM240,64.5v-9h80v9Zm40,.5V185h40v19.5H310V195H290v9.5H270V195H250v9.5H240V65Zm29.5,149.5h-19v-19h19Zm-40-19v19h-19v-19Zm-20,10V215h-13v60h13v9.5h-19v-79Zm61,79V275h13V215h-13v-9.5h19v79Zm19.5-79h1v79h-1Zm9.5-150v9H330v-9Zm0,149H330V185h9.5Zm0-20H330v-9h9.5Zm0-9.5H330V75h9.5Zm0-100.5H330v-9h9.5Zm6-29v19h-3v-19Zm-4,0v19H340v-19Zm-2,0v9H338v-9Zm-2-10v19h-3v-19Zm-4,0v19h-3v-19Zm-4,0V205h-9V35.5Zm-9.5,0v19H240v-19Zm-80.5,0V205h-9V35.5Zm-10,0v19h-3v-19Zm-4,0v19h-3v-19Zm-3.5,10v9H20.5v-9ZM14.5,64.5v-19h3v19Zm4,0v-19H20v19Zm32,150v-19h19v19Zm40,0v-19h19v19Zm40,0v-19h19v19Zm40,0v-19h19v19Zm19.5-10V195H170v9.5H150V195H130v9.5H110V195H90v9.5H70V195H50v9.5H20.5V65H40v40H55.5V65h69v40H140V65h90V195H210v9.5Zm20.5,10v-19h19V205h-1v9.5Zm18.5,70v-79h1v79Zm-58.5,1h19V295h-19Zm-80,0h19V295h-19Zm139.5,10v9H20.5v-9H230Zm-219.5-10h10v-10h9V295h-19Zm0,29v-19h9v19Zm10,0v-9H222v9Zm202,10v-19h3v19Zm4,0v-19h3v19Zm4,0V285h9v39.5Zm9.5,0v-19h80v19Zm80.5,0V285h9v39.5Zm10,0v-19h3v19Zm4,0v-19h3v19Zm3.5-10v-9h1.5v9Zm11.5,0h-9v-19h9Zm0-19.5h-19V285h1v-9.5h8v10h10Z"/></g></g></svg>