<svg xmlns="http://www.w3.org/2000/svg" viewBox="0 0 360 360"><defs><style>.cls-1{fill:#f2f2f2;}.cls-2{fill:#b3b3b3;}.cls-3{fill:#666;}.cls-4{fill:#4d4d4d;}.cls-5{fill:#333;}</style></defs><title>curve_rail_icon</title><g id="Warstwa_2" data-name="Warstwa 2"><g id="Icons"><rect class="cls-1" width="360" height="360" rx="20" ry="20"/><rect class="cls-2" x="125.02" y="151.78" width="20" height="80" transform="translate(-18.15 14.16) rotate(-5.63)"/><circle class="cls-3" cx="131.51" cy="207.19" r="4"/><circle class="cls-3" cx="130.53" cy="197.24" r="4"/><circle class="cls-3" cx="129.55" cy="187.29" r="4"/><circle class="cls-3" cx="128.57" cy="177.34" r="4"/><circle class="cls-3" cx="141.46" cy="206.21" r="4"/><circle class="cls-3" cx="140.48" cy="196.26" r="4"/><circle class="cls-3" cx="139.5" cy="186.31" r="4"/><circle class="cls-3" cx="138.52" cy="176.36" r="4"/><circle class="cls-3" cx="126.61" cy="157.43" r="4"/><circle class="cls-3" cx="136.56" cy="156.45" r="4"/><circle class="cls-3" cx="133.47" cy="227.1" r="4"/><circle class="cls-3" cx="143.42" cy="226.12" r="4"/><rect class="cls-2" x="163.85" y="146.02" width="20" height="80" transform="translate(-32.95 37.49) rotate(-11.25)"/><circle class="cls-3" cx="171.87" cy="201.7" r="4"/><circle class="cls-3" cx="169.92" cy="191.9" r="4"/><circle class="cls-3" cx="167.97" cy="182.09" r="4"/><circle class="cls-3" cx="166.02" cy="172.28" r="4"/><circle class="cls-3" cx="181.68" cy="199.75" r="4"/><circle class="cls-3" cx="179.73" cy="189.94" r="4"/><circle class="cls-3" cx="177.77" cy="180.14" r="4"/><circle class="cls-3" cx="175.82" cy="170.33" r="4"/><circle class="cls-3" cx="162.11" cy="152.66" r="4"/><circle class="cls-3" cx="171.92" cy="150.71" r="4"/><circle class="cls-3" cx="175.77" cy="221.32" r="4"/><circle class="cls-3" cx="185.58" cy="219.37" r="4"/><rect class="cls-2" x="201.92" y="136.48" width="20" height="80" transform="translate(-42.1 69.12) rotate(-16.88)"/><circle class="cls-3" cx="211.49" cy="192.28" r="4"/><circle class="cls-3" cx="208.59" cy="182.71" r="4"/><circle class="cls-3" cx="205.69" cy="173.14" r="4"/><circle class="cls-3" cx="202.78" cy="163.58" r="4"/><circle class="cls-3" cx="221.06" cy="189.38" r="4"/><circle class="cls-3" cx="218.16" cy="179.81" r="4"/><circle class="cls-3" cx="215.26" cy="170.24" r="4"/><circle class="cls-3" cx="212.35" cy="160.67" r="4"/><circle class="cls-3" cx="196.98" cy="144.44" r="4"/><circle class="cls-3" cx="206.55" cy="141.53" r="4"/><circle class="cls-3" cx="217.3" cy="211.42" r="4"/><circle class="cls-3" cx="226.87" cy="208.52" r="4"/><rect class="cls-2" x="95.81" y="153.7" width="10" height="80"/><circle class="cls-3" cx="100.81" cy="228.7" r="4"/><circle class="cls-3" cx="100.81" cy="208.7" r="4"/><circle class="cls-3" cx="100.81" cy="158.7" r="4"/><circle class="cls-3" cx="100.81" cy="198.7" r="4"/><circle class="cls-3" cx="100.81" cy="188.7" r="4"/><circle class="cls-3" cx="100.81" cy="178.7" r="4"/><rect class="cls-2" x="239.26" y="125.17" width="10" height="80" transform="translate(-44.61 106.05) rotate(-22.5)"/><circle class="cls-3" cx="257.66" cy="197.5" r="4"/><circle class="cls-3" cx="250" cy="179.03" r="4"/><circle class="cls-3" cx="230.87" cy="132.83" r="4"/><circle class="cls-3" cx="246.18" cy="169.79" r="4"/><circle class="cls-3" cx="242.35" cy="160.55" r="4"/><circle class="cls-3" cx="238.52" cy="151.31" r="4"/><rect class="cls-4" x="95.81" y="153.7" width="1" height="80"/><rect class="cls-4" x="247.92" y="123.44" width="1" height="80" transform="translate(-43.64 107.51) rotate(-22.5)"/><path class="cls-5" d="M95.81,173.7a378.81,378.81,0,0,0,145.45-28.84l-3.82-9.24A368.91,368.91,0,0,1,95.81,163.7Z"/><path class="cls-5" d="M95.81,223.7A428.77,428.77,0,0,0,260.4,191.07l-3.82-9.24A418.83,418.83,0,0,1,95.81,213.7Z"/></g></g></svg>