<svg xmlns="http://www.w3.org/2000/svg" viewBox="0 0 360 360"><defs><style>.cls-1{fill:#f2f2f2;}.cls-2{fill:#b3b3b3;}.cls-3{fill:#666;}.cls-4{fill:#4d4d4d;}.cls-5{fill:gray;}.cls-6{fill:#ffe21f;}.cls-7{fill:#333;}</style></defs><title>right_switch_rail_icon</title><g id="Warstwa_2" data-name="Warstwa 2"><g id="Icons"><rect class="cls-1" width="360" height="360" rx="20" ry="20"/><path class="cls-2" d="M98.88,132.89V76.75h-20v10h-20v-10h-30v140h30v-70H74.45l-5.6,20.87,19.31,5.18,9.69-36.05ZM80.77,165.64a4,4,0,1,1,2.82,4.9A4,4,0,0,1,80.77,165.64ZM76,160.21a4,4,0,1,1-4.9,2.84A4,4,0,0,1,76,160.21Z"/><rect class="cls-2" x="278.88" y="76.75" width="20" height="80"/><circle class="cls-3" cx="283.88" cy="101.75" r="4"/><circle class="cls-3" cx="283.88" cy="111.75" r="4"/><circle class="cls-3" cx="283.88" cy="121.75" r="4"/><circle class="cls-3" cx="283.88" cy="131.75" r="4"/><circle class="cls-3" cx="293.88" cy="101.75" r="4"/><circle class="cls-3" cx="293.88" cy="111.75" r="4"/><circle class="cls-3" cx="293.88" cy="121.75" r="4"/><circle class="cls-3" cx="293.88" cy="131.75" r="4"/><circle class="cls-3" cx="283.88" cy="151.75" r="4"/><circle class="cls-3" cx="293.88" cy="151.75" r="4"/><circle class="cls-3" cx="283.88" cy="81.75" r="4"/><circle class="cls-3" cx="293.88" cy="81.75" r="4"/><circle class="cls-3" cx="243.88" cy="101.75" r="4"/><circle class="cls-3" cx="243.88" cy="111.75" r="4"/><circle class="cls-3" cx="243.88" cy="121.75" r="4"/><circle class="cls-3" cx="243.88" cy="131.75" r="4"/><circle class="cls-3" cx="253.88" cy="101.75" r="4"/><circle class="cls-3" cx="253.88" cy="111.75" r="4"/><circle class="cls-3" cx="253.88" cy="121.75" r="4"/><circle class="cls-3" cx="253.88" cy="131.75" r="4"/><circle class="cls-3" cx="243.88" cy="81.75" r="4"/><circle class="cls-3" cx="253.88" cy="81.75" r="4"/><circle class="cls-3" cx="203.88" cy="81.75" r="4"/><circle class="cls-3" cx="213.88" cy="81.75" r="4"/><circle class="cls-3" cx="163.88" cy="81.75" r="4"/><circle class="cls-3" cx="173.88" cy="81.75" r="4"/><rect class="cls-2" x="289.94" y="191.73" width="20" height="80" transform="translate(474.27 568.29) rotate(-155.07)"/><circle class="cls-3" cx="298.15" cy="247.44" r="4"/><circle class="cls-3" cx="302.37" cy="238.38" r="4"/><circle class="cls-3" cx="306.58" cy="229.31" r="4"/><circle class="cls-3" cx="310.8" cy="220.24" r="4"/><circle class="cls-3" cx="289.08" cy="243.23" r="4"/><circle class="cls-3" cx="293.3" cy="234.16" r="4"/><circle class="cls-3" cx="297.51" cy="225.09" r="4"/><circle class="cls-3" cx="301.73" cy="216.02" r="4"/><circle class="cls-3" cx="319.22" cy="202.1" r="4"/><circle class="cls-3" cx="310.16" cy="197.89" r="4"/><circle class="cls-3" cx="289.72" cy="265.58" r="4"/><circle class="cls-3" cx="280.65" cy="261.37" r="4"/><rect class="cls-2" x="256.43" y="175.08" width="20" height="80" transform="translate(402.25 529.4) rotate(-152.28)"/><circle class="cls-3" cx="263.88" cy="230.69" r="4"/><circle class="cls-3" cx="268.53" cy="221.84" r="4"/><circle class="cls-3" cx="273.18" cy="212.98" r="4"/><circle class="cls-3" cx="277.83" cy="204.13" r="4"/><circle class="cls-3" cx="255.02" cy="226.04" r="4"/><circle class="cls-3" cx="259.68" cy="217.19" r="4"/><circle class="cls-3" cx="264.33" cy="208.33" r="4"/><circle class="cls-3" cx="268.98" cy="199.48" r="4"/><circle class="cls-3" cx="287.13" cy="186.43" r="4"/><circle class="cls-3" cx="278.28" cy="181.77" r="4"/><circle class="cls-3" cx="254.58" cy="248.39" r="4"/><circle class="cls-3" cx="245.72" cy="243.74" r="4"/><path class="cls-2" d="M218.88,161.44V76.75h-20v80l-26,51.93,17.88,9,20.46-40.84Zm-35.71,46.75a4,4,0,1,1-1.79-5.36A4,4,0,0,1,183.17,208.19Zm8.94,4.48a4,4,0,1,1-1.79-5.36A4,4,0,0,1,192.11,212.67Z"/><path class="cls-3" d="M190.32,207.31a4,4,0,1,0,1.79,5.36A4,4,0,0,0,190.32,207.31Z"/><path class="cls-3" d="M181.38,202.83a4,4,0,1,0,1.79,5.36A4,4,0,0,0,181.38,202.83Z"/><path class="cls-2" d="M178.88,154V76.75h-20v73.1l-18.63,43.31,18.37,7.9,19.07-44.31Zm-28.39,38.15a4,4,0,1,1-2.09-5.25A4,4,0,0,1,150.49,192.12Zm9.19,3.95a4,4,0,1,1-2.1-5.25A4,4,0,0,1,159.68,196.07Z"/><path class="cls-3" d="M157.58,190.82a4,4,0,1,0,2.1,5.25A4,4,0,0,0,157.58,190.82Z"/><path class="cls-3" d="M148.4,186.87a4,4,0,1,0,2.09,5.25A4,4,0,0,0,148.4,186.87Z"/><polygon class="cls-2" points="258.88 171.74 258.88 76.75 238.88 76.75 238.88 166.38 204.74 225.63 222.07 235.6 253.11 181.75 258.88 171.74"/><circle class="cls-3" cx="230.23" cy="211.45" r="4"/><circle class="cls-3" cx="235.22" cy="202.79" r="4"/><circle class="cls-3" cx="240.21" cy="194.12" r="4"/><circle class="cls-3" cx="245.2" cy="185.46" r="4"/><circle class="cls-3" cx="221.56" cy="206.46" r="4"/><circle class="cls-3" cx="226.55" cy="197.79" r="4"/><circle class="cls-3" cx="231.55" cy="189.13" r="4"/><circle class="cls-3" cx="236.54" cy="180.47" r="4"/><circle class="cls-3" cx="220.24" cy="228.78" r="4"/><circle class="cls-3" cx="211.58" cy="223.79" r="4"/><rect class="cls-2" x="326.19" y="204.39" width="10" height="80" transform="translate(543.65 596.91) rotate(-157.5)"/><circle class="cls-3" cx="317.8" cy="276.72" r="4"/><circle class="cls-3" cx="325.45" cy="258.24" r="4"/><circle class="cls-3" cx="344.58" cy="212.05" r="4"/><circle class="cls-3" cx="329.28" cy="249.01" r="4"/><circle class="cls-3" cx="333.1" cy="239.77" r="4"/><circle class="cls-3" cx="336.93" cy="230.53" r="4"/><rect class="cls-4" x="334.85" y="206.11" width="1" height="80" transform="translate(550.99 601.81) rotate(-157.5)"/><path class="cls-2" d="M138.88,147.05V76.75h-20v66.92l-12.57,36.2,18.89,6.55,10.31-29.67Zm-22.43,31A4,4,0,1,1,114,173,4,4,0,0,1,116.45,178.1Zm7-1.81a4,4,0,1,1-5.09,2.46A4,4,0,0,1,123.43,176.29Z"/><path class="cls-3" d="M123.43,176.29a4,4,0,1,0,2.46,5.08A4,4,0,0,0,123.43,176.29Z"/><path class="cls-3" d="M114,173a4,4,0,1,0,2.47,5.09A4,4,0,0,0,114,173Z"/><path class="cls-3" d="M85.67,162.81a4,4,0,1,0,2.82,4.9A4,4,0,0,0,85.67,162.81Z"/><path class="cls-3" d="M76,160.21a4,4,0,1,0,2.83,4.91A4,4,0,0,0,76,160.21Z"/><rect class="cls-2" x="8.88" y="76.75" width="10" height="80"/><rect class="cls-2" x="318.88" y="76.75" width="10" height="80"/><circle class="cls-3" cx="13.88" cy="81.75" r="4"/><circle class="cls-3" cx="13.88" cy="101.75" r="4"/><circle class="cls-3" cx="13.88" cy="151.75" r="4"/><circle class="cls-3" cx="13.88" cy="111.75" r="4"/><circle class="cls-3" cx="13.88" cy="121.75" r="4"/><circle class="cls-3" cx="13.88" cy="131.75" r="4"/><circle class="cls-3" cx="323.88" cy="81.75" r="4"/><circle class="cls-3" cx="323.88" cy="101.75" r="4"/><circle class="cls-3" cx="323.88" cy="151.75" r="4"/><circle class="cls-3" cx="323.88" cy="111.75" r="4"/><circle class="cls-3" cx="323.88" cy="121.75" r="4"/><circle class="cls-3" cx="323.88" cy="131.75" r="4"/><circle class="cls-3" cx="33.88" cy="81.75" r="4"/><circle class="cls-3" cx="53.88" cy="81.75" r="4"/><circle class="cls-3" cx="53.88" cy="161.75" r="4"/><circle class="cls-3" cx="43.88" cy="161.75" r="4"/><circle class="cls-3" cx="33.88" cy="161.75" r="4"/><circle class="cls-3" cx="53.88" cy="171.75" r="4"/><circle class="cls-3" cx="43.88" cy="171.75" r="4"/><circle class="cls-3" cx="33.88" cy="171.75" r="4"/><circle class="cls-3" cx="53.88" cy="181.75" r="4"/><circle class="cls-3" cx="43.88" cy="181.75" r="4"/><circle class="cls-3" cx="33.88" cy="181.75" r="4"/><circle class="cls-3" cx="53.88" cy="191.75" r="4"/><circle class="cls-3" cx="33.88" cy="191.75" r="4"/><circle class="cls-3" cx="53.88" cy="211.75" r="4"/><circle class="cls-3" cx="33.88" cy="211.75" r="4"/><circle class="cls-3" cx="83.88" cy="81.75" r="4"/><circle class="cls-3" cx="93.88" cy="81.75" r="4"/><circle class="cls-3" cx="123.88" cy="81.75" r="4"/><circle class="cls-3" cx="133.88" cy="81.75" r="4"/><circle class="cls-3" cx="163.88" cy="81.75" r="4"/><circle class="cls-3" cx="173.88" cy="81.75" r="4"/><circle class="cls-3" cx="203.88" cy="81.75" r="4"/><circle class="cls-3" cx="213.88" cy="81.75" r="4"/><rect class="cls-4" x="327.88" y="76.75" width="1" height="80"/><rect class="cls-4" x="8.88" y="76.75" width="1" height="80"/><rect class="cls-5" x="34.88" y="200.75" width="5" height="2" rx="0.5" ry="0.5"/><rect class="cls-5" x="47.88" y="200.75" width="5" height="2" rx="0.5" ry="0.5"/><rect class="cls-5" x="41.38" y="206.25" width="5" height="2" rx="0.5" ry="0.5" transform="translate(251.13 163.36) rotate(90)"/><rect class="cls-5" x="41.38" y="195.25" width="5" height="2" rx="0.5" ry="0.5" transform="translate(240.13 152.36) rotate(90)"/><path class="cls-6" d="M48.88,203.75v-4a1,1,0,0,0-1-1,.69.69,0,0,0-.25,0,2,2,0,0,0-1.75-1h-4a2,2,0,0,0-1.75,1,.69.69,0,0,0-.25,0,1,1,0,0,0-1,1v4a1,1,0,0,0,1.25,1,2,2,0,0,0,1.75,1h4a2,2,0,0,0,1.75-1,1,1,0,0,0,1.25-1Z"/><path class="cls-7" d="M205.72,146.75H328.88v-10H185.39a703.71,703.71,0,0,0-106.18-40H328.88v-10H8.88v10H39a693.21,693.21,0,0,1,122.1,40H8.88v10H33.29a646,646,0,0,1,181.16,73.32,657.49,657.49,0,0,0,109.82,54.07l3.83-9.25c-38.51-14.57-74.84-33.7-109.45-55A656.62,656.62,0,0,0,75.33,146.75h107.8q25.94,12.3,50.64,26.66a608,608,0,0,0,109.65,54.5l3.83-9.25A598.61,598.61,0,0,1,237.63,164.1Q221.93,155,205.72,146.75Z"/><circle class="cls-3" cx="253.88" cy="101.75" r="4"/><circle class="cls-3" cx="243.88" cy="101.75" r="4"/><circle class="cls-3" cx="253.88" cy="81.75" r="4"/><circle class="cls-3" cx="243.88" cy="81.75" r="4"/><circle class="cls-3" cx="253.88" cy="111.75" r="4"/><circle class="cls-3" cx="243.88" cy="111.75" r="4"/><circle class="cls-3" cx="253.88" cy="121.75" r="4"/><circle class="cls-3" cx="243.88" cy="121.75" r="4"/><circle class="cls-3" cx="253.88" cy="131.75" r="4"/><circle class="cls-3" cx="243.88" cy="131.75" r="4"/></g></g></svg>