<svg xmlns="http://www.w3.org/2000/svg" viewBox="0 0 360 360"><defs><style>.cls-1{fill:#f2f2f2;}.cls-2{fill:#6e6e6e;}.cls-3{fill:#ccc;}.cls-4{fill:#c1272d;}.cls-5{fill:#1a1a1a;}.cls-6{fill:#ffcf1f;}.cls-7{fill:#333;}.cls-8{fill:#666;}.cls-9{fill:none;}</style></defs><title>icon_menu_station_freight</title><g id="Warstwa_2" data-name="Warstwa 2"><g id="Icons"><rect class="cls-1" width="360" height="360" rx="20" ry="20"/></g><g id="freight_lines"><rect class="cls-2" x="20" y="45" width="320" height="160"/><rect class="cls-2" x="14" y="45" width="4" height="20"/><rect class="cls-3" x="18" y="45" width="2" height="20"/><rect class="cls-2" x="342" y="45" width="4" height="20" transform="translate(688 110) rotate(-180)"/><rect class="cls-3" x="340" y="45" width="2" height="20" transform="translate(682 110) rotate(-180)"/><rect class="cls-2" x="50" y="195" width="20" height="20"/><rect class="cls-2" x="90" y="195" width="20" height="20"/><rect class="cls-2" x="90" y="275" width="20" height="20"/><rect class="cls-2" x="170" y="275" width="20" height="20"/><rect class="cls-2" x="250" y="275" width="20" height="20"/><rect class="cls-2" x="130" y="195" width="20" height="20"/><rect class="cls-2" x="170" y="195" width="20" height="20"/><rect class="cls-2" x="210" y="195" width="20" height="20"/><rect class="cls-2" x="250" y="195" width="20" height="20"/><rect class="cls-2" x="290" y="195" width="20" height="20"/><rect class="cls-4" x="40" y="65" width="10" height="40"/><rect class="cls-3" x="50" y="65" width="5.5" height="40"/><rect class="cls-4" x="130" y="65" width="10" height="40" transform="translate(270 170) rotate(-180)"/><rect class="cls-3" x="124.5" y="65" width="5.5" height="40" transform="translate(254.5 170) rotate(-180)"/><rect class="cls-5" x="21.5" y="47.5" width="0.5" height="5"/><rect class="cls-5" x="23.5" y="47.5" width="0.5" height="5"/><rect class="cls-5" x="25.5" y="47.5" width="0.5" height="5"/><rect class="cls-5" x="27.5" y="47.5" width="0.5" height="5"/><rect class="cls-5" x="29.5" y="47.5" width="0.5" height="5"/><rect class="cls-5" x="31.5" y="47.5" width="0.5" height="5"/><rect class="cls-5" x="33.5" y="47.5" width="0.5" height="5"/><rect class="cls-5" x="35.5" y="47.5" width="0.5" height="5"/><rect class="cls-5" x="37.5" y="47.5" width="0.5" height="5"/><rect class="cls-5" x="39.5" y="47.5" width="0.5" height="5"/><rect class="cls-5" x="41.5" y="47.5" width="0.5" height="5"/><rect class="cls-5" x="43.5" y="47.5" width="0.5" height="5"/><rect class="cls-5" x="45.5" y="47.5" width="0.5" height="5"/><rect class="cls-5" x="47.5" y="47.5" width="0.5" height="5"/><rect class="cls-5" x="49.5" y="47.5" width="0.5" height="5"/><rect class="cls-5" x="51.5" y="47.5" width="0.5" height="5"/><rect class="cls-5" x="53.5" y="47.5" width="0.5" height="5"/><rect class="cls-5" x="55.5" y="47.5" width="0.5" height="5"/><rect class="cls-5" x="57.5" y="47.5" width="0.5" height="5"/><rect class="cls-5" x="59.5" y="47.5" width="0.5" height="5"/><rect class="cls-5" x="61.5" y="47.5" width="0.5" height="5"/><rect class="cls-5" x="63.5" y="47.5" width="0.5" height="5"/><rect class="cls-5" x="65.5" y="47.5" width="0.5" height="5"/><rect class="cls-5" x="67.5" y="47.5" width="0.5" height="5"/><rect class="cls-5" x="69.5" y="47.5" width="0.5" height="5"/><rect class="cls-5" x="71.5" y="47.5" width="0.5" height="5"/><rect class="cls-5" x="73.5" y="47.5" width="0.5" height="5"/><rect class="cls-5" x="75.5" y="47.5" width="0.5" height="5"/><rect class="cls-5" x="77.5" y="47.5" width="0.5" height="5"/><rect class="cls-5" x="79.5" y="47.5" width="0.5" height="5"/><rect class="cls-5" x="81.5" y="47.5" width="0.5" height="5"/><rect class="cls-5" x="83.5" y="47.5" width="0.5" height="5"/><rect class="cls-5" x="85.5" y="47.5" width="0.5" height="5"/><rect class="cls-5" x="87.5" y="47.5" width="0.5" height="5"/><rect class="cls-5" x="89.5" y="47.5" width="0.5" height="5"/><rect class="cls-5" x="91.5" y="47.5" width="0.5" height="5"/><rect class="cls-5" x="93.5" y="47.5" width="0.5" height="5"/><rect class="cls-5" x="95.5" y="47.5" width="0.5" height="5"/><rect class="cls-5" x="97.5" y="47.5" width="0.5" height="5"/><rect class="cls-5" x="99.5" y="47.5" width="0.5" height="5"/><rect class="cls-5" x="101.5" y="47.5" width="0.5" height="5"/><rect class="cls-5" x="103.5" y="47.5" width="0.5" height="5"/><rect class="cls-5" x="105.5" y="47.5" width="0.5" height="5"/><rect class="cls-5" x="107.5" y="47.5" width="0.5" height="5"/><rect class="cls-5" x="109.5" y="47.5" width="0.5" height="5"/><rect class="cls-5" x="111.5" y="47.5" width="0.5" height="5"/><rect class="cls-5" x="113.5" y="47.5" width="0.5" height="5"/><rect class="cls-5" x="115.5" y="47.5" width="0.5" height="5"/><rect class="cls-5" x="117.5" y="47.5" width="0.5" height="5"/><rect class="cls-5" x="119.5" y="47.5" width="0.5" height="5"/><rect class="cls-5" x="121.5" y="47.5" width="0.5" height="5"/><rect class="cls-5" x="123.5" y="47.5" width="0.5" height="5"/><rect class="cls-5" x="125.5" y="47.5" width="0.5" height="5"/><rect class="cls-5" x="127.5" y="47.5" width="0.5" height="5"/><rect class="cls-5" x="129.5" y="47.5" width="0.5" height="5"/><rect class="cls-5" x="131.5" y="47.5" width="0.5" height="5"/><rect class="cls-5" x="133.5" y="47.5" width="0.5" height="5"/><rect class="cls-5" x="135.5" y="47.5" width="0.5" height="5"/><rect class="cls-5" x="137.5" y="47.5" width="0.5" height="5"/><rect class="cls-5" x="139.5" y="47.5" width="0.5" height="5"/><rect class="cls-5" x="141.5" y="47.5" width="0.5" height="5"/><rect class="cls-5" x="143.5" y="47.5" width="0.5" height="5"/><rect class="cls-5" x="145.5" y="47.5" width="0.5" height="5"/><rect class="cls-5" x="147.5" y="47.5" width="0.5" height="5"/><rect class="cls-5" x="149.5" y="47.5" width="0.5" height="5"/><rect class="cls-5" x="151.5" y="47.5" width="0.5" height="5"/><rect class="cls-5" x="153.5" y="47.5" width="0.5" height="5"/><rect class="cls-5" x="155.5" y="47.5" width="0.5" height="5"/><rect class="cls-5" x="157.5" y="47.5" width="0.5" height="5"/><rect class="cls-5" x="159.5" y="47.5" width="0.5" height="5"/><rect class="cls-5" x="161.5" y="47.5" width="0.5" height="5"/><rect class="cls-5" x="163.5" y="47.5" width="0.5" height="5"/><rect class="cls-5" x="165.5" y="47.5" width="0.5" height="5"/><rect class="cls-5" x="167.5" y="47.5" width="0.5" height="5"/><rect class="cls-5" x="169.5" y="47.5" width="0.5" height="5"/><rect class="cls-5" x="171.5" y="47.5" width="0.5" height="5"/><rect class="cls-5" x="173.5" y="47.5" width="0.5" height="5"/><rect class="cls-5" x="175.5" y="47.5" width="0.5" height="5"/><rect class="cls-5" x="177.5" y="47.5" width="0.5" height="5"/><rect class="cls-5" x="179.5" y="47.5" width="0.5" height="5"/><rect class="cls-5" x="181.5" y="47.5" width="0.5" height="5"/><rect class="cls-5" x="183.5" y="47.5" width="0.5" height="5"/><rect class="cls-5" x="185.5" y="47.5" width="0.5" height="5"/><rect class="cls-5" x="187.5" y="47.5" width="0.5" height="5"/><rect class="cls-5" x="189.5" y="47.5" width="0.5" height="5"/><rect class="cls-5" x="191.5" y="47.5" width="0.5" height="5"/><rect class="cls-5" x="193.5" y="47.5" width="0.5" height="5"/><rect class="cls-5" x="195.5" y="47.5" width="0.5" height="5"/><rect class="cls-5" x="197.5" y="47.5" width="0.5" height="5"/><rect class="cls-5" x="199.5" y="47.5" width="0.5" height="5"/><rect class="cls-5" x="201.5" y="47.5" width="0.5" height="5"/><rect class="cls-5" x="203.5" y="47.5" width="0.5" height="5"/><rect class="cls-5" x="205.5" y="47.5" width="0.5" height="5"/><rect class="cls-5" x="207.5" y="47.5" width="0.5" height="5"/><rect class="cls-5" x="209.5" y="47.5" width="0.5" height="5"/><rect class="cls-5" x="211.5" y="47.5" width="0.5" height="5"/><rect class="cls-5" x="213.5" y="47.5" width="0.5" height="5"/><rect class="cls-5" x="215.5" y="47.5" width="0.5" height="5"/><rect class="cls-5" x="217.5" y="47.5" width="0.5" height="5"/><rect class="cls-5" x="219.5" y="47.5" width="0.5" height="5"/><rect class="cls-5" x="221.5" y="47.5" width="0.5" height="5"/><rect class="cls-5" x="21.5" y="57.5" width="0.5" height="5"/><rect class="cls-5" x="23.5" y="57.5" width="0.5" height="5"/><rect class="cls-5" x="25.5" y="57.5" width="0.5" height="5"/><rect class="cls-5" x="27.5" y="57.5" width="0.5" height="5"/><rect class="cls-5" x="29.5" y="57.5" width="0.5" height="5"/><rect class="cls-5" x="31.5" y="57.5" width="0.5" height="5"/><rect class="cls-5" x="33.5" y="57.5" width="0.5" height="5"/><rect class="cls-5" x="35.5" y="57.5" width="0.5" height="5"/><rect class="cls-5" x="37.5" y="57.5" width="0.5" height="5"/><rect class="cls-5" x="39.5" y="57.5" width="0.5" height="5"/><rect class="cls-5" x="41.5" y="57.5" width="0.5" height="5"/><rect class="cls-5" x="43.5" y="57.5" width="0.5" height="5"/><rect class="cls-5" x="45.5" y="57.5" width="0.5" height="5"/><rect class="cls-5" x="47.5" y="57.5" width="0.5" height="5"/><rect class="cls-5" x="49.5" y="57.5" width="0.5" height="5"/><rect class="cls-5" x="51.5" y="57.5" width="0.5" height="5"/><rect class="cls-5" x="53.5" y="57.5" width="0.5" height="5"/><rect class="cls-5" x="55.5" y="57.5" width="0.5" height="5"/><rect class="cls-5" x="57.5" y="57.5" width="0.5" height="5"/><rect class="cls-5" x="59.5" y="57.5" width="0.5" height="5"/><rect class="cls-5" x="61.5" y="57.5" width="0.5" height="5"/><rect class="cls-5" x="63.5" y="57.5" width="0.5" height="5"/><rect class="cls-5" x="65.5" y="57.5" width="0.5" height="5"/><rect class="cls-5" x="67.5" y="57.5" width="0.5" height="5"/><rect class="cls-5" x="69.5" y="57.5" width="0.5" height="5"/><rect class="cls-5" x="71.5" y="57.5" width="0.5" height="5"/><rect class="cls-5" x="73.5" y="57.5" width="0.5" height="5"/><rect class="cls-5" x="75.5" y="57.5" width="0.5" height="5"/><rect class="cls-5" x="77.5" y="57.5" width="0.5" height="5"/><rect class="cls-5" x="79.5" y="57.5" width="0.5" height="5"/><rect class="cls-5" x="81.5" y="57.5" width="0.5" height="5"/><rect class="cls-5" x="83.5" y="57.5" width="0.5" height="5"/><rect class="cls-5" x="85.5" y="57.5" width="0.5" height="5"/><rect class="cls-5" x="87.5" y="57.5" width="0.5" height="5"/><rect class="cls-5" x="89.5" y="57.5" width="0.5" height="5"/><rect class="cls-5" x="91.5" y="57.5" width="0.5" height="5"/><rect class="cls-5" x="93.5" y="57.5" width="0.5" height="5"/><rect class="cls-5" x="95.5" y="57.5" width="0.5" height="5"/><rect class="cls-5" x="97.5" y="57.5" width="0.5" height="5"/><rect class="cls-5" x="99.5" y="57.5" width="0.5" height="5"/><rect class="cls-5" x="101.5" y="57.5" width="0.5" height="5"/><rect class="cls-5" x="103.5" y="57.5" width="0.5" height="5"/><rect class="cls-5" x="105.5" y="57.5" width="0.5" height="5"/><rect class="cls-5" x="107.5" y="57.5" width="0.5" height="5"/><rect class="cls-5" x="109.5" y="57.5" width="0.5" height="5"/><rect class="cls-5" x="111.5" y="57.5" width="0.5" height="5"/><rect class="cls-5" x="113.5" y="57.5" width="0.5" height="5"/><rect class="cls-5" x="115.5" y="57.5" width="0.5" height="5"/><rect class="cls-5" x="117.5" y="57.5" width="0.5" height="5"/><rect class="cls-5" x="119.5" y="57.5" width="0.5" height="5"/><rect class="cls-5" x="121.5" y="57.5" width="0.5" height="5"/><rect class="cls-5" x="123.5" y="57.5" width="0.5" height="5"/><rect class="cls-5" x="125.5" y="57.5" width="0.5" height="5"/><rect class="cls-5" x="127.5" y="57.5" width="0.5" height="5"/><rect class="cls-5" x="129.5" y="57.5" width="0.5" height="5"/><rect class="cls-5" x="131.5" y="57.5" width="0.5" height="5"/><rect class="cls-5" x="133.5" y="57.5" width="0.5" height="5"/><rect class="cls-5" x="135.5" y="57.5" width="0.5" height="5"/><rect class="cls-5" x="137.5" y="57.5" width="0.5" height="5"/><rect class="cls-5" x="139.5" y="57.5" width="0.5" height="5"/><rect class="cls-5" x="141.5" y="57.5" width="0.5" height="5"/><rect class="cls-5" x="143.5" y="57.5" width="0.5" height="5"/><rect class="cls-5" x="145.5" y="57.5" width="0.5" height="5"/><rect class="cls-5" x="147.5" y="57.5" width="0.5" height="5"/><rect class="cls-5" x="149.5" y="57.5" width="0.5" height="5"/><rect class="cls-5" x="151.5" y="57.5" width="0.5" height="5"/><rect class="cls-5" x="153.5" y="57.5" width="0.5" height="5"/><rect class="cls-5" x="155.5" y="57.5" width="0.5" height="5"/><rect class="cls-5" x="157.5" y="57.5" width="0.5" height="5"/><rect class="cls-5" x="159.5" y="57.5" width="0.5" height="5"/><rect class="cls-5" x="161.5" y="57.5" width="0.5" height="5"/><rect class="cls-5" x="163.5" y="57.5" width="0.5" height="5"/><rect class="cls-5" x="165.5" y="57.5" width="0.5" height="5"/><rect class="cls-5" x="167.5" y="57.5" width="0.5" height="5"/><rect class="cls-5" x="169.5" y="57.5" width="0.5" height="5"/><rect class="cls-5" x="171.5" y="57.5" width="0.5" height="5"/><rect class="cls-5" x="173.5" y="57.5" width="0.5" height="5"/><rect class="cls-5" x="175.5" y="57.5" width="0.5" height="5"/><rect class="cls-5" x="177.5" y="57.5" width="0.5" height="5"/><rect class="cls-5" x="179.5" y="57.5" width="0.5" height="5"/><rect class="cls-5" x="181.5" y="57.5" width="0.5" height="5"/><rect class="cls-5" x="183.5" y="57.5" width="0.5" height="5"/><rect class="cls-5" x="185.5" y="57.5" width="0.5" height="5"/><rect class="cls-5" x="187.5" y="57.5" width="0.5" height="5"/><rect class="cls-5" x="189.5" y="57.5" width="0.5" height="5"/><rect class="cls-5" x="191.5" y="57.5" width="0.5" height="5"/><rect class="cls-5" x="193.5" y="57.5" width="0.5" height="5"/><rect class="cls-5" x="195.5" y="57.5" width="0.5" height="5"/><rect class="cls-5" x="197.5" y="57.5" width="0.5" height="5"/><rect class="cls-5" x="199.5" y="57.5" width="0.5" height="5"/><rect class="cls-5" x="201.5" y="57.5" width="0.5" height="5"/><rect class="cls-5" x="203.5" y="57.5" width="0.5" height="5"/><rect class="cls-5" x="205.5" y="57.5" width="0.5" height="5"/><rect class="cls-5" x="207.5" y="57.5" width="0.5" height="5"/><rect class="cls-5" x="209.5" y="57.5" width="0.5" height="5"/><rect class="cls-5" x="211.5" y="57.5" width="0.5" height="5"/><rect class="cls-5" x="213.5" y="57.5" width="0.5" height="5"/><rect class="cls-5" x="215.5" y="57.5" width="0.5" height="5"/><rect class="cls-5" x="217.5" y="57.5" width="0.5" height="5"/><rect class="cls-5" x="219.5" y="57.5" width="0.5" height="5"/><rect class="cls-5" x="221.5" y="57.5" width="0.5" height="5"/><rect class="cls-5" x="223.5" y="57.5" width="0.5" height="5"/><rect class="cls-5" x="225.5" y="57.5" width="0.5" height="5"/><rect class="cls-5" x="227.5" y="57.5" width="0.5" height="5"/><rect class="cls-5" x="229.5" y="57.5" width="0.5" height="5"/><rect class="cls-5" x="231.5" y="57.5" width="0.5" height="5"/><rect class="cls-5" x="233.5" y="57.5" width="0.5" height="5"/><rect class="cls-5" x="235.5" y="57.5" width="0.5" height="5"/><rect class="cls-5" x="237.5" y="57.5" width="0.5" height="5"/><rect class="cls-5" x="239.5" y="57.5" width="0.5" height="5"/><rect class="cls-5" x="241.5" y="57.5" width="0.5" height="5"/><rect class="cls-5" x="243.5" y="57.5" width="0.5" height="5"/><rect class="cls-5" x="245.5" y="57.5" width="0.5" height="5"/><rect class="cls-5" x="247.5" y="57.5" width="0.5" height="5"/><rect class="cls-5" x="249.5" y="57.5" width="0.5" height="5"/><rect class="cls-5" x="251.5" y="57.5" width="0.5" height="5"/><rect class="cls-5" x="253.5" y="57.5" width="0.5" height="5"/><rect class="cls-5" x="255.5" y="57.5" width="0.5" height="5"/><rect class="cls-5" x="257.5" y="57.5" width="0.5" height="5"/><rect class="cls-5" x="259.5" y="57.5" width="0.5" height="5"/><rect class="cls-5" x="261.5" y="57.5" width="0.5" height="5"/><rect class="cls-5" x="263.5" y="57.5" width="0.5" height="5"/><rect class="cls-5" x="265.5" y="57.5" width="0.5" height="5"/><rect class="cls-5" x="267.5" y="57.5" width="0.5" height="5"/><rect class="cls-5" x="269.5" y="57.5" width="0.5" height="5"/><rect class="cls-5" x="271.5" y="57.5" width="0.5" height="5"/><rect class="cls-5" x="273.5" y="57.5" width="0.5" height="5"/><rect class="cls-5" x="275.5" y="57.5" width="0.5" height="5"/><rect class="cls-5" x="277.5" y="57.5" width="0.5" height="5"/><rect class="cls-5" x="279.5" y="57.5" width="0.5" height="5"/><rect class="cls-5" x="281.5" y="57.5" width="0.5" height="5"/><rect class="cls-5" x="283.5" y="57.5" width="0.5" height="5"/><rect class="cls-5" x="285.5" y="57.5" width="0.5" height="5"/><rect class="cls-5" x="287.5" y="57.5" width="0.5" height="5"/><rect class="cls-5" x="289.5" y="57.5" width="0.5" height="5"/><rect class="cls-5" x="291.5" y="57.5" width="0.5" height="5"/><rect class="cls-5" x="293.5" y="57.5" width="0.5" height="5"/><rect class="cls-5" x="295.5" y="57.5" width="0.5" height="5"/><rect class="cls-5" x="297.5" y="57.5" width="0.5" height="5"/><rect class="cls-5" x="299.5" y="57.5" width="0.5" height="5"/><rect class="cls-5" x="301.5" y="57.5" width="0.5" height="5"/><rect class="cls-5" x="303.5" y="57.5" width="0.5" height="5"/><rect class="cls-5" x="305.5" y="57.5" width="0.5" height="5"/><rect class="cls-5" x="307.5" y="57.5" width="0.5" height="5"/><rect class="cls-5" x="309.5" y="57.5" width="0.5" height="5"/><rect class="cls-5" x="311.5" y="57.5" width="0.5" height="5"/><rect class="cls-5" x="313.5" y="57.5" width="0.5" height="5"/><rect class="cls-5" x="315.5" y="57.5" width="0.5" height="5"/><rect class="cls-5" x="317.5" y="57.5" width="0.5" height="5"/><rect class="cls-5" x="319.5" y="57.5" width="0.5" height="5"/><rect class="cls-5" x="321.5" y="57.5" width="0.5" height="5"/><rect class="cls-5" x="323.5" y="57.5" width="0.5" height="5"/><rect class="cls-5" x="325.5" y="57.5" width="0.5" height="5"/><rect class="cls-5" x="327.5" y="57.5" width="0.5" height="5"/><rect class="cls-5" x="329.5" y="57.5" width="0.5" height="5"/><rect class="cls-5" x="331.5" y="57.5" width="0.5" height="5"/><rect class="cls-5" x="333.5" y="57.5" width="0.5" height="5"/><rect class="cls-5" x="335.5" y="57.5" width="0.5" height="5"/><rect class="cls-5" x="337.5" y="57.5" width="0.5" height="5"/><rect class="cls-2" x="20" y="295" width="320" height="20"/><rect class="cls-6" x="10" y="295" width="10" height="20"/><polygon class="cls-3" points="20 275 20 285 10 285 10 295 30 295 30 275 20 275"/><rect class="cls-6" x="340" y="295" width="10" height="20" transform="translate(690 610) rotate(-180)"/><polygon class="cls-3" points="340 275 340 285 350 285 350 295 330 295 330 275 340 275"/><rect class="cls-5" x="21.5" y="297.5" width="0.5" height="5"/><rect class="cls-5" x="23.5" y="297.5" width="0.5" height="5"/><rect class="cls-5" x="25.5" y="297.5" width="0.5" height="5"/><rect class="cls-5" x="27.5" y="297.5" width="0.5" height="5"/><rect class="cls-5" x="29.5" y="297.5" width="0.5" height="5"/><rect class="cls-5" x="31.5" y="297.5" width="0.5" height="5"/><rect class="cls-5" x="33.5" y="297.5" width="0.5" height="5"/><rect class="cls-5" x="35.5" y="297.5" width="0.5" height="5"/><rect class="cls-5" x="37.5" y="297.5" width="0.5" height="5"/><rect class="cls-5" x="39.5" y="297.5" width="0.5" height="5"/><rect class="cls-5" x="41.5" y="297.5" width="0.5" height="5"/><rect class="cls-5" x="43.5" y="297.5" width="0.5" height="5"/><rect class="cls-5" x="45.5" y="297.5" width="0.5" height="5"/><rect class="cls-5" x="47.5" y="297.5" width="0.5" height="5"/><rect class="cls-5" x="49.5" y="297.5" width="0.5" height="5"/><rect class="cls-5" x="51.5" y="297.5" width="0.5" height="5"/><rect class="cls-5" x="53.5" y="297.5" width="0.5" height="5"/><rect class="cls-5" x="55.5" y="297.5" width="0.5" height="5"/><rect class="cls-5" x="57.5" y="297.5" width="0.5" height="5"/><rect class="cls-5" x="59.5" y="297.5" width="0.5" height="5"/><rect class="cls-5" x="61.5" y="297.5" width="0.5" height="5"/><rect class="cls-5" x="63.5" y="297.5" width="0.5" height="5"/><rect class="cls-5" x="65.5" y="297.5" width="0.5" height="5"/><rect class="cls-5" x="67.5" y="297.5" width="0.5" height="5"/><rect class="cls-5" x="69.5" y="297.5" width="0.5" height="5"/><rect class="cls-5" x="71.5" y="297.5" width="0.5" height="5"/><rect class="cls-5" x="73.5" y="297.5" width="0.5" height="5"/><rect class="cls-5" x="75.5" y="297.5" width="0.5" height="5"/><rect class="cls-5" x="77.5" y="297.5" width="0.5" height="5"/><rect class="cls-5" x="79.5" y="297.5" width="0.5" height="5"/><rect class="cls-5" x="81.5" y="297.5" width="0.5" height="5"/><rect class="cls-5" x="83.5" y="297.5" width="0.5" height="5"/><rect class="cls-5" x="85.5" y="297.5" width="0.5" height="5"/><rect class="cls-5" x="87.5" y="297.5" width="0.5" height="5"/><rect class="cls-5" x="89.5" y="297.5" width="0.5" height="5"/><rect class="cls-5" x="91.5" y="297.5" width="0.5" height="5"/><rect class="cls-5" x="93.5" y="297.5" width="0.5" height="5"/><rect class="cls-5" x="95.5" y="297.5" width="0.5" height="5"/><rect class="cls-5" x="97.5" y="297.5" width="0.5" height="5"/><rect class="cls-5" x="99.5" y="297.5" width="0.5" height="5"/><rect class="cls-5" x="101.5" y="297.5" width="0.5" height="5"/><rect class="cls-5" x="103.5" y="297.5" width="0.5" height="5"/><rect class="cls-5" x="105.5" y="297.5" width="0.5" height="5"/><rect class="cls-5" x="107.5" y="297.5" width="0.5" height="5"/><rect class="cls-5" x="109.5" y="297.5" width="0.5" height="5"/><rect class="cls-5" x="111.5" y="297.5" width="0.5" height="5"/><rect class="cls-5" x="113.5" y="297.5" width="0.5" height="5"/><rect class="cls-5" x="115.5" y="297.5" width="0.5" height="5"/><rect class="cls-5" x="117.5" y="297.5" width="0.5" height="5"/><rect class="cls-5" x="119.5" y="297.5" width="0.5" height="5"/><rect class="cls-5" x="121.5" y="297.5" width="0.5" height="5"/><rect class="cls-5" x="123.5" y="297.5" width="0.5" height="5"/><rect class="cls-5" x="125.5" y="297.5" width="0.5" height="5"/><rect class="cls-5" x="127.5" y="297.5" width="0.5" height="5"/><rect class="cls-5" x="129.5" y="297.5" width="0.5" height="5"/><rect class="cls-5" x="131.5" y="297.5" width="0.5" height="5"/><rect class="cls-5" x="133.5" y="297.5" width="0.5" height="5"/><rect class="cls-5" x="135.5" y="297.5" width="0.5" height="5"/><rect class="cls-5" x="137.5" y="297.5" width="0.5" height="5"/><rect class="cls-5" x="139.5" y="297.5" width="0.5" height="5"/><rect class="cls-5" x="141.5" y="297.5" width="0.5" height="5"/><rect class="cls-5" x="143.5" y="297.5" width="0.5" height="5"/><rect class="cls-5" x="145.5" y="297.5" width="0.5" height="5"/><rect class="cls-5" x="147.5" y="297.5" width="0.5" height="5"/><rect class="cls-5" x="149.5" y="297.5" width="0.5" height="5"/><rect class="cls-5" x="151.5" y="297.5" width="0.5" height="5"/><rect class="cls-5" x="153.5" y="297.5" width="0.5" height="5"/><rect class="cls-5" x="155.5" y="297.5" width="0.5" height="5"/><rect class="cls-5" x="157.5" y="297.5" width="0.5" height="5"/><rect class="cls-5" x="159.5" y="297.5" width="0.5" height="5"/><rect class="cls-5" x="161.5" y="297.5" width="0.5" height="5"/><rect class="cls-5" x="163.5" y="297.5" width="0.5" height="5"/><rect class="cls-5" x="165.5" y="297.5" width="0.5" height="5"/><rect class="cls-5" x="167.5" y="297.5" width="0.5" height="5"/><rect class="cls-5" x="169.5" y="297.5" width="0.5" height="5"/><rect class="cls-5" x="171.5" y="297.5" width="0.5" height="5"/><rect class="cls-5" x="173.5" y="297.5" width="0.5" height="5"/><rect class="cls-5" x="175.5" y="297.5" width="0.5" height="5"/><rect class="cls-5" x="177.5" y="297.5" width="0.5" height="5"/><rect class="cls-5" x="179.5" y="297.5" width="0.5" height="5"/><rect class="cls-5" x="181.5" y="297.5" width="0.5" height="5"/><rect class="cls-5" x="183.5" y="297.5" width="0.5" height="5"/><rect class="cls-5" x="185.5" y="297.5" width="0.5" height="5"/><rect class="cls-5" x="187.5" y="297.5" width="0.5" height="5"/><rect class="cls-5" x="189.5" y="297.5" width="0.5" height="5"/><rect class="cls-5" x="191.5" y="297.5" width="0.5" height="5"/><rect class="cls-5" x="193.5" y="297.5" width="0.5" height="5"/><rect class="cls-5" x="195.5" y="297.5" width="0.5" height="5"/><rect class="cls-5" x="197.5" y="297.5" width="0.5" height="5"/><rect class="cls-5" x="199.5" y="297.5" width="0.5" height="5"/><rect class="cls-5" x="201.5" y="297.5" width="0.5" height="5"/><rect class="cls-5" x="203.5" y="297.5" width="0.5" height="5"/><rect class="cls-5" x="205.5" y="297.5" width="0.5" height="5"/><rect class="cls-5" x="207.5" y="297.5" width="0.5" height="5"/><rect class="cls-5" x="209.5" y="297.5" width="0.5" height="5"/><rect class="cls-5" x="211.5" y="297.5" width="0.5" height="5"/><rect class="cls-5" x="213.5" y="297.5" width="0.5" height="5"/><rect class="cls-5" x="215.5" y="297.5" width="0.5" height="5"/><rect class="cls-5" x="217.5" y="297.5" width="0.5" height="5"/><rect class="cls-5" x="219.5" y="297.5" width="0.5" height="5"/><rect class="cls-5" x="221.5" y="297.5" width="0.5" height="5"/><rect class="cls-5" x="223.5" y="297.5" width="0.5" height="5"/><rect class="cls-5" x="225.5" y="297.5" width="0.5" height="5"/><rect class="cls-5" x="227.5" y="297.5" width="0.5" height="5"/><rect class="cls-5" x="229.5" y="297.5" width="0.5" height="5"/><rect class="cls-5" x="231.5" y="297.5" width="0.5" height="5"/><rect class="cls-5" x="233.5" y="297.5" width="0.5" height="5"/><rect class="cls-5" x="235.5" y="297.5" width="0.5" height="5"/><rect class="cls-5" x="237.5" y="297.5" width="0.5" height="5"/><rect class="cls-5" x="239.5" y="297.5" width="0.5" height="5"/><rect class="cls-5" x="241.5" y="297.5" width="0.5" height="5"/><rect class="cls-5" x="243.5" y="297.5" width="0.5" height="5"/><rect class="cls-5" x="245.5" y="297.5" width="0.5" height="5"/><rect class="cls-5" x="247.5" y="297.5" width="0.5" height="5"/><rect class="cls-5" x="249.5" y="297.5" width="0.5" height="5"/><rect class="cls-5" x="251.5" y="297.5" width="0.5" height="5"/><rect class="cls-5" x="253.5" y="297.5" width="0.5" height="5"/><rect class="cls-5" x="255.5" y="297.5" width="0.5" height="5"/><rect class="cls-5" x="257.5" y="297.5" width="0.5" height="5"/><rect class="cls-5" x="259.5" y="297.5" width="0.5" height="5"/><rect class="cls-5" x="261.5" y="297.5" width="0.5" height="5"/><rect class="cls-5" x="263.5" y="297.5" width="0.5" height="5"/><rect class="cls-5" x="265.5" y="297.5" width="0.5" height="5"/><rect class="cls-5" x="267.5" y="297.5" width="0.5" height="5"/><rect class="cls-5" x="269.5" y="297.5" width="0.5" height="5"/><rect class="cls-5" x="271.5" y="297.5" width="0.5" height="5"/><rect class="cls-5" x="273.5" y="297.5" width="0.5" height="5"/><rect class="cls-5" x="275.5" y="297.5" width="0.5" height="5"/><rect class="cls-5" x="277.5" y="297.5" width="0.5" height="5"/><rect class="cls-5" x="279.5" y="297.5" width="0.5" height="5"/><rect class="cls-5" x="281.5" y="297.5" width="0.5" height="5"/><rect class="cls-5" x="283.5" y="297.5" width="0.5" height="5"/><rect class="cls-5" x="285.5" y="297.5" width="0.5" height="5"/><rect class="cls-5" x="287.5" y="297.5" width="0.5" height="5"/><rect class="cls-5" x="289.5" y="297.5" width="0.5" height="5"/><rect class="cls-5" x="291.5" y="297.5" width="0.5" height="5"/><rect class="cls-5" x="293.5" y="297.5" width="0.5" height="5"/><rect class="cls-5" x="295.5" y="297.5" width="0.5" height="5"/><rect class="cls-5" x="297.5" y="297.5" width="0.5" height="5"/><rect class="cls-5" x="299.5" y="297.5" width="0.5" height="5"/><rect class="cls-5" x="301.5" y="297.5" width="0.5" height="5"/><rect class="cls-5" x="303.5" y="297.5" width="0.5" height="5"/><rect class="cls-5" x="305.5" y="297.5" width="0.5" height="5"/><rect class="cls-5" x="307.5" y="297.5" width="0.5" height="5"/><rect class="cls-5" x="309.5" y="297.5" width="0.5" height="5"/><rect class="cls-5" x="311.5" y="297.5" width="0.5" height="5"/><rect class="cls-5" x="313.5" y="297.5" width="0.5" height="5"/><rect class="cls-5" x="315.5" y="297.5" width="0.5" height="5"/><rect class="cls-5" x="317.5" y="297.5" width="0.5" height="5"/><rect class="cls-5" x="319.5" y="297.5" width="0.5" height="5"/><rect class="cls-5" x="321.5" y="297.5" width="0.5" height="5"/><rect class="cls-5" x="323.5" y="297.5" width="0.5" height="5"/><rect class="cls-5" x="325.5" y="297.5" width="0.5" height="5"/><rect class="cls-5" x="327.5" y="297.5" width="0.5" height="5"/><rect class="cls-5" x="329.5" y="297.5" width="0.5" height="5"/><rect class="cls-5" x="331.5" y="297.5" width="0.5" height="5"/><rect class="cls-5" x="333.5" y="297.5" width="0.5" height="5"/><rect class="cls-5" x="335.5" y="297.5" width="0.5" height="5"/><rect class="cls-5" x="337.5" y="297.5" width="0.5" height="5"/><rect class="cls-5" x="21.5" y="307.5" width="0.5" height="5"/><rect class="cls-5" x="23.5" y="307.5" width="0.5" height="5"/><rect class="cls-5" x="25.5" y="307.5" width="0.5" height="5"/><rect class="cls-5" x="27.5" y="307.5" width="0.5" height="5"/><rect class="cls-5" x="29.5" y="307.5" width="0.5" height="5"/><rect class="cls-5" x="31.5" y="307.5" width="0.5" height="5"/><rect class="cls-5" x="33.5" y="307.5" width="0.5" height="5"/><rect class="cls-5" x="35.5" y="307.5" width="0.5" height="5"/><rect class="cls-5" x="37.5" y="307.5" width="0.5" height="5"/><rect class="cls-5" x="39.5" y="307.5" width="0.5" height="5"/><rect class="cls-5" x="41.5" y="307.5" width="0.5" height="5"/><rect class="cls-5" x="43.5" y="307.5" width="0.5" height="5"/><rect class="cls-5" x="45.5" y="307.5" width="0.5" height="5"/><rect class="cls-5" x="47.5" y="307.5" width="0.5" height="5"/><rect class="cls-5" x="49.5" y="307.5" width="0.5" height="5"/><rect class="cls-5" x="51.5" y="307.5" width="0.5" height="5"/><rect class="cls-5" x="53.5" y="307.5" width="0.5" height="5"/><rect class="cls-5" x="55.5" y="307.5" width="0.5" height="5"/><rect class="cls-5" x="57.5" y="307.5" width="0.5" height="5"/><rect class="cls-5" x="59.5" y="307.5" width="0.5" height="5"/><rect class="cls-5" x="61.5" y="307.5" width="0.5" height="5"/><rect class="cls-5" x="63.5" y="307.5" width="0.5" height="5"/><rect class="cls-5" x="65.5" y="307.5" width="0.5" height="5"/><rect class="cls-5" x="67.5" y="307.5" width="0.5" height="5"/><rect class="cls-5" x="69.5" y="307.5" width="0.5" height="5"/><rect class="cls-5" x="71.5" y="307.5" width="0.5" height="5"/><rect class="cls-5" x="73.5" y="307.5" width="0.5" height="5"/><rect class="cls-5" x="75.5" y="307.5" width="0.5" height="5"/><rect class="cls-5" x="77.5" y="307.5" width="0.5" height="5"/><rect class="cls-5" x="79.5" y="307.5" width="0.5" height="5"/><rect class="cls-5" x="81.5" y="307.5" width="0.5" height="5"/><rect class="cls-5" x="83.5" y="307.5" width="0.5" height="5"/><rect class="cls-5" x="85.5" y="307.5" width="0.5" height="5"/><rect class="cls-5" x="87.5" y="307.5" width="0.5" height="5"/><rect class="cls-5" x="89.5" y="307.5" width="0.5" height="5"/><rect class="cls-5" x="91.5" y="307.5" width="0.5" height="5"/><rect class="cls-5" x="93.5" y="307.5" width="0.5" height="5"/><rect class="cls-5" x="95.5" y="307.5" width="0.5" height="5"/><rect class="cls-5" x="97.5" y="307.5" width="0.5" height="5"/><rect class="cls-5" x="99.5" y="307.5" width="0.5" height="5"/><rect class="cls-5" x="101.5" y="307.5" width="0.5" height="5"/><rect class="cls-5" x="103.5" y="307.5" width="0.5" height="5"/><rect class="cls-5" x="105.5" y="307.5" width="0.5" height="5"/><rect class="cls-5" x="107.5" y="307.5" width="0.5" height="5"/><rect class="cls-5" x="109.5" y="307.5" width="0.5" height="5"/><rect class="cls-5" x="111.5" y="307.5" width="0.5" height="5"/><rect class="cls-5" x="113.5" y="307.5" width="0.5" height="5"/><rect class="cls-5" x="115.5" y="307.5" width="0.5" height="5"/><rect class="cls-5" x="117.5" y="307.5" width="0.5" height="5"/><rect class="cls-5" x="119.5" y="307.5" width="0.5" height="5"/><rect class="cls-5" x="121.5" y="307.5" width="0.5" height="5"/><rect class="cls-5" x="123.5" y="307.5" width="0.5" height="5"/><rect class="cls-5" x="125.5" y="307.5" width="0.5" height="5"/><rect class="cls-5" x="127.5" y="307.5" width="0.5" height="5"/><rect class="cls-5" x="129.5" y="307.5" width="0.5" height="5"/><rect class="cls-5" x="131.5" y="307.5" width="0.5" height="5"/><rect class="cls-5" x="133.5" y="307.5" width="0.5" height="5"/><rect class="cls-5" x="135.5" y="307.5" width="0.5" height="5"/><rect class="cls-5" x="137.5" y="307.5" width="0.5" height="5"/><rect class="cls-5" x="139.5" y="307.5" width="0.5" height="5"/><rect class="cls-5" x="141.5" y="307.5" width="0.5" height="5"/><rect class="cls-5" x="143.5" y="307.5" width="0.5" height="5"/><rect class="cls-5" x="145.5" y="307.5" width="0.5" height="5"/><rect class="cls-5" x="147.5" y="307.5" width="0.5" height="5"/><rect class="cls-5" x="149.5" y="307.5" width="0.5" height="5"/><rect class="cls-5" x="151.5" y="307.5" width="0.5" height="5"/><rect class="cls-5" x="153.5" y="307.5" width="0.5" height="5"/><rect class="cls-5" x="155.5" y="307.5" width="0.5" height="5"/><rect class="cls-5" x="157.5" y="307.5" width="0.5" height="5"/><rect class="cls-5" x="159.5" y="307.5" width="0.5" height="5"/><rect class="cls-5" x="161.5" y="307.5" width="0.5" height="5"/><rect class="cls-5" x="163.5" y="307.5" width="0.5" height="5"/><rect class="cls-5" x="165.5" y="307.5" width="0.5" height="5"/><rect class="cls-5" x="167.5" y="307.5" width="0.5" height="5"/><rect class="cls-5" x="169.5" y="307.5" width="0.5" height="5"/><rect class="cls-5" x="171.5" y="307.5" width="0.5" height="5"/><rect class="cls-5" x="173.5" y="307.5" width="0.5" height="5"/><rect class="cls-5" x="175.5" y="307.5" width="0.5" height="5"/><rect class="cls-5" x="177.5" y="307.5" width="0.5" height="5"/><rect class="cls-5" x="179.5" y="307.5" width="0.5" height="5"/><rect class="cls-5" x="181.5" y="307.5" width="0.5" height="5"/><rect class="cls-5" x="183.5" y="307.5" width="0.5" height="5"/><rect class="cls-5" x="185.5" y="307.5" width="0.5" height="5"/><rect class="cls-5" x="187.5" y="307.5" width="0.5" height="5"/><rect class="cls-5" x="189.5" y="307.5" width="0.5" height="5"/><rect class="cls-5" x="191.5" y="307.5" width="0.5" height="5"/><rect class="cls-5" x="193.5" y="307.5" width="0.5" height="5"/><rect class="cls-5" x="195.5" y="307.5" width="0.5" height="5"/><rect class="cls-5" x="197.5" y="307.5" width="0.5" height="5"/><rect class="cls-5" x="199.5" y="307.5" width="0.5" height="5"/><rect class="cls-5" x="201.5" y="307.5" width="0.5" height="5"/><rect class="cls-5" x="203.5" y="307.5" width="0.5" height="5"/><rect class="cls-5" x="205.5" y="307.5" width="0.5" height="5"/><rect class="cls-5" x="207.5" y="307.5" width="0.5" height="5"/><rect class="cls-5" x="209.5" y="307.5" width="0.5" height="5"/><rect class="cls-5" x="211.5" y="307.5" width="0.5" height="5"/><rect class="cls-5" x="213.5" y="307.5" width="0.5" height="5"/><rect class="cls-5" x="215.5" y="307.5" width="0.5" height="5"/><rect class="cls-5" x="217.5" y="307.5" width="0.5" height="5"/><rect class="cls-5" x="219.5" y="307.5" width="0.5" height="5"/><rect class="cls-5" x="221.5" y="307.5" width="0.5" height="5"/><rect class="cls-7" x="280" y="75" width="60" height="100"/><rect class="cls-4" x="280" y="65" width="60" height="10"/><rect class="cls-4" x="280" y="175" width="60" height="10"/><rect class="cls-8" x="230" y="35" width="100" height="20"/><rect class="cls-6" x="222" y="35" width="4" height="20"/><rect class="cls-3" x="226" y="35" width="4" height="20"/><rect class="cls-6" x="334" y="35" width="4" height="20" transform="translate(672 90) rotate(-180)"/><rect class="cls-3" x="330" y="35" width="4" height="20" transform="translate(664 90) rotate(-180)"/><rect class="cls-8" x="230" y="305" width="100" height="20"/><rect class="cls-6" x="222" y="305" width="4" height="20"/><rect class="cls-3" x="226" y="305" width="4" height="20"/><rect class="cls-6" x="334" y="305" width="4" height="20" transform="translate(672 630) rotate(-180)"/><rect class="cls-3" x="330" y="305" width="4" height="20" transform="translate(664 630) rotate(-180)"/><rect class="cls-8" x="230" y="35" width="10" height="290"/><rect class="cls-8" x="320" y="35" width="10" height="290"/><rect class="cls-8" x="240" y="235" width="80" height="20"/><rect class="cls-3" x="228.5" y="205" width="21.5" height="80"/><rect class="cls-3" x="310" y="205" width="21.5" height="80"/><rect class="cls-4" x="270" y="255" width="20" height="20"/><rect class="cls-4" x="270" y="215" width="20" height="20"/><rect class="cls-7" x="270" y="235" width="20" height="20"/><rect class="cls-7" x="236.5" y="215" width="13.5" height="60"/><rect class="cls-7" x="310" y="215" width="13.5" height="60"/><rect class="cls-9" x="50.5" y="65.5" width="3" height="39"/><rect class="cls-9" x="126.5" y="65.5" width="3" height="39"/><rect class="cls-9" x="170.5" y="195.5" width="19" height="19"/><rect class="cls-9" x="125" y="65.5" width="1" height="39"/><rect class="cls-9" x="54" y="65.5" width="1" height="39"/><rect class="cls-9" x="229" y="205.5" width="1" height="79"/><polygon class="cls-9" points="229.5 195.5 229.5 205 228.5 205 228.5 214.5 210.5 214.5 210.5 195.5 229.5 195.5"/><polygon class="cls-9" points="230 65 230 195 210 195 210 204.5 190 204.5 190 195 170 195 170 204.5 150 204.5 150 195 130 195 130 204.5 110 204.5 110 195 90 195 90 204.5 70 204.5 70 195 50 195 50 204.5 20.5 204.5 20.5 65 40 65 40 105 55.5 105 55.5 65 124.5 65 124.5 105 140 105 140 65 230 65"/><rect class="cls-9" x="40.5" y="65.5" width="9" height="39"/><rect class="cls-9" x="130.5" y="65.5" width="9" height="39"/><rect class="cls-9" x="310.5" y="215.5" width="9" height="59"/><rect class="cls-9" x="270" y="205" width="20" height="10"/><polygon class="cls-9" points="320 185 320 204.5 310 204.5 310 195 290 195 290 204.5 270 204.5 270 195 250 195 250 204.5 240 204.5 240 65 280 65 280 185 320 185"/><rect class="cls-9" x="250" y="215" width="20" height="20"/><rect class="cls-9" x="280.5" y="65.5" width="39.5" height="9"/><rect class="cls-9" x="240" y="55.5" width="80" height="9"/><rect class="cls-9" x="240" y="35.5" width="80" height="19"/><rect class="cls-9" x="280.5" y="75" width="39.5" height="100"/><rect class="cls-9" x="280.5" y="175.5" width="39.5" height="9"/><rect class="cls-9" x="20.5" y="55.5" width="209.5" height="9"/><rect class="cls-9" x="14.5" y="45.5" width="3" height="19"/><rect class="cls-9" x="18.5" y="45.5" width="1.5" height="19"/><rect class="cls-9" x="10.5" y="295.5" width="9" height="19"/><rect class="cls-9" x="340" y="45.5" width="1.5" height="19"/><rect class="cls-9" x="130.5" y="195.5" width="19" height="19"/><rect class="cls-9" x="342.5" y="45.5" width="3" height="19"/><polygon class="cls-9" points="29.5 275.5 29.5 295 10.5 295 10.5 285.5 20.5 285.5 20.5 275.5 29.5 275.5"/><rect class="cls-9" x="226.5" y="35.5" width="3" height="19"/><rect class="cls-9" x="20.5" y="305.5" width="201.5" height="9"/><rect class="cls-9" x="50.5" y="195.5" width="19" height="19"/><rect class="cls-9" x="90.5" y="195.5" width="19" height="19"/><rect class="cls-9" x="222.5" y="35.5" width="3" height="19"/><rect class="cls-9" x="20.5" y="295.5" width="209.5" height="9"/><rect class="cls-9" x="222.5" y="305.5" width="3" height="19"/><rect class="cls-9" x="226.5" y="305.5" width="3" height="19"/><rect class="cls-9" x="20.5" y="45.5" width="201.5" height="9"/><rect class="cls-9" x="330" y="55.5" width="9.5" height="9"/><rect class="cls-9" x="330" y="65.5" width="9.5" height="9"/><rect class="cls-9" x="330" y="75" width="9.5" height="100"/><rect class="cls-9" x="330.5" y="35.5" width="3" height="19"/><rect class="cls-9" x="338" y="45.5" width="1.5" height="9"/><rect class="cls-9" x="320" y="215.5" width="3" height="59"/><rect class="cls-9" x="320.5" y="35.5" width="9" height="169.5"/><rect class="cls-9" x="334.5" y="35.5" width="3" height="19"/><rect class="cls-9" x="330" y="175.5" width="9.5" height="9"/><polygon class="cls-9" points="329.5 205.5 329.5 284.5 310.5 284.5 310.5 275 323.5 275 323.5 215 310.5 215 310.5 205.5 329.5 205.5"/><polygon class="cls-9" points="349.5 285.5 349.5 295 330.5 295 330.5 285 331.5 285 331.5 275.5 339.5 275.5 339.5 285.5 349.5 285.5"/><rect class="cls-9" x="330" y="295.5" width="9.5" height="9"/><rect class="cls-9" x="330" y="185" width="9.5" height="19.5"/><rect class="cls-9" x="340.5" y="295.5" width="9" height="19"/><rect class="cls-9" x="338" y="305.5" width="1.5" height="9"/><rect class="cls-9" x="330.5" y="305.5" width="3" height="19"/><rect class="cls-9" x="330" y="205.5" width="1" height="79"/><rect class="cls-9" x="334.5" y="305.5" width="3" height="19"/><rect class="cls-9" x="230.5" y="285" width="9" height="39.5"/><rect class="cls-9" x="250" y="235.5" width="20" height="19"/><rect class="cls-9" x="290.5" y="195.5" width="19" height="19"/><rect class="cls-9" x="250.5" y="195.5" width="19" height="19"/><rect class="cls-9" x="230.5" y="35.5" width="9" height="169.5"/><rect class="cls-9" x="290" y="235.5" width="20" height="19"/><rect class="cls-9" x="290" y="215" width="20" height="20"/><rect class="cls-9" x="270.5" y="235.5" width="19" height="19"/><rect class="cls-9" x="270.5" y="255.5" width="19" height="19"/><rect class="cls-9" x="270.5" y="215.5" width="19" height="19"/><rect class="cls-9" x="240" y="285" width="10" height="10"/><rect class="cls-9" x="240" y="295.5" width="80" height="9"/><rect class="cls-9" x="320.5" y="285" width="9" height="39.5"/><polygon class="cls-9" points="236.5 215 236.5 275 249.5 275 249.5 284.5 230.5 284.5 230.5 205.5 249.5 205.5 249.5 215 236.5 215"/><rect class="cls-9" x="250" y="255" width="20" height="20"/><polygon class="cls-9" points="320 285 320 295 270 295 270 275 290 275 290 255 310 255 310 285 320 285"/><rect class="cls-9" x="240.5" y="215.5" width="9" height="59"/><rect class="cls-9" x="240" y="305.5" width="80" height="19"/><rect class="cls-9" x="237" y="215.5" width="3" height="59"/><path class="cls-5" d="M340,285V275h-8.5V205H340V65h6V45h-8V35H222V45H14V65h6V205H50v10H70V205H90v10h20V205h20v10h20V205h20v10h20V205h20v10h18.5v70H230v10H190V275H170v20H110V275H90v20H30V275H20v10H10v30H222v10H338V315h12V285Zm2.5-239.5h3v19h-3Zm-2.5,0h1.5v19H340Zm-169.5,230h19v19h-19Zm-80,0h19v19h-19Zm-80,10h10v-10h9V295h-19Zm9,29h-9v-19h9Zm202.5,0H20.5v-9H222Zm3.5,10h-3v-19h3Zm4,0h-3v-19h3Zm.5-20H20.5v-9H230Zm108-259h1.5v9H338Zm-3.5-10h3v19h-3Zm-4,0h3v19h-3Zm-.5,20h9.5v9H330Zm0,10h9.5v9H330Zm0,9.5h9.5V175H330Zm0,100.5h9.5v9H330Zm0,9.5h9.5v19.5H330Zm0,20.5h1v79h-1Zm-90-170h80v19H240Zm0,20h80v9H240ZM280.5,175V75H320V175Zm39.5.5v9H280.5v-9Zm-39.5-101v-9H320v9ZM240,65h40V185h40v19.5H310V195H290v9.5H270V195H250v9.5H240Zm70.5,150.5h9v59h-9ZM290,235V215H270v20H250V215h20V205h20v10h20v20Zm20,.5v19H290v-19Zm-39.5,19v-19h19v19Zm19,1v19h-19v-19Zm-19-21v-19h19v19Zm-.5,1v19H250v-19Zm-19.5-21v-19h19v19Zm40,0v-19h19v19ZM250,285v10H240V285Zm-.5-10.5h-9v-59h9Zm-19-239h9V205h-9Zm0,170h19V215h-13v60h13v9.5h-19Zm9.5,10v59h-3v-59Zm-13.5-180h3v19h-3Zm-4,0h3v19h-3Zm-202,10H222v9H20.5Zm-3,19h-3v-19h3Zm2.5,0H18.5v-19H20Zm49.5,150h-19v-19h19Zm40,0h-19v-19h19Zm40,0h-19v-19h19Zm40,0h-19v-19h19Zm39,0h-18v-19h19V205h-1Zm1.5,70h-1v-79h1Zm0-89.5H210v9.5H190V195H170v9.5H150V195H130v9.5H110V195H90v9.5H70V195H50v9.5H20.5V65H40v40H55.5V65h69v40H140V65h90ZM40.5,104.5v-39h9v39Zm10,0v-39h3v39Zm3.5,0v-39h1v39Zm71,0v-39h1v39Zm1.5,0v-39h3v39Zm4,0v-39h9v39Zm99.5-40H20.5v-9H230Zm9.5,260h-9V285h9Zm80.5,0H240v-19h80Zm0-20H240v-9h80Zm-69.5-10v-19h19v19Zm69.5.5H270V275H250V255h20v20h20V255h20v30h10Zm9.5,29.5h-9V285h9Zm0-40h-19V275h13V215h-13v-9.5h19Zm-9.5-10v-59h3v59Zm9.5-69.5h-9V35.5h9Zm4,119.5h-3v-19h3Zm4,0h-3v-19h3Zm2-10H338v-9h1.5Zm0-10H330v-9h9.5Zm10,10h-9v-19h9Zm0-19.5h-19V285h1v-9.5h8v10h10Z"/></g></g></svg>