<svg xmlns="http://www.w3.org/2000/svg" viewBox="0 0 24 24"><defs><style>.cls-1{fill:none;}</style></defs><title>icon_bar_switch_connection_1</title><g id="Warstwa_2" data-name="Warstwa 2"><g id="Icons"><rect class="cls-1" width="24" height="24"/><path d="M21.5,11H17.29a.5.5,0,0,1-.48-.38,5,5,0,0,0-9.62,0,.5.5,0,0,1-.48.38H2.5a.5.5,0,0,0-.5.5v1a.5.5,0,0,0,.5.5H7.1a6.14,6.14,0,0,0,.29.95A5,5,0,0,0,14,16.61,5.09,5.09,0,0,0,16.61,14,6.14,6.14,0,0,0,16.9,13h4.6a.5.5,0,0,0,.5-.5v-1A.5.5,0,0,0,21.5,11ZM9,12a3,3,0,1,1,3,3A3,3,0,0,1,9,12Z"/></g></g></svg>