<svg xmlns="http://www.w3.org/2000/svg" viewBox="0 0 360 360"><defs><style>.cls-1{fill:#f2f2f2;}.cls-2{fill:#ccc;}.cls-3{fill:#666;}.cls-4{fill:#c1272d;}.cls-5{fill:#4d4d4d;}.cls-6{fill:#333;}.cls-7{fill:#fcee21;}.cls-8{fill:#1a1a1a;}.cls-9{fill:#999;}</style></defs><title>icon_menu_station_passenger</title><g id="Warstwa_2" data-name="Warstwa 2"><g id="Icons"><rect class="cls-1" width="360" height="360" rx="20" ry="20"/></g><g id="passenger_lines"><rect class="cls-2" x="5" y="105.46" width="324.07" height="77.78"/><rect class="cls-3" x="8.24" y="120.69" width="45.37" height="1.94"/><rect class="cls-3" x="8.24" y="127.18" width="45.37" height="1.94"/><rect class="cls-4" x="50.37" y="137.87" width="90.74" height="9.72"/><rect class="cls-4" x="192.96" y="137.87" width="90.74" height="9.72"/><rect class="cls-4" x="283.7" y="105.46" width="6.48" height="38.89"/><rect class="cls-5" x="296.67" y="105.46" width="12.96" height="1.62"/><rect class="cls-5" x="296.67" y="110.32" width="12.96" height="1.62"/><rect class="cls-5" x="296.67" y="108.06" width="12.96" height="1.3"/><rect class="cls-4" x="290.19" y="105.46" width="12.96" height="12.96"/><rect class="cls-6" x="316.11" y="183.24" width="12.96" height="19.44"/><rect class="cls-6" x="5" y="183.24" width="12.96" height="19.44"/><rect class="cls-6" x="108.7" y="183.24" width="12.96" height="19.44"/><rect class="cls-6" x="212.41" y="183.24" width="12.96" height="19.44"/><rect class="cls-2" x="160.56" y="111.94" width="12.96" height="155.56"/><rect class="cls-3" x="134.63" y="111.94" width="25.93" height="155.56"/><rect class="cls-3" x="173.52" y="111.94" width="25.93" height="155.56"/><rect class="cls-3" x="280.46" y="120.69" width="45.37" height="1.94"/><rect class="cls-3" x="280.46" y="127.18" width="45.37" height="1.94"/><rect class="cls-6" x="244.81" y="144.35" width="12.96" height="38.89"/><rect class="cls-6" x="76.3" y="144.35" width="12.96" height="38.89"/><rect class="cls-2" x="134.63" y="79.54" width="64.81" height="25.93"/><rect class="cls-2" x="329.07" y="144.35" width="25.93" height="38.89"/><rect class="cls-3" x="134.63" y="105.46" width="64.81" height="6.48"/><rect class="cls-5" x="37.41" y="105.46" width="12.96" height="1.62"/><rect class="cls-5" x="37.41" y="110.32" width="12.96" height="1.62"/><rect class="cls-5" x="37.41" y="108.06" width="12.96" height="1.3"/><rect class="cls-5" x="24.44" y="105.46" width="12.96" height="1.62"/><rect class="cls-5" x="24.44" y="110.32" width="12.96" height="1.62"/><rect class="cls-5" x="24.44" y="108.06" width="12.96" height="1.3"/><rect class="cls-5" x="11.48" y="105.46" width="12.96" height="1.62"/><rect class="cls-5" x="11.48" y="110.32" width="12.96" height="1.62"/><rect class="cls-5" x="11.48" y="108.06" width="12.96" height="1.3"/><rect class="cls-5" x="309.63" y="105.46" width="12.96" height="1.62"/><rect class="cls-5" x="309.63" y="110.32" width="12.96" height="1.62"/><rect class="cls-5" x="309.63" y="108.06" width="12.96" height="1.3"/><circle class="cls-7" cx="325.83" cy="180" r="3.24"/><path class="cls-8" d="M325.83,177.73A2.27,2.27,0,1,0,328.1,180,2.27,2.27,0,0,0,325.83,177.73Zm0,4.21a1.94,1.94,0,1,1,1.95-1.94A1.94,1.94,0,0,1,325.83,181.94Z"/><circle class="cls-7" cx="14.72" cy="180" r="3.24"/><path class="cls-8" d="M14.72,177.73A2.27,2.27,0,1,0,17,180,2.27,2.27,0,0,0,14.72,177.73Zm0,4.21a1.94,1.94,0,1,1,2-1.94A1.94,1.94,0,0,1,14.72,181.94Z"/><circle class="cls-7" cx="53.61" cy="180" r="3.24"/><path class="cls-8" d="M53.61,177.73A2.27,2.27,0,1,0,55.88,180,2.27,2.27,0,0,0,53.61,177.73Zm0,4.21a1.94,1.94,0,1,1,2-1.94A1.94,1.94,0,0,1,53.61,181.94Z"/><circle class="cls-7" cx="209.17" cy="180" r="3.24"/><path class="cls-8" d="M209.17,177.73a2.27,2.27,0,1,0,2.27,2.27A2.27,2.27,0,0,0,209.17,177.73Zm0,4.21a1.94,1.94,0,1,1,1.94-1.94A1.94,1.94,0,0,1,209.17,181.94Z"/><circle class="cls-7" cx="286.94" cy="180" r="3.24"/><path class="cls-8" d="M286.94,177.73a2.27,2.27,0,1,0,2.27,2.27A2.27,2.27,0,0,0,286.94,177.73Zm0,4.21a1.94,1.94,0,1,1,1.95-1.94A1.94,1.94,0,0,1,286.94,181.94Z"/><circle class="cls-7" cx="131.39" cy="180" r="3.24"/><path class="cls-8" d="M131.39,177.73a2.27,2.27,0,1,0,2.27,2.27A2.27,2.27,0,0,0,131.39,177.73Zm0,4.21a1.94,1.94,0,1,1,1.94-1.94A1.94,1.94,0,0,1,131.39,181.94Z"/><circle class="cls-7" cx="92.5" cy="180" r="3.24"/><path class="cls-8" d="M92.5,177.73A2.27,2.27,0,1,0,94.77,180,2.27,2.27,0,0,0,92.5,177.73Zm0,4.21A1.94,1.94,0,1,1,94.44,180,1.94,1.94,0,0,1,92.5,181.94Z"/><rect class="cls-6" x="134.63" y="267.5" width="12.96" height="12.96"/><rect class="cls-6" x="186.48" y="267.5" width="12.96" height="12.96"/><rect class="cls-3" x="290.19" y="118.43" width="3.24" height="25.93"/><rect class="cls-3" x="322.59" y="105.46" width="6.48" height="38.89" rx="3.24" ry="3.24"/><path class="cls-8" d="M325.83,119.4a2.27,2.27,0,1,0,2.27,2.27A2.27,2.27,0,0,0,325.83,119.4Zm0,4.21a1.95,1.95,0,1,1,1.95-1.94A1.94,1.94,0,0,1,325.83,123.61Z"/><path class="cls-8" d="M325.83,125.88a2.27,2.27,0,1,0,2.27,2.27A2.27,2.27,0,0,0,325.83,125.88Zm0,4.21a1.95,1.95,0,1,1,1.95-1.94A1.94,1.94,0,0,1,325.83,130.09Z"/><rect class="cls-3" x="5" y="105.46" width="6.48" height="38.89" rx="3.24" ry="3.24"/><path class="cls-8" d="M8.24,119.4a2.27,2.27,0,1,0,2.27,2.27A2.27,2.27,0,0,0,8.24,119.4Zm0,4.21a1.95,1.95,0,1,1,1.95-1.94A1.94,1.94,0,0,1,8.24,123.61Z"/><path class="cls-8" d="M8.24,125.88a2.27,2.27,0,1,0,2.27,2.27A2.27,2.27,0,0,0,8.24,125.88Zm0,4.21a1.95,1.95,0,1,1,1.95-1.94A1.94,1.94,0,0,1,8.24,130.09Z"/><rect class="cls-6" x="50.37" y="105.46" width="84.26" height="32.41"/><rect class="cls-6" x="199.44" y="105.46" width="84.26" height="32.41"/><rect class="cls-9" x="50.37" y="118.43" width="12.96" height="12.96"/><circle class="cls-6" cx="53.61" cy="128.15" r="2.27"/><rect class="cls-9" x="52.96" y="125.56" width="1.3" height="5.19"/><path class="cls-3" d="M60.09,124.91H53.61a3.24,3.24,0,0,0,0,6.48h6.48a3.24,3.24,0,1,0,0-6.48Zm-6.48,5.51a2.27,2.27,0,1,1,2.27-2.27A2.27,2.27,0,0,1,53.61,130.42Zm6.48,0a2.27,2.27,0,1,1,2.27-2.27A2.27,2.27,0,0,1,60.09,130.42Z"/><path class="cls-8" d="M60.09,125.72a2.43,2.43,0,1,0,2.43,2.43A2.43,2.43,0,0,0,60.09,125.72Zm0,4.53a2.11,2.11,0,1,1,2.11-2.1A2.1,2.1,0,0,1,60.09,130.25Z"/><path class="cls-8" d="M53.61,125.72A2.43,2.43,0,1,0,56,128.15,2.43,2.43,0,0,0,53.61,125.72Zm0,4.53a2.11,2.11,0,1,1,2.11-2.1A2.11,2.11,0,0,1,53.61,130.25Z"/><circle class="cls-6" cx="53.61" cy="121.67" r="2.27"/><rect class="cls-9" x="52.96" y="119.07" width="1.3" height="5.19"/><path class="cls-3" d="M60.09,118.43H53.61a3.24,3.24,0,0,0,0,6.48h6.48a3.24,3.24,0,1,0,0-6.48Zm-6.48,5.51a2.27,2.27,0,1,1,2.27-2.27A2.27,2.27,0,0,1,53.61,123.94Zm6.48,0a2.27,2.27,0,1,1,2.27-2.27A2.27,2.27,0,0,1,60.09,123.94Z"/><path class="cls-8" d="M53.61,119.24A2.43,2.43,0,1,0,56,121.67,2.43,2.43,0,0,0,53.61,119.24Zm0,4.53a2.11,2.11,0,1,1,2.11-2.1A2.11,2.11,0,0,1,53.61,123.77Z"/><path class="cls-8" d="M60.09,119.24a2.43,2.43,0,1,0,2.43,2.43A2.43,2.43,0,0,0,60.09,119.24Zm0,4.53a2.11,2.11,0,1,1,2.11-2.1A2.1,2.1,0,0,1,60.09,123.77Z"/><rect class="cls-9" x="270.74" y="118.43" width="12.96" height="12.96" transform="translate(554.44 249.81) rotate(-180)"/><circle class="cls-6" cx="280.46" cy="128.15" r="2.27"/><rect class="cls-9" x="279.81" y="125.56" width="1.3" height="5.19" transform="translate(560.93 256.3) rotate(-180)"/><path class="cls-3" d="M270.74,128.15a3.24,3.24,0,0,0,3.24,3.24h6.48a3.24,3.24,0,1,0,0-6.48H274A3.24,3.24,0,0,0,270.74,128.15Zm7.45,0a2.27,2.27,0,1,1,2.27,2.27A2.27,2.27,0,0,1,278.19,128.15Zm-6.48,0a2.27,2.27,0,1,1,2.27,2.27A2.27,2.27,0,0,1,271.71,128.15Z"/><path class="cls-8" d="M271.55,128.15a2.43,2.43,0,1,0,2.43-2.43A2.43,2.43,0,0,0,271.55,128.15Zm.32,0a2.11,2.11,0,1,1,2.11,2.1A2.11,2.11,0,0,1,271.87,128.15Z"/><path class="cls-8" d="M278,128.15a2.43,2.43,0,1,0,2.43-2.43A2.43,2.43,0,0,0,278,128.15Zm.33,0a2.11,2.11,0,1,1,2.1,2.1A2.1,2.1,0,0,1,278.36,128.15Z"/><circle class="cls-6" cx="280.46" cy="121.67" r="2.27"/><rect class="cls-9" x="279.81" y="119.07" width="1.3" height="5.19" transform="translate(560.93 243.33) rotate(-180)"/><path class="cls-3" d="M270.74,121.67a3.24,3.24,0,0,0,3.24,3.24h6.48a3.24,3.24,0,1,0,0-6.48H274A3.24,3.24,0,0,0,270.74,121.67Zm7.45,0a2.27,2.27,0,1,1,2.27,2.27A2.27,2.27,0,0,1,278.19,121.67Zm-6.48,0a2.27,2.27,0,1,1,2.27,2.27A2.27,2.27,0,0,1,271.71,121.67Z"/><path class="cls-8" d="M278,121.67a2.43,2.43,0,1,0,2.43-2.43A2.43,2.43,0,0,0,278,121.67Zm.33,0a2.11,2.11,0,1,1,2.1,2.1A2.1,2.1,0,0,1,278.36,121.67Z"/><path class="cls-8" d="M271.55,121.67a2.43,2.43,0,1,0,2.43-2.43A2.43,2.43,0,0,0,271.55,121.67Zm.32,0a2.11,2.11,0,1,1,2.11,2.1A2.11,2.11,0,0,1,271.87,121.67Z"/><rect class="cls-9" x="122.48" y="111.13" width="12.96" height="1.62" transform="translate(17.01 240.9) rotate(-90)"/><rect class="cls-9" x="127.34" y="111.13" width="12.96" height="1.62" transform="translate(21.87 245.76) rotate(-90)"/><rect class="cls-9" x="124.91" y="111.3" width="12.96" height="1.3" transform="translate(19.44 243.33) rotate(-90)"/><rect class="cls-9" x="193.77" y="111.13" width="12.96" height="1.62" transform="translate(88.31 312.2) rotate(-90)"/><rect class="cls-9" x="198.63" y="111.13" width="12.96" height="1.62" transform="translate(93.17 317.06) rotate(-90)"/><rect class="cls-9" x="196.2" y="111.3" width="12.96" height="1.3" transform="translate(90.74 314.63) rotate(-90)"/><rect class="cls-9" x="128.96" y="273.17" width="12.96" height="1.62" transform="translate(-138.54 409.42) rotate(-90)"/><rect class="cls-9" x="133.82" y="273.17" width="12.96" height="1.62" transform="translate(-133.68 414.28) rotate(-90)"/><rect class="cls-9" x="131.39" y="273.33" width="12.96" height="1.3" transform="translate(-136.11 411.85) rotate(-90)"/><rect class="cls-9" x="187.29" y="273.17" width="12.96" height="1.62" transform="translate(-80.21 467.75) rotate(-90)"/><rect class="cls-9" x="192.15" y="273.17" width="12.96" height="1.62" transform="translate(-75.35 472.62) rotate(-90)"/><rect class="cls-9" x="189.72" y="273.33" width="12.96" height="1.3" transform="translate(-77.78 470.19) rotate(-90)"/><rect class="cls-3" x="160.56" y="267.5" width="12.96" height="3.24"/><path class="cls-8" d="M167,83.43A2.59,2.59,0,1,0,169.63,86,2.6,2.6,0,0,0,167,83.43Zm0,4.86A2.27,2.27,0,1,1,169.31,86,2.27,2.27,0,0,1,167,88.29Z"/><path class="cls-8" d="M154.07,96.39a2.59,2.59,0,1,0,2.6,2.59A2.59,2.59,0,0,0,154.07,96.39Zm0,4.86A2.27,2.27,0,1,1,156.34,99,2.27,2.27,0,0,1,154.07,101.25Z"/><path class="cls-8" d="M180,96.39A2.59,2.59,0,1,0,182.59,99,2.59,2.59,0,0,0,180,96.39Zm0,4.86A2.27,2.27,0,1,1,182.27,99,2.27,2.27,0,0,1,180,101.25Z"/><path class="cls-8" d="M348.52,148.24a2.6,2.6,0,1,0,2.59,2.59A2.59,2.59,0,0,0,348.52,148.24Zm0,4.86a2.27,2.27,0,1,1,2.27-2.27A2.27,2.27,0,0,1,348.52,153.1Z"/><path class="cls-8" d="M335.39,161.2a2.6,2.6,0,1,0,2.6,2.6A2.59,2.59,0,0,0,335.39,161.2Zm0,4.86a2.27,2.27,0,1,1,2.27-2.26A2.26,2.26,0,0,1,335.39,166.06Z"/><path class="cls-8" d="M342.36,144.35H329.07V105.46H199.44V79.54H134.63v25.92H5v97.23H18V183.24H108.7v19.45h13V183.24h13v97.22h13V267.82h13v2.92h13v-2.92h13v12.64h13V183.24h13v19.45h13V183.24h90.74v19.45h13V183.24H355V144.35Zm-221,58H109v-18.8h12.31Zm103.71,0H212.73v-18.8h12.32Zm116.66-44.72V170H329.4V157.64Zm0-13V157H329.4V144.68Zm-13-3.57a2.92,2.92,0,1,1-5.83,0V129.54a3.22,3.22,0,0,0,5.83,0ZM293.1,144h-.65V129.12h.65Zm-22-14.49a3.18,3.18,0,0,0,1.53,1.52h-1.53Zm0-1.39a2.92,2.92,0,0,1,2.92-2.92h6.48a2.92,2.92,0,1,1,0,5.83H274A2.91,2.91,0,0,1,271.06,128.15Zm2.92-9.4h6.48a2.92,2.92,0,1,1,0,5.83H274a2.92,2.92,0,1,1,0-5.83Zm-2.92,1.53v-1.53h1.53A3.25,3.25,0,0,0,271.06,120.28Zm12.64.74h38.89v1.29H283.7Zm19.45-9.08h19.44v8.75H293.43v-2.26h9.72Zm-10,8.75h-.65v-2.26h.65Zm-1,0h-1.62v-2.26h1.62Zm-8.1,2h5.83v4.54H284Zm6.48,0h1.62v4.54h-1.62Zm1.94,0h.65v4.54h-.65Zm1,0h29.16v4.54H293.43Zm-10.05-2.36a3.25,3.25,0,0,0-1.53-1.53h1.53Zm0,2.78v3.7a3.24,3.24,0,0,0-2.92-1.85A3.24,3.24,0,0,0,283.38,123.06Zm-9.4,1.85a3.25,3.25,0,0,0-2.92,1.85v-3.7A3.25,3.25,0,0,0,274,124.91Zm9.4,4.63v1.52h-1.53A3.18,3.18,0,0,0,283.38,129.54ZM244.49,146.3H199.77v-2h44.72ZM199.77,144v-5.84h44.72V144Zm45.37-5.84h12.31V144H245.14Zm13,0h12.32V144H258.1Zm12.32,6.16v2H258.1v-2Zm-71.3-32.41H186.81v-6.15h12.31Zm-38.24-6.15h12.31v6.15H160.88Zm13,0h12.32v6.15H173.84Zm0-.65V92.82h12.32v12.32Zm-.65,0H160.88V92.82h12.31Zm-13,0H147.92V92.82h12.31Zm0,.65v6.15H147.92v-6.15Zm.65,6.8h12.31V189.4H160.88Zm-13.61-.65H135v-6.15h12.32ZM76,146.3H63.66v-2H76ZM63.66,144v-5.84H76V144Zm13-5.84H88.94V144H76.62Zm13,0h44.73V144H89.58Zm44.73,6.16v2H89.58v-2ZM63,138.19V144H50.69v-5.84Zm0,6.16v2H50.69v-2Zm0,2.27v.65H50.69v-.65Zm.65,0H76v.65H63.66Zm25.92,0h44.73v.65H89.58Zm45.37-34h25.28V163.8H135Zm25.93,154.59V190.05h12.31v77.13Zm13-103.38V112.59h25.28V163.8Zm25.93-17.18h44.72v.65H199.77Zm58.33,0h12.32v.65H258.1Zm13,0h12.32v.65H271.06Zm0-.32v-2h12.32v2Zm0-2.27v-5.84h12.32V144Zm13-14.91h5.83V144H284Zm6.48,0h1.62V144h-1.62Zm-6.81-.32v-1.3h38.89v1.3Zm39.22-.65a2.92,2.92,0,1,1,2.91,2.91A2.91,2.91,0,0,1,322.92,128.15Zm5.83-1.39a3.22,3.22,0,0,0-5.83,0v-3.7a3.22,3.22,0,0,0,5.83,0Zm-5.83-5.09a2.92,2.92,0,1,1,2.91,2.91A2.91,2.91,0,0,1,322.92,121.67Zm2.91-3.24a3.22,3.22,0,0,0-2.91,1.85V108.7a2.92,2.92,0,0,1,5.83,0v11.58A3.24,3.24,0,0,0,325.83,118.43Zm2.92-12.64v1.52a3.27,3.27,0,0,0-1.53-1.52Zm-4.31,0a3.22,3.22,0,0,0-1.85,2.91v-2.91Zm-2.17,0v5.83H310v-5.83Zm-13,0v5.83h-6.16v-5.83Zm-6.49,0V118.1H290.51V105.79Zm-13,0v14.9H284v-14.9Zm-6.48,0v12.64H270.74v13h12.64v6.16H199.77V118.43h6.16V105.79Zm-77.78,0V118.1h-5.83V105.79Zm-6.48-.65H186.81V92.82h12.31Zm0-25.28V92.18H186.81V79.86Zm-13,0V92.18H173.84V79.86Zm-13,0V92.18H160.88V79.86Zm-13,0V92.18H147.92V79.86ZM135,86.34V79.86h12.32V92.18H135Zm0,6.48h12.32v12.32H135Zm-.64,13V118.1h-5.84V105.79Zm-6.16,0v12.64h6.16v19.12H50.69v-6.16H63.33v-13H50.69V105.79ZM11.48,127.5H50.37v1.3H11.48Zm.33-15.56H50.37v8.75H11.48v-8.75ZM63,120.28a3.25,3.25,0,0,0-1.53-1.53H63Zm0,1.39a2.91,2.91,0,0,1-2.92,2.91H53.61a2.92,2.92,0,1,1,0-5.83h6.48A2.92,2.92,0,0,1,63,121.67Zm-2.92,9.39H53.61a2.92,2.92,0,1,1,0-5.83h6.48a2.92,2.92,0,1,1,0,5.83ZM63,129.54v1.52H61.48A3.18,3.18,0,0,0,63,129.54Zm-12.32,0a3.18,3.18,0,0,0,1.53,1.52H50.69Zm-.32-2.36H11.48v-4.54H50.37Zm.32-.42v-3.7a3.25,3.25,0,0,0,2.92,1.85A3.25,3.25,0,0,0,50.69,126.76Zm9.4-1.85A3.24,3.24,0,0,0,63,123.06v3.7A3.24,3.24,0,0,0,60.09,124.91Zm-9.4-4.63v-1.53h1.53A3.25,3.25,0,0,0,50.69,120.28Zm-.32.74v1.29H11.48V121Zm-.32-15.23v5.83H37.73v-5.83Zm-13,0v5.83H24.77v-5.83Zm-13,0v5.83H11.81v-5.83Zm-12.64,0v2.91a3.22,3.22,0,0,0-1.85-2.91Zm-6.16,0H6.85a3.27,3.27,0,0,0-1.53,1.52Zm0,2.91a2.92,2.92,0,0,1,5.84,0v11.58a3.23,3.23,0,0,0-5.84,0Zm5.84,13a2.92,2.92,0,1,1-2.92-2.92A2.91,2.91,0,0,1,11.16,121.67Zm-5.84,1.39a3.23,3.23,0,0,0,5.84,0v3.7a3.23,3.23,0,0,0-5.84,0Zm5.84,5.09a2.92,2.92,0,1,1-2.92-2.92A2.91,2.91,0,0,1,11.16,128.15Zm-2.92,3.24a3.24,3.24,0,0,0,2.92-1.85v11.57a2.92,2.92,0,0,1-5.84,0V129.54A3.25,3.25,0,0,0,8.24,131.39Zm9.4,71H5.32v-18.8H17.64ZM55,182.92a3.24,3.24,0,1,0-2.78,0H16.11a3.24,3.24,0,1,0-2.78,0h-8V142.5a3.24,3.24,0,0,0,6.16-1.39v-12H50.37v18.47H76.3v35.33Zm-1.39,0A2.92,2.92,0,1,1,56.53,180,2.92,2.92,0,0,1,53.61,182.92Zm-38.89,0A2.92,2.92,0,1,1,17.64,180,2.91,2.91,0,0,1,14.72,182.92Zm61.9,0V144.68H88.94v38.24Zm56.16,0a3.24,3.24,0,1,0-2.78,0H93.89a3.24,3.24,0,1,0-2.78,0H89.26V147.59h45.37v35.33Zm-1.39,0a2.92,2.92,0,1,1,2.92-2.92A2.92,2.92,0,0,1,131.39,182.92Zm-38.89,0A2.92,2.92,0,1,1,95.42,180,2.92,2.92,0,0,1,92.5,182.92ZM135,164.44h25.28v50.88H135ZM135,216h25.28v51.21H135Zm0,64.17V267.82h5.84v12.32Zm12.32,0h-6.16V267.82h6.16Zm25.92-9.72H160.88v-.65h12.31Zm0-1H160.88v-1.62h12.31Zm13.62,10.7V267.82H193v12.32Zm12.31,0h-5.83V267.82h5.83Zm0-13H173.84V216h25.28Zm-25.28-51.86V164.44h25.28v50.88Zm36.72-32.4a3.24,3.24,0,1,0-2.78,0h-8.34V147.59h45.37v35.33Zm-1.39,0a2.92,2.92,0,1,1,2.91-2.92A2.92,2.92,0,0,1,209.17,182.92Zm36,0V144.68h12.31v38.24Zm43.19,0a3.25,3.25,0,1,0-2.77,0H257.78V147.59H283.7v-3.24h9.73V129.12h29.16v12a3.24,3.24,0,0,0,6.16,1.39v36.11a3.24,3.24,0,1,0-4.31,4.31Zm-1.39,0a2.92,2.92,0,1,1,2.92-2.92A2.91,2.91,0,0,1,286.94,182.92Zm38.89,0a2.92,2.92,0,1,1,2.92-2.92A2.91,2.91,0,0,1,325.83,182.92Zm2.92-1.53v1.53h-1.53A3.25,3.25,0,0,0,328.75,181.39Zm0,21H316.44v-18.8h12.31Zm.65-19.44V170.6h12.31v12.32Zm25.28,0H342.36V170.6h12.32Zm0-13H342.36V157.64h12.32Zm-12.32-13V144.68h12.32V157Z"/></g></g></svg>