<svg xmlns="http://www.w3.org/2000/svg" viewBox="0 0 360 360"><defs><style>.cls-1{fill:#f2f2f2;}.cls-2{fill:#b3b3b3;}.cls-3{fill:#666;}.cls-4{fill:#4d4d4d;}.cls-5{fill:#333;}</style></defs><title>straight_rail_icon</title><g id="Warstwa_2" data-name="Warstwa 2"><g id="Icons"><rect class="cls-1" width="360" height="360" rx="20" ry="20"/><rect class="cls-2" x="130" y="140" width="20" height="80"/><rect class="cls-2" x="210" y="140" width="20" height="80"/><rect class="cls-2" x="170" y="140" width="20" height="80"/><rect class="cls-2" x="100" y="140" width="10" height="80"/><rect class="cls-2" x="250" y="140" width="10" height="80"/><circle class="cls-3" cx="105" cy="215" r="4"/><circle class="cls-3" cx="105" cy="195" r="4"/><circle class="cls-3" cx="105" cy="145" r="4"/><circle class="cls-3" cx="105" cy="185" r="4"/><circle class="cls-3" cx="105" cy="175" r="4"/><circle class="cls-3" cx="105" cy="165" r="4"/><circle class="cls-3" cx="255" cy="215" r="4"/><circle class="cls-3" cx="255" cy="195" r="4"/><circle class="cls-3" cx="255" cy="145" r="4"/><circle class="cls-3" cx="255" cy="185" r="4"/><circle class="cls-3" cx="255" cy="175" r="4"/><circle class="cls-3" cx="255" cy="165" r="4"/><circle class="cls-3" cx="135" cy="195" r="4"/><circle class="cls-3" cx="135" cy="185" r="4"/><circle class="cls-3" cx="135" cy="175" r="4"/><circle class="cls-3" cx="135" cy="165" r="4"/><circle class="cls-3" cx="145" cy="195" r="4"/><circle class="cls-3" cx="145" cy="185" r="4"/><circle class="cls-3" cx="145" cy="175" r="4"/><circle class="cls-3" cx="145" cy="165" r="4"/><circle class="cls-3" cx="135" cy="145" r="4"/><circle class="cls-3" cx="145" cy="145" r="4"/><circle class="cls-3" cx="135" cy="215" r="4"/><circle class="cls-3" cx="145" cy="215" r="4"/><circle class="cls-3" cx="175" cy="195" r="4"/><circle class="cls-3" cx="175" cy="185" r="4"/><circle class="cls-3" cx="175" cy="175" r="4"/><circle class="cls-3" cx="175" cy="165" r="4"/><circle class="cls-3" cx="185" cy="195" r="4"/><circle class="cls-3" cx="185" cy="185" r="4"/><circle class="cls-3" cx="185" cy="175" r="4"/><circle class="cls-3" cx="185" cy="165" r="4"/><circle class="cls-3" cx="175" cy="145" r="4"/><circle class="cls-3" cx="185" cy="145" r="4"/><circle class="cls-3" cx="175" cy="215" r="4"/><circle class="cls-3" cx="185" cy="215" r="4"/><circle class="cls-3" cx="215" cy="195" r="4"/><circle class="cls-3" cx="215" cy="185" r="4"/><circle class="cls-3" cx="215" cy="175" r="4"/><circle class="cls-3" cx="215" cy="165" r="4"/><circle class="cls-3" cx="225" cy="195" r="4"/><circle class="cls-3" cx="225" cy="185" r="4"/><circle class="cls-3" cx="225" cy="175" r="4"/><circle class="cls-3" cx="225" cy="165" r="4"/><circle class="cls-3" cx="215" cy="145" r="4"/><circle class="cls-3" cx="225" cy="145" r="4"/><circle class="cls-3" cx="215" cy="215" r="4"/><circle class="cls-3" cx="225" cy="215" r="4"/><rect class="cls-4" x="259" y="140" width="1" height="80"/><rect class="cls-4" x="100" y="140" width="1" height="80"/><rect class="cls-5" x="100" y="200" width="160" height="10"/><rect class="cls-5" x="100" y="150" width="160" height="10"/></g></g></svg>