<svg xmlns="http://www.w3.org/2000/svg" viewBox="0 0 360 360"><defs><style>.cls-1{fill:#f2f2f2;}.cls-2{fill:#b3b3b3;}.cls-3{fill:#666;}.cls-4{fill:#4d4d4d;}.cls-5{fill:gray;}.cls-6{fill:#ffe21f;}.cls-7{fill:#333;}</style></defs><title>left_switch_rail_icon</title><g id="Warstwa_2" data-name="Warstwa 2"><g id="Icons"><rect class="cls-1" width="360" height="360" rx="20" ry="20"/><path class="cls-2" d="M97.85,223.26,88.16,187.2l-19.31,5.18,5.6,20.88H58.88v-70h-30v140h30v-10h20v10h20V227.11Zm-14.26-33.8a4,4,0,1,1-2.82,4.9A4,4,0,0,1,83.59,189.46ZM71.11,197a4,4,0,1,1,4.9,2.84A4,4,0,0,1,71.11,197Z"/><rect class="cls-2" x="278.88" y="203.26" width="20" height="80"/><circle class="cls-3" cx="283.88" cy="258.26" r="4"/><circle class="cls-3" cx="283.88" cy="248.26" r="4"/><circle class="cls-3" cx="283.88" cy="238.26" r="4"/><circle class="cls-3" cx="283.88" cy="228.26" r="4"/><circle class="cls-3" cx="293.88" cy="258.26" r="4"/><circle class="cls-3" cx="293.88" cy="248.26" r="4"/><circle class="cls-3" cx="293.88" cy="238.26" r="4"/><circle class="cls-3" cx="293.88" cy="228.26" r="4"/><circle class="cls-3" cx="283.88" cy="208.26" r="4"/><circle class="cls-3" cx="293.88" cy="208.26" r="4"/><circle class="cls-3" cx="283.88" cy="278.26" r="4"/><circle class="cls-3" cx="293.88" cy="278.26" r="4"/><circle class="cls-3" cx="243.88" cy="258.26" r="4"/><circle class="cls-3" cx="243.88" cy="248.26" r="4"/><circle class="cls-3" cx="243.88" cy="238.26" r="4"/><circle class="cls-3" cx="243.88" cy="228.26" r="4"/><circle class="cls-3" cx="253.88" cy="258.26" r="4"/><circle class="cls-3" cx="253.88" cy="248.26" r="4"/><circle class="cls-3" cx="253.88" cy="238.26" r="4"/><circle class="cls-3" cx="253.88" cy="228.26" r="4"/><circle class="cls-3" cx="243.88" cy="278.26" r="4"/><circle class="cls-3" cx="253.88" cy="278.26" r="4"/><circle class="cls-3" cx="203.88" cy="278.26" r="4"/><circle class="cls-3" cx="213.88" cy="278.26" r="4"/><circle class="cls-3" cx="163.88" cy="278.26" r="4"/><circle class="cls-3" cx="173.88" cy="278.26" r="4"/><rect class="cls-2" x="289.94" y="88.27" width="20" height="80" transform="translate(626 118.17) rotate(155.07)"/><circle class="cls-3" cx="298.15" cy="112.56" r="4"/><circle class="cls-3" cx="302.37" cy="121.62" r="4"/><circle class="cls-3" cx="306.58" cy="130.69" r="4"/><circle class="cls-3" cx="310.8" cy="139.76" r="4"/><circle class="cls-3" cx="289.08" cy="116.77" r="4"/><circle class="cls-3" cx="293.3" cy="125.84" r="4"/><circle class="cls-3" cx="297.51" cy="134.91" r="4"/><circle class="cls-3" cx="301.73" cy="143.98" r="4"/><circle class="cls-3" cx="319.22" cy="157.9" r="4"/><circle class="cls-3" cx="310.16" cy="162.11" r="4"/><circle class="cls-3" cx="289.72" cy="94.42" r="4"/><circle class="cls-3" cx="280.65" cy="98.63" r="4"/><rect class="cls-2" x="256.43" y="104.92" width="20" height="80" transform="translate(569.68 149.29) rotate(152.28)"/><circle class="cls-3" cx="263.88" cy="129.31" r="4"/><circle class="cls-3" cx="268.53" cy="138.16" r="4"/><circle class="cls-3" cx="273.18" cy="147.02" r="4"/><circle class="cls-3" cx="277.83" cy="155.87" r="4"/><circle class="cls-3" cx="255.02" cy="133.96" r="4"/><circle class="cls-3" cx="259.68" cy="142.81" r="4"/><circle class="cls-3" cx="264.33" cy="151.67" r="4"/><circle class="cls-3" cx="268.98" cy="160.52" r="4"/><circle class="cls-3" cx="287.13" cy="173.57" r="4"/><circle class="cls-3" cx="278.28" cy="178.23" r="4"/><circle class="cls-3" cx="254.58" cy="111.61" r="4"/><circle class="cls-3" cx="245.72" cy="116.26" r="4"/><path class="cls-2" d="M211.22,183.26l-20.46-40.85-17.88,9,26,51.93v80h20v-84.7Zm-29.84-26.09a4,4,0,1,1,1.79-5.36A4,4,0,0,1,181.38,157.17Zm8.94-4.48a4,4,0,1,1,1.79-5.36A4,4,0,0,1,190.32,152.69Z"/><path class="cls-3" d="M190.32,152.69a4,4,0,1,1,1.79-5.36A4,4,0,0,1,190.32,152.69Z"/><path class="cls-3" d="M181.38,157.17a4,4,0,1,1,1.79-5.36A4,4,0,0,1,181.38,157.17Z"/><path class="cls-2" d="M177.69,203.26l-19.07-44.32-18.37,7.9,18.63,43.31v73.11h20V206ZM148.4,173.13a4,4,0,1,1,2.09-5.25A4,4,0,0,1,148.4,173.13Zm9.18-3.95a4,4,0,1,1,2.1-5.25A4,4,0,0,1,157.58,169.18Z"/><path class="cls-3" d="M157.58,169.18a4,4,0,1,1,2.1-5.25A4,4,0,0,1,157.58,169.18Z"/><path class="cls-3" d="M148.4,173.13a4,4,0,1,1,2.09-5.25A4,4,0,0,1,148.4,173.13Z"/><polygon class="cls-2" points="258.88 188.26 258.88 283.25 238.88 283.25 238.88 193.62 204.74 134.38 222.07 124.39 253.11 178.25 258.88 188.26"/><circle class="cls-3" cx="230.23" cy="148.55" r="4"/><circle class="cls-3" cx="235.22" cy="157.21" r="4"/><circle class="cls-3" cx="240.21" cy="165.88" r="4"/><circle class="cls-3" cx="245.2" cy="174.54" r="4"/><circle class="cls-3" cx="221.56" cy="153.54" r="4"/><circle class="cls-3" cx="226.55" cy="162.21" r="4"/><circle class="cls-3" cx="231.55" cy="170.87" r="4"/><circle class="cls-3" cx="236.54" cy="179.53" r="4"/><circle class="cls-3" cx="220.24" cy="131.22" r="4"/><circle class="cls-3" cx="211.58" cy="136.21" r="4"/><rect class="cls-2" x="326.19" y="75.61" width="10" height="80" transform="translate(681.41 95.69) rotate(157.5)"/><circle class="cls-3" cx="317.8" cy="83.28" r="4"/><circle class="cls-3" cx="325.45" cy="101.76" r="4"/><circle class="cls-3" cx="344.58" cy="147.95" r="4"/><circle class="cls-3" cx="329.28" cy="110.99" r="4"/><circle class="cls-3" cx="333.1" cy="120.23" r="4"/><circle class="cls-3" cx="336.93" cy="129.47" r="4"/><rect class="cls-4" x="334.85" y="73.89" width="1" height="80" transform="translate(688.75 90.78) rotate(157.5)"/><path class="cls-2" d="M135.51,203.26,125.2,173.58l-18.89,6.55,12.57,36.2v66.93h20V213ZM114,187a4,4,0,1,1,2.47-5.09A4,4,0,0,1,114,187Zm4.36-5.73a4,4,0,1,1,5.09,2.45A4,4,0,0,1,118.34,181.26Z"/><path class="cls-3" d="M123.43,183.71a4,4,0,1,1,2.46-5.08A4,4,0,0,1,123.43,183.71Z"/><path class="cls-3" d="M114,187a4,4,0,1,1,2.47-5.09A4,4,0,0,1,114,187Z"/><path class="cls-3" d="M85.67,197.19a4,4,0,1,1,2.82-4.9A4,4,0,0,1,85.67,197.19Z"/><path class="cls-3" d="M76,199.79a4,4,0,1,1,2.83-4.91A4,4,0,0,1,76,199.79Z"/><rect class="cls-2" x="8.88" y="203.26" width="10" height="80"/><rect class="cls-2" x="318.88" y="203.26" width="10" height="80"/><circle class="cls-3" cx="13.88" cy="278.26" r="4"/><circle class="cls-3" cx="13.88" cy="258.26" r="4"/><circle class="cls-3" cx="13.88" cy="208.26" r="4"/><circle class="cls-3" cx="13.88" cy="248.26" r="4"/><circle class="cls-3" cx="13.88" cy="238.26" r="4"/><circle class="cls-3" cx="13.88" cy="228.26" r="4"/><circle class="cls-3" cx="323.88" cy="278.26" r="4"/><circle class="cls-3" cx="323.88" cy="258.26" r="4"/><circle class="cls-3" cx="323.88" cy="208.26" r="4"/><circle class="cls-3" cx="323.88" cy="248.26" r="4"/><circle class="cls-3" cx="323.88" cy="238.26" r="4"/><circle class="cls-3" cx="323.88" cy="228.26" r="4"/><circle class="cls-3" cx="33.88" cy="278.26" r="4"/><circle class="cls-3" cx="53.88" cy="278.26" r="4"/><circle class="cls-3" cx="53.88" cy="198.26" r="4"/><circle class="cls-3" cx="43.88" cy="198.26" r="4"/><circle class="cls-3" cx="33.88" cy="198.26" r="4"/><circle class="cls-3" cx="53.88" cy="188.26" r="4"/><circle class="cls-3" cx="43.88" cy="188.26" r="4"/><circle class="cls-3" cx="33.88" cy="188.26" r="4"/><circle class="cls-3" cx="53.88" cy="178.26" r="4"/><circle class="cls-3" cx="43.88" cy="178.26" r="4"/><circle class="cls-3" cx="33.88" cy="178.26" r="4"/><circle class="cls-3" cx="53.88" cy="168.26" r="4"/><circle class="cls-3" cx="33.88" cy="168.26" r="4"/><circle class="cls-3" cx="53.88" cy="148.26" r="4"/><circle class="cls-3" cx="33.88" cy="148.26" r="4"/><circle class="cls-3" cx="83.88" cy="278.26" r="4"/><circle class="cls-3" cx="93.88" cy="278.26" r="4"/><circle class="cls-3" cx="123.88" cy="278.26" r="4"/><circle class="cls-3" cx="133.88" cy="278.26" r="4"/><circle class="cls-3" cx="163.88" cy="278.26" r="4"/><circle class="cls-3" cx="173.88" cy="278.26" r="4"/><circle class="cls-3" cx="203.88" cy="278.26" r="4"/><circle class="cls-3" cx="213.88" cy="278.26" r="4"/><rect class="cls-4" x="327.88" y="203.26" width="1" height="80"/><rect class="cls-4" x="8.88" y="203.26" width="1" height="80"/><rect class="cls-5" x="34.88" y="157.26" width="5" height="2" rx="0.5" ry="0.5"/><rect class="cls-5" x="47.88" y="157.26" width="5" height="2" rx="0.5" ry="0.5"/><rect class="cls-5" x="41.38" y="151.76" width="5" height="2" rx="0.5" ry="0.5" transform="translate(-108.87 196.64) rotate(-90)"/><rect class="cls-5" x="41.38" y="162.76" width="5" height="2" rx="0.5" ry="0.5" transform="translate(-119.87 207.64) rotate(-90)"/><path class="cls-6" d="M48.88,156.26v4a1,1,0,0,1-1,1,.7.7,0,0,1-.25,0,2,2,0,0,1-1.75,1h-4a2,2,0,0,1-1.75-1,.7.7,0,0,1-.25,0,1,1,0,0,1-1-1v-4a1,1,0,0,1,1.25-1,2,2,0,0,1,1.75-1h4a2,2,0,0,1,1.75,1,1,1,0,0,1,1.25,1Z"/><path class="cls-7" d="M205.72,213.26H328.88v10H185.39a705.87,705.87,0,0,1-106.18,40H328.88v10H8.88v-10H39a694.86,694.86,0,0,0,122.1-40H8.88v-10H33.29a646.27,646.27,0,0,0,181.16-73.33A657.49,657.49,0,0,1,324.27,85.86l3.83,9.25c-38.51,14.57-74.84,33.7-109.45,55A657.13,657.13,0,0,1,75.33,213.26h107.8q25.94-12.31,50.64-26.67a608,608,0,0,1,109.65-54.5l3.83,9.25A598.61,598.61,0,0,0,237.63,195.9Q221.93,205,205.72,213.26Z"/><circle class="cls-3" cx="253.88" cy="258.26" r="4"/><circle class="cls-3" cx="243.88" cy="258.26" r="4"/><circle class="cls-3" cx="253.88" cy="278.26" r="4"/><circle class="cls-3" cx="243.88" cy="278.26" r="4"/><circle class="cls-3" cx="253.88" cy="248.26" r="4"/><circle class="cls-3" cx="243.88" cy="248.26" r="4"/><circle class="cls-3" cx="253.88" cy="238.26" r="4"/><circle class="cls-3" cx="243.88" cy="238.26" r="4"/><circle class="cls-3" cx="253.88" cy="228.26" r="4"/><circle class="cls-3" cx="243.88" cy="228.26" r="4"/></g></g></svg>