<svg xmlns="http://www.w3.org/2000/svg" viewBox="0 0 360 360"><defs><style>.cls-1{fill:#f2f2f2;}.cls-2{fill:#b3b3b3;}.cls-3{fill:gray;}.cls-4,.cls-5{fill:#333;}.cls-5{stroke:#333;stroke-miterlimit:10;stroke-width:10px;}.cls-6{fill:#4d4d4d;}</style></defs><title>left_switch_rail_icon</title><g id="Warstwa_2" data-name="Warstwa 2"><g id="Warstwa_1-2" data-name="Warstwa 1"><rect class="cls-1" width="360" height="360" rx="20" ry="20"/><rect class="cls-2" x="198.88" y="203.26" width="10" height="10"/><circle class="cls-3" cx="203.88" cy="208.26" r="4"/><rect class="cls-2" x="208.88" y="203.26" width="10" height="10"/><rect class="cls-2" x="200.72" y="202.08" width="10" height="10" transform="translate(-78.3 139.73) rotate(-31.85)"/><rect class="cls-2" x="85.43" y="212.89" width="10" height="10" transform="translate(-59.2 35.5) rotate(-16.82)"/><circle class="cls-3" cx="90.43" cy="217.89" r="4"/><rect class="cls-2" x="160.35" y="215.16" width="10" height="10" transform="translate(-84.16 103.72) rotate(-28.07)"/><circle class="cls-3" cx="165.35" cy="220.16" r="4"/><rect class="cls-2" x="155.64" y="206.33" width="10" height="10" transform="translate(-80.56 100.47) rotate(-28.07)"/><rect class="cls-2" x="150.94" y="197.51" width="10" height="10" transform="translate(-76.96 97.22) rotate(-28.07)"/><rect class="cls-2" x="146.23" y="188.69" width="10" height="10" transform="translate(-73.36 93.96) rotate(-28.07)"/><rect class="cls-2" x="169.17" y="210.45" width="10" height="10" transform="translate(-80.9 107.32) rotate(-28.07)"/><rect class="cls-2" x="164.47" y="201.63" width="10" height="10" transform="translate(-77.3 104.07) rotate(-28.07)"/><rect class="cls-2" x="159.76" y="192.8" width="10" height="10" transform="translate(-73.71 100.82) rotate(-28.07)"/><rect class="cls-2" x="155.05" y="183.98" width="10" height="10" transform="translate(-70.11 97.56) rotate(-28.07)"/><polygon class="cls-2" points="127.2 221.32 119.13 224.77 115.31 215.53 123.38 212.08 127.2 221.32"/><circle class="cls-3" cx="120.67" cy="218.61" r="4"/><rect class="cls-2" x="111.85" y="204.37" width="10" height="10" transform="translate(-71.1 60.49) rotate(-22.45)"/><rect class="cls-2" x="124.91" y="209.79" width="10" height="10" transform="translate(-72.18 65.89) rotate(-22.45)"/><rect class="cls-2" x="121.09" y="200.55" width="10" height="10" transform="translate(-68.94 63.73) rotate(-22.45)"/><rect class="cls-2" x="182.74" y="164.15" width="10" height="10"/><circle class="cls-3" cx="187.74" cy="169.15" r="4"/><rect class="cls-4" x="182.74" y="164.15" width="10" height="10"/><rect class="cls-2" x="339.59" y="142.95" width="10" height="10" transform="translate(-30.39 143.13) rotate(-22.5)"/><circle class="cls-3" cx="344.59" cy="147.95" r="4"/><rect class="cls-2" x="335.76" y="133.71" width="10" height="10" transform="matrix(0.92, -0.38, 0.38, 0.92, -27.14, 140.96)"/><circle class="cls-3" cx="340.76" cy="138.71" r="4"/><rect class="cls-2" x="312.8" y="78.28" width="10" height="10" transform="translate(-7.68 127.96) rotate(-22.5)"/><circle class="cls-3" cx="317.8" cy="83.28" r="4"/><rect class="cls-2" x="316.63" y="87.52" width="10" height="10" transform="translate(-10.92 130.12) rotate(-22.5)"/><circle class="cls-3" cx="321.63" cy="92.52" r="4"/><rect class="cls-2" x="331.93" y="124.47" width="10" height="10" transform="translate(-23.9 138.79) rotate(-22.5)"/><circle class="cls-3" cx="336.93" cy="129.47" r="4"/><rect class="cls-2" x="328.11" y="115.23" width="10" height="10" transform="translate(-20.65 136.63) rotate(-22.5)"/><circle class="cls-3" cx="333.11" cy="120.23" r="4"/><rect class="cls-2" x="324.28" y="105.99" width="10" height="10" transform="translate(-17.41 134.46) rotate(-22.5)"/><circle class="cls-3" cx="329.28" cy="110.99" r="4"/><rect class="cls-2" x="320.45" y="96.75" width="10" height="10" transform="translate(-14.17 132.29) rotate(-22.5)"/><circle class="cls-3" cx="325.45" cy="101.75" r="4"/><rect class="cls-4" x="316.63" y="87.52" width="10" height="10" transform="translate(-10.92 130.12) rotate(-22.5)"/><rect class="cls-4" x="335.76" y="133.71" width="10" height="10" transform="translate(-27.14 140.96) rotate(-22.5)"/><rect class="cls-2" x="158.88" y="273.26" width="10" height="10"/><circle class="cls-3" cx="163.88" cy="278.26" r="4"/><rect class="cls-2" x="8.88" y="273.26" width="10" height="10"/><circle class="cls-3" cx="13.88" cy="278.26" r="4"/><rect class="cls-2" x="38.88" y="273.26" width="10" height="10"/><circle class="cls-3" cx="43.88" cy="278.26" r="4"/><rect class="cls-2" x="48.88" y="273.26" width="10" height="10"/><circle class="cls-3" cx="53.88" cy="278.26" r="4"/><rect class="cls-2" x="8.88" y="203.26" width="10" height="10"/><circle class="cls-3" cx="13.88" cy="208.26" r="4"/><rect class="cls-2" x="38.88" y="203.26" width="10" height="10"/><circle class="cls-3" cx="43.88" cy="208.26" r="4"/><rect class="cls-2" x="48.88" y="203.26" width="10" height="10"/><circle class="cls-3" cx="53.88" cy="208.26" r="4"/><rect class="cls-2" x="78.88" y="203.26" width="10" height="10"/><circle class="cls-3" cx="83.88" cy="208.26" r="4"/><rect class="cls-2" x="78.88" y="273.26" width="10" height="10"/><circle class="cls-3" cx="83.88" cy="278.26" r="4"/><rect class="cls-2" x="88.88" y="273.26" width="10" height="10"/><circle class="cls-3" cx="93.88" cy="278.26" r="4"/><rect class="cls-2" x="118.88" y="203.26" width="10" height="10"/><rect class="cls-2" x="118.88" y="273.26" width="10" height="10"/><circle class="cls-3" cx="123.88" cy="278.26" r="4"/><rect class="cls-2" x="128.88" y="273.26" width="10" height="10"/><circle class="cls-3" cx="133.88" cy="278.26" r="4"/><rect class="cls-2" x="8.88" y="253.26" width="10" height="10"/><circle class="cls-3" cx="13.88" cy="258.26" r="4"/><rect class="cls-2" x="8.88" y="243.26" width="10" height="10"/><circle class="cls-3" cx="13.88" cy="248.26" r="4"/><rect class="cls-2" x="8.88" y="233.26" width="10" height="10"/><circle class="cls-3" cx="13.88" cy="238.26" r="4"/><rect class="cls-2" x="8.88" y="223.26" width="10" height="10"/><circle class="cls-3" cx="13.88" cy="228.26" r="4"/><rect class="cls-2" x="28.88" y="193.26" width="10" height="10"/><circle class="cls-3" cx="33.88" cy="198.26" r="4"/><rect class="cls-2" x="28.88" y="183.26" width="10" height="10"/><circle class="cls-3" cx="33.88" cy="188.26" r="4"/><rect class="cls-2" x="38.88" y="193.26" width="10" height="10"/><circle class="cls-3" cx="43.88" cy="198.26" r="4"/><rect class="cls-2" x="38.88" y="183.26" width="10" height="10"/><circle class="cls-3" cx="43.88" cy="188.26" r="4"/><rect class="cls-2" x="48.88" y="193.26" width="10" height="10"/><circle class="cls-3" cx="53.88" cy="198.26" r="4"/><rect class="cls-2" x="48.88" y="183.26" width="10" height="10"/><circle class="cls-3" cx="53.88" cy="188.26" r="4"/><rect class="cls-2" x="28.88" y="173.26" width="10" height="10"/><circle class="cls-3" cx="33.88" cy="178.26" r="4"/><rect class="cls-2" x="28.88" y="163.26" width="10" height="10"/><circle class="cls-3" cx="33.88" cy="168.26" r="4"/><rect class="cls-2" x="38.88" y="173.26" width="10" height="10"/><circle class="cls-3" cx="43.88" cy="178.26" r="4"/><rect class="cls-2" x="38.88" y="163.26" width="10" height="10"/><circle class="cls-3" cx="43.88" cy="168.26" r="4"/><rect class="cls-2" x="48.88" y="173.26" width="10" height="10"/><circle class="cls-3" cx="53.88" cy="178.26" r="4"/><rect class="cls-2" x="48.88" y="163.26" width="10" height="10"/><circle class="cls-3" cx="53.88" cy="168.26" r="4"/><rect class="cls-2" x="28.88" y="153.26" width="10" height="10"/><circle class="cls-3" cx="33.88" cy="158.26" r="4"/><rect class="cls-2" x="38.88" y="153.26" width="10" height="10"/><circle class="cls-3" cx="43.88" cy="158.26" r="4"/><rect class="cls-2" x="48.88" y="153.26" width="10" height="10"/><circle class="cls-3" cx="53.88" cy="158.26" r="4"/><rect class="cls-2" x="28.88" y="253.26" width="10" height="10"/><rect class="cls-2" x="28.88" y="273.26" width="10" height="10"/><circle class="cls-3" cx="33.88" cy="278.26" r="4"/><rect class="cls-2" x="28.88" y="243.26" width="10" height="10"/><rect class="cls-2" x="28.88" y="233.26" width="10" height="10"/><rect class="cls-2" x="28.88" y="223.26" width="10" height="10"/><rect class="cls-2" x="28.88" y="203.26" width="10" height="10"/><circle class="cls-3" cx="33.88" cy="208.26" r="4"/><rect class="cls-2" x="158.88" y="253.26" width="10" height="10"/><rect class="cls-2" x="158.88" y="243.26" width="10" height="10"/><rect class="cls-2" x="158.88" y="233.26" width="10" height="10"/><rect class="cls-2" x="158.88" y="223.26" width="10" height="10"/><rect class="cls-2" x="38.88" y="253.26" width="10" height="10"/><rect class="cls-2" x="38.88" y="243.26" width="10" height="10"/><rect class="cls-2" x="38.88" y="233.26" width="10" height="10"/><rect class="cls-2" x="38.88" y="223.26" width="10" height="10"/><rect class="cls-2" x="48.88" y="253.26" width="10" height="10"/><rect class="cls-2" x="48.88" y="243.26" width="10" height="10"/><rect class="cls-2" x="48.88" y="233.26" width="10" height="10"/><rect class="cls-2" x="48.88" y="223.26" width="10" height="10"/><rect class="cls-2" x="118.88" y="253.26" width="10" height="10"/><rect class="cls-2" x="118.88" y="243.26" width="10" height="10"/><circle class="cls-3" cx="123.88" cy="248.26" r="4"/><rect class="cls-2" x="118.88" y="233.26" width="10" height="10"/><rect class="cls-2" x="118.88" y="223.26" width="10" height="10"/><rect class="cls-2" x="128.88" y="253.26" width="10" height="10"/><rect class="cls-2" x="128.88" y="243.26" width="10" height="10"/><rect class="cls-2" x="128.88" y="233.26" width="10" height="10"/><rect class="cls-2" x="128.88" y="223.26" width="10" height="10"/><rect class="cls-2" x="78.88" y="253.26" width="10" height="10"/><rect class="cls-2" x="78.88" y="243.26" width="10" height="10"/><rect class="cls-2" x="78.88" y="233.26" width="10" height="10"/><rect class="cls-2" x="78.88" y="223.26" width="10" height="10"/><rect class="cls-2" x="88.88" y="253.26" width="10" height="10"/><rect class="cls-2" x="88.88" y="243.26" width="10" height="10"/><rect class="cls-2" x="88.88" y="233.26" width="10" height="10"/><rect class="cls-2" x="88.88" y="223.26" width="10" height="10"/><rect class="cls-4" x="8.88" y="213.26" width="160" height="10"/><rect class="cls-4" x="8.88" y="263.26" width="160" height="10"/><rect class="cls-2" x="318.88" y="273.26" width="10" height="10"/><circle class="cls-3" cx="323.88" cy="278.26" r="4"/><rect class="cls-2" x="318.88" y="203.26" width="10" height="10"/><circle class="cls-3" cx="323.88" cy="208.26" r="4"/><rect class="cls-2" x="168.88" y="273.26" width="10" height="10"/><circle class="cls-3" cx="173.88" cy="278.26" r="4"/><rect class="cls-2" x="198.88" y="273.26" width="10" height="10"/><circle class="cls-3" cx="203.88" cy="278.26" r="4"/><rect class="cls-2" x="208.88" y="273.26" width="10" height="10"/><circle class="cls-3" cx="213.88" cy="278.26" r="4"/><rect class="cls-2" x="198.88" y="203.26" width="10" height="10"/><circle class="cls-3" cx="203.88" cy="208.26" r="4"/><rect class="cls-2" x="238.88" y="203.26" width="10" height="10"/><rect class="cls-2" x="248.88" y="203.26" width="10" height="10"/><rect class="cls-2" x="238.88" y="193.26" width="10" height="10"/><rect class="cls-2" x="248.88" y="193.26" width="10" height="10"/><rect class="cls-2" x="238.88" y="273.26" width="10" height="10"/><circle class="cls-3" cx="243.88" cy="278.26" r="4"/><rect class="cls-2" x="248.88" y="273.26" width="10" height="10"/><circle class="cls-3" cx="253.88" cy="278.26" r="4"/><rect class="cls-2" x="278.88" y="203.26" width="10" height="10"/><circle class="cls-3" cx="283.88" cy="208.26" r="4"/><rect class="cls-2" x="288.88" y="203.26" width="10" height="10"/><circle class="cls-3" cx="293.88" cy="208.26" r="4"/><rect class="cls-2" x="278.88" y="273.26" width="10" height="10"/><circle class="cls-3" cx="283.88" cy="278.26" r="4"/><rect class="cls-2" x="288.88" y="273.26" width="10" height="10"/><circle class="cls-3" cx="293.88" cy="278.26" r="4"/><rect class="cls-2" x="168.88" y="253.26" width="10" height="10"/><rect class="cls-2" x="168.88" y="243.26" width="10" height="10"/><rect class="cls-2" x="168.88" y="233.26" width="10" height="10"/><rect class="cls-2" x="168.88" y="223.26" width="10" height="10"/><rect class="cls-2" x="318.88" y="253.26" width="10" height="10"/><circle class="cls-3" cx="323.88" cy="258.26" r="4"/><rect class="cls-2" x="318.88" y="243.26" width="10" height="10"/><circle class="cls-3" cx="323.88" cy="248.26" r="4"/><rect class="cls-2" x="318.88" y="233.26" width="10" height="10"/><circle class="cls-3" cx="323.88" cy="238.26" r="4"/><rect class="cls-2" x="318.88" y="223.26" width="10" height="10"/><circle class="cls-3" cx="323.88" cy="228.26" r="4"/><rect class="cls-2" x="198.88" y="253.26" width="10" height="10"/><rect class="cls-2" x="198.88" y="243.26" width="10" height="10"/><rect class="cls-2" x="198.88" y="233.26" width="10" height="10"/><rect class="cls-2" x="198.88" y="223.26" width="10" height="10"/><rect class="cls-2" x="208.88" y="253.26" width="10" height="10"/><rect class="cls-2" x="208.88" y="243.26" width="10" height="10"/><rect class="cls-2" x="208.88" y="233.26" width="10" height="10"/><rect class="cls-2" x="208.88" y="223.26" width="10" height="10"/><rect class="cls-2" x="278.88" y="253.26" width="10" height="10"/><circle class="cls-3" cx="283.88" cy="258.26" r="4"/><rect class="cls-2" x="278.88" y="243.26" width="10" height="10"/><circle class="cls-3" cx="283.88" cy="248.26" r="4"/><rect class="cls-2" x="278.88" y="233.26" width="10" height="10"/><circle class="cls-3" cx="283.88" cy="238.26" r="4"/><rect class="cls-2" x="278.88" y="223.26" width="10" height="10"/><circle class="cls-3" cx="283.88" cy="228.26" r="4"/><rect class="cls-2" x="288.88" y="253.26" width="10" height="10"/><circle class="cls-3" cx="293.88" cy="258.26" r="4"/><rect class="cls-2" x="288.88" y="243.26" width="10" height="10"/><circle class="cls-3" cx="293.88" cy="248.26" r="4"/><rect class="cls-2" x="288.88" y="233.26" width="10" height="10"/><circle class="cls-3" cx="293.88" cy="238.26" r="4"/><rect class="cls-2" x="288.88" y="223.26" width="10" height="10"/><circle class="cls-3" cx="293.88" cy="228.26" r="4"/><rect class="cls-2" x="238.88" y="253.26" width="10" height="10"/><circle class="cls-3" cx="243.88" cy="258.26" r="4"/><rect class="cls-2" x="238.88" y="243.26" width="10" height="10"/><circle class="cls-3" cx="243.88" cy="248.26" r="4"/><rect class="cls-2" x="238.88" y="233.26" width="10" height="10"/><circle class="cls-3" cx="243.88" cy="238.26" r="4"/><rect class="cls-2" x="238.88" y="223.26" width="10" height="10"/><circle class="cls-3" cx="243.88" cy="228.26" r="4"/><rect class="cls-2" x="248.88" y="253.26" width="10" height="10"/><circle class="cls-3" cx="253.88" cy="258.26" r="4"/><rect class="cls-2" x="248.88" y="243.26" width="10" height="10"/><circle class="cls-3" cx="253.88" cy="248.26" r="4"/><rect class="cls-2" x="248.88" y="233.26" width="10" height="10"/><circle class="cls-3" cx="253.88" cy="238.26" r="4"/><rect class="cls-2" x="248.88" y="223.26" width="10" height="10"/><circle class="cls-3" cx="253.88" cy="228.26" r="4"/><rect class="cls-4" x="168.88" y="213.26" width="160" height="10"/><rect class="cls-4" x="168.88" y="263.26" width="160" height="10"/><rect class="cls-2" x="202.63" y="131.55" width="10" height="10" transform="translate(-40.63 125.42) rotate(-30.77)"/><circle class="cls-3" cx="207.63" cy="136.55" r="4"/><rect class="cls-2" x="211.22" y="126.44" width="10" height="10" transform="translate(-36.81 129.1) rotate(-30.77)"/><circle class="cls-3" cx="216.22" cy="131.44" r="4"/><polyline class="cls-2" points="241.69 203.56 236.58 194.97 245.17 189.85 250.29 198.44"/><rect class="cls-2" x="247.03" y="186.59" width="10" height="10" transform="translate(-62.53 155.88) rotate(-30.77)"/><rect class="cls-2" x="233.32" y="183.11" width="10" height="10" transform="translate(-62.68 148.38) rotate(-30.77)"/><circle class="cls-3" cx="238.32" cy="188.11" r="4"/><rect class="cls-2" x="241.91" y="178" width="10" height="10" transform="translate(-58.86 152.05) rotate(-30.77)"/><circle class="cls-3" cx="246.91" cy="183" r="4"/><rect class="cls-2" x="207.74" y="140.15" width="10" height="10" transform="translate(-44.31 129.25) rotate(-30.77)"/><circle class="cls-3" cx="212.74" cy="145.15" r="4"/><rect class="cls-2" x="216.33" y="135.03" width="10" height="10" transform="translate(-40.48 132.92) rotate(-30.77)"/><circle class="cls-3" cx="221.33" cy="140.03" r="4"/><rect class="cls-2" x="228.2" y="174.52" width="10" height="10" transform="translate(-59.01 144.55) rotate(-30.77)"/><circle class="cls-3" cx="233.2" cy="179.52" r="4"/><rect class="cls-2" x="223.09" y="165.93" width="10" height="10" transform="translate(-55.33 140.73) rotate(-30.77)"/><circle class="cls-3" cx="228.09" cy="170.93" r="4"/><rect class="cls-2" x="217.97" y="157.33" width="10" height="10" transform="translate(-51.66 136.9) rotate(-30.77)"/><circle class="cls-3" cx="222.97" cy="162.33" r="4"/><rect class="cls-2" x="212.86" y="148.74" width="10" height="10" transform="translate(-47.98 133.08) rotate(-30.77)"/><circle class="cls-3" cx="217.86" cy="153.74" r="4"/><rect class="cls-2" x="236.8" y="169.4" width="10" height="10" transform="translate(-55.18 148.23) rotate(-30.77)"/><circle class="cls-3" cx="241.8" cy="174.4" r="4"/><rect class="cls-2" x="231.68" y="160.81" width="10" height="10" transform="translate(-51.51 144.4) rotate(-30.77)"/><circle class="cls-3" cx="236.68" cy="165.81" r="4"/><rect class="cls-2" x="226.57" y="152.22" width="10" height="10" transform="translate(-47.83 140.58) rotate(-30.77)"/><circle class="cls-3" cx="231.57" cy="157.22" r="4"/><rect class="cls-2" x="221.45" y="143.62" width="10" height="10" transform="translate(-44.16 136.75) rotate(-30.77)"/><circle class="cls-3" cx="226.45" cy="148.62" r="4"/><rect class="cls-2" x="235.85" y="113.37" width="10" height="10" transform="translate(-27.47 123.15) rotate(-27.19)"/><circle class="cls-3" cx="240.85" cy="118.37" r="4"/><rect class="cls-2" x="244.75" y="108.8" width="10" height="10" transform="translate(-24.4 126.71) rotate(-27.19)"/><circle class="cls-3" cx="249.75" cy="113.8" r="4"/><rect class="cls-2" x="267.84" y="175.63" width="10" height="10" transform="translate(-52.39 144.66) rotate(-27.19)"/><circle class="cls-3" cx="272.84" cy="180.63" r="4"/><rect class="cls-2" x="276.74" y="171.06" width="10" height="10" transform="translate(-49.32 148.21) rotate(-27.19)"/><circle class="cls-3" cx="281.74" cy="176.06" r="4"/><rect class="cls-2" x="263.27" y="166.74" width="10" height="10" transform="translate(-48.83 141.58) rotate(-27.19)"/><circle class="cls-3" cx="268.27" cy="171.74" r="4"/><rect class="cls-2" x="272.17" y="162.17" width="10" height="10" transform="translate(-45.76 145.14) rotate(-27.19)"/><circle class="cls-3" cx="277.17" cy="167.17" r="4"/><rect class="cls-2" x="240.42" y="122.27" width="10" height="10" transform="translate(-31.03 126.23) rotate(-27.19)"/><circle class="cls-3" cx="245.42" cy="127.27" r="4"/><rect class="cls-2" x="249.32" y="117.7" width="10" height="10" transform="translate(-27.96 129.78) rotate(-27.19)"/><circle class="cls-3" cx="254.32" cy="122.7" r="4"/><rect class="cls-2" x="258.7" y="157.84" width="10" height="10" transform="translate(-45.27 138.51) rotate(-27.19)"/><circle class="cls-3" cx="263.7" cy="162.84" r="4"/><rect class="cls-2" x="254.13" y="148.95" width="10" height="10" transform="translate(-41.71 135.44) rotate(-27.19)"/><circle class="cls-3" cx="259.13" cy="153.95" r="4"/><rect class="cls-2" x="249.56" y="140.05" width="10" height="10" transform="translate(-38.15 132.37) rotate(-27.19)"/><circle class="cls-3" cx="254.56" cy="145.05" r="4"/><rect class="cls-2" x="244.99" y="131.16" width="10" height="10" transform="translate(-34.59 129.3) rotate(-27.19)"/><circle class="cls-3" cx="249.99" cy="136.16" r="4"/><rect class="cls-2" x="267.6" y="153.27" width="10" height="10" transform="translate(-42.2 142.07) rotate(-27.19)"/><circle class="cls-3" cx="272.6" cy="158.27" r="4"/><rect class="cls-2" x="263.03" y="144.38" width="10" height="10" transform="translate(-38.64 139) rotate(-27.19)"/><circle class="cls-3" cx="268.03" cy="149.38" r="4"/><rect class="cls-2" x="258.46" y="135.48" width="10" height="10" transform="translate(-35.08 135.93) rotate(-27.19)"/><circle class="cls-3" cx="263.46" cy="140.48" r="4"/><rect class="cls-2" x="253.89" y="126.59" width="10" height="10" transform="translate(-31.52 132.86) rotate(-27.19)"/><circle class="cls-3" cx="258.89" cy="131.59" r="4"/><rect class="cls-2" x="273.36" y="95.17" width="10" height="10" transform="translate(-16.07 128.96) rotate(-25.38)"/><circle class="cls-3" cx="278.36" cy="100.17" r="4"/><rect class="cls-2" x="282.4" y="90.88" width="10" height="10" transform="translate(-13.36 132.42) rotate(-25.38)"/><circle class="cls-3" cx="287.4" cy="95.88" r="4"/><rect class="cls-2" x="303.36" y="158.42" width="10" height="10" transform="translate(-40.28 147.92) rotate(-25.38)"/><circle class="cls-3" cx="308.36" cy="163.42" r="4"/><rect class="cls-2" x="312.4" y="154.13" width="10" height="10" transform="translate(-37.57 151.37) rotate(-25.38)"/><circle class="cls-3" cx="317.4" cy="159.13" r="4"/><rect class="cls-2" x="299.08" y="149.38" width="10" height="10" transform="translate(-36.82 145.21) rotate(-25.38)"/><circle class="cls-3" cx="304.08" cy="154.38" r="4"/><rect class="cls-2" x="308.11" y="145.1" width="10" height="10" transform="translate(-34.11 148.67) rotate(-25.38)"/><circle class="cls-3" cx="313.11" cy="150.1" r="4"/><rect class="cls-2" x="277.65" y="104.21" width="10" height="10" transform="translate(-19.53 131.67) rotate(-25.38)"/><circle class="cls-3" cx="282.65" cy="109.21" r="4"/><rect class="cls-2" x="286.68" y="99.92" width="10" height="10" transform="translate(-16.82 135.12) rotate(-25.38)"/><circle class="cls-3" cx="291.68" cy="104.92" r="4"/><rect class="cls-2" x="294.79" y="140.35" width="10" height="10" transform="translate(-33.36 142.5) rotate(-25.38)"/><circle class="cls-3" cx="299.79" cy="145.35" r="4"/><rect class="cls-2" x="290.51" y="131.31" width="10" height="10" transform="translate(-29.91 139.79) rotate(-25.38)"/><circle class="cls-3" cx="295.51" cy="136.31" r="4"/><rect class="cls-2" x="286.22" y="122.28" width="10" height="10" transform="translate(-26.45 137.08) rotate(-25.38)"/><circle class="cls-3" cx="291.22" cy="127.28" r="4"/><rect class="cls-2" x="281.93" y="113.24" width="10" height="10" transform="translate(-22.99 134.37) rotate(-25.38)"/><circle class="cls-3" cx="286.93" cy="118.24" r="4"/><rect class="cls-2" x="303.83" y="136.06" width="10" height="10" transform="translate(-30.66 145.96) rotate(-25.38)"/><circle class="cls-3" cx="308.83" cy="141.06" r="4"/><rect class="cls-2" x="299.54" y="127.03" width="10" height="10" transform="translate(-27.2 143.25) rotate(-25.38)"/><circle class="cls-3" cx="304.54" cy="132.03" r="4"/><rect class="cls-2" x="295.25" y="117.99" width="10" height="10" transform="translate(-23.74 140.54) rotate(-25.38)"/><circle class="cls-3" cx="300.25" cy="122.99" r="4"/><rect class="cls-2" x="290.97" y="108.95" width="10" height="10" transform="translate(-20.28 137.83) rotate(-25.38)"/><circle class="cls-3" cx="295.97" cy="113.95" r="4"/><rect class="cls-4" x="54.76" y="210.6" width="20" height="10" transform="translate(-50.23 22.07) rotate(-14)"/><rect class="cls-4" x="72.84" y="205.63" width="20" height="10" transform="translate(-57.34 32.93) rotate(-16.8)"/><rect class="cls-4" x="90.25" y="199.91" width="20" height="10" transform="translate(-62.93 45.5) rotate(-19.6)"/><rect class="cls-4" x="107.35" y="193.34" width="20" height="10" transform="translate(-66.73 59.69) rotate(-22.4)"/><rect class="cls-4" x="124.12" y="185.95" width="20" height="10" transform="translate(-68.54 75.28) rotate(-25.2)"/><rect class="cls-4" x="140.5" y="177.74" width="20" height="10" transform="translate(-68.18 92.05) rotate(-28)"/><rect class="cls-4" x="156.59" y="168.08" width="21.32" height="10" transform="translate(-66.15 114.31) rotate(-31.85)"/><rect class="cls-4" x="59.33" y="262.09" width="10" height="10" transform="translate(-50.65 17.58) rotate(-11.2)"/><rect class="cls-4" x="65.49" y="258.99" width="23.73" height="10" transform="translate(-61.57 26.56) rotate(-14)"/><rect class="cls-4" x="85.51" y="253.47" width="23.73" height="10" transform="translate(-70.55 39.18) rotate(-16.8)"/><rect class="cls-4" x="105.24" y="246.98" width="23.73" height="10" transform="translate(-77.74 53.88) rotate(-19.6)"/><rect class="cls-4" x="124.63" y="239.53" width="23.73" height="10" transform="translate(-82.89 70.46) rotate(-22.4)"/><rect class="cls-4" x="143.63" y="231.15" width="23.73" height="10" transform="translate(-85.75 88.68) rotate(-25.2)"/><rect class="cls-4" x="162.19" y="221.85" width="23.73" height="10" transform="translate(-86.12 108.27) rotate(-28)"/><rect class="cls-4" x="180.28" y="211.65" width="23.73" height="10" transform="translate(-83.83 128.94) rotate(-30.8)"/><rect class="cls-2" x="87.68" y="254.89" width="10" height="10" transform="translate(-71.26 37.95) rotate(-16.82)"/><circle class="cls-3" cx="92.68" cy="259.89" r="4"/><rect class="cls-2" x="70.31" y="197.46" width="10" height="10" transform="translate(-55.38 30.47) rotate(-16.82)"/><circle class="cls-3" cx="75.31" cy="202.46" r="4"/><rect class="cls-2" x="73.21" y="207.03" width="10" height="10" transform="translate(-58.02 31.71) rotate(-16.82)"/><circle class="cls-3" cx="78.21" cy="212.03" r="4"/><rect class="cls-2" x="97.25" y="252" width="10" height="10" transform="translate(-70.01 40.6) rotate(-16.82)"/><circle class="cls-3" cx="102.25" cy="257" r="4"/><rect class="cls-2" x="79.89" y="194.56" width="10" height="10" transform="translate(-54.13 33.11) rotate(-16.82)"/><circle class="cls-3" cx="84.89" cy="199.56" r="4"/><rect class="cls-2" x="82.78" y="204.14" width="10" height="10" transform="translate(-56.78 34.36) rotate(-16.82)"/><circle class="cls-3" cx="87.78" cy="209.14" r="4"/><rect class="cls-4" x="72.99" y="205.58" width="20" height="10" transform="translate(-57.4 33.04) rotate(-16.82)"/><rect class="cls-4" x="87.47" y="253.44" width="20" height="10" transform="translate(-70.63 39.27) rotate(-16.82)"/><rect class="cls-2" x="127.13" y="241.34" width="10" height="10" transform="translate(-84.06 69.13) rotate(-22.45)"/><circle class="cls-3" cx="132.13" cy="246.34" r="4"/><rect class="cls-2" x="104.22" y="185.88" width="10" height="10" transform="translate(-64.62 56.17) rotate(-22.45)"/><circle class="cls-3" cx="109.22" cy="190.88" r="4"/><rect class="cls-2" x="108.03" y="195.13" width="10" height="10" transform="translate(-67.86 58.33) rotate(-22.45)"/><circle class="cls-3" cx="113.03" cy="200.13" r="4"/><rect class="cls-2" x="136.37" y="237.52" width="10" height="10" transform="translate(-81.9 72.37) rotate(-22.45)"/><circle class="cls-3" cx="141.37" cy="242.52" r="4"/><rect class="cls-2" x="113.46" y="182.06" width="10" height="10" transform="translate(-62.46 59.41) rotate(-22.45)"/><circle class="cls-3" cx="118.46" cy="187.06" r="4"/><rect class="cls-2" x="117.28" y="191.31" width="10" height="10" transform="translate(-65.7 61.57) rotate(-22.45)"/><circle class="cls-3" cx="122.28" cy="196.31" r="4"/><rect class="cls-4" x="107.65" y="193.22" width="20" height="10" transform="translate(-66.78 59.95) rotate(-22.45)"/><rect class="cls-4" x="126.75" y="239.43" width="20" height="10" transform="translate(-82.98 70.75) rotate(-22.45)"/><rect class="cls-2" x="165.06" y="223.98" width="10" height="10" transform="translate(-87.75 106.98) rotate(-28.07)"/><circle class="cls-3" cx="170.06" cy="228.98" r="4"/><rect class="cls-2" x="136.82" y="171.04" width="10" height="10" transform="translate(-66.16 87.46) rotate(-28.07)"/><circle class="cls-3" cx="141.82" cy="176.04" r="4"/><rect class="cls-2" x="141.52" y="179.86" width="10" height="10" transform="translate(-69.76 90.71) rotate(-28.07)"/><circle class="cls-3" cx="146.52" cy="184.86" r="4"/><rect class="cls-2" x="173.88" y="219.27" width="10" height="10" transform="translate(-84.5 110.58) rotate(-28.07)"/><circle class="cls-3" cx="178.88" cy="224.27" r="4"/><rect class="cls-2" x="145.64" y="166.33" width="10" height="10" transform="translate(-62.91 91.06) rotate(-28.07)"/><circle class="cls-3" cx="150.64" cy="171.33" r="4"/><rect class="cls-2" x="150.35" y="175.16" width="10" height="10" transform="translate(-66.51 94.31) rotate(-28.07)"/><circle class="cls-3" cx="155.35" cy="180.16" r="4"/><rect class="cls-4" x="140.94" y="177.51" width="20" height="10" transform="translate(-68.13 92.51) rotate(-28.07)"/><rect class="cls-4" x="164.47" y="221.63" width="20" height="10" transform="translate(-86.13 108.78) rotate(-28.07)"/><rect class="cls-2" x="169.49" y="151.81" width="10" height="10" transform="translate(-56.47 115.68) rotate(-31.85)"/><circle class="cls-3" cx="174.49" cy="156.81" r="4"/><rect class="cls-2" x="195.88" y="194.28" width="10" height="10" transform="translate(-74.91 136) rotate(-31.85)"/><rect class="cls-2" x="190.6" y="185.79" width="10" height="10" transform="translate(-71.22 131.94) rotate(-31.85)"/><rect class="cls-2" x="185.32" y="177.29" width="10" height="10" transform="translate(-67.54 127.87) rotate(-31.85)"/><rect class="cls-2" x="180.05" y="168.8" width="10" height="10" transform="translate(-63.85 123.81) rotate(-31.85)"/><rect class="cls-4" x="174.75" y="160.24" width="10.25" height="10" transform="translate(-60.11 119.79) rotate(-31.85)"/><rect class="cls-2" x="177.99" y="146.53" width="10" height="10" transform="translate(-52.41 119.37) rotate(-31.85)"/><circle class="cls-3" cx="182.99" cy="151.53" r="4"/><rect class="cls-2" x="209.42" y="197.44" width="10" height="10" transform="translate(-76.29 152.99) rotate(-33.7)"/><circle class="cls-3" cx="214.42" cy="202.44" r="4"/><rect class="cls-2" x="188.55" y="163.52" width="10" height="10" transform="translate(-59.78 127.5) rotate(-31.85)"/><rect class="cls-2" x="193.82" y="172.01" width="10" height="10" transform="translate(-63.47 131.56) rotate(-31.85)"/><rect class="cls-2" x="199.1" y="180.51" width="10" height="10" transform="translate(-67.16 135.63) rotate(-31.85)"/><rect class="cls-2" x="204.38" y="189" width="10" height="10" transform="matrix(0.85, -0.53, 0.53, 0.85, -70.85, 139.69)"/><rect class="cls-2" x="209.22" y="196.8" width="10" height="10" transform="translate(-74.23 143.42) rotate(-31.85)"/><rect class="cls-4" x="209.78" y="197.83" width="10.25" height="10" transform="translate(504.47 261.72) rotate(148.15)"/><polygon class="cls-4" points="181.22 158.52 189.88 153.14 192.33 157.09 195.15 161.63 186.49 167.02 181.22 158.52"/><rect class="cls-4" x="200.19" y="202.96" width="12.89" height="10" transform="translate(-78.62 140.35) rotate(-31.85)"/><polyline class="cls-5" points="192.46 157.4 206.82 148.72 222.04 140.17 235.7 132.81 250.52 125.12 267.77 116.58 283.42 109.17 299.72 101.82 308.25 98.1 317.32 94.26"/><polyline class="cls-5" points="218.05 200.77 231.94 192.36 246.65 184.08 259.85 176.94 274.18 169.5 290.85 161.22 305.98 154.04 321.73 146.91 329.98 143.31 338.74 139.59"/><rect class="cls-6" x="8.88" y="203.26" width="1" height="10"/><rect class="cls-6" x="8.88" y="223.26" width="1" height="10"/><rect class="cls-6" x="8.88" y="233.26" width="1" height="10"/><rect class="cls-6" x="8.88" y="243.26" width="1" height="10"/><rect class="cls-6" x="8.88" y="253.26" width="1" height="10"/><rect class="cls-6" x="8.88" y="273.26" width="1" height="10"/><rect class="cls-6" x="327.88" y="273.26" width="1" height="10"/><rect class="cls-6" x="327.88" y="253.26" width="1" height="10"/><rect class="cls-6" x="327.88" y="243.26" width="1" height="10"/><rect class="cls-6" x="327.88" y="233.26" width="1" height="10"/><rect class="cls-6" x="327.88" y="223.26" width="1" height="10"/><rect class="cls-6" x="327.88" y="203.26" width="1" height="10"/><rect class="cls-6" x="348.24" y="141.23" width="1" height="10" transform="translate(-29.41 144.59) rotate(-22.5)"/><rect class="cls-6" x="340.59" y="122.75" width="1" height="10" transform="translate(-22.92 140.25) rotate(-22.5)"/><rect class="cls-6" x="336.76" y="113.51" width="1" height="10" transform="translate(-19.68 138.08) rotate(-22.5)"/><rect class="cls-6" x="332.93" y="104.27" width="1" height="10" transform="translate(-16.44 135.92) rotate(-22.5)"/><rect class="cls-6" x="329.11" y="95.03" width="1" height="10" transform="translate(-13.19 133.75) rotate(-22.5)"/><rect class="cls-6" x="321.45" y="76.56" width="1" height="10" transform="translate(-6.7 129.41) rotate(-22.5)"/></g></g></svg>