<svg xmlns="http://www.w3.org/2000/svg" viewBox="0 0 360 360"><defs><style>.cls-1{fill:#f2f2f2;}.cls-2{fill:#b3b3b3;}.cls-3{fill:gray;}.cls-4,.cls-5{fill:#333;}.cls-5{stroke:#333;stroke-miterlimit:10;stroke-width:10px;}.cls-6{fill:#4d4d4d;}</style></defs><title>right_switch_rail_icon</title><g id="Warstwa_2" data-name="Warstwa 2"><g id="Warstwa_1-2" data-name="Warstwa 1"><rect class="cls-1" width="360" height="360" rx="20" ry="20"/><rect class="cls-2" x="198.88" y="146.74" width="10" height="10"/><circle class="cls-3" cx="203.88" cy="151.74" r="4"/><rect class="cls-2" x="208.88" y="146.74" width="10" height="10"/><rect class="cls-2" x="200.72" y="147.92" width="10" height="10" transform="matrix(0.53, -0.85, 0.85, 0.53, -32.73, 246.98)"/><rect class="cls-2" x="85.43" y="137.11" width="10" height="10" transform="translate(-71.78 187.53) rotate(-73.18)"/><circle class="cls-3" cx="90.43" cy="142.11" r="4"/><rect class="cls-2" x="160.35" y="134.84" width="10" height="10" transform="translate(-35.86 219.92) rotate(-61.93)"/><circle class="cls-3" cx="165.35" cy="139.84" r="4"/><rect class="cls-2" x="155.64" y="143.67" width="10" height="10" transform="translate(-46.13 220.44) rotate(-61.93)"/><rect class="cls-2" x="150.94" y="152.49" width="10" height="10" transform="translate(-56.41 220.96) rotate(-61.93)"/><rect class="cls-2" x="146.23" y="161.31" width="10" height="10" transform="translate(-66.69 221.48) rotate(-61.93)"/><rect class="cls-2" x="169.17" y="139.55" width="10" height="10" transform="translate(-35.34 230.2) rotate(-61.93)"/><rect class="cls-2" x="164.47" y="148.37" width="10" height="10" transform="translate(-45.61 230.72) rotate(-61.93)"/><rect class="cls-2" x="159.76" y="157.2" width="10" height="10" transform="translate(-55.89 231.24) rotate(-61.93)"/><rect class="cls-2" x="155.05" y="166.02" width="10" height="10" transform="translate(-66.17 231.75) rotate(-61.93)"/><polygon class="cls-2" points="127.2 138.68 119.13 135.23 115.31 144.47 123.38 147.92 127.2 138.68"/><circle class="cls-3" cx="120.67" cy="141.39" r="4"/><rect class="cls-2" x="111.85" y="145.63" width="10" height="10" transform="translate(-66.99 201.11) rotate(-67.55)"/><rect class="cls-2" x="124.91" y="140.21" width="10" height="10" transform="translate(-53.9 209.82) rotate(-67.55)"/><rect class="cls-2" x="121.09" y="149.45" width="10" height="10" transform="translate(-64.8 212.01) rotate(-67.55)"/><rect class="cls-2" x="182.74" y="185.85" width="10" height="10"/><circle class="cls-3" cx="187.74" cy="190.85" r="4"/><rect class="cls-4" x="182.74" y="185.85" width="10" height="10"/><rect class="cls-2" x="339.59" y="207.05" width="10" height="10" transform="translate(16.81 449.26) rotate(-67.5)"/><circle class="cls-3" cx="344.59" cy="212.05" r="4"/><rect class="cls-2" x="335.76" y="216.29" width="10" height="10" transform="translate(5.91 451.43) rotate(-67.5)"/><circle class="cls-3" cx="340.76" cy="221.29" r="4"/><rect class="cls-2" x="312.8" y="271.72" width="10" height="10" transform="translate(-59.48 464.43) rotate(-67.5)"/><circle class="cls-3" cx="317.8" cy="276.72" r="4"/><rect class="cls-2" x="316.63" y="262.48" width="10" height="10" transform="translate(-48.58 462.27) rotate(-67.5)"/><circle class="cls-3" cx="321.63" cy="267.48" r="4"/><rect class="cls-2" x="331.93" y="225.53" width="10" height="10" transform="translate(-4.99 453.6) rotate(-67.5)"/><circle class="cls-3" cx="336.93" cy="230.53" r="4"/><rect class="cls-2" x="328.11" y="234.77" width="10" height="10" transform="translate(-15.88 455.76) rotate(-67.5)"/><circle class="cls-3" cx="333.11" cy="239.77" r="4"/><rect class="cls-2" x="324.28" y="244.01" width="10" height="10" transform="translate(-26.78 457.93) rotate(-67.5)"/><circle class="cls-3" cx="329.28" cy="249.01" r="4"/><rect class="cls-2" x="320.45" y="253.25" width="10" height="10" transform="translate(-37.68 460.1) rotate(-67.5)"/><circle class="cls-3" cx="325.45" cy="258.25" r="4"/><rect class="cls-4" x="316.63" y="262.48" width="10" height="10" transform="translate(126.84 -102.72) rotate(22.5)"/><rect class="cls-4" x="335.76" y="216.29" width="10" height="10" transform="translate(110.62 -113.56) rotate(22.5)"/><rect class="cls-2" x="158.88" y="76.74" width="10" height="10"/><circle class="cls-3" cx="163.88" cy="81.74" r="4"/><rect class="cls-2" x="8.88" y="76.74" width="10" height="10"/><circle class="cls-3" cx="13.88" cy="81.74" r="4"/><rect class="cls-2" x="38.88" y="76.74" width="10" height="10"/><circle class="cls-3" cx="43.88" cy="81.74" r="4"/><rect class="cls-2" x="48.88" y="76.74" width="10" height="10"/><circle class="cls-3" cx="53.88" cy="81.74" r="4"/><rect class="cls-2" x="8.88" y="146.74" width="10" height="10"/><circle class="cls-3" cx="13.88" cy="151.74" r="4"/><rect class="cls-2" x="38.88" y="146.74" width="10" height="10"/><circle class="cls-3" cx="43.88" cy="151.74" r="4"/><rect class="cls-2" x="48.88" y="146.74" width="10" height="10"/><circle class="cls-3" cx="53.88" cy="151.74" r="4"/><rect class="cls-2" x="78.88" y="146.74" width="10" height="10"/><circle class="cls-3" cx="83.88" cy="151.74" r="4"/><rect class="cls-2" x="78.88" y="76.74" width="10" height="10"/><circle class="cls-3" cx="83.88" cy="81.74" r="4"/><rect class="cls-2" x="88.88" y="76.74" width="10" height="10"/><circle class="cls-3" cx="93.88" cy="81.74" r="4"/><rect class="cls-2" x="118.88" y="146.74" width="10" height="10"/><rect class="cls-2" x="118.88" y="76.74" width="10" height="10"/><circle class="cls-3" cx="123.88" cy="81.74" r="4"/><rect class="cls-2" x="128.88" y="76.74" width="10" height="10"/><circle class="cls-3" cx="133.88" cy="81.74" r="4"/><rect class="cls-2" x="8.88" y="96.74" width="10" height="10"/><circle class="cls-3" cx="13.88" cy="101.74" r="4"/><rect class="cls-2" x="8.88" y="106.74" width="10" height="10"/><circle class="cls-3" cx="13.88" cy="111.74" r="4"/><rect class="cls-2" x="8.88" y="116.74" width="10" height="10"/><circle class="cls-3" cx="13.88" cy="121.74" r="4"/><rect class="cls-2" x="8.88" y="126.74" width="10" height="10"/><circle class="cls-3" cx="13.88" cy="131.74" r="4"/><rect class="cls-2" x="28.88" y="156.74" width="10" height="10"/><circle class="cls-3" cx="33.88" cy="161.74" r="4"/><rect class="cls-2" x="28.88" y="166.74" width="10" height="10"/><circle class="cls-3" cx="33.88" cy="171.74" r="4"/><rect class="cls-2" x="38.88" y="156.74" width="10" height="10"/><circle class="cls-3" cx="43.88" cy="161.74" r="4"/><rect class="cls-2" x="38.88" y="166.74" width="10" height="10"/><circle class="cls-3" cx="43.88" cy="171.74" r="4"/><rect class="cls-2" x="48.88" y="156.74" width="10" height="10"/><circle class="cls-3" cx="53.88" cy="161.74" r="4"/><rect class="cls-2" x="48.88" y="166.74" width="10" height="10"/><circle class="cls-3" cx="53.88" cy="171.74" r="4"/><rect class="cls-2" x="28.88" y="176.74" width="10" height="10"/><circle class="cls-3" cx="33.88" cy="181.74" r="4"/><rect class="cls-2" x="28.88" y="186.74" width="10" height="10"/><circle class="cls-3" cx="33.88" cy="191.74" r="4"/><rect class="cls-2" x="38.88" y="176.74" width="10" height="10"/><circle class="cls-3" cx="43.88" cy="181.74" r="4"/><rect class="cls-2" x="38.88" y="186.74" width="10" height="10"/><circle class="cls-3" cx="43.88" cy="191.74" r="4"/><rect class="cls-2" x="48.88" y="176.74" width="10" height="10"/><circle class="cls-3" cx="53.88" cy="181.74" r="4"/><rect class="cls-2" x="48.88" y="186.74" width="10" height="10"/><circle class="cls-3" cx="53.88" cy="191.74" r="4"/><rect class="cls-2" x="28.88" y="196.74" width="10" height="10"/><circle class="cls-3" cx="33.88" cy="201.74" r="4"/><rect class="cls-2" x="38.88" y="196.74" width="10" height="10"/><circle class="cls-3" cx="43.88" cy="201.74" r="4"/><rect class="cls-2" x="48.88" y="196.74" width="10" height="10"/><circle class="cls-3" cx="53.88" cy="201.74" r="4"/><rect class="cls-2" x="28.88" y="96.74" width="10" height="10"/><rect class="cls-2" x="28.88" y="76.74" width="10" height="10"/><circle class="cls-3" cx="33.88" cy="81.74" r="4"/><rect class="cls-2" x="28.88" y="106.74" width="10" height="10"/><rect class="cls-2" x="28.88" y="116.74" width="10" height="10"/><rect class="cls-2" x="28.88" y="126.74" width="10" height="10"/><rect class="cls-2" x="28.88" y="146.74" width="10" height="10"/><circle class="cls-3" cx="33.88" cy="151.74" r="4"/><rect class="cls-2" x="158.88" y="96.74" width="10" height="10"/><rect class="cls-2" x="158.88" y="106.74" width="10" height="10"/><rect class="cls-2" x="158.88" y="116.74" width="10" height="10"/><rect class="cls-2" x="158.88" y="126.74" width="10" height="10"/><rect class="cls-2" x="38.88" y="96.74" width="10" height="10"/><rect class="cls-2" x="38.88" y="106.74" width="10" height="10"/><rect class="cls-2" x="38.88" y="116.74" width="10" height="10"/><rect class="cls-2" x="38.88" y="126.74" width="10" height="10"/><rect class="cls-2" x="48.88" y="96.74" width="10" height="10"/><rect class="cls-2" x="48.88" y="106.74" width="10" height="10"/><rect class="cls-2" x="48.88" y="116.74" width="10" height="10"/><rect class="cls-2" x="48.88" y="126.74" width="10" height="10"/><rect class="cls-2" x="118.88" y="96.74" width="10" height="10"/><rect class="cls-2" x="118.88" y="106.74" width="10" height="10"/><circle class="cls-3" cx="123.88" cy="111.74" r="4"/><rect class="cls-2" x="118.88" y="116.74" width="10" height="10"/><rect class="cls-2" x="118.88" y="126.74" width="10" height="10"/><rect class="cls-2" x="128.88" y="96.74" width="10" height="10"/><rect class="cls-2" x="128.88" y="106.74" width="10" height="10"/><rect class="cls-2" x="128.88" y="116.74" width="10" height="10"/><rect class="cls-2" x="128.88" y="126.74" width="10" height="10"/><rect class="cls-2" x="78.88" y="96.74" width="10" height="10"/><rect class="cls-2" x="78.88" y="106.74" width="10" height="10"/><rect class="cls-2" x="78.88" y="116.74" width="10" height="10"/><rect class="cls-2" x="78.88" y="126.74" width="10" height="10"/><rect class="cls-2" x="88.88" y="96.74" width="10" height="10"/><rect class="cls-2" x="88.88" y="106.74" width="10" height="10"/><rect class="cls-2" x="88.88" y="116.74" width="10" height="10"/><rect class="cls-2" x="88.88" y="126.74" width="10" height="10"/><rect class="cls-4" x="8.88" y="136.74" width="160" height="10"/><rect class="cls-4" x="8.88" y="86.74" width="160" height="10"/><rect class="cls-2" x="318.88" y="76.74" width="10" height="10"/><circle class="cls-3" cx="323.88" cy="81.74" r="4"/><rect class="cls-2" x="318.88" y="146.74" width="10" height="10"/><circle class="cls-3" cx="323.88" cy="151.74" r="4"/><rect class="cls-2" x="168.88" y="76.74" width="10" height="10"/><circle class="cls-3" cx="173.88" cy="81.74" r="4"/><rect class="cls-2" x="198.88" y="76.74" width="10" height="10"/><circle class="cls-3" cx="203.88" cy="81.74" r="4"/><rect class="cls-2" x="208.88" y="76.74" width="10" height="10"/><circle class="cls-3" cx="213.88" cy="81.74" r="4"/><rect class="cls-2" x="198.88" y="146.74" width="10" height="10"/><circle class="cls-3" cx="203.88" cy="151.74" r="4"/><rect class="cls-2" x="238.88" y="146.74" width="10" height="10"/><rect class="cls-2" x="248.88" y="146.74" width="10" height="10"/><rect class="cls-2" x="238.88" y="156.74" width="10" height="10"/><rect class="cls-2" x="248.88" y="156.74" width="10" height="10"/><rect class="cls-2" x="238.88" y="76.74" width="10" height="10"/><circle class="cls-3" cx="243.88" cy="81.74" r="4"/><rect class="cls-2" x="248.88" y="76.74" width="10" height="10"/><circle class="cls-3" cx="253.88" cy="81.74" r="4"/><rect class="cls-2" x="278.88" y="146.74" width="10" height="10"/><circle class="cls-3" cx="283.88" cy="151.74" r="4"/><rect class="cls-2" x="288.88" y="146.74" width="10" height="10"/><circle class="cls-3" cx="293.88" cy="151.74" r="4"/><rect class="cls-2" x="278.88" y="76.74" width="10" height="10"/><circle class="cls-3" cx="283.88" cy="81.74" r="4"/><rect class="cls-2" x="288.88" y="76.74" width="10" height="10"/><circle class="cls-3" cx="293.88" cy="81.74" r="4"/><rect class="cls-2" x="168.88" y="96.74" width="10" height="10"/><rect class="cls-2" x="168.88" y="106.74" width="10" height="10"/><rect class="cls-2" x="168.88" y="116.74" width="10" height="10"/><rect class="cls-2" x="168.88" y="126.74" width="10" height="10"/><rect class="cls-2" x="318.88" y="96.74" width="10" height="10"/><circle class="cls-3" cx="323.88" cy="101.74" r="4"/><rect class="cls-2" x="318.88" y="106.74" width="10" height="10"/><circle class="cls-3" cx="323.88" cy="111.74" r="4"/><rect class="cls-2" x="318.88" y="116.74" width="10" height="10"/><circle class="cls-3" cx="323.88" cy="121.74" r="4"/><rect class="cls-2" x="318.88" y="126.74" width="10" height="10"/><circle class="cls-3" cx="323.88" cy="131.74" r="4"/><rect class="cls-2" x="198.88" y="96.74" width="10" height="10"/><rect class="cls-2" x="198.88" y="106.74" width="10" height="10"/><rect class="cls-2" x="198.88" y="116.74" width="10" height="10"/><rect class="cls-2" x="198.88" y="126.74" width="10" height="10"/><rect class="cls-2" x="208.88" y="96.74" width="10" height="10"/><rect class="cls-2" x="208.88" y="106.74" width="10" height="10"/><rect class="cls-2" x="208.88" y="116.74" width="10" height="10"/><rect class="cls-2" x="208.88" y="126.74" width="10" height="10"/><rect class="cls-2" x="278.88" y="96.74" width="10" height="10"/><circle class="cls-3" cx="283.88" cy="101.74" r="4"/><rect class="cls-2" x="278.88" y="106.74" width="10" height="10"/><circle class="cls-3" cx="283.88" cy="111.74" r="4"/><rect class="cls-2" x="278.88" y="116.74" width="10" height="10"/><circle class="cls-3" cx="283.88" cy="121.74" r="4"/><rect class="cls-2" x="278.88" y="126.74" width="10" height="10"/><circle class="cls-3" cx="283.88" cy="131.74" r="4"/><rect class="cls-2" x="288.88" y="96.74" width="10" height="10"/><circle class="cls-3" cx="293.88" cy="101.74" r="4"/><rect class="cls-2" x="288.88" y="106.74" width="10" height="10"/><circle class="cls-3" cx="293.88" cy="111.74" r="4"/><rect class="cls-2" x="288.88" y="116.74" width="10" height="10"/><circle class="cls-3" cx="293.88" cy="121.74" r="4"/><rect class="cls-2" x="288.88" y="126.74" width="10" height="10"/><circle class="cls-3" cx="293.88" cy="131.74" r="4"/><rect class="cls-2" x="238.88" y="96.74" width="10" height="10"/><circle class="cls-3" cx="243.88" cy="101.74" r="4"/><rect class="cls-2" x="238.88" y="106.74" width="10" height="10"/><circle class="cls-3" cx="243.88" cy="111.74" r="4"/><rect class="cls-2" x="238.88" y="116.74" width="10" height="10"/><circle class="cls-3" cx="243.88" cy="121.74" r="4"/><rect class="cls-2" x="238.88" y="126.74" width="10" height="10"/><circle class="cls-3" cx="243.88" cy="131.74" r="4"/><rect class="cls-2" x="248.88" y="96.74" width="10" height="10"/><circle class="cls-3" cx="253.88" cy="101.74" r="4"/><rect class="cls-2" x="248.88" y="106.74" width="10" height="10"/><circle class="cls-3" cx="253.88" cy="111.74" r="4"/><rect class="cls-2" x="248.88" y="116.74" width="10" height="10"/><circle class="cls-3" cx="253.88" cy="121.74" r="4"/><rect class="cls-2" x="248.88" y="126.74" width="10" height="10"/><circle class="cls-3" cx="253.88" cy="131.74" r="4"/><rect class="cls-4" x="168.88" y="136.74" width="160" height="10"/><rect class="cls-4" x="168.88" y="86.74" width="160" height="10"/><rect class="cls-2" x="202.63" y="218.45" width="10" height="10" transform="translate(-90.58 287.55) rotate(-59.23)"/><circle class="cls-3" cx="207.63" cy="223.45" r="4"/><rect class="cls-2" x="211.22" y="223.56" width="10" height="10" transform="translate(-90.78 297.44) rotate(-59.23)"/><circle class="cls-3" cx="216.22" cy="228.56" r="4"/><polyline class="cls-2" points="241.69 156.44 236.58 165.03 245.17 170.15 250.29 161.56"/><rect class="cls-2" x="247.03" y="163.41" width="10" height="10" transform="translate(-21.6 298.82) rotate(-59.23)"/><rect class="cls-2" x="233.32" y="166.89" width="10" height="10" transform="translate(-31.29 288.74) rotate(-59.23)"/><circle class="cls-3" cx="238.32" cy="171.89" r="4"/><rect class="cls-2" x="241.91" y="172" width="10" height="10" transform="translate(-31.48 298.63) rotate(-59.23)"/><circle class="cls-3" cx="246.91" cy="177" r="4"/><rect class="cls-2" x="207.74" y="209.85" width="10" height="10" transform="translate(-80.7 287.75) rotate(-59.23)"/><circle class="cls-3" cx="212.74" cy="214.85" r="4"/><rect class="cls-2" x="216.33" y="214.97" width="10" height="10" transform="translate(-80.89 297.64) rotate(-59.23)"/><circle class="cls-3" cx="221.33" cy="219.97" r="4"/><rect class="cls-2" x="228.2" y="175.48" width="10" height="10" transform="translate(-41.17 288.55) rotate(-59.23)"/><circle class="cls-3" cx="233.2" cy="180.48" r="4"/><rect class="cls-2" x="223.09" y="184.07" width="10" height="10" transform="translate(-51.05 288.35) rotate(-59.23)"/><circle class="cls-3" cx="228.09" cy="189.07" r="4"/><rect class="cls-2" x="217.97" y="192.67" width="10" height="10" transform="translate(-60.93 288.15) rotate(-59.23)"/><circle class="cls-3" cx="222.97" cy="197.67" r="4"/><rect class="cls-2" x="212.86" y="201.26" width="10" height="10" transform="translate(-70.81 287.95) rotate(-59.23)"/><circle class="cls-3" cx="217.86" cy="206.26" r="4"/><rect class="cls-2" x="236.8" y="180.6" width="10" height="10" transform="translate(-41.37 298.43) rotate(-59.23)"/><circle class="cls-3" cx="241.8" cy="185.6" r="4"/><rect class="cls-2" x="231.68" y="189.19" width="10" height="10" transform="translate(-51.25 298.23) rotate(-59.23)"/><circle class="cls-3" cx="236.68" cy="194.19" r="4"/><rect class="cls-2" x="226.57" y="197.78" width="10" height="10" transform="matrix(0.51, -0.86, 0.86, 0.51, -61.13, 298.03)"/><circle class="cls-3" cx="231.57" cy="202.78" r="4"/><rect class="cls-2" x="221.45" y="206.38" width="10" height="10" transform="translate(-71.01 297.83) rotate(-59.23)"/><circle class="cls-3" cx="226.45" cy="211.38" r="4"/><rect class="cls-2" x="235.85" y="236.63" width="10" height="10" transform="translate(-84.14 345.43) rotate(-62.81)"/><circle class="cls-3" cx="240.85" cy="241.63" r="4"/><rect class="cls-2" x="244.75" y="241.2" width="10" height="10" transform="translate(-83.37 355.83) rotate(-62.81)"/><circle class="cls-3" cx="249.75" cy="246.2" r="4"/><rect class="cls-2" x="267.84" y="174.37" width="10" height="10" transform="translate(-11.39 340.08) rotate(-62.81)"/><circle class="cls-3" cx="272.84" cy="179.37" r="4"/><rect class="cls-2" x="276.74" y="178.94" width="10" height="10" transform="translate(-10.62 350.47) rotate(-62.81)"/><circle class="cls-3" cx="281.74" cy="183.94" r="4"/><rect class="cls-2" x="263.27" y="183.26" width="10" height="10" transform="translate(-21.78 340.84) rotate(-62.81)"/><circle class="cls-3" cx="268.27" cy="188.26" r="4"/><rect class="cls-2" x="272.17" y="187.83" width="10" height="10" transform="translate(-21.02 351.24) rotate(-62.81)"/><circle class="cls-3" cx="277.17" cy="192.83" r="4"/><rect class="cls-2" x="240.42" y="227.73" width="10" height="10" transform="translate(-73.75 344.67) rotate(-62.81)"/><circle class="cls-3" cx="245.42" cy="232.73" r="4"/><rect class="cls-2" x="249.32" y="232.3" width="10" height="10" transform="translate(-72.98 355.06) rotate(-62.81)"/><circle class="cls-3" cx="254.32" cy="237.3" r="4"/><rect class="cls-2" x="258.7" y="192.16" width="10" height="10" transform="translate(-32.17 341.61) rotate(-62.81)"/><circle class="cls-3" cx="263.7" cy="197.16" r="4"/><rect class="cls-2" x="254.13" y="201.05" width="10" height="10" transform="translate(-42.57 342.37) rotate(-62.81)"/><circle class="cls-3" cx="259.13" cy="206.05" r="4"/><rect class="cls-2" x="249.56" y="209.95" width="10" height="10" transform="translate(-52.96 343.14) rotate(-62.81)"/><circle class="cls-3" cx="254.56" cy="214.95" r="4"/><rect class="cls-2" x="244.99" y="218.84" width="10" height="10" transform="translate(-63.35 343.9) rotate(-62.81)"/><circle class="cls-3" cx="249.99" cy="223.84" r="4"/><rect class="cls-2" x="267.6" y="196.73" width="10" height="10" transform="translate(-31.41 352) rotate(-62.81)"/><circle class="cls-3" cx="272.6" cy="201.73" r="4"/><rect class="cls-2" x="263.03" y="205.62" width="10" height="10" transform="translate(-41.8 352.77) rotate(-62.81)"/><circle class="cls-3" cx="268.03" cy="210.62" r="4"/><rect class="cls-2" x="258.46" y="214.52" width="10" height="10" transform="translate(-52.19 353.53) rotate(-62.81)"/><circle class="cls-3" cx="263.46" cy="219.52" r="4"/><rect class="cls-2" x="253.89" y="223.41" width="10" height="10" transform="translate(-62.59 354.3) rotate(-62.81)"/><circle class="cls-3" cx="258.89" cy="228.41" r="4"/><rect class="cls-2" x="273.36" y="254.83" width="10" height="10" transform="translate(-75.69 399.99) rotate(-64.62)"/><circle class="cls-3" cx="278.36" cy="259.83" r="4"/><rect class="cls-2" x="282.4" y="259.12" width="10" height="10" transform="translate(-74.4 410.6) rotate(-64.62)"/><circle class="cls-3" cx="287.4" cy="264.12" r="4"/><rect class="cls-2" x="303.36" y="191.58" width="10" height="10" transform="translate(-1.4 390.95) rotate(-64.62)"/><circle class="cls-3" cx="308.36" cy="196.58" r="4"/><rect class="cls-2" x="312.4" y="195.87" width="10" height="10" transform="translate(-0.11 401.56) rotate(-64.62)"/><circle class="cls-3" cx="317.4" cy="200.87" r="4"/><rect class="cls-2" x="299.08" y="200.62" width="10" height="10" transform="translate(-12.02 392.24) rotate(-64.62)"/><circle class="cls-3" cx="304.08" cy="205.62" r="4"/><rect class="cls-2" x="308.11" y="204.9" width="10" height="10" transform="translate(-10.73 402.85) rotate(-64.62)"/><circle class="cls-3" cx="313.11" cy="209.9" r="4"/><rect class="cls-2" x="277.65" y="245.79" width="10" height="10" transform="translate(-65.08 398.69) rotate(-64.62)"/><circle class="cls-3" cx="282.65" cy="250.79" r="4"/><rect class="cls-2" x="286.68" y="250.08" width="10" height="10" transform="translate(-63.79 409.31) rotate(-64.62)"/><circle class="cls-3" cx="291.68" cy="255.08" r="4"/><rect class="cls-2" x="294.79" y="209.65" width="10" height="10" transform="translate(-22.63 393.53) rotate(-64.62)"/><circle class="cls-3" cx="299.79" cy="214.65" r="4"/><rect class="cls-2" x="290.51" y="218.69" width="10" height="10" transform="translate(-33.24 394.82) rotate(-64.62)"/><circle class="cls-3" cx="295.51" cy="223.69" r="4"/><rect class="cls-2" x="286.22" y="227.72" width="10" height="10" transform="translate(-43.85 396.11) rotate(-64.62)"/><circle class="cls-3" cx="291.22" cy="232.72" r="4"/><rect class="cls-2" x="281.93" y="236.76" width="10" height="10" transform="translate(-54.47 397.4) rotate(-64.62)"/><circle class="cls-3" cx="286.93" cy="241.76" r="4"/><rect class="cls-2" x="303.83" y="213.94" width="10" height="10" transform="translate(-21.34 404.14) rotate(-64.62)"/><circle class="cls-3" cx="308.83" cy="218.94" r="4"/><rect class="cls-2" x="299.54" y="222.97" width="10" height="10" transform="translate(-31.95 405.43) rotate(-64.62)"/><circle class="cls-3" cx="304.54" cy="227.97" r="4"/><rect class="cls-2" x="295.25" y="232.01" width="10" height="10" transform="translate(-42.56 406.72) rotate(-64.62)"/><circle class="cls-3" cx="300.25" cy="237.01" r="4"/><rect class="cls-2" x="290.97" y="241.05" width="10" height="10" transform="translate(-53.17 408.02) rotate(-64.62)"/><circle class="cls-3" cx="295.97" cy="246.05" r="4"/><rect class="cls-4" x="54.76" y="139.4" width="20" height="10" transform="translate(36.86 -11.38) rotate(14)"/><rect class="cls-4" x="72.84" y="144.37" width="20" height="10" transform="translate(46.71 -17.57) rotate(16.8)"/><rect class="cls-4" x="90.25" y="150.09" width="20" height="10" transform="translate(57.83 -24.64) rotate(19.6)"/><rect class="cls-4" x="107.35" y="156.66" width="20" height="10" transform="translate(70.46 -32.52) rotate(22.4)"/><rect class="cls-4" x="124.12" y="164.05" width="20" height="10" transform="translate(84.74 -41.02) rotate(25.2)"/><rect class="cls-4" x="140.5" y="172.26" width="20" height="10" transform="translate(100.83 -49.91) rotate(28)"/><rect class="cls-4" x="156.59" y="181.92" width="21.32" height="10" transform="matrix(0.85, 0.53, -0.53, 0.85, 123.81, -60.11)"/><rect class="cls-4" x="59.33" y="87.91" width="10" height="10" transform="translate(19.27 -10.73) rotate(11.2)"/><rect class="cls-4" x="65.49" y="91.01" width="23.73" height="10" transform="translate(25.52 -15.86) rotate(14)"/><rect class="cls-4" x="85.51" y="96.53" width="23.73" height="10" transform="translate(33.5 -23.81) rotate(16.8)"/><rect class="cls-4" x="105.24" y="103.02" width="23.73" height="10" transform="translate(43.02 -33.02) rotate(19.6)"/><rect class="cls-4" x="124.63" y="110.47" width="23.73" height="10" transform="translate(54.3 -43.3) rotate(22.4)"/><rect class="cls-4" x="143.63" y="118.85" width="23.73" height="10" transform="translate(67.53 -54.42) rotate(25.2)"/><rect class="cls-4" x="162.19" y="128.15" width="23.73" height="10" transform="translate(82.89 -66.13) rotate(28)"/><rect class="cls-4" x="180.28" y="138.35" width="23.73" height="10" transform="translate(100.5 -78.17) rotate(30.8)"/><rect class="cls-2" x="87.68" y="95.11" width="10" height="10" transform="translate(-29.97 159.85) rotate(-73.18)"/><circle class="cls-3" cx="92.68" cy="100.11" r="4"/><rect class="cls-2" x="70.31" y="152.54" width="10" height="10" transform="translate(-97.28 184.03) rotate(-73.18)"/><circle class="cls-3" cx="75.31" cy="157.54" r="4"/><rect class="cls-2" x="73.21" y="142.97" width="10" height="10" transform="matrix(0.29, -0.96, 0.96, 0.29, -86.06, 180)"/><circle class="cls-3" cx="78.21" cy="147.97" r="4"/><rect class="cls-2" x="97.25" y="98" width="10" height="10" transform="translate(-25.94 171.07) rotate(-73.18)"/><circle class="cls-3" cx="102.25" cy="103" r="4"/><rect class="cls-2" x="79.89" y="155.44" width="10" height="10" transform="translate(-93.25 195.25) rotate(-73.18)"/><circle class="cls-3" cx="84.89" cy="160.44" r="4"/><rect class="cls-2" x="82.78" y="145.86" width="10" height="10" transform="translate(-82.03 191.22) rotate(-73.18)"/><circle class="cls-3" cx="87.78" cy="150.86" r="4"/><rect class="cls-4" x="72.99" y="144.42" width="20" height="10" transform="translate(46.8 -17.63) rotate(16.82)"/><rect class="cls-4" x="87.47" y="96.56" width="20" height="10" transform="translate(33.57 -23.86) rotate(16.82)"/><rect class="cls-2" x="127.13" y="108.66" width="10" height="10" transform="translate(-23.38 192.37) rotate(-67.55)"/><circle class="cls-3" cx="132.13" cy="113.66" r="4"/><rect class="cls-2" x="104.22" y="164.12" width="10" height="10" transform="translate(-88.79 205.47) rotate(-67.55)"/><circle class="cls-3" cx="109.22" cy="169.12" r="4"/><rect class="cls-2" x="108.03" y="154.87" width="10" height="10" transform="translate(-77.89 203.29) rotate(-67.55)"/><circle class="cls-3" cx="113.03" cy="159.87" r="4"/><rect class="cls-2" x="136.37" y="112.48" width="10" height="10" transform="translate(-21.2 203.27) rotate(-67.55)"/><circle class="cls-3" cx="141.37" cy="117.48" r="4"/><rect class="cls-2" x="113.46" y="167.94" width="10" height="10" transform="translate(-86.61 216.38) rotate(-67.55)"/><circle class="cls-3" cx="118.46" cy="172.94" r="4"/><rect class="cls-2" x="117.28" y="158.69" width="10" height="10" transform="translate(-75.71 214.19) rotate(-67.55)"/><circle class="cls-3" cx="122.28" cy="163.69" r="4"/><rect class="cls-4" x="107.65" y="156.78" width="20" height="10" transform="translate(70.7 -32.67) rotate(22.45)"/><rect class="cls-4" x="126.75" y="110.57" width="20" height="10" transform="translate(54.5 -43.46) rotate(22.45)"/><rect class="cls-2" x="165.06" y="126.02" width="10" height="10" transform="translate(-25.58 219.4) rotate(-61.93)"/><circle class="cls-3" cx="170.06" cy="131.02" r="4"/><rect class="cls-2" x="136.82" y="178.96" width="10" height="10" transform="translate(-87.24 222.51) rotate(-61.93)"/><circle class="cls-3" cx="141.82" cy="183.96" r="4"/><rect class="cls-2" x="141.52" y="170.14" width="10" height="10" transform="translate(-76.96 222) rotate(-61.93)"/><circle class="cls-3" cx="146.52" cy="175.14" r="4"/><rect class="cls-2" x="173.88" y="130.73" width="10" height="10" transform="translate(-25.06 229.68) rotate(-61.93)"/><circle class="cls-3" cx="178.88" cy="135.73" r="4"/><rect class="cls-2" x="145.64" y="183.67" width="10" height="10" transform="translate(-86.72 232.79) rotate(-61.93)"/><circle class="cls-3" cx="150.64" cy="188.67" r="4"/><rect class="cls-2" x="150.35" y="174.84" width="10" height="10" transform="translate(-76.44 232.27) rotate(-61.93)"/><circle class="cls-3" cx="155.35" cy="179.84" r="4"/><rect class="cls-4" x="140.94" y="172.49" width="20" height="10" transform="translate(101.29 -50.15) rotate(28.07)"/><rect class="cls-4" x="164.47" y="128.37" width="20" height="10" transform="translate(83.3 -66.42) rotate(28.07)"/><rect class="cls-2" x="169.49" y="198.19" width="10" height="10" transform="translate(-90.18 244.19) rotate(-58.15)"/><circle class="cls-3" cx="174.49" cy="203.19" r="4"/><rect class="cls-2" x="195.88" y="155.72" width="10" height="10" transform="translate(-41.64 246.55) rotate(-58.15)"/><rect class="cls-2" x="190.6" y="164.21" width="10" height="10" transform="translate(-51.35 246.08) rotate(-58.15)"/><rect class="cls-2" x="185.32" y="172.71" width="10" height="10" transform="translate(-61.06 245.6) rotate(-58.15)"/><rect class="cls-2" x="180.05" y="181.2" width="10" height="10" transform="translate(-70.77 245.13) rotate(-58.15)"/><rect class="cls-4" x="174.75" y="189.76" width="10.25" height="10" transform="translate(129.85 -65.59) rotate(31.85)"/><rect class="cls-2" x="177.99" y="203.47" width="10" height="10" transform="translate(-90.65 253.91) rotate(-58.15)"/><circle class="cls-3" cx="182.99" cy="208.47" r="4"/><rect class="cls-2" x="209.42" y="152.56" width="10" height="10" transform="translate(-35.63 248.53) rotate(-56.3)"/><circle class="cls-3" cx="214.42" cy="157.56" r="4"/><rect class="cls-2" x="188.55" y="186.48" width="10" height="10" transform="translate(-71.24 254.85) rotate(-58.15)"/><rect class="cls-2" x="193.82" y="177.99" width="10" height="10" transform="translate(-61.53 255.32) rotate(-58.15)"/><rect class="cls-2" x="199.1" y="169.49" width="10" height="10" transform="translate(-51.82 255.79) rotate(-58.15)"/><rect class="cls-2" x="204.38" y="161" width="10" height="10" transform="translate(-42.11 256.26) rotate(-58.15)"/><rect class="cls-2" x="209.22" y="153.2" width="10" height="10" transform="translate(-33.2 256.69) rotate(-58.15)"/><rect class="cls-4" x="209.78" y="152.17" width="10.25" height="10" transform="translate(314.51 404.08) rotate(-148.15)"/><polygon class="cls-4" points="181.22 201.48 189.88 206.86 192.33 202.91 195.15 198.37 186.49 192.98 181.22 201.48"/><rect class="cls-4" x="200.19" y="147.04" width="12.89" height="10" transform="translate(111.34 -86.15) rotate(31.85)"/><polyline class="cls-5" points="192.46 202.6 206.82 211.28 222.04 219.83 235.7 227.19 250.52 234.88 267.77 243.42 283.42 250.83 299.72 258.18 308.25 261.9 317.32 265.74"/><polyline class="cls-5" points="218.05 159.23 231.94 167.64 246.65 175.92 259.85 183.06 274.18 190.5 290.85 198.78 305.98 205.96 321.73 213.09 329.98 216.69 338.74 220.41"/><rect class="cls-6" x="8.88" y="76.74" width="1" height="10"/><rect class="cls-6" x="8.88" y="96.74" width="1" height="10"/><rect class="cls-6" x="8.88" y="106.74" width="1" height="10"/><rect class="cls-6" x="8.88" y="116.74" width="1" height="10"/><rect class="cls-6" x="8.88" y="126.74" width="1" height="10"/><rect class="cls-6" x="8.88" y="146.74" width="1" height="10"/><rect class="cls-6" x="327.88" y="76.74" width="1" height="10"/><rect class="cls-6" x="327.88" y="96.74" width="1" height="10"/><rect class="cls-6" x="327.88" y="106.74" width="1" height="10"/><rect class="cls-6" x="327.88" y="116.74" width="1" height="10"/><rect class="cls-6" x="327.88" y="126.74" width="1" height="10"/><rect class="cls-6" x="327.88" y="146.74" width="1" height="10"/><rect class="cls-6" x="348.24" y="208.77" width="1" height="10" transform="translate(108.35 -117.19) rotate(22.5)"/><rect class="cls-6" x="340.59" y="227.25" width="1" height="10" transform="translate(114.84 -112.85) rotate(22.5)"/><rect class="cls-6" x="336.76" y="236.49" width="1" height="10" transform="translate(118.09 -110.68) rotate(22.5)"/><rect class="cls-6" x="332.94" y="245.73" width="1" height="10" transform="translate(121.33 -108.52) rotate(22.5)"/><rect class="cls-6" x="329.11" y="254.97" width="1" height="10" transform="translate(124.58 -106.35) rotate(22.5)"/><rect class="cls-6" x="321.46" y="273.45" width="1" height="10" transform="translate(131.06 -102.01) rotate(22.5)"/></g></g></svg>