<svg xmlns="http://www.w3.org/2000/svg" viewBox="0 0 169 110"><defs><style>.cls-1{fill:#b3b3b3;}.cls-2{fill:#666;}.cls-3{fill:#4d4d4d;}.cls-4{fill:#333;}.cls-5{fill:none;}</style></defs><title>curved_rail_test</title><g id="Warstwa_2" data-name="Warstwa 2"><g id="curved"><rect class="cls-1" x="29.21" y="28.07" width="20" height="80" transform="translate(-6.48 4.17) rotate(-5.63)"/><circle class="cls-2" cx="35.7" cy="83.49" r="4"/><circle class="cls-2" cx="34.72" cy="73.54" r="4"/><circle class="cls-2" cx="33.74" cy="63.59" r="4"/><circle class="cls-2" cx="32.76" cy="53.64" r="4"/><circle class="cls-2" cx="45.65" cy="82.51" r="4"/><circle class="cls-2" cx="44.67" cy="72.56" r="4"/><circle class="cls-2" cx="43.69" cy="62.61" r="4"/><circle class="cls-2" cx="42.71" cy="52.66" r="4"/><circle class="cls-2" cx="30.8" cy="33.73" r="4"/><circle class="cls-2" cx="40.75" cy="32.75" r="4"/><circle class="cls-2" cx="37.66" cy="103.4" r="4"/><circle class="cls-2" cx="47.61" cy="102.42" r="4"/><rect class="cls-1" x="68.04" y="22.31" width="20" height="80" transform="translate(-10.66 16.42) rotate(-11.25)"/><circle class="cls-2" cx="76.06" cy="78" r="4"/><circle class="cls-2" cx="74.11" cy="68.19" r="4"/><circle class="cls-2" cx="72.16" cy="58.39" r="4"/><circle class="cls-2" cx="70.21" cy="48.58" r="4"/><circle class="cls-2" cx="85.87" cy="76.05" r="4"/><circle class="cls-2" cx="83.92" cy="66.24" r="4"/><circle class="cls-2" cx="81.96" cy="56.43" r="4"/><circle class="cls-2" cx="80.01" cy="46.63" r="4"/><circle class="cls-2" cx="66.3" cy="28.96" r="4"/><circle class="cls-2" cx="76.11" cy="27.01" r="4"/><circle class="cls-2" cx="79.96" cy="97.62" r="4"/><circle class="cls-2" cx="89.77" cy="95.67" r="4"/><rect class="cls-1" x="106.11" y="12.78" width="20" height="80" transform="translate(-10.32 35.98) rotate(-16.88)"/><circle class="cls-2" cx="115.68" cy="68.58" r="4"/><circle class="cls-2" cx="112.78" cy="59.01" r="4"/><circle class="cls-2" cx="109.88" cy="49.44" r="4"/><circle class="cls-2" cx="106.97" cy="39.87" r="4"/><circle class="cls-2" cx="125.25" cy="65.68" r="4"/><circle class="cls-2" cx="122.35" cy="56.11" r="4"/><circle class="cls-2" cx="119.45" cy="46.54" r="4"/><circle class="cls-2" cx="116.54" cy="36.97" r="4"/><circle class="cls-2" cx="101.17" cy="20.73" r="4"/><circle class="cls-2" cx="110.74" cy="17.83" r="4"/><circle class="cls-2" cx="121.49" cy="87.72" r="4"/><circle class="cls-2" cx="131.06" cy="84.82" r="4"/><rect class="cls-1" y="30" width="10" height="80"/><circle class="cls-2" cx="5" cy="105" r="4"/><circle class="cls-2" cx="5" cy="85" r="4"/><circle class="cls-2" cx="5" cy="35" r="4"/><circle class="cls-2" cx="5" cy="75" r="4"/><circle class="cls-2" cx="5" cy="65" r="4"/><circle class="cls-2" cx="5" cy="55" r="4"/><rect class="cls-1" x="143.45" y="1.47" width="10" height="80" transform="translate(-4.57 59.97) rotate(-22.5)"/><circle class="cls-2" cx="161.85" cy="73.8" r="4"/><circle class="cls-2" cx="154.19" cy="55.32" r="4"/><circle class="cls-2" cx="135.06" cy="9.13" r="4"/><circle class="cls-2" cx="150.37" cy="46.08" r="4"/><circle class="cls-2" cx="146.54" cy="36.85" r="4"/><circle class="cls-2" cx="142.71" cy="27.61" r="4"/><rect class="cls-3" y="30" width="1" height="80"/><rect class="cls-3" x="152.11" y="-0.26" width="1" height="80" transform="translate(-3.59 61.43) rotate(-22.5)"/><path class="cls-4" d="M0,50A378.9,378.9,0,0,0,145.46,21.16l-3.83-9.24A368.91,368.91,0,0,1,0,40Z"/><path class="cls-4" d="M0,100A428.59,428.59,0,0,0,164.59,67.36l-3.82-9.24A418.65,418.65,0,0,1,0,90Z"/><rect class="cls-5" width="169" height="110"/></g></g></svg>