<svg xmlns="http://www.w3.org/2000/svg" viewBox="0 0 80 80"><defs><style>.cls-1{fill:#b3b3b3;}.cls-2{fill:#666;}.cls-3{fill:#4d4d4d;}.cls-4{fill:#333;}</style></defs><title>double_flex_rail</title><g id="Warstwa_2" data-name="Warstwa 2"><g id="Warstwa_1-2" data-name="Warstwa 1"><rect class="cls-1" x="30" width="20" height="80"/><rect class="cls-1" width="10" height="80"/><rect class="cls-1" x="70" width="10" height="80"/><circle class="cls-2" cx="5" cy="75" r="4"/><circle class="cls-2" cx="5" cy="55" r="4"/><circle class="cls-2" cx="5" cy="5" r="4"/><circle class="cls-2" cx="5" cy="45" r="4"/><circle class="cls-2" cx="5" cy="35" r="4"/><circle class="cls-2" cx="5" cy="25" r="4"/><circle class="cls-2" cx="75" cy="75" r="4"/><circle class="cls-2" cx="75" cy="55" r="4"/><circle class="cls-2" cx="75" cy="5" r="4"/><circle class="cls-2" cx="75" cy="45" r="4"/><circle class="cls-2" cx="75" cy="35" r="4"/><circle class="cls-2" cx="75" cy="25" r="4"/><circle class="cls-2" cx="35" cy="55" r="4"/><circle class="cls-2" cx="35" cy="45" r="4"/><circle class="cls-2" cx="35" cy="35" r="4"/><circle class="cls-2" cx="35" cy="25" r="4"/><circle class="cls-2" cx="45" cy="55" r="4"/><circle class="cls-2" cx="45" cy="45" r="4"/><circle class="cls-2" cx="45" cy="35" r="4"/><circle class="cls-2" cx="45" cy="25" r="4"/><circle class="cls-2" cx="35" cy="5" r="4"/><circle class="cls-2" cx="45" cy="5" r="4"/><circle class="cls-2" cx="35" cy="75" r="4"/><circle class="cls-2" cx="45" cy="75" r="4"/><rect class="cls-3" x="79" width="1" height="80"/><rect class="cls-3" width="1" height="80"/><rect class="cls-3" x="39" width="2" height="80"/><rect class="cls-4" y="10" width="80" height="10"/><rect class="cls-4" y="60" width="80" height="10"/></g></g></svg>