<svg xmlns="http://www.w3.org/2000/svg" viewBox="0 0 350 210"><defs><style>.cls-1{fill:none;}.cls-2{fill:#b3b3b3;}.cls-3{fill:#666;}.cls-4{fill:#4d4d4d;}.cls-5{fill:gray;}.cls-6{fill:#ffe21f;}.cls-7{fill:#333;}</style></defs><title>left_switch_rail</title><g id="Warstwa_2" data-name="Warstwa 2"><g id="Export"><rect class="cls-1" width="350" height="210"/><path class="cls-2" d="M89,150l-9.69-36L60,119.13,65.57,140H50V70H20V210H50V200H70v10H90V153.85ZM74.71,116.21a4,4,0,1,1-2.82,4.9A4,4,0,0,1,74.71,116.21ZM62.23,123.7a4,4,0,1,1,4.9,2.83A4,4,0,0,1,62.23,123.7Z"/><rect class="cls-2" x="270" y="130" width="20" height="80"/><circle class="cls-3" cx="275" cy="185" r="4"/><circle class="cls-3" cx="275" cy="175" r="4"/><circle class="cls-3" cx="275" cy="165" r="4"/><circle class="cls-3" cx="275" cy="155" r="4"/><circle class="cls-3" cx="285" cy="185" r="4"/><circle class="cls-3" cx="285" cy="175" r="4"/><circle class="cls-3" cx="285" cy="165" r="4"/><circle class="cls-3" cx="285" cy="155" r="4"/><circle class="cls-3" cx="275" cy="135" r="4"/><circle class="cls-3" cx="285" cy="135" r="4"/><circle class="cls-3" cx="275" cy="205" r="4"/><circle class="cls-3" cx="285" cy="205" r="4"/><circle class="cls-3" cx="235" cy="185" r="4"/><circle class="cls-3" cx="235" cy="175" r="4"/><circle class="cls-3" cx="235" cy="165" r="4"/><circle class="cls-3" cx="235" cy="155" r="4"/><circle class="cls-3" cx="245" cy="185" r="4"/><circle class="cls-3" cx="245" cy="175" r="4"/><circle class="cls-3" cx="245" cy="165" r="4"/><circle class="cls-3" cx="245" cy="155" r="4"/><circle class="cls-3" cx="235" cy="205" r="4"/><circle class="cls-3" cx="245" cy="205" r="4"/><circle class="cls-3" cx="195" cy="205" r="4"/><circle class="cls-3" cx="205" cy="205" r="4"/><circle class="cls-3" cx="155" cy="205" r="4"/><circle class="cls-3" cx="165" cy="205" r="4"/><rect class="cls-2" x="281.06" y="15.01" width="20" height="80" transform="translate(578.18 -17.77) rotate(155.07)"/><circle class="cls-3" cx="289.27" cy="39.3" r="4"/><circle class="cls-3" cx="293.48" cy="48.37" r="4"/><circle class="cls-3" cx="297.7" cy="57.44" r="4"/><circle class="cls-3" cx="301.91" cy="66.51" r="4"/><circle class="cls-3" cx="280.2" cy="43.52" r="4"/><circle class="cls-3" cx="284.41" cy="52.58" r="4"/><circle class="cls-3" cx="288.63" cy="61.65" r="4"/><circle class="cls-3" cx="292.84" cy="70.72" r="4"/><circle class="cls-3" cx="310.34" cy="84.64" r="4"/><circle class="cls-3" cx="301.27" cy="88.86" r="4"/><circle class="cls-3" cx="280.84" cy="21.16" r="4"/><circle class="cls-3" cx="271.77" cy="25.38" r="4"/><rect class="cls-2" x="247.54" y="31.66" width="20" height="80" transform="translate(518.87 15.32) rotate(152.28)"/><circle class="cls-3" cx="254.99" cy="56.06" r="4"/><circle class="cls-3" cx="259.64" cy="64.91" r="4"/><circle class="cls-3" cx="264.3" cy="73.76" r="4"/><circle class="cls-3" cx="268.95" cy="82.61" r="4"/><circle class="cls-3" cx="246.14" cy="60.71" r="4"/><circle class="cls-3" cx="250.79" cy="69.56" r="4"/><circle class="cls-3" cx="255.44" cy="78.41" r="4"/><circle class="cls-3" cx="260.09" cy="87.26" r="4"/><circle class="cls-3" cx="278.25" cy="100.32" r="4"/><circle class="cls-3" cx="269.4" cy="104.97" r="4"/><circle class="cls-3" cx="245.69" cy="38.35" r="4"/><circle class="cls-3" cx="236.84" cy="43" r="4"/><path class="cls-2" d="M202.34,110,181.88,69.16l-17.88,9L190,130v80h20V125.3ZM172.5,83.92a4,4,0,1,1,1.79-5.37A4,4,0,0,1,172.5,83.92Zm8.94-4.48a4,4,0,1,1,1.79-5.37A4,4,0,0,1,181.44,79.44Z"/><path class="cls-3" d="M181.44,79.44a4,4,0,1,1,1.79-5.37A4,4,0,0,1,181.44,79.44Z"/><path class="cls-3" d="M172.5,83.92a4,4,0,1,1,1.79-5.37A4,4,0,0,1,172.5,83.92Z"/><path class="cls-2" d="M168.81,130,149.74,85.69l-18.37,7.9L150,136.89V210h20V132.77ZM139.52,99.88a4,4,0,1,1,2.09-5.25A4,4,0,0,1,139.52,99.88Zm9.18-3.95a4,4,0,1,1,2.1-5.25A4,4,0,0,1,148.7,95.93Z"/><path class="cls-3" d="M148.7,95.93a4,4,0,1,1,2.1-5.25A4,4,0,0,1,148.7,95.93Z"/><path class="cls-3" d="M139.52,99.88a4,4,0,1,1,2.09-5.25A4,4,0,0,1,139.52,99.88Z"/><polygon class="cls-2" points="250 115.01 250 210 230 210 230 120.36 195.86 61.12 213.19 51.14 244.23 105 250 115.01"/><circle class="cls-3" cx="221.34" cy="75.29" r="4"/><circle class="cls-3" cx="226.34" cy="83.96" r="4"/><circle class="cls-3" cx="231.33" cy="92.62" r="4"/><circle class="cls-3" cx="236.32" cy="101.29" r="4"/><circle class="cls-3" cx="212.68" cy="80.29" r="4"/><circle class="cls-3" cx="217.67" cy="88.95" r="4"/><circle class="cls-3" cx="222.66" cy="97.61" r="4"/><circle class="cls-3" cx="227.66" cy="106.28" r="4"/><circle class="cls-3" cx="211.36" cy="57.96" r="4"/><circle class="cls-3" cx="202.69" cy="62.96" r="4"/><rect class="cls-2" x="317.31" y="2.36" width="10" height="80" transform="translate(636.29 -41.85) rotate(157.5)"/><circle class="cls-3" cx="308.91" cy="10.02" r="4"/><circle class="cls-3" cx="316.57" cy="28.5" r="4"/><circle class="cls-3" cx="335.7" cy="74.69" r="4"/><circle class="cls-3" cx="320.39" cy="37.74" r="4"/><circle class="cls-3" cx="324.22" cy="46.98" r="4"/><circle class="cls-3" cx="328.05" cy="56.22" r="4"/><rect class="cls-4" x="325.96" y="0.64" width="1" height="80" transform="translate(643.63 -46.75) rotate(157.5)"/><path class="cls-2" d="M126.63,130l-10.31-29.68-18.89,6.56L110,143.07V210h20V139.7ZM105.1,113.74a4,4,0,1,1,2.47-5.09A4,4,0,0,1,105.1,113.74Zm4.36-5.74a4,4,0,1,1,5.09,2.46A4,4,0,0,1,109.46,108Z"/><path class="cls-3" d="M114.55,110.46a4,4,0,1,1,2.46-5.09A4,4,0,0,1,114.55,110.46Z"/><path class="cls-3" d="M105.1,113.74a4,4,0,1,1,2.47-5.09A4,4,0,0,1,105.1,113.74Z"/><path class="cls-3" d="M76.79,123.94A4,4,0,1,1,79.61,119,4,4,0,0,1,76.79,123.94Z"/><path class="cls-3" d="M67.13,126.53a4,4,0,1,1,2.83-4.9A4,4,0,0,1,67.13,126.53Z"/><rect class="cls-2" y="130" width="10" height="80"/><rect class="cls-2" x="310" y="130" width="10" height="80"/><circle class="cls-3" cx="5" cy="205" r="4"/><circle class="cls-3" cx="5" cy="185" r="4"/><circle class="cls-3" cx="5" cy="135" r="4"/><circle class="cls-3" cx="5" cy="175" r="4"/><circle class="cls-3" cx="5" cy="165" r="4"/><circle class="cls-3" cx="5" cy="155" r="4"/><circle class="cls-3" cx="315" cy="205" r="4"/><circle class="cls-3" cx="315" cy="185" r="4"/><circle class="cls-3" cx="315" cy="135" r="4"/><circle class="cls-3" cx="315" cy="175" r="4"/><circle class="cls-3" cx="315" cy="165" r="4"/><circle class="cls-3" cx="315" cy="155" r="4"/><circle class="cls-3" cx="25" cy="205" r="4"/><circle class="cls-3" cx="45" cy="205" r="4"/><circle class="cls-3" cx="45" cy="125" r="4"/><circle class="cls-3" cx="35" cy="125" r="4"/><circle class="cls-3" cx="25" cy="125" r="4"/><circle class="cls-3" cx="45" cy="115" r="4"/><circle class="cls-3" cx="35" cy="115" r="4"/><circle class="cls-3" cx="25" cy="115" r="4"/><circle class="cls-3" cx="45" cy="105" r="4"/><circle class="cls-3" cx="35" cy="105" r="4"/><circle class="cls-3" cx="25" cy="105" r="4"/><circle class="cls-3" cx="45" cy="95" r="4"/><circle class="cls-3" cx="25" cy="95" r="4"/><circle class="cls-3" cx="45" cy="75" r="4"/><circle class="cls-3" cx="25" cy="75" r="4"/><circle class="cls-3" cx="75" cy="205" r="4"/><circle class="cls-3" cx="85" cy="205" r="4"/><circle class="cls-3" cx="115" cy="205" r="4"/><circle class="cls-3" cx="125" cy="205" r="4"/><rect class="cls-4" x="319" y="130" width="1" height="80"/><rect class="cls-4" y="130" width="1" height="80"/><rect class="cls-5" x="26" y="84" width="5" height="2" rx="0.5" ry="0.5"/><rect class="cls-5" x="39" y="84" width="5" height="2" rx="0.5" ry="0.5"/><rect class="cls-5" x="32.5" y="78.5" width="5" height="2" rx="0.5" ry="0.5" transform="translate(-44.5 114.5) rotate(-90)"/><rect class="cls-5" x="32.5" y="89.5" width="5" height="2" rx="0.5" ry="0.5" transform="translate(-55.5 125.5) rotate(-90)"/><path class="cls-6" d="M40,83v4a1,1,0,0,1-1,1,.69.69,0,0,1-.25,0A2,2,0,0,1,37,89H33a2,2,0,0,1-1.75-1A.69.69,0,0,1,31,88a1,1,0,0,1-1-1V83a1,1,0,0,1,1-1,.69.69,0,0,1,.25,0A2,2,0,0,1,33,81h4a2,2,0,0,1,1.75,1A.69.69,0,0,1,39,82,1,1,0,0,1,40,83Z"/><path class="cls-7" d="M196.84,140H320v10H176.51A704.79,704.79,0,0,1,70.33,190H320v10H0V190H30.16a694,694,0,0,0,122.1-40H0V140H24.41A646,646,0,0,0,205.57,66.68,657.49,657.49,0,0,1,315.39,12.61l3.83,9.25c-38.51,14.57-74.84,33.69-109.45,55A656.65,656.65,0,0,1,66.45,140h107.8q25.94-12.32,50.64-26.67A608,608,0,0,1,334.54,58.84l3.83,9.25a598,598,0,0,0-109.62,54.56Q213,131.72,196.84,140Z"/><circle class="cls-3" cx="245" cy="185" r="4"/><circle class="cls-3" cx="235" cy="185" r="4"/><circle class="cls-3" cx="245" cy="205" r="4"/><circle class="cls-3" cx="235" cy="205" r="4"/><circle class="cls-3" cx="245" cy="175" r="4"/><circle class="cls-3" cx="235" cy="175" r="4"/><circle class="cls-3" cx="245" cy="165" r="4"/><circle class="cls-3" cx="235" cy="165" r="4"/><circle class="cls-3" cx="245" cy="155" r="4"/><circle class="cls-3" cx="235" cy="155" r="4"/></g></g></svg>