<svg xmlns="http://www.w3.org/2000/svg" viewBox="0 0 290 180"><defs><style>.cls-1{fill:#009245;}.cls-2{fill:#ccc;}.cls-3{fill:#6e6e6e;}.cls-4{fill:#333;}.cls-5{fill:#c1272d;}.cls-6{fill:#ed1c24;}.cls-7{fill:#fff;}.cls-8{fill:#1a1a1a;}</style></defs><title>object_station_small</title><g id="Warstwa_2" data-name="Warstwa 2"><g id="small"><rect class="cls-1" y="20" width="40" height="40"/><rect class="cls-1" x="120" y="120" width="40" height="40"/><rect class="cls-2" x="40" width="80" height="60"/><rect class="cls-2" x="40" y="120" width="80" height="60"/><rect class="cls-2" x="40" y="70" width="80" height="40"/><rect class="cls-3" x="130" width="160" height="40"/><rect class="cls-4" x="270" y="40" width="20" height="20"/><rect class="cls-4" x="190" y="40" width="20" height="20"/><rect class="cls-3" x="130" y="150" width="20" height="20"/><rect class="cls-4" x="130" y="160" width="20" height="10"/><path class="cls-5" d="M250,0h20a0,0,0,0,1,0,0V18a2,2,0,0,1-2,2H252a2,2,0,0,1-2-2V0A0,0,0,0,1,250,0Z"/><path class="cls-5" d="M210,0h20a0,0,0,0,1,0,0V18a2,2,0,0,1-2,2H212a2,2,0,0,1-2-2V0A0,0,0,0,1,210,0Z"/><path class="cls-6" d="M136,170h8a0,0,0,0,1,0,0v0a4,4,0,0,1-4,4h0a4,4,0,0,1-4-4v0a0,0,0,0,1,0,0Z"/><rect class="cls-3" x="10" y="10" width="20" height="20" transform="translate(40 40) rotate(180)"/><rect class="cls-4" x="10" y="10" width="20" height="10" transform="translate(40 30) rotate(180)"/><path class="cls-6" d="M16,6h8a0,0,0,0,1,0,0V6a4,4,0,0,1-4,4h0a4,4,0,0,1-4-4V6a0,0,0,0,1,0,0Z" transform="translate(40 16) rotate(180)"/><rect class="cls-7" x="130" width="40" height="12.5"/></g><g id="small_lines"><path class="cls-8" d="M120,60V0H40V20H30V10H24a4,4,0,0,0-8,0H10V20H0V60H120ZM40.5.5h79v59h-79ZM20,6.5A3.5,3.5,0,0,1,23.5,10h-7A3.5,3.5,0,0,1,20,6.5Zm-9.5,4h19v9h-19Zm0,10h19v9h-19Zm29,39H.5v-39H10V30H30V20.5h9.5Z"/><path class="cls-8" d="M40,120v60h80V160h10v10h6a4,4,0,0,0,8,0h6V160h10V120H40Zm79.5,59.5h-79v-59h79Zm20.5-6a3.5,3.5,0,0,1-3.5-3.5h7A3.5,3.5,0,0,1,140,173.5Zm9.5-4h-19v-9h19Zm0-10h-19v-9h19Zm-29-39h39v39H150V150H130v9.5h-9.5Z"/><path class="cls-8" d="M40,80v30h80V70H40Zm79.5,29.5h-79v-9h79Zm0-19v9h-79v-9Zm0-10v9h-79v-9Zm-79-10h79v9h-79Z"/><path class="cls-8" d="M280,0H130V40h60V60h20V40h60V60h20V0Zm9.5.5v39h-9V.5Zm-20,0V18a1.5,1.5,0,0,1-1.5,1.5H252a1.5,1.5,0,0,1-1.5-1.5V.5Zm-40,0V18a1.5,1.5,0,0,1-1.5,1.5H212a1.5,1.5,0,0,1-1.5-1.5V.5Zm-30,0v39h-9V.5Zm-69,0h39v9h-39Zm39,9.5v2h-39V10Zm-39,29.5v-27H170V.5h20v39Zm79,20h-19v-19h19Zm-9.5-20V.5h10V18a2,2,0,0,0,.5,1.31l.19.19A2,2,0,0,0,212,20h16a2,2,0,0,0,1.31-.5l.19-.19A2,2,0,0,0,230,18V.5h20V18a2,2,0,0,0,.5,1.31l.19.19A2,2,0,0,0,252,20h16a2,2,0,0,0,1.31-.5l.19-.19A2,2,0,0,0,270,18V.5h10v39Zm89.5,20h-19v-19h19Z"/></g></g></svg>