<svg xmlns="http://www.w3.org/2000/svg" viewBox="0 0 540 310"><defs><style>.cls-1{fill:#ccc;}.cls-2{fill:#666;}.cls-3{fill:#c1272d;}.cls-4{fill:#4d4d4d;}.cls-5{fill:#333;}.cls-6{fill:#fcee21;}.cls-7{fill:#1a1a1a;}.cls-8{fill:#999;}</style></defs><title>object_station_passenger</title><g id="Warstwa_2" data-name="Warstwa 2"><g id="passenger"><rect class="cls-1" y="40" width="500" height="120"/><rect class="cls-2" x="5" y="63.5" width="70" height="3"/><rect class="cls-2" x="5" y="73.5" width="70" height="3"/><rect class="cls-3" x="70" y="90" width="140" height="15"/><rect class="cls-3" x="290" y="90" width="140" height="15"/><rect class="cls-3" x="430" y="40" width="10" height="60"/><rect class="cls-4" x="450" y="40" width="20" height="2.5"/><rect class="cls-4" x="450" y="47.5" width="20" height="2.5"/><rect class="cls-4" x="450" y="44" width="20" height="2"/><rect class="cls-3" x="440" y="40" width="20" height="20"/><rect class="cls-5" x="480" y="160" width="20" height="30"/><rect class="cls-5" y="160" width="20" height="30"/><rect class="cls-5" x="160" y="160" width="20" height="30"/><rect class="cls-5" x="320" y="160" width="20" height="30"/><rect class="cls-1" x="240" y="50" width="20" height="240"/><rect class="cls-2" x="200" y="50" width="40" height="240"/><rect class="cls-2" x="260" y="50" width="40" height="240"/><rect class="cls-2" x="425" y="63.5" width="70" height="3"/><rect class="cls-2" x="425" y="73.5" width="70" height="3"/><rect class="cls-5" x="370" y="100" width="20" height="60"/><rect class="cls-5" x="110" y="100" width="20" height="60"/><rect class="cls-1" x="200" width="100" height="40"/><rect class="cls-1" x="500" y="100" width="40" height="60"/><rect class="cls-2" x="200" y="40" width="100" height="10"/><rect class="cls-4" x="50" y="40" width="20" height="2.5"/><rect class="cls-4" x="50" y="47.5" width="20" height="2.5"/><rect class="cls-4" x="50" y="44" width="20" height="2"/><rect class="cls-4" x="30" y="40" width="20" height="2.5"/><rect class="cls-4" x="30" y="47.5" width="20" height="2.5"/><rect class="cls-4" x="30" y="44" width="20" height="2"/><rect class="cls-4" x="10" y="40" width="20" height="2.5"/><rect class="cls-4" x="10" y="47.5" width="20" height="2.5"/><rect class="cls-4" x="10" y="44" width="20" height="2"/><rect class="cls-4" x="470" y="40" width="20" height="2.5"/><rect class="cls-4" x="470" y="47.5" width="20" height="2.5"/><rect class="cls-4" x="470" y="44" width="20" height="2"/><circle class="cls-6" cx="495" cy="155" r="5"/><path class="cls-7" d="M495,151.5a3.5,3.5,0,1,0,3.5,3.5A3.5,3.5,0,0,0,495,151.5Zm0,6.5a3,3,0,1,1,3-3A3,3,0,0,1,495,158Z"/><circle class="cls-6" cx="15" cy="155" r="5"/><path class="cls-7" d="M15,151.5a3.5,3.5,0,1,0,3.5,3.5A3.5,3.5,0,0,0,15,151.5Zm0,6.5a3,3,0,1,1,3-3A3,3,0,0,1,15,158Z"/><circle class="cls-6" cx="75" cy="155" r="5"/><path class="cls-7" d="M75,151.5a3.5,3.5,0,1,0,3.5,3.5A3.5,3.5,0,0,0,75,151.5Zm0,6.5a3,3,0,1,1,3-3A3,3,0,0,1,75,158Z"/><circle class="cls-6" cx="315" cy="155" r="5"/><path class="cls-7" d="M315,151.5a3.5,3.5,0,1,0,3.5,3.5A3.5,3.5,0,0,0,315,151.5Zm0,6.5a3,3,0,1,1,3-3A3,3,0,0,1,315,158Z"/><circle class="cls-6" cx="435" cy="155" r="5"/><path class="cls-7" d="M435,151.5a3.5,3.5,0,1,0,3.5,3.5A3.5,3.5,0,0,0,435,151.5Zm0,6.5a3,3,0,1,1,3-3A3,3,0,0,1,435,158Z"/><circle class="cls-6" cx="195" cy="155" r="5"/><path class="cls-7" d="M195,151.5a3.5,3.5,0,1,0,3.5,3.5A3.5,3.5,0,0,0,195,151.5Zm0,6.5a3,3,0,1,1,3-3A3,3,0,0,1,195,158Z"/><circle class="cls-6" cx="135" cy="155" r="5"/><path class="cls-7" d="M135,151.5a3.5,3.5,0,1,0,3.5,3.5A3.5,3.5,0,0,0,135,151.5Zm0,6.5a3,3,0,1,1,3-3A3,3,0,0,1,135,158Z"/><rect class="cls-5" x="200" y="290" width="20" height="20"/><rect class="cls-5" x="280" y="290" width="20" height="20"/><rect class="cls-2" x="440" y="60" width="5" height="40"/><rect class="cls-2" x="490" y="40" width="10" height="60" rx="5" ry="5"/><path class="cls-7" d="M495,61.5a3.5,3.5,0,1,0,3.5,3.5A3.5,3.5,0,0,0,495,61.5Zm0,6.5a3,3,0,1,1,3-3A3,3,0,0,1,495,68Z"/><path class="cls-7" d="M495,71.5a3.5,3.5,0,1,0,3.5,3.5A3.5,3.5,0,0,0,495,71.5Zm0,6.5a3,3,0,1,1,3-3A3,3,0,0,1,495,78Z"/><rect class="cls-2" y="40" width="10" height="60" rx="5" ry="5"/><path class="cls-7" d="M5,61.5A3.5,3.5,0,1,0,8.5,65,3.5,3.5,0,0,0,5,61.5ZM5,68a3,3,0,1,1,3-3A3,3,0,0,1,5,68Z"/><path class="cls-7" d="M5,71.5A3.5,3.5,0,1,0,8.5,75,3.5,3.5,0,0,0,5,71.5ZM5,78a3,3,0,1,1,3-3A3,3,0,0,1,5,78Z"/><rect class="cls-5" x="70" y="40" width="130" height="50"/><rect class="cls-5" x="300" y="40" width="130" height="50"/><rect class="cls-8" x="70" y="60" width="20" height="20"/><circle class="cls-5" cx="75" cy="75" r="3.5"/><rect class="cls-8" x="74" y="71" width="2" height="8"/><path class="cls-2" d="M85,70H75a5,5,0,0,0,0,10H85a5,5,0,0,0,0-10ZM75,78.5A3.5,3.5,0,1,1,78.5,75,3.5,3.5,0,0,1,75,78.5Zm10,0A3.5,3.5,0,1,1,88.5,75,3.5,3.5,0,0,1,85,78.5Z"/><path class="cls-7" d="M85,71.25A3.75,3.75,0,1,0,88.75,75,3.75,3.75,0,0,0,85,71.25Zm0,7A3.25,3.25,0,1,1,88.25,75,3.26,3.26,0,0,1,85,78.25Z"/><path class="cls-7" d="M75,71.25A3.75,3.75,0,1,0,78.75,75,3.75,3.75,0,0,0,75,71.25Zm0,7A3.25,3.25,0,1,1,78.25,75,3.26,3.26,0,0,1,75,78.25Z"/><circle class="cls-5" cx="75" cy="65" r="3.5"/><rect class="cls-8" x="74" y="61" width="2" height="8"/><path class="cls-2" d="M85,60H75a5,5,0,0,0,0,10H85a5,5,0,0,0,0-10ZM75,68.5A3.5,3.5,0,1,1,78.5,65,3.5,3.5,0,0,1,75,68.5Zm10,0A3.5,3.5,0,1,1,88.5,65,3.5,3.5,0,0,1,85,68.5Z"/><path class="cls-7" d="M75,61.25A3.75,3.75,0,1,0,78.75,65,3.75,3.75,0,0,0,75,61.25Zm0,7A3.25,3.25,0,1,1,78.25,65,3.26,3.26,0,0,1,75,68.25Z"/><path class="cls-7" d="M85,61.25A3.75,3.75,0,1,0,88.75,65,3.75,3.75,0,0,0,85,61.25Zm0,7A3.25,3.25,0,1,1,88.25,65,3.26,3.26,0,0,1,85,68.25Z"/><rect class="cls-8" x="410" y="60" width="20" height="20" transform="translate(840 140) rotate(-180)"/><circle class="cls-5" cx="425" cy="75" r="3.5"/><rect class="cls-8" x="424" y="71" width="2" height="8" transform="translate(850 150) rotate(-180)"/><path class="cls-2" d="M410,75a5,5,0,0,0,5,5h10a5,5,0,0,0,0-10H415A5,5,0,0,0,410,75Zm11.5,0a3.5,3.5,0,1,1,3.5,3.5A3.5,3.5,0,0,1,421.5,75Zm-10,0a3.5,3.5,0,1,1,3.5,3.5A3.5,3.5,0,0,1,411.5,75Z"/><path class="cls-7" d="M411.25,75A3.75,3.75,0,1,0,415,71.25,3.75,3.75,0,0,0,411.25,75Zm.5,0A3.25,3.25,0,1,1,415,78.25,3.26,3.26,0,0,1,411.75,75Z"/><path class="cls-7" d="M421.25,75A3.75,3.75,0,1,0,425,71.25,3.75,3.75,0,0,0,421.25,75Zm.5,0A3.25,3.25,0,1,1,425,78.25,3.26,3.26,0,0,1,421.75,75Z"/><circle class="cls-5" cx="425" cy="65" r="3.5"/><rect class="cls-8" x="424" y="61" width="2" height="8" transform="translate(850 130) rotate(-180)"/><path class="cls-2" d="M410,65a5,5,0,0,0,5,5h10a5,5,0,0,0,0-10H415A5,5,0,0,0,410,65Zm11.5,0a3.5,3.5,0,1,1,3.5,3.5A3.5,3.5,0,0,1,421.5,65Zm-10,0a3.5,3.5,0,1,1,3.5,3.5A3.5,3.5,0,0,1,411.5,65Z"/><path class="cls-7" d="M421.25,65A3.75,3.75,0,1,0,425,61.25,3.75,3.75,0,0,0,421.25,65Zm.5,0A3.25,3.25,0,1,1,425,68.25,3.26,3.26,0,0,1,421.75,65Z"/><path class="cls-7" d="M411.25,65A3.75,3.75,0,1,0,415,61.25,3.75,3.75,0,0,0,411.25,65Zm.5,0A3.25,3.25,0,1,1,415,68.25,3.26,3.26,0,0,1,411.75,65Z"/><rect class="cls-8" x="181.25" y="48.75" width="20" height="2.5" transform="translate(141.25 241.25) rotate(-90)"/><rect class="cls-8" x="188.75" y="48.75" width="20" height="2.5" transform="translate(148.75 248.75) rotate(-90)"/><rect class="cls-8" x="185" y="49" width="20" height="2" transform="translate(145 245) rotate(-90)"/><rect class="cls-8" x="291.25" y="48.75" width="20" height="2.5" transform="translate(251.25 351.25) rotate(-90)"/><rect class="cls-8" x="298.75" y="48.75" width="20" height="2.5" transform="translate(258.75 358.75) rotate(-90)"/><rect class="cls-8" x="295" y="49" width="20" height="2" transform="translate(255 355) rotate(-90)"/><rect class="cls-8" x="191.25" y="298.75" width="20" height="2.5" transform="translate(-98.75 501.25) rotate(-90)"/><rect class="cls-8" x="198.75" y="298.75" width="20" height="2.5" transform="translate(-91.25 508.75) rotate(-90)"/><rect class="cls-8" x="195" y="299" width="20" height="2" transform="translate(-95 505) rotate(-90)"/><rect class="cls-8" x="281.25" y="298.75" width="20" height="2.5" transform="translate(-8.75 591.25) rotate(-90)"/><rect class="cls-8" x="288.75" y="298.75" width="20" height="2.5" transform="translate(-1.25 598.75) rotate(-90)"/><rect class="cls-8" x="285" y="299" width="20" height="2" transform="translate(-5 595) rotate(-90)"/><rect class="cls-2" x="240" y="290" width="20" height="5"/><path class="cls-7" d="M250,6a4,4,0,1,0,4,4A4,4,0,0,0,250,6Zm0,7.5a3.5,3.5,0,1,1,3.5-3.5A3.5,3.5,0,0,1,250,13.5Z"/><path class="cls-7" d="M230,26a4,4,0,1,0,4,4A4,4,0,0,0,230,26Zm0,7.5a3.5,3.5,0,1,1,3.5-3.5A3.5,3.5,0,0,1,230,33.5Z"/><path class="cls-7" d="M270,26a4,4,0,1,0,4,4A4,4,0,0,0,270,26Zm0,7.5a3.5,3.5,0,1,1,3.5-3.5A3.5,3.5,0,0,1,270,33.5Z"/><path class="cls-7" d="M530,106a4,4,0,1,0,4,4A4,4,0,0,0,530,106Zm0,7.5a3.5,3.5,0,1,1,3.5-3.5A3.5,3.5,0,0,1,530,113.5Z"/><path class="cls-7" d="M509.75,126a4,4,0,1,0,4,4A4,4,0,0,0,509.75,126Zm0,7.5a3.5,3.5,0,1,1,3.5-3.5A3.5,3.5,0,0,1,509.75,133.5Z"/></g><g id="passenger_lines"><path class="cls-7" d="M520.5,100H500V40H300V0H200V40H0V190H20V160H160v30h20V160h20V310h20V290.5h20V295h20v-4.5h20V310h20V160h20v30h20V160H480v30h20V160h40V100Zm-341,89.5h-19v-29h19Zm160,0h-19v-29h19Zm180-69v19h-19v-19Zm0-20v19h-19v-19Zm-20-5.5a4.5,4.5,0,0,1-9,0V77.14a5,5,0,0,0,9,0Zm-55,4.5h-1v-23h1Zm-34-22.36a4.92,4.92,0,0,0,2.36,2.36H410.5Zm0-2.14a4.49,4.49,0,0,1,4.5-4.5h10a4.5,4.5,0,0,1,0,9H415A4.49,4.49,0,0,1,410.5,75ZM415,60.5h10a4.5,4.5,0,0,1,0,9H415a4.5,4.5,0,0,1,0-9Zm-4.5,2.36V60.5h2.36A4.92,4.92,0,0,0,410.5,62.86ZM430,64h60v2H430Zm30-14h30V63.5H445V60h15ZM444.5,63.5h-1V60h1Zm-1.5,0h-2.5V60H443Zm-12.5,3h9v7h-9Zm10,0H443v7h-2.5Zm3,0h1v7h-1Zm1.5,0h45v7H445Zm-15.5-3.64a4.92,4.92,0,0,0-2.36-2.36h2.36Zm0,4.28v5.72A5,5,0,0,0,425,70,5,5,0,0,0,429.5,67.14ZM415,70a5,5,0,0,0-4.5,2.86V67.14A5,5,0,0,0,415,70Zm14.5,7.14V79.5h-2.36A4.92,4.92,0,0,0,429.5,77.14ZM369.5,103h-69v-3h69Zm-69-3.5v-9h69v9Zm70-9h19v9h-19Zm20,0h19v9h-19Zm19,9.5v3h-19v-3Zm-110-50h-19V40.5h19Zm-59-9.5h19V50h-19Zm20,0h19V50h-19Zm0-1v-19h19v19Zm-1,0h-19v-19h19Zm-20,0h-19v-19h19Zm0,1V50h-19V40.5Zm1,10.5h19V169.5h-19Zm-21-1h-19V40.5h19Zm-110,53h-19v-3h19Zm-19-3.5v-9h19v9Zm20-9h19v9h-19Zm20,0h69v9h-69Zm69,9.5v3h-69v-3Zm-110-9.5v9h-19v-9Zm0,9.5v3h-19v-3Zm0,3.5v1h-19v-1Zm1,0h19v1h-19Zm40,0h69v1h-69Zm70-52.5h39v79h-39Zm40,238.5v-119h19v119Zm20-159.5V51h39v79Zm40-26.5h69v1h-69Zm90,0h19v1h-19Zm20,0h19v1h-19Zm0-.5v-3h19v3Zm0-3.5v-9h19v9Zm20-23h9v23h-9Zm10,0H443v23h-2.5ZM430,76V74h60v2Zm60.5-1a4.5,4.5,0,1,1,4.5,4.5A4.49,4.49,0,0,1,490.5,75Zm9-2.14a5,5,0,0,0-9,0V67.14a5,5,0,0,0,9,0Zm-9-7.86a4.5,4.5,0,1,1,4.5,4.5A4.49,4.49,0,0,1,490.5,65Zm4.5-5a5,5,0,0,0-4.5,2.86V45a4.5,4.5,0,0,1,9,0V62.86A5,5,0,0,0,495,60Zm4.5-19.5v2.36a4.92,4.92,0,0,0-2.36-2.36Zm-6.64,0A5,5,0,0,0,490,45V40.5Zm-3.36,0v9h-19v-9Zm-20,0v9H460v-9Zm-10,0v19h-19v-19Zm-20,0v23h-9v-23Zm-10,0V60H410V80h19.5v9.5h-129V60H310V40.5Zm-120,0v19h-9v-19Zm-10-1h-19v-19h19Zm0-39v19h-19V.5Zm-20,0v19h-19V.5Zm-20,0v19h-19V.5Zm-20,0v19h-19V.5Zm-39,10V.5h19v19h-19Zm0,10h19v19h-19Zm-1,20v19h-9v-19Zm-9.5,0V60h9.5V89.5H70.5V80H90V60H70.5V40.5ZM10,74H70v2H10Zm.5-24H70V63.5H10V50Zm79,12.86a4.92,4.92,0,0,0-2.36-2.36H89.5Zm0,2.14A4.49,4.49,0,0,1,85,69.5H75a4.5,4.5,0,0,1,0-9H85A4.49,4.49,0,0,1,89.5,65ZM85,79.5H75a4.5,4.5,0,0,1,0-9H85a4.5,4.5,0,0,1,0,9Zm4.5-2.36V79.5H87.14A4.92,4.92,0,0,0,89.5,77.14Zm-19,0a4.92,4.92,0,0,0,2.36,2.36H70.5ZM70,73.5H10v-7H70Zm.5-.64V67.14A5,5,0,0,0,75,70,5,5,0,0,0,70.5,72.86ZM85,70a5,5,0,0,0,4.5-2.86v5.72A5,5,0,0,0,85,70ZM70.5,62.86V60.5h2.36A4.92,4.92,0,0,0,70.5,62.86ZM70,64v2H10V64Zm-.5-23.5v9h-19v-9Zm-20,0v9h-19v-9Zm-20,0v9h-19v-9ZM10,40.5V45a5,5,0,0,0-2.86-4.5Zm-9.5,0H2.86A4.92,4.92,0,0,0,.5,42.86ZM.5,45a4.5,4.5,0,0,1,9,0V62.86a5,5,0,0,0-9,0Zm9,20A4.5,4.5,0,1,1,5,60.5,4.49,4.49,0,0,1,9.5,65Zm-9,2.14a5,5,0,0,0,9,0v5.72a5,5,0,0,0-9,0ZM9.5,75A4.5,4.5,0,1,1,5,70.5,4.49,4.49,0,0,1,9.5,75ZM5,80a5,5,0,0,0,4.5-2.86V95a4.5,4.5,0,0,1-9,0V77.14A5,5,0,0,0,5,80ZM19.5,189.5H.5v-29h19Zm57.64-30a5,5,0,1,0-4.28,0H17.14a5,5,0,1,0-4.28,0H.5V97.14A5,5,0,0,0,10,95V76.5H70V105h40v54.5Zm-2.14,0a4.5,4.5,0,1,1,4.5-4.5A4.49,4.49,0,0,1,75,159.5Zm-60,0a4.5,4.5,0,1,1,4.5-4.5A4.49,4.49,0,0,1,15,159.5Zm95.5,0v-59h19v59Zm86.64,0a5,5,0,1,0-4.28,0H137.14a5,5,0,1,0-4.28,0H130V105h70v54.5Zm-2.14,0a4.5,4.5,0,1,1,4.5-4.5A4.49,4.49,0,0,1,195,159.5Zm-60,0a4.5,4.5,0,1,1,4.5-4.5A4.49,4.49,0,0,1,135,159.5ZM200.5,131h39v78.5h-39Zm0,79.5h39v79h-39Zm0,99v-19h9v19Zm19,0H210v-19h9.5Zm40-15h-19v-1h19Zm0-1.5h-19v-2.5h19Zm21,16.5v-19H290v19Zm19,0h-9v-19h9Zm0-20h-39v-79h39Zm-39-80V131h39v78.5Zm56.64-50a5,5,0,1,0-4.28,0H300V105h70v54.5Zm-2.14,0a4.5,4.5,0,1,1,4.5-4.5A4.49,4.49,0,0,1,315,159.5Zm55.5,0v-59h19v59Zm66.64,0a5,5,0,1,0-4.28,0H390V105h40v-5h15V76.5h45V95a5,5,0,0,0,9.5,2.14v55.72a5,5,0,1,0-6.64,6.64Zm-2.14,0a4.5,4.5,0,1,1,4.5-4.5A4.49,4.49,0,0,1,435,159.5Zm60,0a4.5,4.5,0,1,1,4.5-4.5A4.49,4.49,0,0,1,495,159.5Zm4.5-2.36v2.36h-2.36A4.92,4.92,0,0,0,499.5,157.14Zm0,32.36h-19v-29h19Zm1-30v-19h19v19Zm39,0h-19v-19h19Zm0-20h-19v-19h19Zm-19-20v-19h19v19Z"/></g></g></svg>