<svg xmlns="http://www.w3.org/2000/svg" viewBox="0 0 340 290"><defs><style>.cls-1{fill:#6e6e6e;}.cls-2{fill:#ccc;}.cls-3{fill:#c1272d;}.cls-4{fill:#1a1a1a;}.cls-5{fill:#ffcf1f;}.cls-6{fill:#333;}.cls-7{fill:#666;}.cls-8{fill:none;}</style></defs><title>object_station_freight</title><g id="Warstwa_2" data-name="Warstwa 2"><g id="freight"><rect class="cls-1" x="10" y="10" width="320" height="160"/><rect class="cls-1" x="4" y="10" width="4" height="20"/><rect class="cls-2" x="8" y="10" width="2" height="20"/><rect class="cls-1" x="332" y="10" width="4" height="20" transform="translate(668 40) rotate(-180)"/><rect class="cls-2" x="330" y="10" width="2" height="20" transform="translate(662 40) rotate(-180)"/><rect class="cls-1" x="40" y="160" width="20" height="20"/><rect class="cls-1" x="80" y="160" width="20" height="20"/><rect class="cls-1" x="80" y="240" width="20" height="20"/><rect class="cls-1" x="160" y="240" width="20" height="20"/><rect class="cls-1" x="240" y="240" width="20" height="20"/><rect class="cls-1" x="120" y="160" width="20" height="20"/><rect class="cls-1" x="160" y="160" width="20" height="20"/><rect class="cls-1" x="200" y="160" width="20" height="20"/><rect class="cls-1" x="240" y="160" width="20" height="20"/><rect class="cls-1" x="280" y="160" width="20" height="20"/><rect class="cls-3" x="30" y="30" width="10" height="40"/><rect class="cls-2" x="40" y="30" width="5.5" height="40"/><rect class="cls-3" x="120" y="30" width="10" height="40" transform="translate(250 100) rotate(-180)"/><rect class="cls-2" x="114.5" y="30" width="5.5" height="40" transform="translate(234.5 100) rotate(-180)"/><rect class="cls-4" x="11.5" y="12.5" width="0.5" height="5"/><rect class="cls-4" x="13.5" y="12.5" width="0.5" height="5"/><rect class="cls-4" x="15.5" y="12.5" width="0.5" height="5"/><rect class="cls-4" x="17.5" y="12.5" width="0.5" height="5"/><rect class="cls-4" x="19.5" y="12.5" width="0.5" height="5"/><rect class="cls-4" x="21.5" y="12.5" width="0.5" height="5"/><rect class="cls-4" x="23.5" y="12.5" width="0.5" height="5"/><rect class="cls-4" x="25.5" y="12.5" width="0.5" height="5"/><rect class="cls-4" x="27.5" y="12.5" width="0.5" height="5"/><rect class="cls-4" x="29.5" y="12.5" width="0.5" height="5"/><rect class="cls-4" x="31.5" y="12.5" width="0.5" height="5"/><rect class="cls-4" x="33.5" y="12.5" width="0.5" height="5"/><rect class="cls-4" x="35.5" y="12.5" width="0.5" height="5"/><rect class="cls-4" x="37.5" y="12.5" width="0.5" height="5"/><rect class="cls-4" x="39.5" y="12.5" width="0.5" height="5"/><rect class="cls-4" x="41.5" y="12.5" width="0.5" height="5"/><rect class="cls-4" x="43.5" y="12.5" width="0.5" height="5"/><rect class="cls-4" x="45.5" y="12.5" width="0.5" height="5"/><rect class="cls-4" x="47.5" y="12.5" width="0.5" height="5"/><rect class="cls-4" x="49.5" y="12.5" width="0.5" height="5"/><rect class="cls-4" x="51.5" y="12.5" width="0.5" height="5"/><rect class="cls-4" x="53.5" y="12.5" width="0.5" height="5"/><rect class="cls-4" x="55.5" y="12.5" width="0.5" height="5"/><rect class="cls-4" x="57.5" y="12.5" width="0.5" height="5"/><rect class="cls-4" x="59.5" y="12.5" width="0.5" height="5"/><rect class="cls-4" x="61.5" y="12.5" width="0.5" height="5"/><rect class="cls-4" x="63.5" y="12.5" width="0.5" height="5"/><rect class="cls-4" x="65.5" y="12.5" width="0.5" height="5"/><rect class="cls-4" x="67.5" y="12.5" width="0.5" height="5"/><rect class="cls-4" x="69.5" y="12.5" width="0.5" height="5"/><rect class="cls-4" x="71.5" y="12.5" width="0.5" height="5"/><rect class="cls-4" x="73.5" y="12.5" width="0.5" height="5"/><rect class="cls-4" x="75.5" y="12.5" width="0.5" height="5"/><rect class="cls-4" x="77.5" y="12.5" width="0.5" height="5"/><rect class="cls-4" x="79.5" y="12.5" width="0.5" height="5"/><rect class="cls-4" x="81.5" y="12.5" width="0.5" height="5"/><rect class="cls-4" x="83.5" y="12.5" width="0.5" height="5"/><rect class="cls-4" x="85.5" y="12.5" width="0.5" height="5"/><rect class="cls-4" x="87.5" y="12.5" width="0.5" height="5"/><rect class="cls-4" x="89.5" y="12.5" width="0.5" height="5"/><rect class="cls-4" x="91.5" y="12.5" width="0.5" height="5"/><rect class="cls-4" x="93.5" y="12.5" width="0.5" height="5"/><rect class="cls-4" x="95.5" y="12.5" width="0.5" height="5"/><rect class="cls-4" x="97.5" y="12.5" width="0.5" height="5"/><rect class="cls-4" x="99.5" y="12.5" width="0.5" height="5"/><rect class="cls-4" x="101.5" y="12.5" width="0.5" height="5"/><rect class="cls-4" x="103.5" y="12.5" width="0.5" height="5"/><rect class="cls-4" x="105.5" y="12.5" width="0.5" height="5"/><rect class="cls-4" x="107.5" y="12.5" width="0.5" height="5"/><rect class="cls-4" x="109.5" y="12.5" width="0.5" height="5"/><rect class="cls-4" x="111.5" y="12.5" width="0.5" height="5"/><rect class="cls-4" x="113.5" y="12.5" width="0.5" height="5"/><rect class="cls-4" x="115.5" y="12.5" width="0.5" height="5"/><rect class="cls-4" x="117.5" y="12.5" width="0.5" height="5"/><rect class="cls-4" x="119.5" y="12.5" width="0.5" height="5"/><rect class="cls-4" x="121.5" y="12.5" width="0.5" height="5"/><rect class="cls-4" x="123.5" y="12.5" width="0.5" height="5"/><rect class="cls-4" x="125.5" y="12.5" width="0.5" height="5"/><rect class="cls-4" x="127.5" y="12.5" width="0.5" height="5"/><rect class="cls-4" x="129.5" y="12.5" width="0.5" height="5"/><rect class="cls-4" x="131.5" y="12.5" width="0.5" height="5"/><rect class="cls-4" x="133.5" y="12.5" width="0.5" height="5"/><rect class="cls-4" x="135.5" y="12.5" width="0.5" height="5"/><rect class="cls-4" x="137.5" y="12.5" width="0.5" height="5"/><rect class="cls-4" x="139.5" y="12.5" width="0.5" height="5"/><rect class="cls-4" x="141.5" y="12.5" width="0.5" height="5"/><rect class="cls-4" x="143.5" y="12.5" width="0.5" height="5"/><rect class="cls-4" x="145.5" y="12.5" width="0.5" height="5"/><rect class="cls-4" x="147.5" y="12.5" width="0.5" height="5"/><rect class="cls-4" x="149.5" y="12.5" width="0.5" height="5"/><rect class="cls-4" x="151.5" y="12.5" width="0.5" height="5"/><rect class="cls-4" x="153.5" y="12.5" width="0.5" height="5"/><rect class="cls-4" x="155.5" y="12.5" width="0.5" height="5"/><rect class="cls-4" x="157.5" y="12.5" width="0.5" height="5"/><rect class="cls-4" x="159.5" y="12.5" width="0.5" height="5"/><rect class="cls-4" x="161.5" y="12.5" width="0.5" height="5"/><rect class="cls-4" x="163.5" y="12.5" width="0.5" height="5"/><rect class="cls-4" x="165.5" y="12.5" width="0.5" height="5"/><rect class="cls-4" x="167.5" y="12.5" width="0.5" height="5"/><rect class="cls-4" x="169.5" y="12.5" width="0.5" height="5"/><rect class="cls-4" x="171.5" y="12.5" width="0.5" height="5"/><rect class="cls-4" x="173.5" y="12.5" width="0.5" height="5"/><rect class="cls-4" x="175.5" y="12.5" width="0.5" height="5"/><rect class="cls-4" x="177.5" y="12.5" width="0.5" height="5"/><rect class="cls-4" x="179.5" y="12.5" width="0.5" height="5"/><rect class="cls-4" x="181.5" y="12.5" width="0.5" height="5"/><rect class="cls-4" x="183.5" y="12.5" width="0.5" height="5"/><rect class="cls-4" x="185.5" y="12.5" width="0.5" height="5"/><rect class="cls-4" x="187.5" y="12.5" width="0.5" height="5"/><rect class="cls-4" x="189.5" y="12.5" width="0.5" height="5"/><rect class="cls-4" x="191.5" y="12.5" width="0.5" height="5"/><rect class="cls-4" x="193.5" y="12.5" width="0.5" height="5"/><rect class="cls-4" x="195.5" y="12.5" width="0.5" height="5"/><rect class="cls-4" x="197.5" y="12.5" width="0.5" height="5"/><rect class="cls-4" x="199.5" y="12.5" width="0.5" height="5"/><rect class="cls-4" x="201.5" y="12.5" width="0.5" height="5"/><rect class="cls-4" x="203.5" y="12.5" width="0.5" height="5"/><rect class="cls-4" x="205.5" y="12.5" width="0.5" height="5"/><rect class="cls-4" x="207.5" y="12.5" width="0.5" height="5"/><rect class="cls-4" x="209.5" y="12.5" width="0.5" height="5"/><rect class="cls-4" x="211.5" y="12.5" width="0.5" height="5"/><rect class="cls-4" x="11.5" y="22.5" width="0.5" height="5"/><rect class="cls-4" x="13.5" y="22.5" width="0.5" height="5"/><rect class="cls-4" x="15.5" y="22.5" width="0.5" height="5"/><rect class="cls-4" x="17.5" y="22.5" width="0.5" height="5"/><rect class="cls-4" x="19.5" y="22.5" width="0.5" height="5"/><rect class="cls-4" x="21.5" y="22.5" width="0.5" height="5"/><rect class="cls-4" x="23.5" y="22.5" width="0.5" height="5"/><rect class="cls-4" x="25.5" y="22.5" width="0.5" height="5"/><rect class="cls-4" x="27.5" y="22.5" width="0.5" height="5"/><rect class="cls-4" x="29.5" y="22.5" width="0.5" height="5"/><rect class="cls-4" x="31.5" y="22.5" width="0.5" height="5"/><rect class="cls-4" x="33.5" y="22.5" width="0.5" height="5"/><rect class="cls-4" x="35.5" y="22.5" width="0.5" height="5"/><rect class="cls-4" x="37.5" y="22.5" width="0.5" height="5"/><rect class="cls-4" x="39.5" y="22.5" width="0.5" height="5"/><rect class="cls-4" x="41.5" y="22.5" width="0.5" height="5"/><rect class="cls-4" x="43.5" y="22.5" width="0.5" height="5"/><rect class="cls-4" x="45.5" y="22.5" width="0.5" height="5"/><rect class="cls-4" x="47.5" y="22.5" width="0.5" height="5"/><rect class="cls-4" x="49.5" y="22.5" width="0.5" height="5"/><rect class="cls-4" x="51.5" y="22.5" width="0.5" height="5"/><rect class="cls-4" x="53.5" y="22.5" width="0.5" height="5"/><rect class="cls-4" x="55.5" y="22.5" width="0.5" height="5"/><rect class="cls-4" x="57.5" y="22.5" width="0.5" height="5"/><rect class="cls-4" x="59.5" y="22.5" width="0.5" height="5"/><rect class="cls-4" x="61.5" y="22.5" width="0.5" height="5"/><rect class="cls-4" x="63.5" y="22.5" width="0.5" height="5"/><rect class="cls-4" x="65.5" y="22.5" width="0.5" height="5"/><rect class="cls-4" x="67.5" y="22.5" width="0.5" height="5"/><rect class="cls-4" x="69.5" y="22.5" width="0.5" height="5"/><rect class="cls-4" x="71.5" y="22.5" width="0.5" height="5"/><rect class="cls-4" x="73.5" y="22.5" width="0.5" height="5"/><rect class="cls-4" x="75.5" y="22.5" width="0.5" height="5"/><rect class="cls-4" x="77.5" y="22.5" width="0.5" height="5"/><rect class="cls-4" x="79.5" y="22.5" width="0.5" height="5"/><rect class="cls-4" x="81.5" y="22.5" width="0.5" height="5"/><rect class="cls-4" x="83.5" y="22.5" width="0.5" height="5"/><rect class="cls-4" x="85.5" y="22.5" width="0.5" height="5"/><rect class="cls-4" x="87.5" y="22.5" width="0.5" height="5"/><rect class="cls-4" x="89.5" y="22.5" width="0.5" height="5"/><rect class="cls-4" x="91.5" y="22.5" width="0.5" height="5"/><rect class="cls-4" x="93.5" y="22.5" width="0.5" height="5"/><rect class="cls-4" x="95.5" y="22.5" width="0.5" height="5"/><rect class="cls-4" x="97.5" y="22.5" width="0.5" height="5"/><rect class="cls-4" x="99.5" y="22.5" width="0.5" height="5"/><rect class="cls-4" x="101.5" y="22.5" width="0.5" height="5"/><rect class="cls-4" x="103.5" y="22.5" width="0.5" height="5"/><rect class="cls-4" x="105.5" y="22.5" width="0.5" height="5"/><rect class="cls-4" x="107.5" y="22.5" width="0.5" height="5"/><rect class="cls-4" x="109.5" y="22.5" width="0.5" height="5"/><rect class="cls-4" x="111.5" y="22.5" width="0.5" height="5"/><rect class="cls-4" x="113.5" y="22.5" width="0.5" height="5"/><rect class="cls-4" x="115.5" y="22.5" width="0.5" height="5"/><rect class="cls-4" x="117.5" y="22.5" width="0.5" height="5"/><rect class="cls-4" x="119.5" y="22.5" width="0.5" height="5"/><rect class="cls-4" x="121.5" y="22.5" width="0.5" height="5"/><rect class="cls-4" x="123.5" y="22.5" width="0.5" height="5"/><rect class="cls-4" x="125.5" y="22.5" width="0.5" height="5"/><rect class="cls-4" x="127.5" y="22.5" width="0.5" height="5"/><rect class="cls-4" x="129.5" y="22.5" width="0.5" height="5"/><rect class="cls-4" x="131.5" y="22.5" width="0.5" height="5"/><rect class="cls-4" x="133.5" y="22.5" width="0.5" height="5"/><rect class="cls-4" x="135.5" y="22.5" width="0.5" height="5"/><rect class="cls-4" x="137.5" y="22.5" width="0.5" height="5"/><rect class="cls-4" x="139.5" y="22.5" width="0.5" height="5"/><rect class="cls-4" x="141.5" y="22.5" width="0.5" height="5"/><rect class="cls-4" x="143.5" y="22.5" width="0.5" height="5"/><rect class="cls-4" x="145.5" y="22.5" width="0.5" height="5"/><rect class="cls-4" x="147.5" y="22.5" width="0.5" height="5"/><rect class="cls-4" x="149.5" y="22.5" width="0.5" height="5"/><rect class="cls-4" x="151.5" y="22.5" width="0.5" height="5"/><rect class="cls-4" x="153.5" y="22.5" width="0.5" height="5"/><rect class="cls-4" x="155.5" y="22.5" width="0.5" height="5"/><rect class="cls-4" x="157.5" y="22.5" width="0.5" height="5"/><rect class="cls-4" x="159.5" y="22.5" width="0.5" height="5"/><rect class="cls-4" x="161.5" y="22.5" width="0.5" height="5"/><rect class="cls-4" x="163.5" y="22.5" width="0.5" height="5"/><rect class="cls-4" x="165.5" y="22.5" width="0.5" height="5"/><rect class="cls-4" x="167.5" y="22.5" width="0.5" height="5"/><rect class="cls-4" x="169.5" y="22.5" width="0.5" height="5"/><rect class="cls-4" x="171.5" y="22.5" width="0.5" height="5"/><rect class="cls-4" x="173.5" y="22.5" width="0.5" height="5"/><rect class="cls-4" x="175.5" y="22.5" width="0.5" height="5"/><rect class="cls-4" x="177.5" y="22.5" width="0.5" height="5"/><rect class="cls-4" x="179.5" y="22.5" width="0.5" height="5"/><rect class="cls-4" x="181.5" y="22.5" width="0.5" height="5"/><rect class="cls-4" x="183.5" y="22.5" width="0.5" height="5"/><rect class="cls-4" x="185.5" y="22.5" width="0.5" height="5"/><rect class="cls-4" x="187.5" y="22.5" width="0.5" height="5"/><rect class="cls-4" x="189.5" y="22.5" width="0.5" height="5"/><rect class="cls-4" x="191.5" y="22.5" width="0.5" height="5"/><rect class="cls-4" x="193.5" y="22.5" width="0.5" height="5"/><rect class="cls-4" x="195.5" y="22.5" width="0.5" height="5"/><rect class="cls-4" x="197.5" y="22.5" width="0.5" height="5"/><rect class="cls-4" x="199.5" y="22.5" width="0.5" height="5"/><rect class="cls-4" x="201.5" y="22.5" width="0.5" height="5"/><rect class="cls-4" x="203.5" y="22.5" width="0.5" height="5"/><rect class="cls-4" x="205.5" y="22.5" width="0.5" height="5"/><rect class="cls-4" x="207.5" y="22.5" width="0.5" height="5"/><rect class="cls-4" x="209.5" y="22.5" width="0.5" height="5"/><rect class="cls-4" x="211.5" y="22.5" width="0.5" height="5"/><rect class="cls-4" x="213.5" y="22.5" width="0.5" height="5"/><rect class="cls-4" x="215.5" y="22.5" width="0.5" height="5"/><rect class="cls-4" x="217.5" y="22.5" width="0.5" height="5"/><rect class="cls-4" x="219.5" y="22.5" width="0.5" height="5"/><rect class="cls-4" x="221.5" y="22.5" width="0.5" height="5"/><rect class="cls-4" x="223.5" y="22.5" width="0.5" height="5"/><rect class="cls-4" x="225.5" y="22.5" width="0.5" height="5"/><rect class="cls-4" x="227.5" y="22.5" width="0.5" height="5"/><rect class="cls-4" x="229.5" y="22.5" width="0.5" height="5"/><rect class="cls-4" x="231.5" y="22.5" width="0.5" height="5"/><rect class="cls-4" x="233.5" y="22.5" width="0.5" height="5"/><rect class="cls-4" x="235.5" y="22.5" width="0.5" height="5"/><rect class="cls-4" x="237.5" y="22.5" width="0.5" height="5"/><rect class="cls-4" x="239.5" y="22.5" width="0.5" height="5"/><rect class="cls-4" x="241.5" y="22.5" width="0.5" height="5"/><rect class="cls-4" x="243.5" y="22.5" width="0.5" height="5"/><rect class="cls-4" x="245.5" y="22.5" width="0.5" height="5"/><rect class="cls-4" x="247.5" y="22.5" width="0.5" height="5"/><rect class="cls-4" x="249.5" y="22.5" width="0.5" height="5"/><rect class="cls-4" x="251.5" y="22.5" width="0.5" height="5"/><rect class="cls-4" x="253.5" y="22.5" width="0.5" height="5"/><rect class="cls-4" x="255.5" y="22.5" width="0.5" height="5"/><rect class="cls-4" x="257.5" y="22.5" width="0.5" height="5"/><rect class="cls-4" x="259.5" y="22.5" width="0.5" height="5"/><rect class="cls-4" x="261.5" y="22.5" width="0.5" height="5"/><rect class="cls-4" x="263.5" y="22.5" width="0.5" height="5"/><rect class="cls-4" x="265.5" y="22.5" width="0.5" height="5"/><rect class="cls-4" x="267.5" y="22.5" width="0.5" height="5"/><rect class="cls-4" x="269.5" y="22.5" width="0.5" height="5"/><rect class="cls-4" x="271.5" y="22.5" width="0.5" height="5"/><rect class="cls-4" x="273.5" y="22.5" width="0.5" height="5"/><rect class="cls-4" x="275.5" y="22.5" width="0.5" height="5"/><rect class="cls-4" x="277.5" y="22.5" width="0.5" height="5"/><rect class="cls-4" x="279.5" y="22.5" width="0.5" height="5"/><rect class="cls-4" x="281.5" y="22.5" width="0.5" height="5"/><rect class="cls-4" x="283.5" y="22.5" width="0.5" height="5"/><rect class="cls-4" x="285.5" y="22.5" width="0.5" height="5"/><rect class="cls-4" x="287.5" y="22.5" width="0.5" height="5"/><rect class="cls-4" x="289.5" y="22.5" width="0.5" height="5"/><rect class="cls-4" x="291.5" y="22.5" width="0.5" height="5"/><rect class="cls-4" x="293.5" y="22.5" width="0.5" height="5"/><rect class="cls-4" x="295.5" y="22.5" width="0.5" height="5"/><rect class="cls-4" x="297.5" y="22.5" width="0.5" height="5"/><rect class="cls-4" x="299.5" y="22.5" width="0.5" height="5"/><rect class="cls-4" x="301.5" y="22.5" width="0.5" height="5"/><rect class="cls-4" x="303.5" y="22.5" width="0.5" height="5"/><rect class="cls-4" x="305.5" y="22.5" width="0.5" height="5"/><rect class="cls-4" x="307.5" y="22.5" width="0.5" height="5"/><rect class="cls-4" x="309.5" y="22.5" width="0.5" height="5"/><rect class="cls-4" x="311.5" y="22.5" width="0.5" height="5"/><rect class="cls-4" x="313.5" y="22.5" width="0.5" height="5"/><rect class="cls-4" x="315.5" y="22.5" width="0.5" height="5"/><rect class="cls-4" x="317.5" y="22.5" width="0.5" height="5"/><rect class="cls-4" x="319.5" y="22.5" width="0.5" height="5"/><rect class="cls-4" x="321.5" y="22.5" width="0.5" height="5"/><rect class="cls-4" x="323.5" y="22.5" width="0.5" height="5"/><rect class="cls-4" x="325.5" y="22.5" width="0.5" height="5"/><rect class="cls-4" x="327.5" y="22.5" width="0.5" height="5"/><rect class="cls-1" x="10" y="260" width="320" height="20"/><rect class="cls-5" y="260" width="10" height="20"/><polygon class="cls-2" points="10 240 10 250 0 250 0 260 20 260 20 240 10 240"/><rect class="cls-5" x="330" y="260" width="10" height="20" transform="translate(670 540) rotate(-180)"/><polygon class="cls-2" points="330 240 330 250 340 250 340 260 320 260 320 240 330 240"/><rect class="cls-4" x="11.5" y="262.5" width="0.5" height="5"/><rect class="cls-4" x="13.5" y="262.5" width="0.5" height="5"/><rect class="cls-4" x="15.5" y="262.5" width="0.5" height="5"/><rect class="cls-4" x="17.5" y="262.5" width="0.5" height="5"/><rect class="cls-4" x="19.5" y="262.5" width="0.5" height="5"/><rect class="cls-4" x="21.5" y="262.5" width="0.5" height="5"/><rect class="cls-4" x="23.5" y="262.5" width="0.5" height="5"/><rect class="cls-4" x="25.5" y="262.5" width="0.5" height="5"/><rect class="cls-4" x="27.5" y="262.5" width="0.5" height="5"/><rect class="cls-4" x="29.5" y="262.5" width="0.5" height="5"/><rect class="cls-4" x="31.5" y="262.5" width="0.5" height="5"/><rect class="cls-4" x="33.5" y="262.5" width="0.5" height="5"/><rect class="cls-4" x="35.5" y="262.5" width="0.5" height="5"/><rect class="cls-4" x="37.5" y="262.5" width="0.5" height="5"/><rect class="cls-4" x="39.5" y="262.5" width="0.5" height="5"/><rect class="cls-4" x="41.5" y="262.5" width="0.5" height="5"/><rect class="cls-4" x="43.5" y="262.5" width="0.5" height="5"/><rect class="cls-4" x="45.5" y="262.5" width="0.5" height="5"/><rect class="cls-4" x="47.5" y="262.5" width="0.5" height="5"/><rect class="cls-4" x="49.5" y="262.5" width="0.5" height="5"/><rect class="cls-4" x="51.5" y="262.5" width="0.5" height="5"/><rect class="cls-4" x="53.5" y="262.5" width="0.5" height="5"/><rect class="cls-4" x="55.5" y="262.5" width="0.5" height="5"/><rect class="cls-4" x="57.5" y="262.5" width="0.5" height="5"/><rect class="cls-4" x="59.5" y="262.5" width="0.5" height="5"/><rect class="cls-4" x="61.5" y="262.5" width="0.5" height="5"/><rect class="cls-4" x="63.5" y="262.5" width="0.5" height="5"/><rect class="cls-4" x="65.5" y="262.5" width="0.5" height="5"/><rect class="cls-4" x="67.5" y="262.5" width="0.5" height="5"/><rect class="cls-4" x="69.5" y="262.5" width="0.5" height="5"/><rect class="cls-4" x="71.5" y="262.5" width="0.5" height="5"/><rect class="cls-4" x="73.5" y="262.5" width="0.5" height="5"/><rect class="cls-4" x="75.5" y="262.5" width="0.5" height="5"/><rect class="cls-4" x="77.5" y="262.5" width="0.5" height="5"/><rect class="cls-4" x="79.5" y="262.5" width="0.5" height="5"/><rect class="cls-4" x="81.5" y="262.5" width="0.5" height="5"/><rect class="cls-4" x="83.5" y="262.5" width="0.5" height="5"/><rect class="cls-4" x="85.5" y="262.5" width="0.5" height="5"/><rect class="cls-4" x="87.5" y="262.5" width="0.5" height="5"/><rect class="cls-4" x="89.5" y="262.5" width="0.5" height="5"/><rect class="cls-4" x="91.5" y="262.5" width="0.5" height="5"/><rect class="cls-4" x="93.5" y="262.5" width="0.5" height="5"/><rect class="cls-4" x="95.5" y="262.5" width="0.5" height="5"/><rect class="cls-4" x="97.5" y="262.5" width="0.5" height="5"/><rect class="cls-4" x="99.5" y="262.5" width="0.5" height="5"/><rect class="cls-4" x="101.5" y="262.5" width="0.5" height="5"/><rect class="cls-4" x="103.5" y="262.5" width="0.5" height="5"/><rect class="cls-4" x="105.5" y="262.5" width="0.5" height="5"/><rect class="cls-4" x="107.5" y="262.5" width="0.5" height="5"/><rect class="cls-4" x="109.5" y="262.5" width="0.5" height="5"/><rect class="cls-4" x="111.5" y="262.5" width="0.5" height="5"/><rect class="cls-4" x="113.5" y="262.5" width="0.5" height="5"/><rect class="cls-4" x="115.5" y="262.5" width="0.5" height="5"/><rect class="cls-4" x="117.5" y="262.5" width="0.5" height="5"/><rect class="cls-4" x="119.5" y="262.5" width="0.5" height="5"/><rect class="cls-4" x="121.5" y="262.5" width="0.5" height="5"/><rect class="cls-4" x="123.5" y="262.5" width="0.5" height="5"/><rect class="cls-4" x="125.5" y="262.5" width="0.5" height="5"/><rect class="cls-4" x="127.5" y="262.5" width="0.5" height="5"/><rect class="cls-4" x="129.5" y="262.5" width="0.5" height="5"/><rect class="cls-4" x="131.5" y="262.5" width="0.5" height="5"/><rect class="cls-4" x="133.5" y="262.5" width="0.5" height="5"/><rect class="cls-4" x="135.5" y="262.5" width="0.5" height="5"/><rect class="cls-4" x="137.5" y="262.5" width="0.5" height="5"/><rect class="cls-4" x="139.5" y="262.5" width="0.5" height="5"/><rect class="cls-4" x="141.5" y="262.5" width="0.5" height="5"/><rect class="cls-4" x="143.5" y="262.5" width="0.5" height="5"/><rect class="cls-4" x="145.5" y="262.5" width="0.5" height="5"/><rect class="cls-4" x="147.5" y="262.5" width="0.5" height="5"/><rect class="cls-4" x="149.5" y="262.5" width="0.5" height="5"/><rect class="cls-4" x="151.5" y="262.5" width="0.5" height="5"/><rect class="cls-4" x="153.5" y="262.5" width="0.5" height="5"/><rect class="cls-4" x="155.5" y="262.5" width="0.5" height="5"/><rect class="cls-4" x="157.5" y="262.5" width="0.5" height="5"/><rect class="cls-4" x="159.5" y="262.5" width="0.5" height="5"/><rect class="cls-4" x="161.5" y="262.5" width="0.5" height="5"/><rect class="cls-4" x="163.5" y="262.5" width="0.5" height="5"/><rect class="cls-4" x="165.5" y="262.5" width="0.5" height="5"/><rect class="cls-4" x="167.5" y="262.5" width="0.5" height="5"/><rect class="cls-4" x="169.5" y="262.5" width="0.5" height="5"/><rect class="cls-4" x="171.5" y="262.5" width="0.5" height="5"/><rect class="cls-4" x="173.5" y="262.5" width="0.5" height="5"/><rect class="cls-4" x="175.5" y="262.5" width="0.5" height="5"/><rect class="cls-4" x="177.5" y="262.5" width="0.5" height="5"/><rect class="cls-4" x="179.5" y="262.5" width="0.5" height="5"/><rect class="cls-4" x="181.5" y="262.5" width="0.5" height="5"/><rect class="cls-4" x="183.5" y="262.5" width="0.5" height="5"/><rect class="cls-4" x="185.5" y="262.5" width="0.5" height="5"/><rect class="cls-4" x="187.5" y="262.5" width="0.5" height="5"/><rect class="cls-4" x="189.5" y="262.5" width="0.5" height="5"/><rect class="cls-4" x="191.5" y="262.5" width="0.5" height="5"/><rect class="cls-4" x="193.5" y="262.5" width="0.5" height="5"/><rect class="cls-4" x="195.5" y="262.5" width="0.5" height="5"/><rect class="cls-4" x="197.5" y="262.5" width="0.5" height="5"/><rect class="cls-4" x="199.5" y="262.5" width="0.5" height="5"/><rect class="cls-4" x="201.5" y="262.5" width="0.5" height="5"/><rect class="cls-4" x="203.5" y="262.5" width="0.5" height="5"/><rect class="cls-4" x="205.5" y="262.5" width="0.5" height="5"/><rect class="cls-4" x="207.5" y="262.5" width="0.5" height="5"/><rect class="cls-4" x="209.5" y="262.5" width="0.5" height="5"/><rect class="cls-4" x="211.5" y="262.5" width="0.5" height="5"/><rect class="cls-4" x="213.5" y="262.5" width="0.5" height="5"/><rect class="cls-4" x="215.5" y="262.5" width="0.5" height="5"/><rect class="cls-4" x="217.5" y="262.5" width="0.5" height="5"/><rect class="cls-4" x="219.5" y="262.5" width="0.5" height="5"/><rect class="cls-4" x="221.5" y="262.5" width="0.5" height="5"/><rect class="cls-4" x="223.5" y="262.5" width="0.5" height="5"/><rect class="cls-4" x="225.5" y="262.5" width="0.5" height="5"/><rect class="cls-4" x="227.5" y="262.5" width="0.5" height="5"/><rect class="cls-4" x="229.5" y="262.5" width="0.5" height="5"/><rect class="cls-4" x="231.5" y="262.5" width="0.5" height="5"/><rect class="cls-4" x="233.5" y="262.5" width="0.5" height="5"/><rect class="cls-4" x="235.5" y="262.5" width="0.5" height="5"/><rect class="cls-4" x="237.5" y="262.5" width="0.5" height="5"/><rect class="cls-4" x="239.5" y="262.5" width="0.5" height="5"/><rect class="cls-4" x="241.5" y="262.5" width="0.5" height="5"/><rect class="cls-4" x="243.5" y="262.5" width="0.5" height="5"/><rect class="cls-4" x="245.5" y="262.5" width="0.5" height="5"/><rect class="cls-4" x="247.5" y="262.5" width="0.5" height="5"/><rect class="cls-4" x="249.5" y="262.5" width="0.5" height="5"/><rect class="cls-4" x="251.5" y="262.5" width="0.5" height="5"/><rect class="cls-4" x="253.5" y="262.5" width="0.5" height="5"/><rect class="cls-4" x="255.5" y="262.5" width="0.5" height="5"/><rect class="cls-4" x="257.5" y="262.5" width="0.5" height="5"/><rect class="cls-4" x="259.5" y="262.5" width="0.5" height="5"/><rect class="cls-4" x="261.5" y="262.5" width="0.5" height="5"/><rect class="cls-4" x="263.5" y="262.5" width="0.5" height="5"/><rect class="cls-4" x="265.5" y="262.5" width="0.5" height="5"/><rect class="cls-4" x="267.5" y="262.5" width="0.5" height="5"/><rect class="cls-4" x="269.5" y="262.5" width="0.5" height="5"/><rect class="cls-4" x="271.5" y="262.5" width="0.5" height="5"/><rect class="cls-4" x="273.5" y="262.5" width="0.5" height="5"/><rect class="cls-4" x="275.5" y="262.5" width="0.5" height="5"/><rect class="cls-4" x="277.5" y="262.5" width="0.5" height="5"/><rect class="cls-4" x="279.5" y="262.5" width="0.5" height="5"/><rect class="cls-4" x="281.5" y="262.5" width="0.5" height="5"/><rect class="cls-4" x="283.5" y="262.5" width="0.5" height="5"/><rect class="cls-4" x="285.5" y="262.5" width="0.5" height="5"/><rect class="cls-4" x="287.5" y="262.5" width="0.5" height="5"/><rect class="cls-4" x="289.5" y="262.5" width="0.5" height="5"/><rect class="cls-4" x="291.5" y="262.5" width="0.5" height="5"/><rect class="cls-4" x="293.5" y="262.5" width="0.5" height="5"/><rect class="cls-4" x="295.5" y="262.5" width="0.5" height="5"/><rect class="cls-4" x="297.5" y="262.5" width="0.5" height="5"/><rect class="cls-4" x="299.5" y="262.5" width="0.5" height="5"/><rect class="cls-4" x="301.5" y="262.5" width="0.5" height="5"/><rect class="cls-4" x="303.5" y="262.5" width="0.5" height="5"/><rect class="cls-4" x="305.5" y="262.5" width="0.5" height="5"/><rect class="cls-4" x="307.5" y="262.5" width="0.5" height="5"/><rect class="cls-4" x="309.5" y="262.5" width="0.5" height="5"/><rect class="cls-4" x="311.5" y="262.5" width="0.5" height="5"/><rect class="cls-4" x="313.5" y="262.5" width="0.5" height="5"/><rect class="cls-4" x="315.5" y="262.5" width="0.5" height="5"/><rect class="cls-4" x="317.5" y="262.5" width="0.5" height="5"/><rect class="cls-4" x="319.5" y="262.5" width="0.5" height="5"/><rect class="cls-4" x="321.5" y="262.5" width="0.5" height="5"/><rect class="cls-4" x="323.5" y="262.5" width="0.5" height="5"/><rect class="cls-4" x="325.5" y="262.5" width="0.5" height="5"/><rect class="cls-4" x="327.5" y="262.5" width="0.5" height="5"/><rect class="cls-4" x="11.5" y="272.5" width="0.5" height="5"/><rect class="cls-4" x="13.5" y="272.5" width="0.5" height="5"/><rect class="cls-4" x="15.5" y="272.5" width="0.5" height="5"/><rect class="cls-4" x="17.5" y="272.5" width="0.5" height="5"/><rect class="cls-4" x="19.5" y="272.5" width="0.5" height="5"/><rect class="cls-4" x="21.5" y="272.5" width="0.5" height="5"/><rect class="cls-4" x="23.5" y="272.5" width="0.5" height="5"/><rect class="cls-4" x="25.5" y="272.5" width="0.5" height="5"/><rect class="cls-4" x="27.5" y="272.5" width="0.5" height="5"/><rect class="cls-4" x="29.5" y="272.5" width="0.5" height="5"/><rect class="cls-4" x="31.5" y="272.5" width="0.5" height="5"/><rect class="cls-4" x="33.5" y="272.5" width="0.5" height="5"/><rect class="cls-4" x="35.5" y="272.5" width="0.5" height="5"/><rect class="cls-4" x="37.5" y="272.5" width="0.5" height="5"/><rect class="cls-4" x="39.5" y="272.5" width="0.5" height="5"/><rect class="cls-4" x="41.5" y="272.5" width="0.5" height="5"/><rect class="cls-4" x="43.5" y="272.5" width="0.5" height="5"/><rect class="cls-4" x="45.5" y="272.5" width="0.5" height="5"/><rect class="cls-4" x="47.5" y="272.5" width="0.5" height="5"/><rect class="cls-4" x="49.5" y="272.5" width="0.5" height="5"/><rect class="cls-4" x="51.5" y="272.5" width="0.5" height="5"/><rect class="cls-4" x="53.5" y="272.5" width="0.5" height="5"/><rect class="cls-4" x="55.5" y="272.5" width="0.5" height="5"/><rect class="cls-4" x="57.5" y="272.5" width="0.5" height="5"/><rect class="cls-4" x="59.5" y="272.5" width="0.5" height="5"/><rect class="cls-4" x="61.5" y="272.5" width="0.5" height="5"/><rect class="cls-4" x="63.5" y="272.5" width="0.5" height="5"/><rect class="cls-4" x="65.5" y="272.5" width="0.5" height="5"/><rect class="cls-4" x="67.5" y="272.5" width="0.5" height="5"/><rect class="cls-4" x="69.5" y="272.5" width="0.5" height="5"/><rect class="cls-4" x="71.5" y="272.5" width="0.5" height="5"/><rect class="cls-4" x="73.5" y="272.5" width="0.5" height="5"/><rect class="cls-4" x="75.5" y="272.5" width="0.5" height="5"/><rect class="cls-4" x="77.5" y="272.5" width="0.5" height="5"/><rect class="cls-4" x="79.5" y="272.5" width="0.5" height="5"/><rect class="cls-4" x="81.5" y="272.5" width="0.5" height="5"/><rect class="cls-4" x="83.5" y="272.5" width="0.5" height="5"/><rect class="cls-4" x="85.5" y="272.5" width="0.5" height="5"/><rect class="cls-4" x="87.5" y="272.5" width="0.5" height="5"/><rect class="cls-4" x="89.5" y="272.5" width="0.5" height="5"/><rect class="cls-4" x="91.5" y="272.5" width="0.5" height="5"/><rect class="cls-4" x="93.5" y="272.5" width="0.5" height="5"/><rect class="cls-4" x="95.5" y="272.5" width="0.5" height="5"/><rect class="cls-4" x="97.5" y="272.5" width="0.5" height="5"/><rect class="cls-4" x="99.5" y="272.5" width="0.5" height="5"/><rect class="cls-4" x="101.5" y="272.5" width="0.5" height="5"/><rect class="cls-4" x="103.5" y="272.5" width="0.5" height="5"/><rect class="cls-4" x="105.5" y="272.5" width="0.5" height="5"/><rect class="cls-4" x="107.5" y="272.5" width="0.5" height="5"/><rect class="cls-4" x="109.5" y="272.5" width="0.5" height="5"/><rect class="cls-4" x="111.5" y="272.5" width="0.5" height="5"/><rect class="cls-4" x="113.5" y="272.5" width="0.5" height="5"/><rect class="cls-4" x="115.5" y="272.5" width="0.5" height="5"/><rect class="cls-4" x="117.5" y="272.5" width="0.5" height="5"/><rect class="cls-4" x="119.5" y="272.5" width="0.5" height="5"/><rect class="cls-4" x="121.5" y="272.5" width="0.5" height="5"/><rect class="cls-4" x="123.5" y="272.5" width="0.5" height="5"/><rect class="cls-4" x="125.5" y="272.5" width="0.5" height="5"/><rect class="cls-4" x="127.5" y="272.5" width="0.5" height="5"/><rect class="cls-4" x="129.5" y="272.5" width="0.5" height="5"/><rect class="cls-4" x="131.5" y="272.5" width="0.5" height="5"/><rect class="cls-4" x="133.5" y="272.5" width="0.5" height="5"/><rect class="cls-4" x="135.5" y="272.5" width="0.5" height="5"/><rect class="cls-4" x="137.5" y="272.5" width="0.5" height="5"/><rect class="cls-4" x="139.5" y="272.5" width="0.5" height="5"/><rect class="cls-4" x="141.5" y="272.5" width="0.5" height="5"/><rect class="cls-4" x="143.5" y="272.5" width="0.5" height="5"/><rect class="cls-4" x="145.5" y="272.5" width="0.5" height="5"/><rect class="cls-4" x="147.5" y="272.5" width="0.5" height="5"/><rect class="cls-4" x="149.5" y="272.5" width="0.5" height="5"/><rect class="cls-4" x="151.5" y="272.5" width="0.5" height="5"/><rect class="cls-4" x="153.5" y="272.5" width="0.5" height="5"/><rect class="cls-4" x="155.5" y="272.5" width="0.5" height="5"/><rect class="cls-4" x="157.5" y="272.5" width="0.5" height="5"/><rect class="cls-4" x="159.5" y="272.5" width="0.5" height="5"/><rect class="cls-4" x="161.5" y="272.5" width="0.5" height="5"/><rect class="cls-4" x="163.5" y="272.5" width="0.5" height="5"/><rect class="cls-4" x="165.5" y="272.5" width="0.5" height="5"/><rect class="cls-4" x="167.5" y="272.5" width="0.5" height="5"/><rect class="cls-4" x="169.5" y="272.5" width="0.5" height="5"/><rect class="cls-4" x="171.5" y="272.5" width="0.5" height="5"/><rect class="cls-4" x="173.5" y="272.5" width="0.5" height="5"/><rect class="cls-4" x="175.5" y="272.5" width="0.5" height="5"/><rect class="cls-4" x="177.5" y="272.5" width="0.5" height="5"/><rect class="cls-4" x="179.5" y="272.5" width="0.5" height="5"/><rect class="cls-4" x="181.5" y="272.5" width="0.5" height="5"/><rect class="cls-4" x="183.5" y="272.5" width="0.5" height="5"/><rect class="cls-4" x="185.5" y="272.5" width="0.5" height="5"/><rect class="cls-4" x="187.5" y="272.5" width="0.5" height="5"/><rect class="cls-4" x="189.5" y="272.5" width="0.5" height="5"/><rect class="cls-4" x="191.5" y="272.5" width="0.5" height="5"/><rect class="cls-4" x="193.5" y="272.5" width="0.5" height="5"/><rect class="cls-4" x="195.5" y="272.5" width="0.5" height="5"/><rect class="cls-4" x="197.5" y="272.5" width="0.5" height="5"/><rect class="cls-4" x="199.5" y="272.5" width="0.5" height="5"/><rect class="cls-4" x="201.5" y="272.5" width="0.5" height="5"/><rect class="cls-4" x="203.5" y="272.5" width="0.5" height="5"/><rect class="cls-4" x="205.5" y="272.5" width="0.5" height="5"/><rect class="cls-4" x="207.5" y="272.5" width="0.5" height="5"/><rect class="cls-4" x="209.5" y="272.5" width="0.5" height="5"/><rect class="cls-4" x="211.5" y="272.5" width="0.5" height="5"/><rect class="cls-6" x="270" y="40" width="60" height="100"/><rect class="cls-3" x="270" y="30" width="60" height="10"/><rect class="cls-3" x="270" y="140" width="60" height="10"/><rect class="cls-7" x="220" width="100" height="20"/><rect class="cls-5" x="212" width="4" height="20"/><rect class="cls-2" x="216" width="4" height="20"/><rect class="cls-5" x="324" width="4" height="20" transform="translate(652 20) rotate(-180)"/><rect class="cls-2" x="320" width="4" height="20" transform="translate(644 20) rotate(-180)"/><rect class="cls-7" x="220" y="270" width="100" height="20"/><rect class="cls-5" x="212" y="270" width="4" height="20"/><rect class="cls-2" x="216" y="270" width="4" height="20"/><rect class="cls-5" x="324" y="270" width="4" height="20" transform="translate(652 560) rotate(-180)"/><rect class="cls-2" x="320" y="270" width="4" height="20" transform="translate(644 560) rotate(-180)"/><rect class="cls-7" x="220" width="10" height="290"/><rect class="cls-7" x="310" width="10" height="290"/><rect class="cls-7" x="230" y="200" width="80" height="20"/><rect class="cls-2" x="218.5" y="170" width="21.5" height="80"/><rect class="cls-2" x="300" y="170" width="21.5" height="80"/><rect class="cls-3" x="260" y="220" width="20" height="20"/><rect class="cls-3" x="260" y="180" width="20" height="20"/><rect class="cls-6" x="260" y="200" width="20" height="20"/><rect class="cls-6" x="226.5" y="180" width="13.5" height="60"/><rect class="cls-6" x="300" y="180" width="13.5" height="60"/></g><g id="freight_lines"><rect class="cls-8" x="40.5" y="30.5" width="3" height="39"/><rect class="cls-8" x="116.5" y="30.5" width="3" height="39"/><rect class="cls-8" x="160.5" y="160.5" width="19" height="19"/><rect class="cls-8" x="115" y="30.5" width="1" height="39"/><rect class="cls-8" x="44" y="30.5" width="1" height="39"/><rect class="cls-8" x="219" y="170.5" width="1" height="79"/><polygon class="cls-8" points="219.5 160.5 219.5 170 218.5 170 218.5 179.5 200.5 179.5 200.5 160.5 219.5 160.5"/><polygon class="cls-8" points="220 30 220 160 200 160 200 169.5 180 169.5 180 160 160 160 160 169.5 140 169.5 140 160 120 160 120 169.5 100 169.5 100 160 80 160 80 169.5 60 169.5 60 160 40 160 40 169.5 10.5 169.5 10.5 30 30 30 30 70 45.5 70 45.5 30 114.5 30 114.5 70 130 70 130 30 220 30"/><rect class="cls-8" x="30.5" y="30.5" width="9" height="39"/><rect class="cls-8" x="120.5" y="30.5" width="9" height="39"/><rect class="cls-8" x="300.5" y="180.5" width="9" height="59"/><rect class="cls-8" x="260" y="170" width="20" height="10"/><polygon class="cls-8" points="310 150 310 169.5 300 169.5 300 160 280 160 280 169.5 260 169.5 260 160 240 160 240 169.5 230 169.5 230 30 270 30 270 150 310 150"/><rect class="cls-8" x="240" y="180" width="20" height="20"/><rect class="cls-8" x="270.5" y="30.5" width="39.5" height="9"/><rect class="cls-8" x="230" y="20.5" width="80" height="9"/><rect class="cls-8" x="230" y="0.5" width="80" height="19"/><rect class="cls-8" x="270.5" y="40" width="39.5" height="100"/><rect class="cls-8" x="270.5" y="140.5" width="39.5" height="9"/><rect class="cls-8" x="10.5" y="20.5" width="209.5" height="9"/><rect class="cls-8" x="4.5" y="10.5" width="3" height="19"/><rect class="cls-8" x="8.5" y="10.5" width="1.5" height="19"/><rect class="cls-8" x="0.5" y="260.5" width="9" height="19"/><rect class="cls-8" x="330" y="10.5" width="1.5" height="19"/><rect class="cls-8" x="120.5" y="160.5" width="19" height="19"/><rect class="cls-8" x="332.5" y="10.5" width="3" height="19"/><polygon class="cls-8" points="19.5 240.5 19.5 260 0.5 260 0.5 250.5 10.5 250.5 10.5 240.5 19.5 240.5"/><rect class="cls-8" x="216.5" y="0.5" width="3" height="19"/><rect class="cls-8" x="10.5" y="270.5" width="201.5" height="9"/><rect class="cls-8" x="40.5" y="160.5" width="19" height="19"/><rect class="cls-8" x="80.5" y="160.5" width="19" height="19"/><rect class="cls-8" x="212.5" y="0.5" width="3" height="19"/><rect class="cls-8" x="10.5" y="260.5" width="209.5" height="9"/><rect class="cls-8" x="212.5" y="270.5" width="3" height="19"/><rect class="cls-8" x="216.5" y="270.5" width="3" height="19"/><rect class="cls-8" x="10.5" y="10.5" width="201.5" height="9"/><rect class="cls-8" x="320" y="20.5" width="9.5" height="9"/><rect class="cls-8" x="320" y="30.5" width="9.5" height="9"/><rect class="cls-8" x="320" y="40" width="9.5" height="100"/><rect class="cls-8" x="320.5" y="0.5" width="3" height="19"/><rect class="cls-8" x="328" y="10.5" width="1.5" height="9"/><rect class="cls-8" x="310" y="180.5" width="3" height="59"/><rect class="cls-8" x="310.5" y="0.5" width="9" height="169.5"/><rect class="cls-8" x="324.5" y="0.5" width="3" height="19"/><rect class="cls-8" x="320" y="140.5" width="9.5" height="9"/><polygon class="cls-8" points="319.5 170.5 319.5 249.5 300.5 249.5 300.5 240 313.5 240 313.5 180 300.5 180 300.5 170.5 319.5 170.5"/><polygon class="cls-8" points="339.5 250.5 339.5 260 320.5 260 320.5 250 321.5 250 321.5 240.5 329.5 240.5 329.5 250.5 339.5 250.5"/><rect class="cls-8" x="320" y="260.5" width="9.5" height="9"/><rect class="cls-8" x="320" y="150" width="9.5" height="19.5"/><rect class="cls-8" x="330.5" y="260.5" width="9" height="19"/><rect class="cls-8" x="328" y="270.5" width="1.5" height="9"/><rect class="cls-8" x="320.5" y="270.5" width="3" height="19"/><rect class="cls-8" x="320" y="170.5" width="1" height="79"/><rect class="cls-8" x="324.5" y="270.5" width="3" height="19"/><rect class="cls-8" x="220.5" y="250" width="9" height="39.5"/><rect class="cls-8" x="240" y="200.5" width="20" height="19"/><rect class="cls-8" x="280.5" y="160.5" width="19" height="19"/><rect class="cls-8" x="240.5" y="160.5" width="19" height="19"/><rect class="cls-8" x="220.5" y="0.5" width="9" height="169.5"/><rect class="cls-8" x="280" y="200.5" width="20" height="19"/><rect class="cls-8" x="280" y="180" width="20" height="20"/><rect class="cls-8" x="260.5" y="200.5" width="19" height="19"/><rect class="cls-8" x="260.5" y="220.5" width="19" height="19"/><rect class="cls-8" x="260.5" y="180.5" width="19" height="19"/><rect class="cls-8" x="230" y="250" width="10" height="10"/><rect class="cls-8" x="230" y="260.5" width="80" height="9"/><rect class="cls-8" x="310.5" y="250" width="9" height="39.5"/><polygon class="cls-8" points="226.5 180 226.5 240 239.5 240 239.5 249.5 220.5 249.5 220.5 170.5 239.5 170.5 239.5 180 226.5 180"/><rect class="cls-8" x="240" y="220" width="20" height="20"/><polygon class="cls-8" points="310 250 310 260 260 260 260 240 280 240 280 220 300 220 300 250 310 250"/><rect class="cls-8" x="230.5" y="180.5" width="9" height="59"/><rect class="cls-8" x="230" y="270.5" width="80" height="19"/><rect class="cls-8" x="227" y="180.5" width="3" height="59"/><path class="cls-4" d="M330,250V240h-8.5V170H330V30h6V10h-8V0H212V10H4V30h6V170H40v10H60V170H80v10h20V170h20v10h20V170h20v10h20V170h20v10h18.5v70H220v10H180V240H160v20H100V240H80v20H20V240H10v10H0v30H212v10H328V280h12V250Zm2.5-239.5h3v19h-3Zm-2.5,0h1.5v19H330Zm-169.5,230h19v19h-19Zm-80,0h19v19h-19Zm-80,10h10v-10h9V260H.5Zm9,29H.5v-19h9Zm202.5,0H10.5v-9H212Zm3.5,10h-3v-19h3Zm4,0h-3v-19h3Zm.5-20H10.5v-9H220Zm108-259h1.5v9H328ZM324.5.5h3v19h-3Zm-4,0h3v19h-3Zm-.5,20h9.5v9H320Zm0,10h9.5v9H320Zm0,9.5h9.5V140H320Zm0,100.5h9.5v9H320Zm0,9.5h9.5v19.5H320Zm0,20.5h1v79h-1ZM230,.5h80v19H230Zm0,20h80v9H230ZM270.5,140V40H310V140Zm39.5.5v9H270.5v-9Zm-39.5-101v-9H310v9ZM230,30h40V150h40v19.5H300V160H280v9.5H260V160H240v9.5H230Zm70.5,150.5h9v59h-9ZM280,200V180H260v20H240V180h20V170h20v10h20v20Zm20,.5v19H280v-19Zm-39.5,19v-19h19v19Zm19,1v19h-19v-19Zm-19-21v-19h19v19Zm-.5,1v19H240v-19Zm-19.5-21v-19h19v19Zm40,0v-19h19v19ZM240,250v10H230V250Zm-.5-10.5h-9v-59h9ZM220.5.5h9V170h-9Zm0,170h19V180h-13v60h13v9.5h-19Zm9.5,10v59h-3v-59ZM216.5.5h3v19h-3Zm-4,0h3v19h-3Zm-202,10H212v9H10.5Zm-3,19h-3v-19h3Zm2.5,0H8.5v-19H10Zm49.5,150h-19v-19h19Zm40,0h-19v-19h19Zm40,0h-19v-19h19Zm40,0h-19v-19h19Zm39,0h-18v-19h19V170h-1Zm1.5,70h-1v-79h1Zm0-89.5H200v9.5H180V160H160v9.5H140V160H120v9.5H100V160H80v9.5H60V160H40v9.5H10.5V30H30V70H45.5V30h69V70H130V30h90ZM30.5,69.5v-39h9v39Zm10,0v-39h3v39Zm3.5,0v-39h1v39Zm71,0v-39h1v39Zm1.5,0v-39h3v39Zm4,0v-39h9v39Zm99.5-40H10.5v-9H220Zm9.5,260h-9V250h9Zm80.5,0H230v-19h80Zm0-20H230v-9h80Zm-69.5-10v-19h19v19Zm69.5.5H260V240H240V220h20v20h20V220h20v30h10Zm9.5,29.5h-9V250h9Zm0-40h-19V240h13V180h-13v-9.5h19Zm-9.5-10v-59h3v59Zm9.5-69.5h-9V.5h9Zm4,119.5h-3v-19h3Zm4,0h-3v-19h3Zm2-10H328v-9h1.5Zm0-10H320v-9h9.5Zm10,10h-9v-19h9Zm0-19.5h-19V250h1v-9.5h8v10h10Z"/></g></g></svg>