<svg xmlns="http://www.w3.org/2000/svg" viewBox="0 0 169 108"><defs><style>.cls-1{fill:none;}.cls-2{fill:#b3b3b3;}.cls-3{fill:#666;}.cls-4{fill:#4d4d4d;}.cls-5{fill:#333;}</style></defs><title>curved_rail</title><g id="Warstwa_2" data-name="Warstwa 2"><g id="left_switch"><rect class="cls-1" width="169" height="108"/></g><g id="curved"><rect class="cls-2" x="29.21" y="26.07" width="20" height="80" transform="translate(-6.29 4.16) rotate(-5.63)"/><circle class="cls-3" cx="35.7" cy="81.49" r="4"/><circle class="cls-3" cx="34.72" cy="71.54" r="4"/><circle class="cls-3" cx="33.74" cy="61.59" r="4"/><circle class="cls-3" cx="32.76" cy="51.64" r="4"/><circle class="cls-3" cx="45.65" cy="80.51" r="4"/><circle class="cls-3" cx="44.67" cy="70.56" r="4"/><circle class="cls-3" cx="43.69" cy="60.61" r="4"/><circle class="cls-3" cx="42.71" cy="50.66" r="4"/><circle class="cls-3" cx="30.8" cy="31.73" r="4"/><circle class="cls-3" cx="40.75" cy="30.75" r="4"/><circle class="cls-3" cx="37.66" cy="101.4" r="4"/><circle class="cls-3" cx="47.61" cy="100.42" r="4"/><rect class="cls-2" x="68.04" y="20.31" width="20" height="80" transform="translate(-10.27 16.38) rotate(-11.25)"/><circle class="cls-3" cx="76.06" cy="76" r="4"/><circle class="cls-3" cx="74.11" cy="66.19" r="4"/><circle class="cls-3" cx="72.16" cy="56.39" r="4"/><circle class="cls-3" cx="70.21" cy="46.58" r="4"/><circle class="cls-3" cx="85.87" cy="74.05" r="4"/><circle class="cls-3" cx="83.92" cy="64.24" r="4"/><circle class="cls-3" cx="81.96" cy="54.43" r="4"/><circle class="cls-3" cx="80.01" cy="44.63" r="4"/><circle class="cls-3" cx="66.3" cy="26.96" r="4"/><circle class="cls-3" cx="76.11" cy="25.01" r="4"/><circle class="cls-3" cx="79.96" cy="95.62" r="4"/><circle class="cls-3" cx="89.77" cy="93.67" r="4"/><rect class="cls-2" x="106.11" y="10.78" width="20" height="80" transform="translate(-9.74 35.89) rotate(-16.88)"/><circle class="cls-3" cx="115.68" cy="66.58" r="4"/><circle class="cls-3" cx="112.78" cy="57.01" r="4"/><circle class="cls-3" cx="109.88" cy="47.44" r="4"/><circle class="cls-3" cx="106.97" cy="37.87" r="4"/><circle class="cls-3" cx="125.25" cy="63.68" r="4"/><circle class="cls-3" cx="122.35" cy="54.11" r="4"/><circle class="cls-3" cx="119.45" cy="44.54" r="4"/><circle class="cls-3" cx="116.54" cy="34.97" r="4"/><circle class="cls-3" cx="101.17" cy="18.73" r="4"/><circle class="cls-3" cx="110.74" cy="15.83" r="4"/><circle class="cls-3" cx="121.49" cy="85.72" r="4"/><circle class="cls-3" cx="131.06" cy="82.82" r="4"/><rect class="cls-2" y="28" width="10" height="80"/><circle class="cls-3" cx="5" cy="103" r="4"/><circle class="cls-3" cx="5" cy="83" r="4"/><circle class="cls-3" cx="5" cy="33" r="4"/><circle class="cls-3" cx="5" cy="73" r="4"/><circle class="cls-3" cx="5" cy="63" r="4"/><circle class="cls-3" cx="5" cy="53" r="4"/><rect class="cls-2" x="143.45" y="-0.53" width="10" height="80" transform="translate(-3.8 59.81) rotate(-22.5)"/><circle class="cls-3" cx="161.85" cy="71.8" r="4"/><circle class="cls-3" cx="154.19" cy="53.32" r="4"/><circle class="cls-3" cx="135.06" cy="7.13" r="4"/><circle class="cls-3" cx="150.37" cy="44.08" r="4"/><circle class="cls-3" cx="146.54" cy="34.85" r="4"/><circle class="cls-3" cx="142.71" cy="25.61" r="4"/><rect class="cls-4" y="28" width="1" height="80"/><rect class="cls-4" x="152.11" y="-2.26" width="1" height="80" transform="translate(-2.83 61.27) rotate(-22.5)"/><path class="cls-5" d="M0,48A378.9,378.9,0,0,0,145.46,19.16l-3.83-9.24A368.91,368.91,0,0,1,0,38Z"/><path class="cls-5" d="M0,98A428.59,428.59,0,0,0,164.59,65.36l-3.82-9.24A418.65,418.65,0,0,1,0,88Z"/></g></g></svg>