<svg xmlns="http://www.w3.org/2000/svg" viewBox="0 0 340 290"><defs><style>.cls-1{fill:#6e6e6e;}.cls-2{fill:#ccc;}.cls-3{fill:#c1272d;}.cls-4{fill:#1a1a1a;}.cls-5{fill:#ffcf1f;}.cls-6{fill:#333;}.cls-7{fill:#666;}</style></defs><title>object_station_freight</title><g id="Warstwa_2" data-name="Warstwa 2"><g id="freight"><rect class="cls-1" x="10" y="10" width="320" height="160"/><rect class="cls-1" x="4" y="10" width="4" height="20"/><rect class="cls-2" x="8" y="10" width="2" height="20"/><rect class="cls-1" x="332" y="10" width="4" height="20" transform="translate(668 40) rotate(-180)"/><rect class="cls-2" x="330" y="10" width="2" height="20" transform="translate(662 40) rotate(-180)"/><rect class="cls-1" x="40" y="160" width="20" height="20"/><rect class="cls-1" x="80" y="160" width="20" height="20"/><rect class="cls-1" x="80" y="250" width="20" height="20"/><rect class="cls-1" x="160" y="250" width="20" height="20"/><rect class="cls-1" x="240" y="250" width="20" height="20"/><rect class="cls-1" x="120" y="160" width="20" height="20"/><rect class="cls-1" x="160" y="160" width="20" height="20"/><rect class="cls-1" x="200" y="160" width="20" height="20"/><rect class="cls-1" x="240" y="160" width="20" height="20"/><rect class="cls-1" x="280" y="160" width="20" height="20"/><rect class="cls-3" x="30" y="30" width="10" height="40"/><rect class="cls-2" x="40" y="30" width="5.5" height="40"/><rect class="cls-3" x="120" y="30" width="10" height="40" transform="translate(250 100) rotate(-180)"/><rect class="cls-2" x="114.5" y="30" width="5.5" height="40" transform="translate(234.5 100) rotate(-180)"/><rect class="cls-4" x="11.5" y="12.5" width="0.5" height="5"/><rect class="cls-4" x="13.5" y="12.5" width="0.5" height="5"/><rect class="cls-4" x="15.5" y="12.5" width="0.5" height="5"/><rect class="cls-4" x="17.5" y="12.5" width="0.5" height="5"/><rect class="cls-4" x="19.5" y="12.5" width="0.5" height="5"/><rect class="cls-4" x="21.5" y="12.5" width="0.5" height="5"/><rect class="cls-4" x="23.5" y="12.5" width="0.5" height="5"/><rect class="cls-4" x="25.5" y="12.5" width="0.5" height="5"/><rect class="cls-4" x="27.5" y="12.5" width="0.5" height="5"/><rect class="cls-4" x="29.5" y="12.5" width="0.5" height="5"/><rect class="cls-4" x="31.5" y="12.5" width="0.5" height="5"/><rect class="cls-4" x="33.5" y="12.5" width="0.5" height="5"/><rect class="cls-4" x="35.5" y="12.5" width="0.5" height="5"/><rect class="cls-4" x="37.5" y="12.5" width="0.5" height="5"/><rect class="cls-4" x="39.5" y="12.5" width="0.5" height="5"/><rect class="cls-4" x="41.5" y="12.5" width="0.5" height="5"/><rect class="cls-4" x="43.5" y="12.5" width="0.5" height="5"/><rect class="cls-4" x="45.5" y="12.5" width="0.5" height="5"/><rect class="cls-4" x="47.5" y="12.5" width="0.5" height="5"/><rect class="cls-4" x="49.5" y="12.5" width="0.5" height="5"/><rect class="cls-4" x="51.5" y="12.5" width="0.5" height="5"/><rect class="cls-4" x="53.5" y="12.5" width="0.5" height="5"/><rect class="cls-4" x="55.5" y="12.5" width="0.5" height="5"/><rect class="cls-4" x="57.5" y="12.5" width="0.5" height="5"/><rect class="cls-4" x="59.5" y="12.5" width="0.5" height="5"/><rect class="cls-4" x="61.5" y="12.5" width="0.5" height="5"/><rect class="cls-4" x="63.5" y="12.5" width="0.5" height="5"/><rect class="cls-4" x="65.5" y="12.5" width="0.5" height="5"/><rect class="cls-4" x="67.5" y="12.5" width="0.5" height="5"/><rect class="cls-4" x="69.5" y="12.5" width="0.5" height="5"/><rect class="cls-4" x="71.5" y="12.5" width="0.5" height="5"/><rect class="cls-4" x="73.5" y="12.5" width="0.5" height="5"/><rect class="cls-4" x="75.5" y="12.5" width="0.5" height="5"/><rect class="cls-4" x="77.5" y="12.5" width="0.5" height="5"/><rect class="cls-4" x="79.5" y="12.5" width="0.5" height="5"/><rect class="cls-4" x="81.5" y="12.5" width="0.5" height="5"/><rect class="cls-4" x="83.5" y="12.5" width="0.5" height="5"/><rect class="cls-4" x="85.5" y="12.5" width="0.5" height="5"/><rect class="cls-4" x="87.5" y="12.5" width="0.5" height="5"/><rect class="cls-4" x="89.5" y="12.5" width="0.5" height="5"/><rect class="cls-4" x="91.5" y="12.5" width="0.5" height="5"/><rect class="cls-4" x="93.5" y="12.5" width="0.5" height="5"/><rect class="cls-4" x="95.5" y="12.5" width="0.5" height="5"/><rect class="cls-4" x="97.5" y="12.5" width="0.5" height="5"/><rect class="cls-4" x="99.5" y="12.5" width="0.5" height="5"/><rect class="cls-4" x="101.5" y="12.5" width="0.5" height="5"/><rect class="cls-4" x="103.5" y="12.5" width="0.5" height="5"/><rect class="cls-4" x="105.5" y="12.5" width="0.5" height="5"/><rect class="cls-4" x="107.5" y="12.5" width="0.5" height="5"/><rect class="cls-4" x="109.5" y="12.5" width="0.5" height="5"/><rect class="cls-4" x="111.5" y="12.5" width="0.5" height="5"/><rect class="cls-4" x="113.5" y="12.5" width="0.5" height="5"/><rect class="cls-4" x="115.5" y="12.5" width="0.5" height="5"/><rect class="cls-4" x="117.5" y="12.5" width="0.5" height="5"/><rect class="cls-4" x="119.5" y="12.5" width="0.5" height="5"/><rect class="cls-4" x="121.5" y="12.5" width="0.5" height="5"/><rect class="cls-4" x="123.5" y="12.5" width="0.5" height="5"/><rect class="cls-4" x="125.5" y="12.5" width="0.5" height="5"/><rect class="cls-4" x="127.5" y="12.5" width="0.5" height="5"/><rect class="cls-4" x="129.5" y="12.5" width="0.5" height="5"/><rect class="cls-4" x="131.5" y="12.5" width="0.5" height="5"/><rect class="cls-4" x="133.5" y="12.5" width="0.5" height="5"/><rect class="cls-4" x="135.5" y="12.5" width="0.5" height="5"/><rect class="cls-4" x="137.5" y="12.5" width="0.5" height="5"/><rect class="cls-4" x="139.5" y="12.5" width="0.5" height="5"/><rect class="cls-4" x="141.5" y="12.5" width="0.5" height="5"/><rect class="cls-4" x="143.5" y="12.5" width="0.5" height="5"/><rect class="cls-4" x="145.5" y="12.5" width="0.5" height="5"/><rect class="cls-4" x="147.5" y="12.5" width="0.5" height="5"/><rect class="cls-4" x="149.5" y="12.5" width="0.5" height="5"/><rect class="cls-4" x="151.5" y="12.5" width="0.5" height="5"/><rect class="cls-4" x="153.5" y="12.5" width="0.5" height="5"/><rect class="cls-4" x="155.5" y="12.5" width="0.5" height="5"/><rect class="cls-4" x="157.5" y="12.5" width="0.5" height="5"/><rect class="cls-4" x="159.5" y="12.5" width="0.5" height="5"/><rect class="cls-4" x="161.5" y="12.5" width="0.5" height="5"/><rect class="cls-4" x="163.5" y="12.5" width="0.5" height="5"/><rect class="cls-4" x="165.5" y="12.5" width="0.5" height="5"/><rect class="cls-4" x="167.5" y="12.5" width="0.5" height="5"/><rect class="cls-4" x="169.5" y="12.5" width="0.5" height="5"/><rect class="cls-4" x="171.5" y="12.5" width="0.5" height="5"/><rect class="cls-4" x="173.5" y="12.5" width="0.5" height="5"/><rect class="cls-4" x="175.5" y="12.5" width="0.5" height="5"/><rect class="cls-4" x="177.5" y="12.5" width="0.5" height="5"/><rect class="cls-4" x="179.5" y="12.5" width="0.5" height="5"/><rect class="cls-4" x="181.5" y="12.5" width="0.5" height="5"/><rect class="cls-4" x="183.5" y="12.5" width="0.5" height="5"/><rect class="cls-4" x="185.5" y="12.5" width="0.5" height="5"/><rect class="cls-4" x="187.5" y="12.5" width="0.5" height="5"/><rect class="cls-4" x="189.5" y="12.5" width="0.5" height="5"/><rect class="cls-4" x="191.5" y="12.5" width="0.5" height="5"/><rect class="cls-4" x="193.5" y="12.5" width="0.5" height="5"/><rect class="cls-4" x="195.5" y="12.5" width="0.5" height="5"/><rect class="cls-4" x="197.5" y="12.5" width="0.5" height="5"/><rect class="cls-4" x="199.5" y="12.5" width="0.5" height="5"/><rect class="cls-4" x="201.5" y="12.5" width="0.5" height="5"/><rect class="cls-4" x="203.5" y="12.5" width="0.5" height="5"/><rect class="cls-4" x="205.5" y="12.5" width="0.5" height="5"/><rect class="cls-4" x="207.5" y="12.5" width="0.5" height="5"/><rect class="cls-4" x="209.5" y="12.5" width="0.5" height="5"/><rect class="cls-4" x="211.5" y="12.5" width="0.5" height="5"/><rect class="cls-4" x="11.5" y="22.5" width="0.5" height="5"/><rect class="cls-4" x="13.5" y="22.5" width="0.5" height="5"/><rect class="cls-4" x="15.5" y="22.5" width="0.5" height="5"/><rect class="cls-4" x="17.5" y="22.5" width="0.5" height="5"/><rect class="cls-4" x="19.5" y="22.5" width="0.5" height="5"/><rect class="cls-4" x="21.5" y="22.5" width="0.5" height="5"/><rect class="cls-4" x="23.5" y="22.5" width="0.5" height="5"/><rect class="cls-4" x="25.5" y="22.5" width="0.5" height="5"/><rect class="cls-4" x="27.5" y="22.5" width="0.5" height="5"/><rect class="cls-4" x="29.5" y="22.5" width="0.5" height="5"/><rect class="cls-4" x="31.5" y="22.5" width="0.5" height="5"/><rect class="cls-4" x="33.5" y="22.5" width="0.5" height="5"/><rect class="cls-4" x="35.5" y="22.5" width="0.5" height="5"/><rect class="cls-4" x="37.5" y="22.5" width="0.5" height="5"/><rect class="cls-4" x="39.5" y="22.5" width="0.5" height="5"/><rect class="cls-4" x="41.5" y="22.5" width="0.5" height="5"/><rect class="cls-4" x="43.5" y="22.5" width="0.5" height="5"/><rect class="cls-4" x="45.5" y="22.5" width="0.5" height="5"/><rect class="cls-4" x="47.5" y="22.5" width="0.5" height="5"/><rect class="cls-4" x="49.5" y="22.5" width="0.5" height="5"/><rect class="cls-4" x="51.5" y="22.5" width="0.5" height="5"/><rect class="cls-4" x="53.5" y="22.5" width="0.5" height="5"/><rect class="cls-4" x="55.5" y="22.5" width="0.5" height="5"/><rect class="cls-4" x="57.5" y="22.5" width="0.5" height="5"/><rect class="cls-4" x="59.5" y="22.5" width="0.5" height="5"/><rect class="cls-4" x="61.5" y="22.5" width="0.5" height="5"/><rect class="cls-4" x="63.5" y="22.5" width="0.5" height="5"/><rect class="cls-4" x="65.5" y="22.5" width="0.5" height="5"/><rect class="cls-4" x="67.5" y="22.5" width="0.5" height="5"/><rect class="cls-4" x="69.5" y="22.5" width="0.5" height="5"/><rect class="cls-4" x="71.5" y="22.5" width="0.5" height="5"/><rect class="cls-4" x="73.5" y="22.5" width="0.5" height="5"/><rect class="cls-4" x="75.5" y="22.5" width="0.5" height="5"/><rect class="cls-4" x="77.5" y="22.5" width="0.5" height="5"/><rect class="cls-4" x="79.5" y="22.5" width="0.5" height="5"/><rect class="cls-4" x="81.5" y="22.5" width="0.5" height="5"/><rect class="cls-4" x="83.5" y="22.5" width="0.5" height="5"/><rect class="cls-4" x="85.5" y="22.5" width="0.5" height="5"/><rect class="cls-4" x="87.5" y="22.5" width="0.5" height="5"/><rect class="cls-4" x="89.5" y="22.5" width="0.5" height="5"/><rect class="cls-4" x="91.5" y="22.5" width="0.5" height="5"/><rect class="cls-4" x="93.5" y="22.5" width="0.5" height="5"/><rect class="cls-4" x="95.5" y="22.5" width="0.5" height="5"/><rect class="cls-4" x="97.5" y="22.5" width="0.5" height="5"/><rect class="cls-4" x="99.5" y="22.5" width="0.5" height="5"/><rect class="cls-4" x="101.5" y="22.5" width="0.5" height="5"/><rect class="cls-4" x="103.5" y="22.5" width="0.5" height="5"/><rect class="cls-4" x="105.5" y="22.5" width="0.5" height="5"/><rect class="cls-4" x="107.5" y="22.5" width="0.5" height="5"/><rect class="cls-4" x="109.5" y="22.5" width="0.5" height="5"/><rect class="cls-4" x="111.5" y="22.5" width="0.5" height="5"/><rect class="cls-4" x="113.5" y="22.5" width="0.5" height="5"/><rect class="cls-4" x="115.5" y="22.5" width="0.5" height="5"/><rect class="cls-4" x="117.5" y="22.5" width="0.5" height="5"/><rect class="cls-4" x="119.5" y="22.5" width="0.5" height="5"/><rect class="cls-4" x="121.5" y="22.5" width="0.5" height="5"/><rect class="cls-4" x="123.5" y="22.5" width="0.5" height="5"/><rect class="cls-4" x="125.5" y="22.5" width="0.5" height="5"/><rect class="cls-4" x="127.5" y="22.5" width="0.5" height="5"/><rect class="cls-4" x="129.5" y="22.5" width="0.5" height="5"/><rect class="cls-4" x="131.5" y="22.5" width="0.5" height="5"/><rect class="cls-4" x="133.5" y="22.5" width="0.5" height="5"/><rect class="cls-4" x="135.5" y="22.5" width="0.5" height="5"/><rect class="cls-4" x="137.5" y="22.5" width="0.5" height="5"/><rect class="cls-4" x="139.5" y="22.5" width="0.5" height="5"/><rect class="cls-4" x="141.5" y="22.5" width="0.5" height="5"/><rect class="cls-4" x="143.5" y="22.5" width="0.5" height="5"/><rect class="cls-4" x="145.5" y="22.5" width="0.5" height="5"/><rect class="cls-4" x="147.5" y="22.5" width="0.5" height="5"/><rect class="cls-4" x="149.5" y="22.5" width="0.5" height="5"/><rect class="cls-4" x="151.5" y="22.5" width="0.5" height="5"/><rect class="cls-4" x="153.5" y="22.5" width="0.5" height="5"/><rect class="cls-4" x="155.5" y="22.5" width="0.5" height="5"/><rect class="cls-4" x="157.5" y="22.5" width="0.5" height="5"/><rect class="cls-4" x="159.5" y="22.5" width="0.5" height="5"/><rect class="cls-4" x="161.5" y="22.5" width="0.5" height="5"/><rect class="cls-4" x="163.5" y="22.5" width="0.5" height="5"/><rect class="cls-4" x="165.5" y="22.5" width="0.5" height="5"/><rect class="cls-4" x="167.5" y="22.5" width="0.5" height="5"/><rect class="cls-4" x="169.5" y="22.5" width="0.5" height="5"/><rect class="cls-4" x="171.5" y="22.5" width="0.5" height="5"/><rect class="cls-4" x="173.5" y="22.5" width="0.5" height="5"/><rect class="cls-4" x="175.5" y="22.5" width="0.5" height="5"/><rect class="cls-4" x="177.5" y="22.5" width="0.5" height="5"/><rect class="cls-4" x="179.5" y="22.5" width="0.5" height="5"/><rect class="cls-4" x="181.5" y="22.5" width="0.5" height="5"/><rect class="cls-4" x="183.5" y="22.5" width="0.5" height="5"/><rect class="cls-4" x="185.5" y="22.5" width="0.5" height="5"/><rect class="cls-4" x="187.5" y="22.5" width="0.5" height="5"/><rect class="cls-4" x="189.5" y="22.5" width="0.5" height="5"/><rect class="cls-4" x="191.5" y="22.5" width="0.5" height="5"/><rect class="cls-4" x="193.5" y="22.5" width="0.5" height="5"/><rect class="cls-4" x="195.5" y="22.5" width="0.5" height="5"/><rect class="cls-4" x="197.5" y="22.5" width="0.5" height="5"/><rect class="cls-4" x="199.5" y="22.5" width="0.5" height="5"/><rect class="cls-4" x="201.5" y="22.5" width="0.5" height="5"/><rect class="cls-4" x="203.5" y="22.5" width="0.5" height="5"/><rect class="cls-4" x="205.5" y="22.5" width="0.5" height="5"/><rect class="cls-4" x="207.5" y="22.5" width="0.5" height="5"/><rect class="cls-4" x="209.5" y="22.5" width="0.5" height="5"/><rect class="cls-4" x="211.5" y="22.5" width="0.5" height="5"/><rect class="cls-4" x="213.5" y="22.5" width="0.5" height="5"/><rect class="cls-4" x="215.5" y="22.5" width="0.5" height="5"/><rect class="cls-4" x="217.5" y="22.5" width="0.5" height="5"/><rect class="cls-4" x="219.5" y="22.5" width="0.5" height="5"/><rect class="cls-4" x="221.5" y="22.5" width="0.5" height="5"/><rect class="cls-4" x="223.5" y="22.5" width="0.5" height="5"/><rect class="cls-4" x="225.5" y="22.5" width="0.5" height="5"/><rect class="cls-4" x="227.5" y="22.5" width="0.5" height="5"/><rect class="cls-4" x="229.5" y="22.5" width="0.5" height="5"/><rect class="cls-4" x="231.5" y="22.5" width="0.5" height="5"/><rect class="cls-4" x="233.5" y="22.5" width="0.5" height="5"/><rect class="cls-4" x="235.5" y="22.5" width="0.5" height="5"/><rect class="cls-4" x="237.5" y="22.5" width="0.5" height="5"/><rect class="cls-4" x="239.5" y="22.5" width="0.5" height="5"/><rect class="cls-4" x="241.5" y="22.5" width="0.5" height="5"/><rect class="cls-4" x="243.5" y="22.5" width="0.5" height="5"/><rect class="cls-4" x="245.5" y="22.5" width="0.5" height="5"/><rect class="cls-4" x="247.5" y="22.5" width="0.5" height="5"/><rect class="cls-4" x="249.5" y="22.5" width="0.5" height="5"/><rect class="cls-4" x="251.5" y="22.5" width="0.5" height="5"/><rect class="cls-4" x="253.5" y="22.5" width="0.5" height="5"/><rect class="cls-4" x="255.5" y="22.5" width="0.5" height="5"/><rect class="cls-4" x="257.5" y="22.5" width="0.5" height="5"/><rect class="cls-4" x="259.5" y="22.5" width="0.5" height="5"/><rect class="cls-4" x="261.5" y="22.5" width="0.5" height="5"/><rect class="cls-4" x="263.5" y="22.5" width="0.5" height="5"/><rect class="cls-4" x="265.5" y="22.5" width="0.5" height="5"/><rect class="cls-4" x="267.5" y="22.5" width="0.5" height="5"/><rect class="cls-4" x="269.5" y="22.5" width="0.5" height="5"/><rect class="cls-4" x="271.5" y="22.5" width="0.5" height="5"/><rect class="cls-4" x="273.5" y="22.5" width="0.5" height="5"/><rect class="cls-4" x="275.5" y="22.5" width="0.5" height="5"/><rect class="cls-4" x="277.5" y="22.5" width="0.5" height="5"/><rect class="cls-4" x="279.5" y="22.5" width="0.5" height="5"/><rect class="cls-4" x="281.5" y="22.5" width="0.5" height="5"/><rect class="cls-4" x="283.5" y="22.5" width="0.5" height="5"/><rect class="cls-4" x="285.5" y="22.5" width="0.5" height="5"/><rect class="cls-4" x="287.5" y="22.5" width="0.5" height="5"/><rect class="cls-4" x="289.5" y="22.5" width="0.5" height="5"/><rect class="cls-4" x="291.5" y="22.5" width="0.5" height="5"/><rect class="cls-4" x="293.5" y="22.5" width="0.5" height="5"/><rect class="cls-4" x="295.5" y="22.5" width="0.5" height="5"/><rect class="cls-4" x="297.5" y="22.5" width="0.5" height="5"/><rect class="cls-4" x="299.5" y="22.5" width="0.5" height="5"/><rect class="cls-4" x="301.5" y="22.5" width="0.5" height="5"/><rect class="cls-4" x="303.5" y="22.5" width="0.5" height="5"/><rect class="cls-4" x="305.5" y="22.5" width="0.5" height="5"/><rect class="cls-4" x="307.5" y="22.5" width="0.5" height="5"/><rect class="cls-4" x="309.5" y="22.5" width="0.5" height="5"/><rect class="cls-4" x="311.5" y="22.5" width="0.5" height="5"/><rect class="cls-4" x="313.5" y="22.5" width="0.5" height="5"/><rect class="cls-4" x="315.5" y="22.5" width="0.5" height="5"/><rect class="cls-4" x="317.5" y="22.5" width="0.5" height="5"/><rect class="cls-4" x="319.5" y="22.5" width="0.5" height="5"/><rect class="cls-4" x="321.5" y="22.5" width="0.5" height="5"/><rect class="cls-4" x="323.5" y="22.5" width="0.5" height="5"/><rect class="cls-4" x="325.5" y="22.5" width="0.5" height="5"/><rect class="cls-4" x="327.5" y="22.5" width="0.5" height="5"/><rect class="cls-1" x="10" y="260" width="320" height="20"/><rect class="cls-5" y="260" width="10" height="20"/><polygon class="cls-2" points="10 240 10 250 0 250 0 260 20 260 20 240 10 240"/><rect class="cls-5" x="330" y="260" width="10" height="20" transform="translate(670 540) rotate(-180)"/><polygon class="cls-2" points="330 240 330 250 340 250 340 260 320 260 320 240 330 240"/><rect class="cls-4" x="11.5" y="262.5" width="0.5" height="5"/><rect class="cls-4" x="13.5" y="262.5" width="0.5" height="5"/><rect class="cls-4" x="15.5" y="262.5" width="0.5" height="5"/><rect class="cls-4" x="17.5" y="262.5" width="0.5" height="5"/><rect class="cls-4" x="19.5" y="262.5" width="0.5" height="5"/><rect class="cls-4" x="21.5" y="262.5" width="0.5" height="5"/><rect class="cls-4" x="23.5" y="262.5" width="0.5" height="5"/><rect class="cls-4" x="25.5" y="262.5" width="0.5" height="5"/><rect class="cls-4" x="27.5" y="262.5" width="0.5" height="5"/><rect class="cls-4" x="29.5" y="262.5" width="0.5" height="5"/><rect class="cls-4" x="31.5" y="262.5" width="0.5" height="5"/><rect class="cls-4" x="33.5" y="262.5" width="0.5" height="5"/><rect class="cls-4" x="35.5" y="262.5" width="0.5" height="5"/><rect class="cls-4" x="37.5" y="262.5" width="0.5" height="5"/><rect class="cls-4" x="39.5" y="262.5" width="0.5" height="5"/><rect class="cls-4" x="41.5" y="262.5" width="0.5" height="5"/><rect class="cls-4" x="43.5" y="262.5" width="0.5" height="5"/><rect class="cls-4" x="45.5" y="262.5" width="0.5" height="5"/><rect class="cls-4" x="47.5" y="262.5" width="0.5" height="5"/><rect class="cls-4" x="49.5" y="262.5" width="0.5" height="5"/><rect class="cls-4" x="51.5" y="262.5" width="0.5" height="5"/><rect class="cls-4" x="53.5" y="262.5" width="0.5" height="5"/><rect class="cls-4" x="55.5" y="262.5" width="0.5" height="5"/><rect class="cls-4" x="57.5" y="262.5" width="0.5" height="5"/><rect class="cls-4" x="59.5" y="262.5" width="0.5" height="5"/><rect class="cls-4" x="61.5" y="262.5" width="0.5" height="5"/><rect class="cls-4" x="63.5" y="262.5" width="0.5" height="5"/><rect class="cls-4" x="65.5" y="262.5" width="0.5" height="5"/><rect class="cls-4" x="67.5" y="262.5" width="0.5" height="5"/><rect class="cls-4" x="69.5" y="262.5" width="0.5" height="5"/><rect class="cls-4" x="71.5" y="262.5" width="0.5" height="5"/><rect class="cls-4" x="73.5" y="262.5" width="0.5" height="5"/><rect class="cls-4" x="75.5" y="262.5" width="0.5" height="5"/><rect class="cls-4" x="77.5" y="262.5" width="0.5" height="5"/><rect class="cls-4" x="79.5" y="262.5" width="0.5" height="5"/><rect class="cls-4" x="81.5" y="262.5" width="0.5" height="5"/><rect class="cls-4" x="83.5" y="262.5" width="0.5" height="5"/><rect class="cls-4" x="85.5" y="262.5" width="0.5" height="5"/><rect class="cls-4" x="87.5" y="262.5" width="0.5" height="5"/><rect class="cls-4" x="89.5" y="262.5" width="0.5" height="5"/><rect class="cls-4" x="91.5" y="262.5" width="0.5" height="5"/><rect class="cls-4" x="93.5" y="262.5" width="0.5" height="5"/><rect class="cls-4" x="95.5" y="262.5" width="0.5" height="5"/><rect class="cls-4" x="97.5" y="262.5" width="0.5" height="5"/><rect class="cls-4" x="99.5" y="262.5" width="0.5" height="5"/><rect class="cls-4" x="101.5" y="262.5" width="0.5" height="5"/><rect class="cls-4" x="103.5" y="262.5" width="0.5" height="5"/><rect class="cls-4" x="105.5" y="262.5" width="0.5" height="5"/><rect class="cls-4" x="107.5" y="262.5" width="0.5" height="5"/><rect class="cls-4" x="109.5" y="262.5" width="0.5" height="5"/><rect class="cls-4" x="111.5" y="262.5" width="0.5" height="5"/><rect class="cls-4" x="113.5" y="262.5" width="0.5" height="5"/><rect class="cls-4" x="115.5" y="262.5" width="0.5" height="5"/><rect class="cls-4" x="117.5" y="262.5" width="0.5" height="5"/><rect class="cls-4" x="119.5" y="262.5" width="0.5" height="5"/><rect class="cls-4" x="121.5" y="262.5" width="0.5" height="5"/><rect class="cls-4" x="123.5" y="262.5" width="0.5" height="5"/><rect class="cls-4" x="125.5" y="262.5" width="0.5" height="5"/><rect class="cls-4" x="127.5" y="262.5" width="0.5" height="5"/><rect class="cls-4" x="129.5" y="262.5" width="0.5" height="5"/><rect class="cls-4" x="131.5" y="262.5" width="0.5" height="5"/><rect class="cls-4" x="133.5" y="262.5" width="0.5" height="5"/><rect class="cls-4" x="135.5" y="262.5" width="0.5" height="5"/><rect class="cls-4" x="137.5" y="262.5" width="0.5" height="5"/><rect class="cls-4" x="139.5" y="262.5" width="0.5" height="5"/><rect class="cls-4" x="141.5" y="262.5" width="0.5" height="5"/><rect class="cls-4" x="143.5" y="262.5" width="0.5" height="5"/><rect class="cls-4" x="145.5" y="262.5" width="0.5" height="5"/><rect class="cls-4" x="147.5" y="262.5" width="0.5" height="5"/><rect class="cls-4" x="149.5" y="262.5" width="0.5" height="5"/><rect class="cls-4" x="151.5" y="262.5" width="0.5" height="5"/><rect class="cls-4" x="153.5" y="262.5" width="0.5" height="5"/><rect class="cls-4" x="155.5" y="262.5" width="0.5" height="5"/><rect class="cls-4" x="157.5" y="262.5" width="0.5" height="5"/><rect class="cls-4" x="159.5" y="262.5" width="0.5" height="5"/><rect class="cls-4" x="161.5" y="262.5" width="0.5" height="5"/><rect class="cls-4" x="163.5" y="262.5" width="0.5" height="5"/><rect class="cls-4" x="165.5" y="262.5" width="0.5" height="5"/><rect class="cls-4" x="167.5" y="262.5" width="0.5" height="5"/><rect class="cls-4" x="169.5" y="262.5" width="0.5" height="5"/><rect class="cls-4" x="171.5" y="262.5" width="0.5" height="5"/><rect class="cls-4" x="173.5" y="262.5" width="0.5" height="5"/><rect class="cls-4" x="175.5" y="262.5" width="0.5" height="5"/><rect class="cls-4" x="177.5" y="262.5" width="0.5" height="5"/><rect class="cls-4" x="179.5" y="262.5" width="0.5" height="5"/><rect class="cls-4" x="181.5" y="262.5" width="0.5" height="5"/><rect class="cls-4" x="183.5" y="262.5" width="0.5" height="5"/><rect class="cls-4" x="185.5" y="262.5" width="0.5" height="5"/><rect class="cls-4" x="187.5" y="262.5" width="0.5" height="5"/><rect class="cls-4" x="189.5" y="262.5" width="0.5" height="5"/><rect class="cls-4" x="191.5" y="262.5" width="0.5" height="5"/><rect class="cls-4" x="193.5" y="262.5" width="0.5" height="5"/><rect class="cls-4" x="195.5" y="262.5" width="0.5" height="5"/><rect class="cls-4" x="197.5" y="262.5" width="0.5" height="5"/><rect class="cls-4" x="199.5" y="262.5" width="0.5" height="5"/><rect class="cls-4" x="201.5" y="262.5" width="0.5" height="5"/><rect class="cls-4" x="203.5" y="262.5" width="0.5" height="5"/><rect class="cls-4" x="205.5" y="262.5" width="0.5" height="5"/><rect class="cls-4" x="207.5" y="262.5" width="0.5" height="5"/><rect class="cls-4" x="209.5" y="262.5" width="0.5" height="5"/><rect class="cls-4" x="211.5" y="262.5" width="0.5" height="5"/><rect class="cls-4" x="213.5" y="262.5" width="0.5" height="5"/><rect class="cls-4" x="215.5" y="262.5" width="0.5" height="5"/><rect class="cls-4" x="217.5" y="262.5" width="0.5" height="5"/><rect class="cls-4" x="219.5" y="262.5" width="0.5" height="5"/><rect class="cls-4" x="221.5" y="262.5" width="0.5" height="5"/><rect class="cls-4" x="223.5" y="262.5" width="0.5" height="5"/><rect class="cls-4" x="225.5" y="262.5" width="0.5" height="5"/><rect class="cls-4" x="227.5" y="262.5" width="0.5" height="5"/><rect class="cls-4" x="229.5" y="262.5" width="0.5" height="5"/><rect class="cls-4" x="231.5" y="262.5" width="0.5" height="5"/><rect class="cls-4" x="233.5" y="262.5" width="0.5" height="5"/><rect class="cls-4" x="235.5" y="262.5" width="0.5" height="5"/><rect class="cls-4" x="237.5" y="262.5" width="0.5" height="5"/><rect class="cls-4" x="239.5" y="262.5" width="0.5" height="5"/><rect class="cls-4" x="241.5" y="262.5" width="0.5" height="5"/><rect class="cls-4" x="243.5" y="262.5" width="0.5" height="5"/><rect class="cls-4" x="245.5" y="262.5" width="0.5" height="5"/><rect class="cls-4" x="247.5" y="262.5" width="0.5" height="5"/><rect class="cls-4" x="249.5" y="262.5" width="0.5" height="5"/><rect class="cls-4" x="251.5" y="262.5" width="0.5" height="5"/><rect class="cls-4" x="253.5" y="262.5" width="0.5" height="5"/><rect class="cls-4" x="255.5" y="262.5" width="0.5" height="5"/><rect class="cls-4" x="257.5" y="262.5" width="0.5" height="5"/><rect class="cls-4" x="259.5" y="262.5" width="0.5" height="5"/><rect class="cls-4" x="261.5" y="262.5" width="0.5" height="5"/><rect class="cls-4" x="263.5" y="262.5" width="0.5" height="5"/><rect class="cls-4" x="265.5" y="262.5" width="0.5" height="5"/><rect class="cls-4" x="267.5" y="262.5" width="0.5" height="5"/><rect class="cls-4" x="269.5" y="262.5" width="0.5" height="5"/><rect class="cls-4" x="271.5" y="262.5" width="0.5" height="5"/><rect class="cls-4" x="273.5" y="262.5" width="0.5" height="5"/><rect class="cls-4" x="275.5" y="262.5" width="0.5" height="5"/><rect class="cls-4" x="277.5" y="262.5" width="0.5" height="5"/><rect class="cls-4" x="279.5" y="262.5" width="0.5" height="5"/><rect class="cls-4" x="281.5" y="262.5" width="0.5" height="5"/><rect class="cls-4" x="283.5" y="262.5" width="0.5" height="5"/><rect class="cls-4" x="285.5" y="262.5" width="0.5" height="5"/><rect class="cls-4" x="287.5" y="262.5" width="0.5" height="5"/><rect class="cls-4" x="289.5" y="262.5" width="0.5" height="5"/><rect class="cls-4" x="291.5" y="262.5" width="0.5" height="5"/><rect class="cls-4" x="293.5" y="262.5" width="0.5" height="5"/><rect class="cls-4" x="295.5" y="262.5" width="0.5" height="5"/><rect class="cls-4" x="297.5" y="262.5" width="0.5" height="5"/><rect class="cls-4" x="299.5" y="262.5" width="0.5" height="5"/><rect class="cls-4" x="301.5" y="262.5" width="0.5" height="5"/><rect class="cls-4" x="303.5" y="262.5" width="0.5" height="5"/><rect class="cls-4" x="305.5" y="262.5" width="0.5" height="5"/><rect class="cls-4" x="307.5" y="262.5" width="0.5" height="5"/><rect class="cls-4" x="309.5" y="262.5" width="0.5" height="5"/><rect class="cls-4" x="311.5" y="262.5" width="0.5" height="5"/><rect class="cls-4" x="313.5" y="262.5" width="0.5" height="5"/><rect class="cls-4" x="315.5" y="262.5" width="0.5" height="5"/><rect class="cls-4" x="317.5" y="262.5" width="0.5" height="5"/><rect class="cls-4" x="319.5" y="262.5" width="0.5" height="5"/><rect class="cls-4" x="321.5" y="262.5" width="0.5" height="5"/><rect class="cls-4" x="323.5" y="262.5" width="0.5" height="5"/><rect class="cls-4" x="325.5" y="262.5" width="0.5" height="5"/><rect class="cls-4" x="327.5" y="262.5" width="0.5" height="5"/><rect class="cls-4" x="11.5" y="272.5" width="0.5" height="5"/><rect class="cls-4" x="13.5" y="272.5" width="0.5" height="5"/><rect class="cls-4" x="15.5" y="272.5" width="0.5" height="5"/><rect class="cls-4" x="17.5" y="272.5" width="0.5" height="5"/><rect class="cls-4" x="19.5" y="272.5" width="0.5" height="5"/><rect class="cls-4" x="21.5" y="272.5" width="0.5" height="5"/><rect class="cls-4" x="23.5" y="272.5" width="0.5" height="5"/><rect class="cls-4" x="25.5" y="272.5" width="0.5" height="5"/><rect class="cls-4" x="27.5" y="272.5" width="0.5" height="5"/><rect class="cls-4" x="29.5" y="272.5" width="0.5" height="5"/><rect class="cls-4" x="31.5" y="272.5" width="0.5" height="5"/><rect class="cls-4" x="33.5" y="272.5" width="0.5" height="5"/><rect class="cls-4" x="35.5" y="272.5" width="0.5" height="5"/><rect class="cls-4" x="37.5" y="272.5" width="0.5" height="5"/><rect class="cls-4" x="39.5" y="272.5" width="0.5" height="5"/><rect class="cls-4" x="41.5" y="272.5" width="0.5" height="5"/><rect class="cls-4" x="43.5" y="272.5" width="0.5" height="5"/><rect class="cls-4" x="45.5" y="272.5" width="0.5" height="5"/><rect class="cls-4" x="47.5" y="272.5" width="0.5" height="5"/><rect class="cls-4" x="49.5" y="272.5" width="0.5" height="5"/><rect class="cls-4" x="51.5" y="272.5" width="0.5" height="5"/><rect class="cls-4" x="53.5" y="272.5" width="0.5" height="5"/><rect class="cls-4" x="55.5" y="272.5" width="0.5" height="5"/><rect class="cls-4" x="57.5" y="272.5" width="0.5" height="5"/><rect class="cls-4" x="59.5" y="272.5" width="0.5" height="5"/><rect class="cls-4" x="61.5" y="272.5" width="0.5" height="5"/><rect class="cls-4" x="63.5" y="272.5" width="0.5" height="5"/><rect class="cls-4" x="65.5" y="272.5" width="0.5" height="5"/><rect class="cls-4" x="67.5" y="272.5" width="0.5" height="5"/><rect class="cls-4" x="69.5" y="272.5" width="0.5" height="5"/><rect class="cls-4" x="71.5" y="272.5" width="0.5" height="5"/><rect class="cls-4" x="73.5" y="272.5" width="0.5" height="5"/><rect class="cls-4" x="75.5" y="272.5" width="0.5" height="5"/><rect class="cls-4" x="77.5" y="272.5" width="0.5" height="5"/><rect class="cls-4" x="79.5" y="272.5" width="0.5" height="5"/><rect class="cls-4" x="81.5" y="272.5" width="0.5" height="5"/><rect class="cls-4" x="83.5" y="272.5" width="0.5" height="5"/><rect class="cls-4" x="85.5" y="272.5" width="0.5" height="5"/><rect class="cls-4" x="87.5" y="272.5" width="0.5" height="5"/><rect class="cls-4" x="89.5" y="272.5" width="0.5" height="5"/><rect class="cls-4" x="91.5" y="272.5" width="0.5" height="5"/><rect class="cls-4" x="93.5" y="272.5" width="0.5" height="5"/><rect class="cls-4" x="95.5" y="272.5" width="0.5" height="5"/><rect class="cls-4" x="97.5" y="272.5" width="0.5" height="5"/><rect class="cls-4" x="99.5" y="272.5" width="0.5" height="5"/><rect class="cls-4" x="101.5" y="272.5" width="0.5" height="5"/><rect class="cls-4" x="103.5" y="272.5" width="0.5" height="5"/><rect class="cls-4" x="105.5" y="272.5" width="0.5" height="5"/><rect class="cls-4" x="107.5" y="272.5" width="0.5" height="5"/><rect class="cls-4" x="109.5" y="272.5" width="0.5" height="5"/><rect class="cls-4" x="111.5" y="272.5" width="0.5" height="5"/><rect class="cls-4" x="113.5" y="272.5" width="0.5" height="5"/><rect class="cls-4" x="115.5" y="272.5" width="0.5" height="5"/><rect class="cls-4" x="117.5" y="272.5" width="0.5" height="5"/><rect class="cls-4" x="119.5" y="272.5" width="0.5" height="5"/><rect class="cls-4" x="121.5" y="272.5" width="0.5" height="5"/><rect class="cls-4" x="123.5" y="272.5" width="0.5" height="5"/><rect class="cls-4" x="125.5" y="272.5" width="0.5" height="5"/><rect class="cls-4" x="127.5" y="272.5" width="0.5" height="5"/><rect class="cls-4" x="129.5" y="272.5" width="0.5" height="5"/><rect class="cls-4" x="131.5" y="272.5" width="0.5" height="5"/><rect class="cls-4" x="133.5" y="272.5" width="0.5" height="5"/><rect class="cls-4" x="135.5" y="272.5" width="0.5" height="5"/><rect class="cls-4" x="137.5" y="272.5" width="0.5" height="5"/><rect class="cls-4" x="139.5" y="272.5" width="0.5" height="5"/><rect class="cls-4" x="141.5" y="272.5" width="0.5" height="5"/><rect class="cls-4" x="143.5" y="272.5" width="0.5" height="5"/><rect class="cls-4" x="145.5" y="272.5" width="0.5" height="5"/><rect class="cls-4" x="147.5" y="272.5" width="0.5" height="5"/><rect class="cls-4" x="149.5" y="272.5" width="0.5" height="5"/><rect class="cls-4" x="151.5" y="272.5" width="0.5" height="5"/><rect class="cls-4" x="153.5" y="272.5" width="0.5" height="5"/><rect class="cls-4" x="155.5" y="272.5" width="0.5" height="5"/><rect class="cls-4" x="157.5" y="272.5" width="0.5" height="5"/><rect class="cls-4" x="159.5" y="272.5" width="0.5" height="5"/><rect class="cls-4" x="161.5" y="272.5" width="0.5" height="5"/><rect class="cls-4" x="163.5" y="272.5" width="0.5" height="5"/><rect class="cls-4" x="165.5" y="272.5" width="0.5" height="5"/><rect class="cls-4" x="167.5" y="272.5" width="0.5" height="5"/><rect class="cls-4" x="169.5" y="272.5" width="0.5" height="5"/><rect class="cls-4" x="171.5" y="272.5" width="0.5" height="5"/><rect class="cls-4" x="173.5" y="272.5" width="0.5" height="5"/><rect class="cls-4" x="175.5" y="272.5" width="0.5" height="5"/><rect class="cls-4" x="177.5" y="272.5" width="0.5" height="5"/><rect class="cls-4" x="179.5" y="272.5" width="0.5" height="5"/><rect class="cls-4" x="181.5" y="272.5" width="0.5" height="5"/><rect class="cls-4" x="183.5" y="272.5" width="0.5" height="5"/><rect class="cls-4" x="185.5" y="272.5" width="0.5" height="5"/><rect class="cls-4" x="187.5" y="272.5" width="0.5" height="5"/><rect class="cls-4" x="189.5" y="272.5" width="0.5" height="5"/><rect class="cls-4" x="191.5" y="272.5" width="0.5" height="5"/><rect class="cls-4" x="193.5" y="272.5" width="0.5" height="5"/><rect class="cls-4" x="195.5" y="272.5" width="0.5" height="5"/><rect class="cls-4" x="197.5" y="272.5" width="0.5" height="5"/><rect class="cls-4" x="199.5" y="272.5" width="0.5" height="5"/><rect class="cls-4" x="201.5" y="272.5" width="0.5" height="5"/><rect class="cls-4" x="203.5" y="272.5" width="0.5" height="5"/><rect class="cls-4" x="205.5" y="272.5" width="0.5" height="5"/><rect class="cls-4" x="207.5" y="272.5" width="0.5" height="5"/><rect class="cls-4" x="209.5" y="272.5" width="0.5" height="5"/><rect class="cls-4" x="211.5" y="272.5" width="0.5" height="5"/><rect class="cls-6" x="270" y="40" width="60" height="100"/><rect class="cls-3" x="270" y="30" width="60" height="10"/><rect class="cls-3" x="270" y="140" width="60" height="10"/><rect class="cls-7" x="220" width="100" height="20"/><rect class="cls-5" x="212" width="4" height="20"/><rect class="cls-2" x="216" width="4" height="20"/><rect class="cls-5" x="324" width="4" height="20" transform="translate(652 20) rotate(-180)"/><rect class="cls-2" x="320" width="4" height="20" transform="translate(644 20) rotate(-180)"/><rect class="cls-7" x="220" y="270" width="100" height="20"/><rect class="cls-5" x="212" y="270" width="4" height="20"/><rect class="cls-2" x="216" y="270" width="4" height="20"/><rect class="cls-5" x="324" y="270" width="4" height="20" transform="translate(652 560) rotate(-180)"/><rect class="cls-2" x="320" y="270" width="4" height="20" transform="translate(644 560) rotate(-180)"/><rect class="cls-7" x="220" width="10" height="290"/><rect class="cls-7" x="310" width="10" height="290"/><rect class="cls-7" x="230" y="200" width="80" height="20"/><rect class="cls-2" x="218.5" y="170" width="21.5" height="80"/><rect class="cls-2" x="300" y="170" width="21.5" height="80"/><rect class="cls-3" x="260" y="220" width="20" height="20"/><rect class="cls-3" x="260" y="180" width="20" height="20"/><rect class="cls-6" x="260" y="200" width="20" height="20"/><rect class="cls-6" x="226.5" y="180" width="13.5" height="60"/><rect class="cls-6" x="300" y="180" width="13.5" height="60"/></g><g id="lines"><path class="cls-4" d="M339.5,250H330V240h-8.5V170H330V30h6V10h-8V0H212V10H4V30h6V170H40v10H60V170H80v10h20V170h20v10h20V170h20v10h20V170h20v10h18.5v70H220v10H180V250H160v10H100V250H80v10H20V240H10v10H0v30H212v10H328V280h12V250Zm-10,19.5H320v-9h9.5Zm-89-19h19V260h-19Zm69.5,10v9H230v-9Zm0-.5H260V250H240v10H230V250h10V220h20v20h20V220h20v30h10ZM116,30.5v39h-1v-39Zm.5,0h3v39h-3Zm4,0h9v39h-9Zm-110-1v-9H220v9Zm29,1v39h-9v-39Zm1,0h3v39h-3Zm3.5,0h1v39H44Zm265.5,209h-9v-59h9Zm.5-59h3v59h-3Zm-30.5,40v19h-19v-19Zm-49-40h9v59h-9Zm-.5,59h-3v-59h3Zm10-39h20v19H240Zm39.5,19h-19v-19h19Zm-19-20v-19h19v19Zm19.5,1h20v19H280Zm20-20V200H280V180H260v20H240V180h20V170h20v10h20ZM270.5,140V40H310V140Zm39.5.5v9H270.5v-9Zm-39.5-101v-9H310v9ZM230,29.5v-9h80v9Zm40,.5V150h40v19.5H300V160H280v9.5H260V160H240v9.5H230V30Zm29.5,149.5h-19v-19h19Zm-40-19v19h-19v-19Zm-20,10V180h-13v60h13v9.5h-19v-79Zm61,79V240h13V180h-13v-9.5h19v79Zm19.5-79h1v79h-1Zm9.5-150v9H320v-9Zm0,149H320V150h9.5Zm0-20H320v-9h9.5Zm0-9.5H320V40h9.5Zm0-100.5H320v-9h9.5Zm6-29v19h-3v-19Zm-4,0v19H330v-19Zm-2,0v9H328v-9Zm-2-10v19h-3V.5Zm-4,0v19h-3V.5Zm-4,0V170h-9V.5ZM310,.5v19H230V.5ZM229.5.5V170h-9V.5Zm-10,0v19h-3V.5Zm-4,0v19h-3V.5Zm-3.5,10v9H10.5v-9ZM4.5,29.5v-19h3v19Zm4,0v-19H10v19Zm32,150v-19h19v19Zm40,0v-19h19v19Zm40,0v-19h19v19Zm40,0v-19h19v19Zm19.5-10V160H160v9.5H140V160H120v9.5H100V160H80v9.5H60V160H40v9.5H10.5V30H30V70H45.5V30h69V70H130V30h90V160H200v9.5Zm20.5,10v-19h19V170h-1v9.5Zm18.5,70v-79h1v79Zm-58.5,1h19V260h-19Zm-80,0h19V260h-19Zm139.5,10v9H10.5v-9H220ZM.5,250.5h10v-10h9V260H.5Zm0,29v-19h9v19Zm10,0v-9H212v9Zm202,10v-19h3v19Zm4,0v-19h3v19Zm4,0V250h9v39.5Zm9.5,0v-19h80v19Zm80.5,0V250h9v39.5Zm10,0v-19h3v19Zm4,0v-19h3v19Zm3.5-10v-9h1.5v9Zm11.5,0h-9v-19h9Zm0-19.5h-19V250h1v-9.5h8v10h10Z"/></g></g></svg>