<svg xmlns="http://www.w3.org/2000/svg" viewBox="0 0 343 207"><defs><style>.cls-1{fill:none;}.cls-2{fill:#b3b3b3;}.cls-3{fill:#666;}.cls-4{fill:#4d4d4d;}.cls-5{fill:gray;}.cls-6{fill:#ffe21f;}.cls-7{fill:#333;}</style></defs><title>right_switch_rail</title><g id="Warstwa_2" data-name="Warstwa 2"><g id="left_switch"><rect class="cls-1" width="343" height="207"/></g><g id="right_switch"><path class="cls-2" d="M90,56.15V0H70V10H50V0H20V140H50V70H65.57L60,90.87l19.31,5.18L89,60ZM71.89,88.89a4,4,0,1,1,2.82,4.9A4,4,0,0,1,71.89,88.89Zm-4.76-5.42a4,4,0,1,1-4.9,2.83A4,4,0,0,1,67.13,83.47Z"/><rect class="cls-2" x="270" width="20" height="80"/><circle class="cls-3" cx="275" cy="25" r="4"/><circle class="cls-3" cx="275" cy="35" r="4"/><circle class="cls-3" cx="275" cy="45" r="4"/><circle class="cls-3" cx="275" cy="55" r="4"/><circle class="cls-3" cx="285" cy="25" r="4"/><circle class="cls-3" cx="285" cy="35" r="4"/><circle class="cls-3" cx="285" cy="45" r="4"/><circle class="cls-3" cx="285" cy="55" r="4"/><circle class="cls-3" cx="275" cy="75" r="4"/><circle class="cls-3" cx="285" cy="75" r="4"/><circle class="cls-3" cx="275" cy="5" r="4"/><circle class="cls-3" cx="285" cy="5" r="4"/><circle class="cls-3" cx="235" cy="25" r="4"/><circle class="cls-3" cx="235" cy="35" r="4"/><circle class="cls-3" cx="235" cy="45" r="4"/><circle class="cls-3" cx="235" cy="55" r="4"/><circle class="cls-3" cx="245" cy="25" r="4"/><circle class="cls-3" cx="245" cy="35" r="4"/><circle class="cls-3" cx="245" cy="45" r="4"/><circle class="cls-3" cx="245" cy="55" r="4"/><circle class="cls-3" cx="235" cy="5" r="4"/><circle class="cls-3" cx="245" cy="5" r="4"/><circle class="cls-3" cx="195" cy="5" r="4"/><circle class="cls-3" cx="205" cy="5" r="4"/><circle class="cls-3" cx="155" cy="5" r="4"/><circle class="cls-3" cx="165" cy="5" r="4"/><rect class="cls-2" x="281.06" y="114.99" width="20" height="80" transform="translate(489.68 418.21) rotate(-155.07)"/><circle class="cls-3" cx="289.27" cy="170.7" r="4"/><circle class="cls-3" cx="293.48" cy="161.63" r="4"/><circle class="cls-3" cx="297.7" cy="152.56" r="4"/><circle class="cls-3" cx="301.91" cy="143.49" r="4"/><circle class="cls-3" cx="280.2" cy="166.48" r="4"/><circle class="cls-3" cx="284.41" cy="157.42" r="4"/><circle class="cls-3" cx="288.63" cy="148.35" r="4"/><circle class="cls-3" cx="292.84" cy="139.28" r="4"/><circle class="cls-3" cx="310.34" cy="125.36" r="4"/><circle class="cls-3" cx="301.27" cy="121.14" r="4"/><circle class="cls-3" cx="280.84" cy="188.84" r="4"/><circle class="cls-3" cx="271.77" cy="184.62" r="4"/><rect class="cls-2" x="247.54" y="98.34" width="20" height="80" transform="translate(421.2 380.59) rotate(-152.28)"/><circle class="cls-3" cx="254.99" cy="153.94" r="4"/><circle class="cls-3" cx="259.64" cy="145.09" r="4"/><circle class="cls-3" cx="264.3" cy="136.24" r="4"/><circle class="cls-3" cx="268.95" cy="127.39" r="4"/><circle class="cls-3" cx="246.14" cy="149.29" r="4"/><circle class="cls-3" cx="250.79" cy="140.44" r="4"/><circle class="cls-3" cx="255.44" cy="131.59" r="4"/><circle class="cls-3" cx="260.09" cy="122.74" r="4"/><circle class="cls-3" cx="278.25" cy="109.68" r="4"/><circle class="cls-3" cx="269.4" cy="105.03" r="4"/><circle class="cls-3" cx="245.69" cy="171.65" r="4"/><circle class="cls-3" cx="236.84" cy="167" r="4"/><path class="cls-2" d="M210,84.7V0H190V80l-26,51.92,17.88,9L202.34,100Zm-35.71,46.75a4,4,0,1,1-1.79-5.37A4,4,0,0,1,174.29,131.45Zm8.94,4.48a4,4,0,1,1-1.79-5.37A4,4,0,0,1,183.23,135.93Z"/><path class="cls-3" d="M181.44,130.56a4,4,0,1,0,1.79,5.37A4,4,0,0,0,181.44,130.56Z"/><path class="cls-3" d="M172.5,126.08a4,4,0,1,0,1.79,5.37A4,4,0,0,0,172.5,126.08Z"/><path class="cls-2" d="M170,77.23V0H150V73.11l-18.63,43.3,18.37,7.9L168.81,80Zm-28.39,38.14a4,4,0,1,1-2.09-5.25A4,4,0,0,1,141.61,115.37Zm9.19,3.95a4,4,0,1,1-2.1-5.25A4,4,0,0,1,150.8,119.32Z"/><path class="cls-3" d="M148.7,114.07a4,4,0,1,0,2.1,5.25A4,4,0,0,0,148.7,114.07Z"/><path class="cls-3" d="M139.52,110.12a4,4,0,1,0,2.09,5.25A4,4,0,0,0,139.52,110.12Z"/><polygon class="cls-2" points="250 94.99 250 0 230 0 230 89.64 195.86 148.88 213.19 158.86 244.23 105 250 94.99"/><circle class="cls-3" cx="221.34" cy="134.71" r="4"/><circle class="cls-3" cx="226.34" cy="126.04" r="4"/><circle class="cls-3" cx="231.33" cy="117.38" r="4"/><circle class="cls-3" cx="236.32" cy="108.71" r="4"/><circle class="cls-3" cx="212.68" cy="129.71" r="4"/><circle class="cls-3" cx="217.67" cy="121.05" r="4"/><circle class="cls-3" cx="222.66" cy="112.39" r="4"/><circle class="cls-3" cx="227.66" cy="103.72" r="4"/><circle class="cls-3" cx="211.36" cy="152.04" r="4"/><circle class="cls-3" cx="202.69" cy="147.04" r="4"/><rect class="cls-2" x="317.31" y="127.64" width="10" height="80" transform="translate(555.93 445.86) rotate(-157.5)"/><circle class="cls-3" cx="308.91" cy="199.98" r="4"/><circle class="cls-3" cx="316.57" cy="181.5" r="4"/><circle class="cls-3" cx="335.7" cy="135.31" r="4"/><circle class="cls-3" cx="320.39" cy="172.26" r="4"/><circle class="cls-3" cx="324.22" cy="163.02" r="4"/><circle class="cls-3" cx="328.05" cy="153.78" r="4"/><rect class="cls-4" x="325.96" y="129.36" width="1" height="80" transform="translate(563.27 450.77) rotate(-157.5)"/><path class="cls-2" d="M130,70.3V0H110V66.93L97.43,103.12l18.89,6.56L126.63,80Zm-22.43,31.05a4,4,0,1,1-2.47-5.09A4,4,0,0,1,107.57,101.35Zm7-1.81a4,4,0,1,1-5.09,2.46A4,4,0,0,1,114.55,99.54Z"/><path class="cls-3" d="M114.55,99.54a4,4,0,1,0,2.46,5.09A4,4,0,0,0,114.55,99.54Z"/><path class="cls-3" d="M105.1,96.26a4,4,0,1,0,2.47,5.09A4,4,0,0,0,105.1,96.26Z"/><path class="cls-3" d="M76.79,86.06A4,4,0,1,0,79.61,91,4,4,0,0,0,76.79,86.06Z"/><path class="cls-3" d="M67.13,83.47A4,4,0,1,0,70,88.37,4,4,0,0,0,67.13,83.47Z"/><rect class="cls-2" width="10" height="80"/><rect class="cls-2" x="310" width="10" height="80"/><circle class="cls-3" cx="5" cy="5" r="4"/><circle class="cls-3" cx="5" cy="25" r="4"/><circle class="cls-3" cx="5" cy="75" r="4"/><circle class="cls-3" cx="5" cy="35" r="4"/><circle class="cls-3" cx="5" cy="45" r="4"/><circle class="cls-3" cx="5" cy="55" r="4"/><circle class="cls-3" cx="315" cy="5" r="4"/><circle class="cls-3" cx="315" cy="25" r="4"/><circle class="cls-3" cx="315" cy="75" r="4"/><circle class="cls-3" cx="315" cy="35" r="4"/><circle class="cls-3" cx="315" cy="45" r="4"/><circle class="cls-3" cx="315" cy="55" r="4"/><circle class="cls-3" cx="25" cy="5" r="4"/><circle class="cls-3" cx="45" cy="5" r="4"/><circle class="cls-3" cx="45" cy="85" r="4"/><circle class="cls-3" cx="35" cy="85" r="4"/><circle class="cls-3" cx="25" cy="85" r="4"/><circle class="cls-3" cx="45" cy="95" r="4"/><circle class="cls-3" cx="35" cy="95" r="4"/><circle class="cls-3" cx="25" cy="95" r="4"/><circle class="cls-3" cx="45" cy="105" r="4"/><circle class="cls-3" cx="35" cy="105" r="4"/><circle class="cls-3" cx="25" cy="105" r="4"/><circle class="cls-3" cx="45" cy="115" r="4"/><circle class="cls-3" cx="25" cy="115" r="4"/><circle class="cls-3" cx="45" cy="135" r="4"/><circle class="cls-3" cx="25" cy="135" r="4"/><circle class="cls-3" cx="75" cy="5" r="4"/><circle class="cls-3" cx="85" cy="5" r="4"/><circle class="cls-3" cx="115" cy="5" r="4"/><circle class="cls-3" cx="125" cy="5" r="4"/><circle class="cls-3" cx="155" cy="5" r="4"/><circle class="cls-3" cx="165" cy="5" r="4"/><circle class="cls-3" cx="195" cy="5" r="4"/><circle class="cls-3" cx="205" cy="5" r="4"/><rect class="cls-4" x="319" width="1" height="80"/><rect class="cls-4" width="1" height="80"/><rect class="cls-5" x="26" y="124" width="5" height="2" rx="0.5" ry="0.5"/><rect class="cls-5" x="39" y="124" width="5" height="2" rx="0.5" ry="0.5"/><rect class="cls-5" x="32.5" y="129.5" width="5" height="2" rx="0.5" ry="0.5" transform="translate(165.5 95.5) rotate(90)"/><rect class="cls-5" x="32.5" y="118.5" width="5" height="2" rx="0.5" ry="0.5" transform="translate(154.5 84.5) rotate(90)"/><path class="cls-6" d="M40,127v-4a1,1,0,0,0-1-1,.69.69,0,0,0-.25,0A2,2,0,0,0,37,121H33a2,2,0,0,0-1.75,1,.69.69,0,0,0-.25,0,1,1,0,0,0-1,1v4a1,1,0,0,0,1,1,.69.69,0,0,0,.25,0A2,2,0,0,0,33,129h4a2,2,0,0,0,1.75-1,.69.69,0,0,0,.25,0A1,1,0,0,0,40,127Z"/><path class="cls-7" d="M196.84,70H320V60H176.51A704.79,704.79,0,0,0,70.33,20H320V10H0V20H30.16a694,694,0,0,1,122.1,40H0V70H24.41a646,646,0,0,1,181.16,73.32,657.49,657.49,0,0,0,109.82,54.07l3.83-9.25c-38.51-14.57-74.84-33.69-109.45-55A656.65,656.65,0,0,0,66.45,70h107.8q25.94,12.31,50.64,26.67a608,608,0,0,0,109.65,54.49l3.83-9.25A598,598,0,0,1,228.75,87.35Q213,78.28,196.84,70Z"/><circle class="cls-3" cx="245" cy="25" r="4"/><circle class="cls-3" cx="235" cy="25" r="4"/><circle class="cls-3" cx="245" cy="5" r="4"/><circle class="cls-3" cx="235" cy="5" r="4"/><circle class="cls-3" cx="245" cy="35" r="4"/><circle class="cls-3" cx="235" cy="35" r="4"/><circle class="cls-3" cx="245" cy="45" r="4"/><circle class="cls-3" cx="235" cy="45" r="4"/><circle class="cls-3" cx="245" cy="55" r="4"/><circle class="cls-3" cx="235" cy="55" r="4"/></g></g></svg>