<svg xmlns="http://www.w3.org/2000/svg" viewBox="0 0 343 207"><defs><style>.cls-1{fill:#b3b3b3;}.cls-2{fill:#666;}.cls-3{fill:#4d4d4d;}.cls-4{fill:gray;}.cls-5{fill:#ffe21f;}.cls-6{fill:#333;}.cls-7{fill:none;}</style></defs><title>left_switch_rail</title><g id="Warstwa_2" data-name="Warstwa 2"><g id="left_switch"><path class="cls-1" d="M89,147l-9.69-36L60,116.13,65.57,137H50V67H20V207H50V197H70v10H90V150.85ZM74.71,113.21a4,4,0,1,1-2.82,4.9A4,4,0,0,1,74.71,113.21ZM62.23,120.7a4,4,0,1,1,4.9,2.83A4,4,0,0,1,62.23,120.7Z"/><rect class="cls-1" x="270" y="127" width="20" height="80"/><circle class="cls-2" cx="275" cy="182" r="4"/><circle class="cls-2" cx="275" cy="172" r="4"/><circle class="cls-2" cx="275" cy="162" r="4"/><circle class="cls-2" cx="275" cy="152" r="4"/><circle class="cls-2" cx="285" cy="182" r="4"/><circle class="cls-2" cx="285" cy="172" r="4"/><circle class="cls-2" cx="285" cy="162" r="4"/><circle class="cls-2" cx="285" cy="152" r="4"/><circle class="cls-2" cx="275" cy="132" r="4"/><circle class="cls-2" cx="285" cy="132" r="4"/><circle class="cls-2" cx="275" cy="202" r="4"/><circle class="cls-2" cx="285" cy="202" r="4"/><circle class="cls-2" cx="235" cy="182" r="4"/><circle class="cls-2" cx="235" cy="172" r="4"/><circle class="cls-2" cx="235" cy="162" r="4"/><circle class="cls-2" cx="235" cy="152" r="4"/><circle class="cls-2" cx="245" cy="182" r="4"/><circle class="cls-2" cx="245" cy="172" r="4"/><circle class="cls-2" cx="245" cy="162" r="4"/><circle class="cls-2" cx="245" cy="152" r="4"/><circle class="cls-2" cx="235" cy="202" r="4"/><circle class="cls-2" cx="245" cy="202" r="4"/><circle class="cls-2" cx="195" cy="202" r="4"/><circle class="cls-2" cx="205" cy="202" r="4"/><circle class="cls-2" cx="155" cy="202" r="4"/><circle class="cls-2" cx="165" cy="202" r="4"/><rect class="cls-1" x="281.06" y="12.01" width="20" height="80" transform="translate(576.92 -23.49) rotate(155.07)"/><circle class="cls-2" cx="289.27" cy="36.3" r="4"/><circle class="cls-2" cx="293.48" cy="45.37" r="4"/><circle class="cls-2" cx="297.7" cy="54.44" r="4"/><circle class="cls-2" cx="301.91" cy="63.51" r="4"/><circle class="cls-2" cx="280.2" cy="40.52" r="4"/><circle class="cls-2" cx="284.41" cy="49.58" r="4"/><circle class="cls-2" cx="288.63" cy="58.65" r="4"/><circle class="cls-2" cx="292.84" cy="67.72" r="4"/><circle class="cls-2" cx="310.34" cy="81.64" r="4"/><circle class="cls-2" cx="301.27" cy="85.86" r="4"/><circle class="cls-2" cx="280.84" cy="18.16" r="4"/><circle class="cls-2" cx="271.77" cy="22.38" r="4"/><rect class="cls-1" x="247.54" y="28.66" width="20" height="80" transform="translate(517.47 9.66) rotate(152.28)"/><circle class="cls-2" cx="254.99" cy="53.06" r="4"/><circle class="cls-2" cx="259.64" cy="61.91" r="4"/><circle class="cls-2" cx="264.3" cy="70.76" r="4"/><circle class="cls-2" cx="268.95" cy="79.61" r="4"/><circle class="cls-2" cx="246.14" cy="57.71" r="4"/><circle class="cls-2" cx="250.79" cy="66.56" r="4"/><circle class="cls-2" cx="255.44" cy="75.41" r="4"/><circle class="cls-2" cx="260.09" cy="84.26" r="4"/><circle class="cls-2" cx="278.25" cy="97.32" r="4"/><circle class="cls-2" cx="269.4" cy="101.97" r="4"/><circle class="cls-2" cx="245.69" cy="35.35" r="4"/><circle class="cls-2" cx="236.84" cy="40" r="4"/><path class="cls-1" d="M202.34,107,181.88,66.16l-17.88,9L190,127v80h20V122.3ZM172.5,80.92a4,4,0,1,1,1.79-5.37A4,4,0,0,1,172.5,80.92Zm8.94-4.48a4,4,0,1,1,1.79-5.37A4,4,0,0,1,181.44,76.44Z"/><path class="cls-2" d="M181.44,76.44a4,4,0,1,1,1.79-5.37A4,4,0,0,1,181.44,76.44Z"/><path class="cls-2" d="M172.5,80.92a4,4,0,1,1,1.79-5.37A4,4,0,0,1,172.5,80.92Z"/><path class="cls-1" d="M168.81,127,149.74,82.69l-18.37,7.9L150,133.89V207h20V129.77ZM139.52,96.88a4,4,0,1,1,2.09-5.25A4,4,0,0,1,139.52,96.88Zm9.18-3.95a4,4,0,1,1,2.1-5.25A4,4,0,0,1,148.7,92.93Z"/><path class="cls-2" d="M148.7,92.93a4,4,0,1,1,2.1-5.25A4,4,0,0,1,148.7,92.93Z"/><path class="cls-2" d="M139.52,96.88a4,4,0,1,1,2.09-5.25A4,4,0,0,1,139.52,96.88Z"/><polygon class="cls-1" points="250 112.01 250 207 230 207 230 117.36 195.86 58.12 213.19 48.14 244.23 102 250 112.01"/><circle class="cls-2" cx="221.34" cy="72.29" r="4"/><circle class="cls-2" cx="226.34" cy="80.96" r="4"/><circle class="cls-2" cx="231.33" cy="89.62" r="4"/><circle class="cls-2" cx="236.32" cy="98.29" r="4"/><circle class="cls-2" cx="212.68" cy="77.29" r="4"/><circle class="cls-2" cx="217.67" cy="85.95" r="4"/><circle class="cls-2" cx="222.66" cy="94.61" r="4"/><circle class="cls-2" cx="227.66" cy="103.28" r="4"/><circle class="cls-2" cx="211.36" cy="54.96" r="4"/><circle class="cls-2" cx="202.69" cy="59.96" r="4"/><rect class="cls-1" x="317.31" y="-0.64" width="10" height="80" transform="translate(635.14 -47.62) rotate(157.5)"/><circle class="cls-2" cx="308.91" cy="7.02" r="4"/><circle class="cls-2" cx="316.57" cy="25.5" r="4"/><circle class="cls-2" cx="335.7" cy="71.69" r="4"/><circle class="cls-2" cx="320.39" cy="34.74" r="4"/><circle class="cls-2" cx="324.22" cy="43.98" r="4"/><circle class="cls-2" cx="328.05" cy="53.22" r="4"/><rect class="cls-3" x="325.96" y="-2.36" width="1" height="80" transform="translate(642.48 -52.52) rotate(157.5)"/><path class="cls-1" d="M126.63,127,116.32,97.32l-18.89,6.56L110,140.07V207h20V136.7ZM105.1,110.74a4,4,0,1,1,2.47-5.09A4,4,0,0,1,105.1,110.74Zm4.36-5.74a4,4,0,1,1,5.09,2.46A4,4,0,0,1,109.46,105Z"/><path class="cls-2" d="M114.55,107.46a4,4,0,1,1,2.46-5.09A4,4,0,0,1,114.55,107.46Z"/><path class="cls-2" d="M105.1,110.74a4,4,0,1,1,2.47-5.09A4,4,0,0,1,105.1,110.74Z"/><path class="cls-2" d="M76.79,120.94A4,4,0,1,1,79.61,116,4,4,0,0,1,76.79,120.94Z"/><path class="cls-2" d="M67.13,123.53a4,4,0,1,1,2.83-4.9A4,4,0,0,1,67.13,123.53Z"/><rect class="cls-1" y="127" width="10" height="80"/><rect class="cls-1" x="310" y="127" width="10" height="80"/><circle class="cls-2" cx="5" cy="202" r="4"/><circle class="cls-2" cx="5" cy="182" r="4"/><circle class="cls-2" cx="5" cy="132" r="4"/><circle class="cls-2" cx="5" cy="172" r="4"/><circle class="cls-2" cx="5" cy="162" r="4"/><circle class="cls-2" cx="5" cy="152" r="4"/><circle class="cls-2" cx="315" cy="202" r="4"/><circle class="cls-2" cx="315" cy="182" r="4"/><circle class="cls-2" cx="315" cy="132" r="4"/><circle class="cls-2" cx="315" cy="172" r="4"/><circle class="cls-2" cx="315" cy="162" r="4"/><circle class="cls-2" cx="315" cy="152" r="4"/><circle class="cls-2" cx="25" cy="202" r="4"/><circle class="cls-2" cx="45" cy="202" r="4"/><circle class="cls-2" cx="45" cy="122" r="4"/><circle class="cls-2" cx="35" cy="122" r="4"/><circle class="cls-2" cx="25" cy="122" r="4"/><circle class="cls-2" cx="45" cy="112" r="4"/><circle class="cls-2" cx="35" cy="112" r="4"/><circle class="cls-2" cx="25" cy="112" r="4"/><circle class="cls-2" cx="45" cy="102" r="4"/><circle class="cls-2" cx="35" cy="102" r="4"/><circle class="cls-2" cx="25" cy="102" r="4"/><circle class="cls-2" cx="45" cy="92" r="4"/><circle class="cls-2" cx="25" cy="92" r="4"/><circle class="cls-2" cx="45" cy="72" r="4"/><circle class="cls-2" cx="25" cy="72" r="4"/><circle class="cls-2" cx="75" cy="202" r="4"/><circle class="cls-2" cx="85" cy="202" r="4"/><circle class="cls-2" cx="115" cy="202" r="4"/><circle class="cls-2" cx="125" cy="202" r="4"/><circle class="cls-2" cx="155" cy="202" r="4"/><circle class="cls-2" cx="165" cy="202" r="4"/><circle class="cls-2" cx="195" cy="202" r="4"/><circle class="cls-2" cx="205" cy="202" r="4"/><rect class="cls-3" x="319" y="127" width="1" height="80"/><rect class="cls-3" y="127" width="1" height="80"/><rect class="cls-4" x="26" y="81" width="5" height="2" rx="0.5" ry="0.5"/><rect class="cls-4" x="39" y="81" width="5" height="2" rx="0.5" ry="0.5"/><rect class="cls-4" x="32.5" y="75.5" width="5" height="2" rx="0.5" ry="0.5" transform="translate(-41.5 111.5) rotate(-90)"/><rect class="cls-4" x="32.5" y="86.5" width="5" height="2" rx="0.5" ry="0.5" transform="translate(-52.5 122.5) rotate(-90)"/><path class="cls-5" d="M40,80v4a1,1,0,0,1-1,1,.69.69,0,0,1-.25,0A2,2,0,0,1,37,86H33a2,2,0,0,1-1.75-1A.69.69,0,0,1,31,85a1,1,0,0,1-1-1V80a1,1,0,0,1,1-1,.69.69,0,0,1,.25,0A2,2,0,0,1,33,78h4a2,2,0,0,1,1.75,1A.69.69,0,0,1,39,79,1,1,0,0,1,40,80Z"/><path class="cls-6" d="M196.84,137H320v10H176.51A704.79,704.79,0,0,1,70.33,187H320v10H0V187H30.16a694,694,0,0,0,122.1-40H0V137H24.41A646,646,0,0,0,205.57,63.68,657.49,657.49,0,0,1,315.39,9.61l3.83,9.25c-38.51,14.57-74.84,33.69-109.45,55A656.65,656.65,0,0,1,66.45,137h107.8q25.94-12.32,50.64-26.67A608,608,0,0,1,334.54,55.84l3.83,9.25a598,598,0,0,0-109.62,54.56Q213,128.73,196.84,137Z"/><circle class="cls-2" cx="245" cy="182" r="4"/><circle class="cls-2" cx="235" cy="182" r="4"/><circle class="cls-2" cx="245" cy="202" r="4"/><circle class="cls-2" cx="235" cy="202" r="4"/><circle class="cls-2" cx="245" cy="172" r="4"/><circle class="cls-2" cx="235" cy="172" r="4"/><circle class="cls-2" cx="245" cy="162" r="4"/><circle class="cls-2" cx="235" cy="162" r="4"/><circle class="cls-2" cx="245" cy="152" r="4"/><circle class="cls-2" cx="235" cy="152" r="4"/><rect class="cls-7" width="343" height="207"/></g></g></svg>